G04 #@! TF.GenerationSoftware,KiCad,Pcbnew,9.0.3*
G04 #@! TF.CreationDate,2026-01-03T08:49:13-08:00*
G04 #@! TF.ProjectId,ir-remote,69722d72-656d-46f7-9465-2e6b69636164,rev?*
G04 #@! TF.SameCoordinates,Original*
G04 #@! TF.FileFunction,Legend,Bot*
G04 #@! TF.FilePolarity,Positive*
%FSLAX46Y46*%
G04 Gerber Fmt 4.6, Leading zero omitted, Abs format (unit mm)*
G04 Created by KiCad (PCBNEW 9.0.3) date 2026-01-03 08:49:13*
%MOMM*%
%LPD*%
G01*
G04 APERTURE LIST*
G04 Aperture macros list*
%AMRoundRect*
0 Rectangle with rounded corners*
0 $1 Rounding radius*
0 $2 $3 $4 $5 $6 $7 $8 $9 X,Y pos of 4 corners*
0 Add a 4 corners polygon primitive as box body*
4,1,4,$2,$3,$4,$5,$6,$7,$8,$9,$2,$3,0*
0 Add four circle primitives for the rounded corners*
1,1,$1+$1,$2,$3*
1,1,$1+$1,$4,$5*
1,1,$1+$1,$6,$7*
1,1,$1+$1,$8,$9*
0 Add four rect primitives between the rounded corners*
20,1,$1+$1,$2,$3,$4,$5,0*
20,1,$1+$1,$4,$5,$6,$7,0*
20,1,$1+$1,$6,$7,$8,$9,0*
20,1,$1+$1,$8,$9,$2,$3,0*%
G04 Aperture macros list end*
%ADD10C,0.150000*%
%ADD11C,0.120000*%
%ADD12C,1.451000*%
%ADD13C,1.651000*%
%ADD14C,3.000000*%
%ADD15R,1.700000X1.700000*%
%ADD16O,1.700000X1.700000*%
%ADD17O,1.727200X2.032000*%
%ADD18O,1.152400X2.352400*%
%ADD19O,1.152400X1.952400*%
%ADD20C,2.700000*%
%ADD21RoundRect,0.250200X-0.649800X-0.649800X0.649800X-0.649800X0.649800X0.649800X-0.649800X0.649800X0*%
%ADD22C,1.800000*%
%ADD23O,3.000000X4.000000*%
%ADD24C,2.500000*%
G04 APERTURE END LIST*
D10*
X71142856Y38505181D02*
X71142856Y39505181D01*
X71142856Y39505181D02*
X70761904Y39505181D01*
X70761904Y39505181D02*
X70666666Y39457562D01*
X70666666Y39457562D02*
X70619047Y39409943D01*
X70619047Y39409943D02*
X70571428Y39314705D01*
X70571428Y39314705D02*
X70571428Y39171848D01*
X70571428Y39171848D02*
X70619047Y39076610D01*
X70619047Y39076610D02*
X70666666Y39028991D01*
X70666666Y39028991D02*
X70761904Y38981372D01*
X70761904Y38981372D02*
X71142856Y38981372D01*
X69952380Y39505181D02*
X69761904Y39505181D01*
X69761904Y39505181D02*
X69666666Y39457562D01*
X69666666Y39457562D02*
X69571428Y39362324D01*
X69571428Y39362324D02*
X69523809Y39171848D01*
X69523809Y39171848D02*
X69523809Y38838515D01*
X69523809Y38838515D02*
X69571428Y38648039D01*
X69571428Y38648039D02*
X69666666Y38552800D01*
X69666666Y38552800D02*
X69761904Y38505181D01*
X69761904Y38505181D02*
X69952380Y38505181D01*
X69952380Y38505181D02*
X70047618Y38552800D01*
X70047618Y38552800D02*
X70142856Y38648039D01*
X70142856Y38648039D02*
X70190475Y38838515D01*
X70190475Y38838515D02*
X70190475Y39171848D01*
X70190475Y39171848D02*
X70142856Y39362324D01*
X70142856Y39362324D02*
X70047618Y39457562D01*
X70047618Y39457562D02*
X69952380Y39505181D01*
X69238094Y39505181D02*
X68666666Y39505181D01*
X68952380Y38505181D02*
X68952380Y39505181D01*
X67809523Y38505181D02*
X68380951Y38505181D01*
X68095237Y38505181D02*
X68095237Y39505181D01*
X68095237Y39505181D02*
X68190475Y39362324D01*
X68190475Y39362324D02*
X68285713Y39267086D01*
X68285713Y39267086D02*
X68380951Y39219467D01*
X129241904Y50775181D02*
X129241904Y49965658D01*
X129241904Y49965658D02*
X129194285Y49870420D01*
X129194285Y49870420D02*
X129146666Y49822800D01*
X129146666Y49822800D02*
X129051428Y49775181D01*
X129051428Y49775181D02*
X128860952Y49775181D01*
X128860952Y49775181D02*
X128765714Y49822800D01*
X128765714Y49822800D02*
X128718095Y49870420D01*
X128718095Y49870420D02*
X128670476Y49965658D01*
X128670476Y49965658D02*
X128670476Y50775181D01*
X128241904Y50679943D02*
X128194285Y50727562D01*
X128194285Y50727562D02*
X128099047Y50775181D01*
X128099047Y50775181D02*
X127860952Y50775181D01*
X127860952Y50775181D02*
X127765714Y50727562D01*
X127765714Y50727562D02*
X127718095Y50679943D01*
X127718095Y50679943D02*
X127670476Y50584705D01*
X127670476Y50584705D02*
X127670476Y50489467D01*
X127670476Y50489467D02*
X127718095Y50346610D01*
X127718095Y50346610D02*
X128289523Y49775181D01*
X128289523Y49775181D02*
X127670476Y49775181D01*
X104013333Y1835181D02*
X104013333Y1120896D01*
X104013333Y1120896D02*
X104060952Y978039D01*
X104060952Y978039D02*
X104156190Y882800D01*
X104156190Y882800D02*
X104299047Y835181D01*
X104299047Y835181D02*
X104394285Y835181D01*
X103632380Y1835181D02*
X102965714Y1835181D01*
X102965714Y1835181D02*
X103394285Y835181D01*
X58263333Y1895181D02*
X58263333Y1180896D01*
X58263333Y1180896D02*
X58310952Y1038039D01*
X58310952Y1038039D02*
X58406190Y942800D01*
X58406190Y942800D02*
X58549047Y895181D01*
X58549047Y895181D02*
X58644285Y895181D01*
X57310952Y1895181D02*
X57787142Y1895181D01*
X57787142Y1895181D02*
X57834761Y1418991D01*
X57834761Y1418991D02*
X57787142Y1466610D01*
X57787142Y1466610D02*
X57691904Y1514229D01*
X57691904Y1514229D02*
X57453809Y1514229D01*
X57453809Y1514229D02*
X57358571Y1466610D01*
X57358571Y1466610D02*
X57310952Y1418991D01*
X57310952Y1418991D02*
X57263333Y1323753D01*
X57263333Y1323753D02*
X57263333Y1085658D01*
X57263333Y1085658D02*
X57310952Y990420D01*
X57310952Y990420D02*
X57358571Y942800D01*
X57358571Y942800D02*
X57453809Y895181D01*
X57453809Y895181D02*
X57691904Y895181D01*
X57691904Y895181D02*
X57787142Y942800D01*
X57787142Y942800D02*
X57834761Y990420D01*
G04 #@! TO.C,POT1*
D11*
X21065000Y53490000D02*
X7240000Y53490000D01*
X7240000Y18490000D01*
X21065000Y18490000D01*
X21065000Y53490000D01*
X119240000Y53490000D02*
X20940000Y53490000D01*
X20940000Y29690000D01*
X119240000Y29690000D01*
X119240000Y53490000D01*
X34240000Y53490000D02*
X34264000Y53490000D01*
X34744000Y53490000D02*
X34768000Y53490000D01*
X35248000Y53490000D02*
X35272000Y53490000D01*
X35752000Y53490000D02*
X35776000Y53490000D01*
X36256000Y53490000D02*
X36280000Y53490000D01*
X36760000Y53490000D02*
X36784000Y53490000D01*
X37264000Y53490000D02*
X37288000Y53490000D01*
X37768000Y53490000D02*
X37792000Y53490000D01*
X38272000Y53490000D02*
X38296000Y53490000D01*
X38776000Y53490000D02*
X38800000Y53490000D01*
X39280000Y53490000D02*
X39304000Y53490000D01*
X39784000Y53490000D02*
X39808000Y53490000D01*
X40288000Y53490000D02*
X40312000Y53490000D01*
X40792000Y53490000D02*
X40816000Y53490000D01*
X41296000Y53490000D02*
X41320000Y53490000D01*
X41800000Y53490000D02*
X41824000Y53490000D01*
X42240000Y53490000D02*
X42240000Y53514000D01*
X42240000Y53994000D02*
X42240000Y54018000D01*
X42240000Y54498000D02*
X42240000Y54522000D01*
X42240000Y55002000D02*
X42240000Y55026000D01*
X42240000Y55506000D02*
X42240000Y55530000D01*
X42240000Y56010000D02*
X42240000Y56034000D01*
X42240000Y56514000D02*
X42240000Y56538000D01*
X42240000Y57018000D02*
X42240000Y57042000D01*
X42240000Y57522000D02*
X42240000Y57546000D01*
X42240000Y57690000D02*
X42264000Y57690000D01*
X42744000Y57690000D02*
X42768000Y57690000D01*
X43248000Y57690000D02*
X43272000Y57690000D01*
X43752000Y57690000D02*
X43776000Y57690000D01*
X44256000Y57690000D02*
X44280000Y57690000D01*
X44760000Y57690000D02*
X44784000Y57690000D01*
X45264000Y57690000D02*
X45288000Y57690000D01*
X45768000Y57690000D02*
X45792000Y57690000D01*
X46272000Y57690000D02*
X46296000Y57690000D01*
X46776000Y57690000D02*
X46800000Y57690000D01*
X47280000Y57690000D02*
X47304000Y57690000D01*
X47490000Y57690000D02*
X47490000Y57714000D01*
X47490000Y58194000D02*
X47490000Y58218000D01*
X47490000Y58698000D02*
X47490000Y58722000D01*
X47490000Y59202000D02*
X47490000Y59226000D01*
X47490000Y59706000D02*
X47490000Y59730000D01*
X47490000Y60210000D02*
X47490000Y60234000D01*
X47490000Y60714000D02*
X47490000Y60738000D01*
X47490000Y61218000D02*
X47490000Y61242000D01*
X47490000Y61690000D02*
X47466000Y61690000D01*
X46986000Y61690000D02*
X46962000Y61690000D01*
X46482000Y61690000D02*
X46458000Y61690000D01*
X45978000Y61690000D02*
X45954000Y61690000D01*
X45474000Y61690000D02*
X45450000Y61690000D01*
X44970000Y61690000D02*
X44946000Y61690000D01*
X44466000Y61690000D02*
X44442000Y61690000D01*
X43962000Y61690000D02*
X43938000Y61690000D01*
X43458000Y61690000D02*
X43434000Y61690000D01*
X42954000Y61690000D02*
X42930000Y61690000D01*
X42450000Y61690000D02*
X42426000Y61690000D01*
X41946000Y61690000D02*
X41922000Y61690000D01*
X41442000Y61690000D02*
X41418000Y61690000D01*
X40938000Y61690000D02*
X40914000Y61690000D01*
X40434000Y61690000D02*
X40410000Y61690000D01*
X39930000Y61690000D02*
X39906000Y61690000D01*
X39426000Y61690000D02*
X39402000Y61690000D01*
X38922000Y61690000D02*
X38898000Y61690000D01*
X38418000Y61690000D02*
X38394000Y61690000D01*
X37914000Y61690000D02*
X37890000Y61690000D01*
X37410000Y61690000D02*
X37386000Y61690000D01*
X36906000Y61690000D02*
X36882000Y61690000D01*
X36402000Y61690000D02*
X36378000Y61690000D01*
X35898000Y61690000D02*
X35874000Y61690000D01*
X35394000Y61690000D02*
X35370000Y61690000D01*
X34890000Y61690000D02*
X34866000Y61690000D01*
X34386000Y61690000D02*
X34362000Y61690000D01*
X33882000Y61690000D02*
X33858000Y61690000D01*
X33378000Y61690000D02*
X33354000Y61690000D01*
X32874000Y61690000D02*
X32850000Y61690000D01*
X32370000Y61690000D02*
X32346000Y61690000D01*
X31866000Y61690000D02*
X31842000Y61690000D01*
X31362000Y61690000D02*
X31338000Y61690000D01*
X30858000Y61690000D02*
X30834000Y61690000D01*
X30354000Y61690000D02*
X30330000Y61690000D01*
X29850000Y61690000D02*
X29826000Y61690000D01*
X29346000Y61690000D02*
X29322000Y61690000D01*
X28990000Y61690000D02*
X28990000Y61666000D01*
X28990000Y61186000D02*
X28990000Y61162000D01*
X28990000Y60682000D02*
X28990000Y60658000D01*
X28990000Y60178000D02*
X28990000Y60154000D01*
X28990000Y59674000D02*
X28990000Y59650000D01*
X28990000Y59170000D02*
X28990000Y59146000D01*
X28990000Y58666000D02*
X28990000Y58642000D01*
X28990000Y58162000D02*
X28990000Y58138000D01*
X28990000Y57690000D02*
X29014000Y57690000D01*
X29494000Y57690000D02*
X29518000Y57690000D01*
X29998000Y57690000D02*
X30022000Y57690000D01*
X30502000Y57690000D02*
X30526000Y57690000D01*
X31006000Y57690000D02*
X31030000Y57690000D01*
X31510000Y57690000D02*
X31534000Y57690000D01*
X32014000Y57690000D02*
X32038000Y57690000D01*
X32518000Y57690000D02*
X32542000Y57690000D01*
X33022000Y57690000D02*
X33046000Y57690000D01*
X33526000Y57690000D02*
X33550000Y57690000D01*
X34030000Y57690000D02*
X34054000Y57690000D01*
X34240000Y57690000D02*
X34240000Y57666000D01*
X34240000Y57186000D02*
X34240000Y57162000D01*
X34240000Y56682000D02*
X34240000Y56658000D01*
X34240000Y56178000D02*
X34240000Y56154000D01*
X34240000Y55674000D02*
X34240000Y55650000D01*
X34240000Y55170000D02*
X34240000Y55146000D01*
X34240000Y54666000D02*
X34240000Y54642000D01*
X34240000Y54162000D02*
X34240000Y54138000D01*
X34240000Y53658000D02*
X34240000Y53634000D01*
X94240000Y53490000D02*
X94264000Y53490000D01*
X94744000Y53490000D02*
X94768000Y53490000D01*
X95248000Y53490000D02*
X95272000Y53490000D01*
X95752000Y53490000D02*
X95776000Y53490000D01*
X96256000Y53490000D02*
X96280000Y53490000D01*
X96760000Y53490000D02*
X96784000Y53490000D01*
X97264000Y53490000D02*
X97288000Y53490000D01*
X97768000Y53490000D02*
X97792000Y53490000D01*
X98272000Y53490000D02*
X98296000Y53490000D01*
X98776000Y53490000D02*
X98800000Y53490000D01*
X99280000Y53490000D02*
X99304000Y53490000D01*
X99784000Y53490000D02*
X99808000Y53490000D01*
X100288000Y53490000D02*
X100312000Y53490000D01*
X100792000Y53490000D02*
X100816000Y53490000D01*
X101296000Y53490000D02*
X101320000Y53490000D01*
X101800000Y53490000D02*
X101824000Y53490000D01*
X102240000Y53490000D02*
X102240000Y53514000D01*
X102240000Y53994000D02*
X102240000Y54018000D01*
X102240000Y54498000D02*
X102240000Y54522000D01*
X102240000Y55002000D02*
X102240000Y55026000D01*
X102240000Y55506000D02*
X102240000Y55530000D01*
X102240000Y56010000D02*
X102240000Y56034000D01*
X102240000Y56514000D02*
X102240000Y56538000D01*
X102240000Y57018000D02*
X102240000Y57042000D01*
X102240000Y57522000D02*
X102240000Y57546000D01*
X102240000Y57690000D02*
X102264000Y57690000D01*
X102744000Y57690000D02*
X102768000Y57690000D01*
X103248000Y57690000D02*
X103272000Y57690000D01*
X103752000Y57690000D02*
X103776000Y57690000D01*
X104256000Y57690000D02*
X104280000Y57690000D01*
X104760000Y57690000D02*
X104784000Y57690000D01*
X105264000Y57690000D02*
X105288000Y57690000D01*
X105768000Y57690000D02*
X105792000Y57690000D01*
X106272000Y57690000D02*
X106296000Y57690000D01*
X106776000Y57690000D02*
X106800000Y57690000D01*
X107280000Y57690000D02*
X107304000Y57690000D01*
X107490000Y57690000D02*
X107490000Y57714000D01*
X107490000Y58194000D02*
X107490000Y58218000D01*
X107490000Y58698000D02*
X107490000Y58722000D01*
X107490000Y59202000D02*
X107490000Y59226000D01*
X107490000Y59706000D02*
X107490000Y59730000D01*
X107490000Y60210000D02*
X107490000Y60234000D01*
X107490000Y60714000D02*
X107490000Y60738000D01*
X107490000Y61218000D02*
X107490000Y61242000D01*
X107490000Y61690000D02*
X107466000Y61690000D01*
X106986000Y61690000D02*
X106962000Y61690000D01*
X106482000Y61690000D02*
X106458000Y61690000D01*
X105978000Y61690000D02*
X105954000Y61690000D01*
X105474000Y61690000D02*
X105450000Y61690000D01*
X104970000Y61690000D02*
X104946000Y61690000D01*
X104466000Y61690000D02*
X104442000Y61690000D01*
X103962000Y61690000D02*
X103938000Y61690000D01*
X103458000Y61690000D02*
X103434000Y61690000D01*
X102954000Y61690000D02*
X102930000Y61690000D01*
X102450000Y61690000D02*
X102426000Y61690000D01*
X101946000Y61690000D02*
X101922000Y61690000D01*
X101442000Y61690000D02*
X101418000Y61690000D01*
X100938000Y61690000D02*
X100914000Y61690000D01*
X100434000Y61690000D02*
X100410000Y61690000D01*
X99930000Y61690000D02*
X99906000Y61690000D01*
X99426000Y61690000D02*
X99402000Y61690000D01*
X98922000Y61690000D02*
X98898000Y61690000D01*
X98418000Y61690000D02*
X98394000Y61690000D01*
X97914000Y61690000D02*
X97890000Y61690000D01*
X97410000Y61690000D02*
X97386000Y61690000D01*
X96906000Y61690000D02*
X96882000Y61690000D01*
X96402000Y61690000D02*
X96378000Y61690000D01*
X95898000Y61690000D02*
X95874000Y61690000D01*
X95394000Y61690000D02*
X95370000Y61690000D01*
X94890000Y61690000D02*
X94866000Y61690000D01*
X94386000Y61690000D02*
X94362000Y61690000D01*
X93882000Y61690000D02*
X93858000Y61690000D01*
X93378000Y61690000D02*
X93354000Y61690000D01*
X92874000Y61690000D02*
X92850000Y61690000D01*
X92370000Y61690000D02*
X92346000Y61690000D01*
X91866000Y61690000D02*
X91842000Y61690000D01*
X91362000Y61690000D02*
X91338000Y61690000D01*
X90858000Y61690000D02*
X90834000Y61690000D01*
X90354000Y61690000D02*
X90330000Y61690000D01*
X89850000Y61690000D02*
X89826000Y61690000D01*
X89346000Y61690000D02*
X89322000Y61690000D01*
X88990000Y61690000D02*
X88990000Y61666000D01*
X88990000Y61186000D02*
X88990000Y61162000D01*
X88990000Y60682000D02*
X88990000Y60658000D01*
X88990000Y60178000D02*
X88990000Y60154000D01*
X88990000Y59674000D02*
X88990000Y59650000D01*
X88990000Y59170000D02*
X88990000Y59146000D01*
X88990000Y58666000D02*
X88990000Y58642000D01*
X88990000Y58162000D02*
X88990000Y58138000D01*
X88990000Y57690000D02*
X89014000Y57690000D01*
X89494000Y57690000D02*
X89518000Y57690000D01*
X89998000Y57690000D02*
X90022000Y57690000D01*
X90502000Y57690000D02*
X90526000Y57690000D01*
X91006000Y57690000D02*
X91030000Y57690000D01*
X91510000Y57690000D02*
X91534000Y57690000D01*
X92014000Y57690000D02*
X92038000Y57690000D01*
X92518000Y57690000D02*
X92542000Y57690000D01*
X93022000Y57690000D02*
X93046000Y57690000D01*
X93526000Y57690000D02*
X93550000Y57690000D01*
X94030000Y57690000D02*
X94054000Y57690000D01*
X94240000Y57690000D02*
X94240000Y57666000D01*
X94240000Y57186000D02*
X94240000Y57162000D01*
X94240000Y56682000D02*
X94240000Y56658000D01*
X94240000Y56178000D02*
X94240000Y56154000D01*
X94240000Y55674000D02*
X94240000Y55650000D01*
X94240000Y55170000D02*
X94240000Y55146000D01*
X94240000Y54666000D02*
X94240000Y54642000D01*
X94240000Y54162000D02*
X94240000Y54138000D01*
X94240000Y53658000D02*
X94240000Y53634000D01*
G04 #@! TO.C,U2*
X126230000Y51780000D02*
X121140000Y51780000D01*
X126230000Y51440000D02*
X126230000Y51780000D01*
X126230000Y49120000D02*
X126230000Y48770000D01*
X126230000Y48770000D02*
X123630000Y48770000D01*
G04 #@! TO.C,J7*
X89240000Y13160000D02*
X99140000Y13160000D01*
X89240000Y10710000D02*
X89240000Y13160000D01*
X89240000Y160000D02*
X89240000Y7210000D01*
X101840000Y13160000D02*
X113190000Y13160000D01*
X115790000Y13160000D02*
X117740000Y13160000D01*
X117740000Y13160000D02*
X117740000Y10860000D01*
X117740000Y6960000D02*
X117740000Y160000D01*
X117740000Y160000D02*
X89240000Y160000D01*
G04 #@! TO.C,J5*
X43590000Y13160000D02*
X53490000Y13160000D01*
X43590000Y10710000D02*
X43590000Y13160000D01*
X43590000Y160000D02*
X43590000Y7210000D01*
X56190000Y13160000D02*
X67540000Y13160000D01*
X70140000Y13160000D02*
X72090000Y13160000D01*
X72090000Y13160000D02*
X72090000Y10860000D01*
X72090000Y6960000D02*
X72090000Y160000D01*
X72090000Y160000D02*
X43590000Y160000D01*
G04 #@! TD*
%LPC*%
D12*
G04 #@! TO.C,TP8*
X75400000Y7510000D03*
G04 #@! TD*
G04 #@! TO.C,TP4*
X70330000Y23150000D03*
G04 #@! TD*
G04 #@! TO.C,TP12*
X76450000Y27700000D03*
G04 #@! TD*
D13*
G04 #@! TO.C,J1*
X97470000Y19640000D03*
X100010000Y19640000D03*
G04 #@! TD*
D14*
G04 #@! TO.C,H3*
X123860000Y4000000D03*
G04 #@! TD*
D15*
G04 #@! TO.C,J12*
X63870000Y26955000D03*
D16*
X61330000Y26955000D03*
X58790000Y26955000D03*
X56250000Y26955000D03*
G04 #@! TD*
D14*
G04 #@! TO.C,H4*
X4000000Y4000000D03*
G04 #@! TD*
D12*
G04 #@! TO.C,TP13*
X71370000Y27700000D03*
G04 #@! TD*
G04 #@! TO.C,TP2*
X90700000Y15340000D03*
G04 #@! TD*
D17*
G04 #@! TO.C,J6*
X82020000Y1920000D03*
X84560000Y1920000D03*
X87100000Y1920000D03*
G04 #@! TD*
D12*
G04 #@! TO.C,TP7*
X77940000Y4970000D03*
G04 #@! TD*
D18*
G04 #@! TO.C,J4*
X25370000Y1975000D03*
X34010000Y1975000D03*
D19*
X25370000Y5975000D03*
X34010000Y5975000D03*
G04 #@! TD*
D12*
G04 #@! TO.C,TP1*
X104850000Y15790000D03*
G04 #@! TD*
G04 #@! TO.C,TP5*
X75400000Y2430000D03*
G04 #@! TD*
D13*
G04 #@! TO.C,J2*
X97470000Y22890000D03*
X100010000Y22890000D03*
G04 #@! TD*
D12*
G04 #@! TO.C,TP6*
X77940000Y2430000D03*
G04 #@! TD*
G04 #@! TO.C,TP11*
X84620000Y28320000D03*
G04 #@! TD*
G04 #@! TO.C,TP3*
X59990000Y22340000D03*
G04 #@! TD*
D13*
G04 #@! TO.C,J8*
X22430000Y9120000D03*
X22430000Y6580000D03*
G04 #@! TD*
D14*
G04 #@! TO.C,H2*
X123860000Y43820000D03*
G04 #@! TD*
D12*
G04 #@! TO.C,TP14*
X75400000Y4970000D03*
G04 #@! TD*
D14*
G04 #@! TO.C,H1*
X4000000Y49480000D03*
G04 #@! TD*
D20*
G04 #@! TO.C,POT1*
X24490000Y39565000D03*
X24490000Y35815000D03*
X24490000Y43315000D03*
X24490000Y32065000D03*
X111990000Y43315000D03*
X111990000Y32065000D03*
X20240000Y16690000D03*
X7840000Y16690000D03*
D14*
X94090000Y37690000D03*
X42390000Y37690000D03*
D20*
X111990000Y39565000D03*
G04 #@! TD*
D21*
G04 #@! TO.C,U2*
X121090000Y50280000D03*
D22*
X123630000Y50280000D03*
X126170000Y50280000D03*
G04 #@! TD*
D23*
G04 #@! TO.C,J7*
X116690000Y8910000D03*
D14*
X114490000Y5310000D03*
X100490000Y5310000D03*
D23*
X90790000Y8910000D03*
D24*
X114490000Y12660000D03*
X100490000Y12660000D03*
G04 #@! TD*
D23*
G04 #@! TO.C,J5*
X71040000Y8910000D03*
D14*
X68840000Y5310000D03*
X54840000Y5310000D03*
D23*
X45140000Y8910000D03*
D24*
X68840000Y12660000D03*
X54840000Y12660000D03*
G04 #@! TD*
%LPD*%
M02*
