%TF.GenerationSoftware,KiCad,Pcbnew,9.0.3*%
%TF.CreationDate,2026-01-03T08:49:13-08:00*%
%TF.ProjectId,ir-remote,69722d72-656d-46f7-9465-2e6b69636164,rev?*%
%TF.SameCoordinates,Original*%
%TF.FileFunction,Drillmap*%
%TF.FilePolarity,Positive*%
%FSLAX45Y45*%
G04 Gerber Fmt 4.5, Leading zero omitted, Abs format (unit mm)*
G04 Created by KiCad (PCBNEW 9.0.3) date 2026-01-03 08:49:13*
%MOMM*%
%LPD*%
G01*
G04 APERTURE LIST*
%ADD10C,0.050000*%
%ADD11C,0.200000*%
%ADD12C,0.100000*%
%ADD13C,0.101600*%
%ADD14C,0.130000*%
%ADD15C,0.150000*%
%ADD16C,0.170000*%
%ADD17C,0.180000*%
%ADD18C,0.220000*%
G04 APERTURE END LIST*
D10*
X12733000Y0D02*
X33000Y0D01*
X33000Y5348000D02*
X12733000Y5348000D01*
X33000Y0D02*
X33000Y5348000D01*
X12733000Y5348000D02*
X12733000Y0D01*
D11*
D12*
X2943000Y1061000D02*
X2973000Y1031000D01*
X2973000Y1061000D02*
X2943000Y1031000D01*
X2956250Y475500D02*
X2986250Y445500D01*
X2986250Y475500D02*
X2956250Y445500D01*
X2982000Y822000D02*
X3012000Y792000D01*
X3012000Y822000D02*
X2982000Y792000D01*
X3194000Y816000D02*
X3224000Y786000D01*
X3224000Y816000D02*
X3194000Y786000D01*
X3271000Y852000D02*
X3301000Y822000D01*
X3301000Y852000D02*
X3271000Y822000D01*
X3342250Y3776750D02*
X3372250Y3746750D01*
X3372250Y3776750D02*
X3342250Y3746750D01*
X3388000Y3261000D02*
X3418000Y3231000D01*
X3418000Y3261000D02*
X3388000Y3231000D01*
X3400000Y785000D02*
X3430000Y755000D01*
X3430000Y785000D02*
X3400000Y755000D01*
X3480000Y3129000D02*
X3510000Y3099000D01*
X3510000Y3129000D02*
X3480000Y3099000D01*
X3550500Y3746000D02*
X3580500Y3716000D01*
X3580500Y3746000D02*
X3550500Y3716000D01*
X3757000Y3623000D02*
X3787000Y3593000D01*
X3787000Y3623000D02*
X3757000Y3593000D01*
X3863250Y3824750D02*
X3893250Y3794750D01*
X3893250Y3824750D02*
X3863250Y3794750D01*
X3871000Y3651000D02*
X3901000Y3621000D01*
X3901000Y3651000D02*
X3871000Y3621000D01*
X4437000Y3999000D02*
X4467000Y3969000D01*
X4467000Y3999000D02*
X4437000Y3969000D01*
X4723000Y3361000D02*
X4753000Y3331000D01*
X4753000Y3361000D02*
X4723000Y3331000D01*
X4858000Y4490000D02*
X4888000Y4460000D01*
X4888000Y4490000D02*
X4858000Y4460000D01*
X4959123Y3642123D02*
X4989123Y3612123D01*
X4989123Y3642123D02*
X4959123Y3612123D01*
X5420138Y3692862D02*
X5450138Y3662862D01*
X5450138Y3692862D02*
X5420138Y3662862D01*
X5548000Y3576000D02*
X5578000Y3546000D01*
X5578000Y3576000D02*
X5548000Y3546000D01*
X5556000Y3893000D02*
X5586000Y3863000D01*
X5586000Y3893000D02*
X5556000Y3863000D01*
X5585600Y4318750D02*
X5615600Y4288750D01*
X5615600Y4318750D02*
X5585600Y4288750D01*
X5617000Y3398000D02*
X5647000Y3368000D01*
X5647000Y3398000D02*
X5617000Y3368000D01*
X5669000Y3841000D02*
X5699000Y3811000D01*
X5699000Y3841000D02*
X5669000Y3811000D01*
X5852000Y4319750D02*
X5882000Y4289750D01*
X5882000Y4319750D02*
X5852000Y4289750D01*
X5872125Y4023125D02*
X5902125Y3993125D01*
X5902125Y4023125D02*
X5872125Y3993125D01*
X5914000Y4319750D02*
X5944000Y4289750D01*
X5944000Y4319750D02*
X5914000Y4289750D01*
X5986000Y2872000D02*
X6016000Y2842000D01*
X6016000Y2872000D02*
X5986000Y2842000D01*
X6142000Y3661000D02*
X6172000Y3631000D01*
X6172000Y3661000D02*
X6142000Y3631000D01*
X6192000Y3442000D02*
X6222000Y3412000D01*
X6222000Y3442000D02*
X6192000Y3412000D01*
X6247000Y3235000D02*
X6277000Y3205000D01*
X6277000Y3235000D02*
X6247000Y3205000D01*
X6262000Y3699000D02*
X6292000Y3669000D01*
X6292000Y3699000D02*
X6262000Y3669000D01*
X6287000Y3462000D02*
X6317000Y3432000D01*
X6317000Y3462000D02*
X6287000Y3432000D01*
X6607000Y4080000D02*
X6637000Y4050000D01*
X6637000Y4080000D02*
X6607000Y4050000D01*
X6975000Y1834000D02*
X7005000Y1804000D01*
X7005000Y1834000D02*
X6975000Y1804000D01*
X7079000Y3653500D02*
X7109000Y3623500D01*
X7109000Y3653500D02*
X7079000Y3623500D01*
X7214000Y3466000D02*
X7244000Y3436000D01*
X7244000Y3466000D02*
X7214000Y3436000D01*
X7270000Y2499000D02*
X7300000Y2469000D01*
X7300000Y2499000D02*
X7270000Y2469000D01*
X7279000Y2073000D02*
X7309000Y2043000D01*
X7309000Y2073000D02*
X7279000Y2043000D01*
X7380000Y2664000D02*
X7410000Y2634000D01*
X7410000Y2664000D02*
X7380000Y2634000D01*
X7464000Y2670000D02*
X7494000Y2640000D01*
X7494000Y2670000D02*
X7464000Y2640000D01*
X7713000Y4691000D02*
X7743000Y4661000D01*
X7743000Y4691000D02*
X7713000Y4661000D01*
X7713000Y4556000D02*
X7743000Y4526000D01*
X7743000Y4556000D02*
X7713000Y4526000D01*
X7785000Y1554000D02*
X7815000Y1524000D01*
X7815000Y1554000D02*
X7785000Y1524000D01*
X7954000Y4534000D02*
X7984000Y4504000D01*
X7984000Y4534000D02*
X7954000Y4504000D01*
X8028000Y2759000D02*
X8058000Y2729000D01*
X8058000Y2759000D02*
X8028000Y2729000D01*
X8060000Y2689000D02*
X8090000Y2659000D01*
X8090000Y2689000D02*
X8060000Y2659000D01*
X8277000Y4289000D02*
X8307000Y4259000D01*
X8307000Y4289000D02*
X8277000Y4259000D01*
X8308000Y4003000D02*
X8338000Y3973000D01*
X8338000Y4003000D02*
X8308000Y3973000D01*
X8317000Y3358000D02*
X8347000Y3328000D01*
X8347000Y3358000D02*
X8317000Y3328000D01*
X8389000Y1434000D02*
X8419000Y1404000D01*
X8419000Y1434000D02*
X8389000Y1404000D01*
X8424000Y3342000D02*
X8454000Y3312000D01*
X8454000Y3342000D02*
X8424000Y3312000D01*
X8448000Y1881000D02*
X8478000Y1851000D01*
X8478000Y1881000D02*
X8448000Y1851000D01*
X8451000Y1975000D02*
X8481000Y1945000D01*
X8481000Y1975000D02*
X8451000Y1945000D01*
X8462000Y906000D02*
X8492000Y876000D01*
X8492000Y906000D02*
X8462000Y876000D01*
X8492000Y2040000D02*
X8522000Y2010000D01*
X8522000Y2040000D02*
X8492000Y2010000D01*
X8572000Y1390000D02*
X8602000Y1360000D01*
X8602000Y1390000D02*
X8572000Y1360000D01*
X8595000Y2383000D02*
X8625000Y2353000D01*
X8625000Y2383000D02*
X8595000Y2353000D01*
X8602000Y3216000D02*
X8632000Y3186000D01*
X8632000Y3216000D02*
X8602000Y3186000D01*
X8611000Y3486000D02*
X8641000Y3456000D01*
X8641000Y3486000D02*
X8611000Y3456000D01*
X8614000Y4040000D02*
X8644000Y4010000D01*
X8644000Y4040000D02*
X8614000Y4010000D01*
X8630000Y3683500D02*
X8660000Y3653500D01*
X8660000Y3683500D02*
X8630000Y3653500D01*
X8638000Y2685000D02*
X8668000Y2655000D01*
X8668000Y2685000D02*
X8638000Y2655000D01*
X8672125Y3189401D02*
X8702125Y3159401D01*
X8702125Y3189401D02*
X8672125Y3159401D01*
X8686000Y1686000D02*
X8716000Y1656000D01*
X8716000Y1686000D02*
X8686000Y1656000D01*
X8694000Y3477000D02*
X8724000Y3447000D01*
X8724000Y3477000D02*
X8694000Y3447000D01*
X8701000Y3623000D02*
X8731000Y3593000D01*
X8731000Y3623000D02*
X8701000Y3593000D01*
X8855000Y1854000D02*
X8885000Y1824000D01*
X8885000Y1854000D02*
X8855000Y1824000D01*
X9161000Y2348000D02*
X9191000Y2318000D01*
X9191000Y2348000D02*
X9161000Y2318000D01*
X9184000Y2152000D02*
X9214000Y2122000D01*
X9214000Y2152000D02*
X9184000Y2122000D01*
X9651000Y3064000D02*
X9681000Y3034000D01*
X9681000Y3064000D02*
X9651000Y3034000D01*
X9751000Y2900000D02*
X9781000Y2870000D01*
X9781000Y2900000D02*
X9751000Y2870000D01*
X9760000Y2649000D02*
X9790000Y2619000D01*
X9790000Y2649000D02*
X9760000Y2619000D01*
X10952000Y2141000D02*
X10982000Y2111000D01*
X10982000Y2141000D02*
X10952000Y2111000D01*
X11573000Y2336000D02*
X11603000Y2306000D01*
X11603000Y2336000D02*
X11573000Y2306000D01*
X11615000Y5029000D02*
X11645000Y4999000D01*
X11645000Y5029000D02*
X11615000Y4999000D01*
X8041000Y2252250D02*
G75*
G02*
X8011000Y2252250I-15000J0D01*
G01*
X8011000Y2252250D02*
G75*
G02*
X8041000Y2252250I15000J0D01*
G01*
X8041000Y2152250D02*
G75*
G02*
X8011000Y2152250I-15000J0D01*
G01*
X8011000Y2152250D02*
G75*
G02*
X8041000Y2152250I15000J0D01*
G01*
X8041000Y2052250D02*
G75*
G02*
X8011000Y2052250I-15000J0D01*
G01*
X8011000Y2052250D02*
G75*
G02*
X8041000Y2052250I15000J0D01*
G01*
X8141000Y2252250D02*
G75*
G02*
X8111000Y2252250I-15000J0D01*
G01*
X8111000Y2252250D02*
G75*
G02*
X8141000Y2252250I15000J0D01*
G01*
X8141000Y2152250D02*
G75*
G02*
X8111000Y2152250I-15000J0D01*
G01*
X8111000Y2152250D02*
G75*
G02*
X8141000Y2152250I15000J0D01*
G01*
X8141000Y2052250D02*
G75*
G02*
X8111000Y2052250I-15000J0D01*
G01*
X8111000Y2052250D02*
G75*
G02*
X8141000Y2052250I15000J0D01*
G01*
X8241000Y2252250D02*
G75*
G02*
X8211000Y2252250I-15000J0D01*
G01*
X8211000Y2252250D02*
G75*
G02*
X8241000Y2252250I15000J0D01*
G01*
X8241000Y2152250D02*
G75*
G02*
X8211000Y2152250I-15000J0D01*
G01*
X8211000Y2152250D02*
G75*
G02*
X8241000Y2152250I15000J0D01*
G01*
X8241000Y2052250D02*
G75*
G02*
X8211000Y2052250I-15000J0D01*
G01*
X8211000Y2052250D02*
G75*
G02*
X8241000Y2052250I15000J0D01*
G01*
X2537000Y627500D02*
X2537000Y567500D01*
X2507000Y597500D02*
X2567000Y597500D01*
X2507000Y637500D02*
X2507000Y557500D01*
X2567000Y557500D02*
G75*
G02*
X2507000Y557500I-30000J0D01*
G01*
X2567000Y557500D02*
X2567000Y637500D01*
X2567000Y637500D02*
G75*
G03*
X2507000Y637500I-30000J0D01*
G01*
X2537000Y227500D02*
X2537000Y167500D01*
X2507000Y197500D02*
X2567000Y197500D01*
X2507000Y257500D02*
X2507000Y137500D01*
X2567000Y137500D02*
G75*
G02*
X2507000Y137500I-30000J0D01*
G01*
X2567000Y137500D02*
X2567000Y257500D01*
X2567000Y257500D02*
G75*
G03*
X2507000Y257500I-30000J0D01*
G01*
X3401000Y627500D02*
X3401000Y567500D01*
X3371000Y597500D02*
X3431000Y597500D01*
X3371000Y637500D02*
X3371000Y557500D01*
X3431000Y557500D02*
G75*
G02*
X3371000Y557500I-30000J0D01*
G01*
X3431000Y557500D02*
X3431000Y637500D01*
X3431000Y637500D02*
G75*
G03*
X3371000Y637500I-30000J0D01*
G01*
X3401000Y227500D02*
X3401000Y167500D01*
X3371000Y197500D02*
X3431000Y197500D01*
X3371000Y257500D02*
X3371000Y137500D01*
X3431000Y137500D02*
G75*
G02*
X3371000Y137500I-30000J0D01*
G01*
X3431000Y137500D02*
X3431000Y257500D01*
X3431000Y257500D02*
G75*
G03*
X3371000Y257500I-30000J0D01*
G01*
X6030431Y2202569D02*
X6030431Y2265431D01*
X5967569Y2265431D01*
X5967569Y2202569D01*
X6030431Y2202569D01*
X7064431Y2283569D02*
X7064431Y2346431D01*
X7001569Y2346431D01*
X7001569Y2283569D01*
X7064431Y2283569D01*
X7168431Y2738569D02*
X7168431Y2801431D01*
X7105569Y2801431D01*
X7105569Y2738569D01*
X7168431Y2738569D01*
X7571431Y719569D02*
X7571431Y782431D01*
X7508569Y782431D01*
X7508569Y719569D01*
X7571431Y719569D01*
X7571431Y465569D02*
X7571431Y528431D01*
X7508569Y528431D01*
X7508569Y465569D01*
X7571431Y465569D01*
X7571431Y211569D02*
X7571431Y274431D01*
X7508569Y274431D01*
X7508569Y211569D01*
X7571431Y211569D01*
X7676431Y2738569D02*
X7676431Y2801431D01*
X7613569Y2801431D01*
X7613569Y2738569D01*
X7676431Y2738569D01*
X7825431Y465569D02*
X7825431Y528431D01*
X7762569Y528431D01*
X7762569Y465569D01*
X7825431Y465569D01*
X7825431Y211569D02*
X7825431Y274431D01*
X7762569Y274431D01*
X7762569Y211569D01*
X7825431Y211569D01*
X8493431Y2800569D02*
X8493431Y2863431D01*
X8430569Y2863431D01*
X8430569Y2800569D01*
X8493431Y2800569D01*
X9101431Y1502569D02*
X9101431Y1565431D01*
X9038569Y1565431D01*
X9038569Y1502569D01*
X9101431Y1502569D01*
X10516431Y1547569D02*
X10516431Y1610431D01*
X10453569Y1610431D01*
X10453569Y1547569D01*
X10516431Y1547569D01*
X2243000Y867000D02*
X2288000Y912000D01*
X2243000Y957000D01*
X2198000Y912000D01*
X2243000Y867000D01*
X2243000Y613000D02*
X2288000Y658000D01*
X2243000Y703000D01*
X2198000Y658000D01*
X2243000Y613000D01*
X9747000Y2244000D02*
X9792000Y2289000D01*
X9747000Y2334000D01*
X9702000Y2289000D01*
X9747000Y2244000D01*
X9747000Y1919000D02*
X9792000Y1964000D01*
X9747000Y2009000D01*
X9702000Y1964000D01*
X9747000Y1919000D01*
X10001000Y2244000D02*
X10046000Y2289000D01*
X10001000Y2334000D01*
X9956000Y2289000D01*
X10001000Y2244000D01*
X10001000Y1919000D02*
X10046000Y1964000D01*
X10001000Y2009000D01*
X9956000Y1964000D01*
X10001000Y1919000D01*
X12109000Y4983000D02*
X12154000Y5028000D01*
X12109000Y5073000D01*
X12064000Y5028000D01*
X12109000Y4983000D01*
X12363000Y4983000D02*
X12408000Y5028000D01*
X12363000Y5073000D01*
X12318000Y5028000D01*
X12363000Y4983000D01*
X12617000Y4983000D02*
X12662000Y5028000D01*
X12617000Y5073000D01*
X12572000Y5028000D01*
X12617000Y4983000D01*
X5575000Y2745500D02*
X5675000Y2645500D01*
X5675000Y2745500D02*
X5575000Y2645500D01*
X5675000Y2695500D02*
G75*
G02*
X5575000Y2695500I-50000J0D01*
G01*
X5575000Y2695500D02*
G75*
G02*
X5675000Y2695500I50000J0D01*
G01*
X5829000Y2745500D02*
X5929000Y2645500D01*
X5929000Y2745500D02*
X5829000Y2645500D01*
X5929000Y2695500D02*
G75*
G02*
X5829000Y2695500I-50000J0D01*
G01*
X5829000Y2695500D02*
G75*
G02*
X5929000Y2695500I50000J0D01*
G01*
X6083000Y2745500D02*
X6183000Y2645500D01*
X6183000Y2745500D02*
X6083000Y2645500D01*
X6183000Y2695500D02*
G75*
G02*
X6083000Y2695500I-50000J0D01*
G01*
X6083000Y2695500D02*
G75*
G02*
X6183000Y2695500I50000J0D01*
G01*
X6337000Y2745500D02*
X6437000Y2645500D01*
X6437000Y2745500D02*
X6337000Y2645500D01*
X6437000Y2695500D02*
G75*
G02*
X6337000Y2695500I-50000J0D01*
G01*
X6337000Y2695500D02*
G75*
G02*
X6437000Y2695500I50000J0D01*
G01*
D13*
X8151200Y242800D02*
X8252800Y141200D01*
X8252800Y242800D02*
X8151200Y141200D01*
X8202000Y242800D02*
X8202000Y141200D01*
X8151200Y192000D02*
X8252800Y192000D01*
X8405200Y242800D02*
X8506800Y141200D01*
X8506800Y242800D02*
X8405200Y141200D01*
X8456000Y242800D02*
X8456000Y141200D01*
X8405200Y192000D02*
X8506800Y192000D01*
X8659200Y242800D02*
X8760800Y141200D01*
X8760800Y242800D02*
X8659200Y141200D01*
X8710000Y242800D02*
X8710000Y141200D01*
X8659200Y192000D02*
X8760800Y192000D01*
D14*
X5419000Y1331000D02*
X5549000Y1201000D01*
X5549000Y1331000D02*
X5419000Y1201000D01*
X5529962Y1220038D02*
X5529962Y1311962D01*
X5438038Y1311962D01*
X5438038Y1220038D01*
X5529962Y1220038D01*
X6819000Y1331000D02*
X6949000Y1201000D01*
X6949000Y1331000D02*
X6819000Y1201000D01*
X6929962Y1220038D02*
X6929962Y1311962D01*
X6838038Y1311962D01*
X6838038Y1220038D01*
X6929962Y1220038D01*
X9984000Y1331000D02*
X10114000Y1201000D01*
X10114000Y1331000D02*
X9984000Y1201000D01*
X10094962Y1220038D02*
X10094962Y1311962D01*
X10003038Y1311962D01*
X10003038Y1220038D01*
X10094962Y1220038D01*
X11384000Y1331000D02*
X11514000Y1201000D01*
X11514000Y1331000D02*
X11384000Y1201000D01*
X11494962Y1220038D02*
X11494962Y1311962D01*
X11403038Y1311962D01*
X11403038Y1220038D01*
X11494962Y1220038D01*
D15*
X5409000Y606000D02*
X5559000Y456000D01*
X5559000Y606000D02*
X5409000Y456000D01*
X5484000Y456000D02*
X5559000Y531000D01*
X5484000Y606000D01*
X5409000Y531000D01*
X5484000Y456000D01*
X6809000Y606000D02*
X6959000Y456000D01*
X6959000Y606000D02*
X6809000Y456000D01*
X6884000Y456000D02*
X6959000Y531000D01*
X6884000Y606000D01*
X6809000Y531000D01*
X6884000Y456000D01*
X9974000Y606000D02*
X10124000Y456000D01*
X10124000Y606000D02*
X9974000Y456000D01*
X10049000Y456000D02*
X10124000Y531000D01*
X10049000Y606000D01*
X9974000Y531000D01*
X10049000Y456000D01*
X11374000Y606000D02*
X11524000Y456000D01*
X11524000Y606000D02*
X11374000Y456000D01*
X11449000Y456000D02*
X11524000Y531000D01*
X11449000Y606000D01*
X11374000Y531000D01*
X11449000Y456000D01*
D16*
X784000Y1754000D02*
X784000Y1584000D01*
X699000Y1669000D02*
X869000Y1669000D01*
X869000Y1669000D02*
G75*
G02*
X699000Y1669000I-85000J0D01*
G01*
X699000Y1669000D02*
G75*
G02*
X869000Y1669000I85000J0D01*
G01*
X2024000Y1754000D02*
X2024000Y1584000D01*
X1939000Y1669000D02*
X2109000Y1669000D01*
X2109000Y1669000D02*
G75*
G02*
X1939000Y1669000I-85000J0D01*
G01*
X1939000Y1669000D02*
G75*
G02*
X2109000Y1669000I85000J0D01*
G01*
X2449000Y4416500D02*
X2449000Y4246500D01*
X2364000Y4331500D02*
X2534000Y4331500D01*
X2534000Y4331500D02*
G75*
G02*
X2364000Y4331500I-85000J0D01*
G01*
X2364000Y4331500D02*
G75*
G02*
X2534000Y4331500I85000J0D01*
G01*
X2449000Y4041500D02*
X2449000Y3871500D01*
X2364000Y3956500D02*
X2534000Y3956500D01*
X2534000Y3956500D02*
G75*
G02*
X2364000Y3956500I-85000J0D01*
G01*
X2364000Y3956500D02*
G75*
G02*
X2534000Y3956500I85000J0D01*
G01*
X2449000Y3666500D02*
X2449000Y3496500D01*
X2364000Y3581500D02*
X2534000Y3581500D01*
X2534000Y3581500D02*
G75*
G02*
X2364000Y3581500I-85000J0D01*
G01*
X2364000Y3581500D02*
G75*
G02*
X2534000Y3581500I85000J0D01*
G01*
X2449000Y3291500D02*
X2449000Y3121500D01*
X2364000Y3206500D02*
X2534000Y3206500D01*
X2534000Y3206500D02*
G75*
G02*
X2364000Y3206500I-85000J0D01*
G01*
X2364000Y3206500D02*
G75*
G02*
X2534000Y3206500I85000J0D01*
G01*
X11199000Y4416500D02*
X11199000Y4246500D01*
X11114000Y4331500D02*
X11284000Y4331500D01*
X11284000Y4331500D02*
G75*
G02*
X11114000Y4331500I-85000J0D01*
G01*
X11114000Y4331500D02*
G75*
G02*
X11284000Y4331500I85000J0D01*
G01*
X11199000Y4041500D02*
X11199000Y3871500D01*
X11114000Y3956500D02*
X11284000Y3956500D01*
X11284000Y3956500D02*
G75*
G02*
X11114000Y3956500I-85000J0D01*
G01*
X11114000Y3956500D02*
G75*
G02*
X11284000Y3956500I85000J0D01*
G01*
X11199000Y3291500D02*
X11199000Y3121500D01*
X11114000Y3206500D02*
X11284000Y3206500D01*
X11284000Y3206500D02*
G75*
G02*
X11114000Y3206500I-85000J0D01*
G01*
X11114000Y3206500D02*
G75*
G02*
X11284000Y3206500I85000J0D01*
G01*
D17*
X4577640Y827360D02*
X4577640Y954640D01*
X4450360Y954640D01*
X4450360Y827360D01*
X4577640Y827360D01*
X4604000Y891000D02*
G75*
G02*
X4424000Y891000I-90000J0D01*
G01*
X4424000Y891000D02*
G75*
G02*
X4604000Y891000I90000J0D01*
G01*
D12*
X4604000Y826000D02*
X4604000Y956000D01*
X4424000Y956000D02*
G75*
G02*
X4604000Y956000I90000J0D01*
G01*
X4424000Y956000D02*
X4424000Y826000D01*
X4424000Y826000D02*
G75*
G03*
X4604000Y826000I90000J0D01*
G01*
D17*
X7167640Y827360D02*
X7167640Y954640D01*
X7040360Y954640D01*
X7040360Y827360D01*
X7167640Y827360D01*
X7194000Y891000D02*
G75*
G02*
X7014000Y891000I-90000J0D01*
G01*
X7014000Y891000D02*
G75*
G02*
X7194000Y891000I90000J0D01*
G01*
D12*
X7194000Y826000D02*
X7194000Y956000D01*
X7014000Y956000D02*
G75*
G02*
X7194000Y956000I90000J0D01*
G01*
X7014000Y956000D02*
X7014000Y826000D01*
X7014000Y826000D02*
G75*
G03*
X7194000Y826000I90000J0D01*
G01*
D17*
X9142640Y827360D02*
X9142640Y954640D01*
X9015360Y954640D01*
X9015360Y827360D01*
X9142640Y827360D01*
X9169000Y891000D02*
G75*
G02*
X8989000Y891000I-90000J0D01*
G01*
X8989000Y891000D02*
G75*
G02*
X9169000Y891000I90000J0D01*
G01*
D12*
X9169000Y826000D02*
X9169000Y956000D01*
X8989000Y956000D02*
G75*
G02*
X9169000Y956000I90000J0D01*
G01*
X8989000Y956000D02*
X8989000Y826000D01*
X8989000Y826000D02*
G75*
G03*
X9169000Y826000I90000J0D01*
G01*
D17*
X11732640Y827360D02*
X11732640Y954640D01*
X11605360Y954640D01*
X11605360Y827360D01*
X11732640Y827360D01*
X11759000Y891000D02*
G75*
G02*
X11579000Y891000I-90000J0D01*
G01*
X11579000Y891000D02*
G75*
G02*
X11759000Y891000I90000J0D01*
G01*
D12*
X11759000Y826000D02*
X11759000Y956000D01*
X11579000Y956000D02*
G75*
G02*
X11759000Y956000I90000J0D01*
G01*
X11579000Y956000D02*
X11579000Y826000D01*
X11579000Y826000D02*
G75*
G03*
X11759000Y826000I90000J0D01*
G01*
D18*
X4239000Y3659000D02*
X4349000Y3769000D01*
X4239000Y3879000D01*
X4129000Y3769000D01*
X4239000Y3659000D01*
X4349000Y3769000D02*
G75*
G02*
X4129000Y3769000I-110000J0D01*
G01*
X4129000Y3769000D02*
G75*
G02*
X4349000Y3769000I110000J0D01*
G01*
X9409000Y3659000D02*
X9519000Y3769000D01*
X9409000Y3879000D01*
X9299000Y3769000D01*
X9409000Y3659000D01*
X9519000Y3769000D02*
G75*
G02*
X9299000Y3769000I-110000J0D01*
G01*
X9299000Y3769000D02*
G75*
G02*
X9519000Y3769000I110000J0D01*
G01*
D11*
X291277Y-313984D02*
X291277Y-113984D01*
X291277Y-113984D02*
X338896Y-113984D01*
X338896Y-113984D02*
X367467Y-123508D01*
X367467Y-123508D02*
X386515Y-142555D01*
X386515Y-142555D02*
X396039Y-161603D01*
X396039Y-161603D02*
X405562Y-199698D01*
X405562Y-199698D02*
X405562Y-228269D01*
X405562Y-228269D02*
X396039Y-266365D01*
X396039Y-266365D02*
X386515Y-285412D01*
X386515Y-285412D02*
X367467Y-304460D01*
X367467Y-304460D02*
X338896Y-313984D01*
X338896Y-313984D02*
X291277Y-313984D01*
X491277Y-313984D02*
X491277Y-180650D01*
X491277Y-218746D02*
X500801Y-199698D01*
X500801Y-199698D02*
X510324Y-190174D01*
X510324Y-190174D02*
X529372Y-180650D01*
X529372Y-180650D02*
X548420Y-180650D01*
X615086Y-313984D02*
X615086Y-180650D01*
X615086Y-113984D02*
X605563Y-123508D01*
X605563Y-123508D02*
X615086Y-133031D01*
X615086Y-133031D02*
X624610Y-123508D01*
X624610Y-123508D02*
X615086Y-113984D01*
X615086Y-113984D02*
X615086Y-133031D01*
X738896Y-313984D02*
X719848Y-304460D01*
X719848Y-304460D02*
X710324Y-285412D01*
X710324Y-285412D02*
X710324Y-113984D01*
X843658Y-313984D02*
X824610Y-304460D01*
X824610Y-304460D02*
X815086Y-285412D01*
X815086Y-285412D02*
X815086Y-113984D01*
X1072229Y-313984D02*
X1072229Y-113984D01*
X1072229Y-113984D02*
X1138896Y-256841D01*
X1138896Y-256841D02*
X1205563Y-113984D01*
X1205563Y-113984D02*
X1205563Y-313984D01*
X1386515Y-313984D02*
X1386515Y-209222D01*
X1386515Y-209222D02*
X1376991Y-190174D01*
X1376991Y-190174D02*
X1357944Y-180650D01*
X1357944Y-180650D02*
X1319848Y-180650D01*
X1319848Y-180650D02*
X1300801Y-190174D01*
X1386515Y-304460D02*
X1367467Y-313984D01*
X1367467Y-313984D02*
X1319848Y-313984D01*
X1319848Y-313984D02*
X1300801Y-304460D01*
X1300801Y-304460D02*
X1291277Y-285412D01*
X1291277Y-285412D02*
X1291277Y-266365D01*
X1291277Y-266365D02*
X1300801Y-247317D01*
X1300801Y-247317D02*
X1319848Y-237793D01*
X1319848Y-237793D02*
X1367467Y-237793D01*
X1367467Y-237793D02*
X1386515Y-228269D01*
X1481753Y-180650D02*
X1481753Y-380650D01*
X1481753Y-190174D02*
X1500801Y-180650D01*
X1500801Y-180650D02*
X1538896Y-180650D01*
X1538896Y-180650D02*
X1557943Y-190174D01*
X1557943Y-190174D02*
X1567467Y-199698D01*
X1567467Y-199698D02*
X1576991Y-218746D01*
X1576991Y-218746D02*
X1576991Y-275889D01*
X1576991Y-275889D02*
X1567467Y-294936D01*
X1567467Y-294936D02*
X1557943Y-304460D01*
X1557943Y-304460D02*
X1538896Y-313984D01*
X1538896Y-313984D02*
X1500801Y-313984D01*
X1500801Y-313984D02*
X1481753Y-304460D01*
X1662705Y-294936D02*
X1672229Y-304460D01*
X1672229Y-304460D02*
X1662705Y-313984D01*
X1662705Y-313984D02*
X1653182Y-304460D01*
X1653182Y-304460D02*
X1662705Y-294936D01*
X1662705Y-294936D02*
X1662705Y-313984D01*
X1662705Y-190174D02*
X1672229Y-199698D01*
X1672229Y-199698D02*
X1662705Y-209222D01*
X1662705Y-209222D02*
X1653182Y-199698D01*
X1653182Y-199698D02*
X1662705Y-190174D01*
X1662705Y-190174D02*
X1662705Y-209222D01*
D12*
X500Y-627500D02*
X30500Y-657500D01*
X30500Y-627500D02*
X500Y-657500D01*
D11*
X329372Y-533984D02*
X348420Y-533984D01*
X348420Y-533984D02*
X367467Y-543508D01*
X367467Y-543508D02*
X376991Y-553031D01*
X376991Y-553031D02*
X386515Y-572079D01*
X386515Y-572079D02*
X396039Y-610174D01*
X396039Y-610174D02*
X396039Y-657793D01*
X396039Y-657793D02*
X386515Y-695889D01*
X386515Y-695889D02*
X376991Y-714936D01*
X376991Y-714936D02*
X367467Y-724460D01*
X367467Y-724460D02*
X348420Y-733984D01*
X348420Y-733984D02*
X329372Y-733984D01*
X329372Y-733984D02*
X310324Y-724460D01*
X310324Y-724460D02*
X300801Y-714936D01*
X300801Y-714936D02*
X291277Y-695889D01*
X291277Y-695889D02*
X281753Y-657793D01*
X281753Y-657793D02*
X281753Y-610174D01*
X281753Y-610174D02*
X291277Y-572079D01*
X291277Y-572079D02*
X300801Y-553031D01*
X300801Y-553031D02*
X310324Y-543508D01*
X310324Y-543508D02*
X329372Y-533984D01*
X481753Y-714936D02*
X491277Y-724460D01*
X491277Y-724460D02*
X481753Y-733984D01*
X481753Y-733984D02*
X472229Y-724460D01*
X472229Y-724460D02*
X481753Y-714936D01*
X481753Y-714936D02*
X481753Y-733984D01*
X557944Y-533984D02*
X681753Y-533984D01*
X681753Y-533984D02*
X615086Y-610174D01*
X615086Y-610174D02*
X643658Y-610174D01*
X643658Y-610174D02*
X662705Y-619698D01*
X662705Y-619698D02*
X672229Y-629222D01*
X672229Y-629222D02*
X681753Y-648270D01*
X681753Y-648270D02*
X681753Y-695889D01*
X681753Y-695889D02*
X672229Y-714936D01*
X672229Y-714936D02*
X662705Y-724460D01*
X662705Y-724460D02*
X643658Y-733984D01*
X643658Y-733984D02*
X586515Y-733984D01*
X586515Y-733984D02*
X567467Y-724460D01*
X567467Y-724460D02*
X557944Y-714936D01*
X805562Y-533984D02*
X824610Y-533984D01*
X824610Y-533984D02*
X843658Y-543508D01*
X843658Y-543508D02*
X853182Y-553031D01*
X853182Y-553031D02*
X862705Y-572079D01*
X862705Y-572079D02*
X872229Y-610174D01*
X872229Y-610174D02*
X872229Y-657793D01*
X872229Y-657793D02*
X862705Y-695889D01*
X862705Y-695889D02*
X853182Y-714936D01*
X853182Y-714936D02*
X843658Y-724460D01*
X843658Y-724460D02*
X824610Y-733984D01*
X824610Y-733984D02*
X805562Y-733984D01*
X805562Y-733984D02*
X786515Y-724460D01*
X786515Y-724460D02*
X776991Y-714936D01*
X776991Y-714936D02*
X767467Y-695889D01*
X767467Y-695889D02*
X757943Y-657793D01*
X757943Y-657793D02*
X757943Y-610174D01*
X757943Y-610174D02*
X767467Y-572079D01*
X767467Y-572079D02*
X776991Y-553031D01*
X776991Y-553031D02*
X786515Y-543508D01*
X786515Y-543508D02*
X805562Y-533984D01*
X996039Y-533984D02*
X1015086Y-533984D01*
X1015086Y-533984D02*
X1034134Y-543508D01*
X1034134Y-543508D02*
X1043658Y-553031D01*
X1043658Y-553031D02*
X1053182Y-572079D01*
X1053182Y-572079D02*
X1062705Y-610174D01*
X1062705Y-610174D02*
X1062705Y-657793D01*
X1062705Y-657793D02*
X1053182Y-695889D01*
X1053182Y-695889D02*
X1043658Y-714936D01*
X1043658Y-714936D02*
X1034134Y-724460D01*
X1034134Y-724460D02*
X1015086Y-733984D01*
X1015086Y-733984D02*
X996039Y-733984D01*
X996039Y-733984D02*
X976991Y-724460D01*
X976991Y-724460D02*
X967467Y-714936D01*
X967467Y-714936D02*
X957943Y-695889D01*
X957943Y-695889D02*
X948420Y-657793D01*
X948420Y-657793D02*
X948420Y-610174D01*
X948420Y-610174D02*
X957943Y-572079D01*
X957943Y-572079D02*
X967467Y-553031D01*
X967467Y-553031D02*
X976991Y-543508D01*
X976991Y-543508D02*
X996039Y-533984D01*
X1148420Y-733984D02*
X1148420Y-600650D01*
X1148420Y-619698D02*
X1157944Y-610174D01*
X1157944Y-610174D02*
X1176991Y-600650D01*
X1176991Y-600650D02*
X1205563Y-600650D01*
X1205563Y-600650D02*
X1224610Y-610174D01*
X1224610Y-610174D02*
X1234134Y-629222D01*
X1234134Y-629222D02*
X1234134Y-733984D01*
X1234134Y-629222D02*
X1243658Y-610174D01*
X1243658Y-610174D02*
X1262705Y-600650D01*
X1262705Y-600650D02*
X1291277Y-600650D01*
X1291277Y-600650D02*
X1310325Y-610174D01*
X1310325Y-610174D02*
X1319848Y-629222D01*
X1319848Y-629222D02*
X1319848Y-733984D01*
X1415086Y-733984D02*
X1415086Y-600650D01*
X1415086Y-619698D02*
X1424610Y-610174D01*
X1424610Y-610174D02*
X1443658Y-600650D01*
X1443658Y-600650D02*
X1472229Y-600650D01*
X1472229Y-600650D02*
X1491277Y-610174D01*
X1491277Y-610174D02*
X1500801Y-629222D01*
X1500801Y-629222D02*
X1500801Y-733984D01*
X1500801Y-629222D02*
X1510324Y-610174D01*
X1510324Y-610174D02*
X1529372Y-600650D01*
X1529372Y-600650D02*
X1557943Y-600650D01*
X1557943Y-600650D02*
X1576991Y-610174D01*
X1576991Y-610174D02*
X1586515Y-629222D01*
X1586515Y-629222D02*
X1586515Y-733984D01*
X1976991Y-524460D02*
X1805563Y-781603D01*
X2234134Y-533984D02*
X2253182Y-533984D01*
X2253182Y-533984D02*
X2272229Y-543508D01*
X2272229Y-543508D02*
X2281753Y-553031D01*
X2281753Y-553031D02*
X2291277Y-572079D01*
X2291277Y-572079D02*
X2300801Y-610174D01*
X2300801Y-610174D02*
X2300801Y-657793D01*
X2300801Y-657793D02*
X2291277Y-695889D01*
X2291277Y-695889D02*
X2281753Y-714936D01*
X2281753Y-714936D02*
X2272229Y-724460D01*
X2272229Y-724460D02*
X2253182Y-733984D01*
X2253182Y-733984D02*
X2234134Y-733984D01*
X2234134Y-733984D02*
X2215087Y-724460D01*
X2215087Y-724460D02*
X2205563Y-714936D01*
X2205563Y-714936D02*
X2196039Y-695889D01*
X2196039Y-695889D02*
X2186515Y-657793D01*
X2186515Y-657793D02*
X2186515Y-610174D01*
X2186515Y-610174D02*
X2196039Y-572079D01*
X2196039Y-572079D02*
X2205563Y-553031D01*
X2205563Y-553031D02*
X2215087Y-543508D01*
X2215087Y-543508D02*
X2234134Y-533984D01*
X2386515Y-714936D02*
X2396039Y-724460D01*
X2396039Y-724460D02*
X2386515Y-733984D01*
X2386515Y-733984D02*
X2376991Y-724460D01*
X2376991Y-724460D02*
X2386515Y-714936D01*
X2386515Y-714936D02*
X2386515Y-733984D01*
X2519848Y-533984D02*
X2538896Y-533984D01*
X2538896Y-533984D02*
X2557944Y-543508D01*
X2557944Y-543508D02*
X2567468Y-553031D01*
X2567468Y-553031D02*
X2576991Y-572079D01*
X2576991Y-572079D02*
X2586515Y-610174D01*
X2586515Y-610174D02*
X2586515Y-657793D01*
X2586515Y-657793D02*
X2576991Y-695889D01*
X2576991Y-695889D02*
X2567468Y-714936D01*
X2567468Y-714936D02*
X2557944Y-724460D01*
X2557944Y-724460D02*
X2538896Y-733984D01*
X2538896Y-733984D02*
X2519848Y-733984D01*
X2519848Y-733984D02*
X2500801Y-724460D01*
X2500801Y-724460D02*
X2491277Y-714936D01*
X2491277Y-714936D02*
X2481753Y-695889D01*
X2481753Y-695889D02*
X2472229Y-657793D01*
X2472229Y-657793D02*
X2472229Y-610174D01*
X2472229Y-610174D02*
X2481753Y-572079D01*
X2481753Y-572079D02*
X2491277Y-553031D01*
X2491277Y-553031D02*
X2500801Y-543508D01*
X2500801Y-543508D02*
X2519848Y-533984D01*
X2776991Y-733984D02*
X2662706Y-733984D01*
X2719848Y-733984D02*
X2719848Y-533984D01*
X2719848Y-533984D02*
X2700801Y-562555D01*
X2700801Y-562555D02*
X2681753Y-581603D01*
X2681753Y-581603D02*
X2662706Y-591127D01*
X2967467Y-733984D02*
X2853182Y-733984D01*
X2910325Y-733984D02*
X2910325Y-533984D01*
X2910325Y-533984D02*
X2891277Y-562555D01*
X2891277Y-562555D02*
X2872229Y-581603D01*
X2872229Y-581603D02*
X2853182Y-591127D01*
X3081753Y-619698D02*
X3062706Y-610174D01*
X3062706Y-610174D02*
X3053182Y-600650D01*
X3053182Y-600650D02*
X3043658Y-581603D01*
X3043658Y-581603D02*
X3043658Y-572079D01*
X3043658Y-572079D02*
X3053182Y-553031D01*
X3053182Y-553031D02*
X3062706Y-543508D01*
X3062706Y-543508D02*
X3081753Y-533984D01*
X3081753Y-533984D02*
X3119848Y-533984D01*
X3119848Y-533984D02*
X3138896Y-543508D01*
X3138896Y-543508D02*
X3148420Y-553031D01*
X3148420Y-553031D02*
X3157944Y-572079D01*
X3157944Y-572079D02*
X3157944Y-581603D01*
X3157944Y-581603D02*
X3148420Y-600650D01*
X3148420Y-600650D02*
X3138896Y-610174D01*
X3138896Y-610174D02*
X3119848Y-619698D01*
X3119848Y-619698D02*
X3081753Y-619698D01*
X3081753Y-619698D02*
X3062706Y-629222D01*
X3062706Y-629222D02*
X3053182Y-638746D01*
X3053182Y-638746D02*
X3043658Y-657793D01*
X3043658Y-657793D02*
X3043658Y-695889D01*
X3043658Y-695889D02*
X3053182Y-714936D01*
X3053182Y-714936D02*
X3062706Y-724460D01*
X3062706Y-724460D02*
X3081753Y-733984D01*
X3081753Y-733984D02*
X3119848Y-733984D01*
X3119848Y-733984D02*
X3138896Y-724460D01*
X3138896Y-724460D02*
X3148420Y-714936D01*
X3148420Y-714936D02*
X3157944Y-695889D01*
X3157944Y-695889D02*
X3157944Y-657793D01*
X3157944Y-657793D02*
X3148420Y-638746D01*
X3148420Y-638746D02*
X3138896Y-629222D01*
X3138896Y-629222D02*
X3119848Y-619698D01*
X3234134Y-533984D02*
X3234134Y-572079D01*
X3310325Y-533984D02*
X3310325Y-572079D01*
X3605563Y-810174D02*
X3596039Y-800650D01*
X3596039Y-800650D02*
X3576991Y-772079D01*
X3576991Y-772079D02*
X3567468Y-753031D01*
X3567468Y-753031D02*
X3557944Y-724460D01*
X3557944Y-724460D02*
X3548420Y-676841D01*
X3548420Y-676841D02*
X3548420Y-638746D01*
X3548420Y-638746D02*
X3557944Y-591127D01*
X3557944Y-591127D02*
X3567468Y-562555D01*
X3567468Y-562555D02*
X3576991Y-543508D01*
X3576991Y-543508D02*
X3596039Y-514936D01*
X3596039Y-514936D02*
X3605563Y-505412D01*
X3662706Y-533984D02*
X3796039Y-533984D01*
X3796039Y-533984D02*
X3710325Y-733984D01*
X3967468Y-533984D02*
X3872229Y-533984D01*
X3872229Y-533984D02*
X3862706Y-629222D01*
X3862706Y-629222D02*
X3872229Y-619698D01*
X3872229Y-619698D02*
X3891277Y-610174D01*
X3891277Y-610174D02*
X3938896Y-610174D01*
X3938896Y-610174D02*
X3957944Y-619698D01*
X3957944Y-619698D02*
X3967468Y-629222D01*
X3967468Y-629222D02*
X3976991Y-648270D01*
X3976991Y-648270D02*
X3976991Y-695889D01*
X3976991Y-695889D02*
X3967468Y-714936D01*
X3967468Y-714936D02*
X3957944Y-724460D01*
X3957944Y-724460D02*
X3938896Y-733984D01*
X3938896Y-733984D02*
X3891277Y-733984D01*
X3891277Y-733984D02*
X3872229Y-724460D01*
X3872229Y-724460D02*
X3862706Y-714936D01*
X4215087Y-733984D02*
X4215087Y-533984D01*
X4300801Y-733984D02*
X4300801Y-629222D01*
X4300801Y-629222D02*
X4291277Y-610174D01*
X4291277Y-610174D02*
X4272230Y-600650D01*
X4272230Y-600650D02*
X4243658Y-600650D01*
X4243658Y-600650D02*
X4224611Y-610174D01*
X4224611Y-610174D02*
X4215087Y-619698D01*
X4424611Y-733984D02*
X4405563Y-724460D01*
X4405563Y-724460D02*
X4396039Y-714936D01*
X4396039Y-714936D02*
X4386515Y-695889D01*
X4386515Y-695889D02*
X4386515Y-638746D01*
X4386515Y-638746D02*
X4396039Y-619698D01*
X4396039Y-619698D02*
X4405563Y-610174D01*
X4405563Y-610174D02*
X4424611Y-600650D01*
X4424611Y-600650D02*
X4453182Y-600650D01*
X4453182Y-600650D02*
X4472230Y-610174D01*
X4472230Y-610174D02*
X4481753Y-619698D01*
X4481753Y-619698D02*
X4491277Y-638746D01*
X4491277Y-638746D02*
X4491277Y-695889D01*
X4491277Y-695889D02*
X4481753Y-714936D01*
X4481753Y-714936D02*
X4472230Y-724460D01*
X4472230Y-724460D02*
X4453182Y-733984D01*
X4453182Y-733984D02*
X4424611Y-733984D01*
X4605563Y-733984D02*
X4586515Y-724460D01*
X4586515Y-724460D02*
X4576992Y-705412D01*
X4576992Y-705412D02*
X4576992Y-533984D01*
X4757944Y-724460D02*
X4738896Y-733984D01*
X4738896Y-733984D02*
X4700801Y-733984D01*
X4700801Y-733984D02*
X4681753Y-724460D01*
X4681753Y-724460D02*
X4672230Y-705412D01*
X4672230Y-705412D02*
X4672230Y-629222D01*
X4672230Y-629222D02*
X4681753Y-610174D01*
X4681753Y-610174D02*
X4700801Y-600650D01*
X4700801Y-600650D02*
X4738896Y-600650D01*
X4738896Y-600650D02*
X4757944Y-610174D01*
X4757944Y-610174D02*
X4767468Y-629222D01*
X4767468Y-629222D02*
X4767468Y-648270D01*
X4767468Y-648270D02*
X4672230Y-667317D01*
X4843658Y-724460D02*
X4862706Y-733984D01*
X4862706Y-733984D02*
X4900801Y-733984D01*
X4900801Y-733984D02*
X4919849Y-724460D01*
X4919849Y-724460D02*
X4929373Y-705412D01*
X4929373Y-705412D02*
X4929373Y-695889D01*
X4929373Y-695889D02*
X4919849Y-676841D01*
X4919849Y-676841D02*
X4900801Y-667317D01*
X4900801Y-667317D02*
X4872230Y-667317D01*
X4872230Y-667317D02*
X4853182Y-657793D01*
X4853182Y-657793D02*
X4843658Y-638746D01*
X4843658Y-638746D02*
X4843658Y-629222D01*
X4843658Y-629222D02*
X4853182Y-610174D01*
X4853182Y-610174D02*
X4872230Y-600650D01*
X4872230Y-600650D02*
X4900801Y-600650D01*
X4900801Y-600650D02*
X4919849Y-610174D01*
X4996039Y-810174D02*
X5005563Y-800650D01*
X5005563Y-800650D02*
X5024611Y-772079D01*
X5024611Y-772079D02*
X5034134Y-753031D01*
X5034134Y-753031D02*
X5043658Y-724460D01*
X5043658Y-724460D02*
X5053182Y-676841D01*
X5053182Y-676841D02*
X5053182Y-638746D01*
X5053182Y-638746D02*
X5043658Y-591127D01*
X5043658Y-591127D02*
X5034134Y-562555D01*
X5034134Y-562555D02*
X5024611Y-543508D01*
X5024611Y-543508D02*
X5005563Y-514936D01*
X5005563Y-514936D02*
X4996039Y-505412D01*
D12*
X30500Y-906500D02*
G75*
G02*
X500Y-906500I-15000J0D01*
G01*
X500Y-906500D02*
G75*
G02*
X30500Y-906500I15000J0D01*
G01*
D11*
X329372Y-797984D02*
X348420Y-797984D01*
X348420Y-797984D02*
X367467Y-807508D01*
X367467Y-807508D02*
X376991Y-817031D01*
X376991Y-817031D02*
X386515Y-836079D01*
X386515Y-836079D02*
X396039Y-874174D01*
X396039Y-874174D02*
X396039Y-921793D01*
X396039Y-921793D02*
X386515Y-959888D01*
X386515Y-959888D02*
X376991Y-978936D01*
X376991Y-978936D02*
X367467Y-988460D01*
X367467Y-988460D02*
X348420Y-997984D01*
X348420Y-997984D02*
X329372Y-997984D01*
X329372Y-997984D02*
X310324Y-988460D01*
X310324Y-988460D02*
X300801Y-978936D01*
X300801Y-978936D02*
X291277Y-959888D01*
X291277Y-959888D02*
X281753Y-921793D01*
X281753Y-921793D02*
X281753Y-874174D01*
X281753Y-874174D02*
X291277Y-836079D01*
X291277Y-836079D02*
X300801Y-817031D01*
X300801Y-817031D02*
X310324Y-807508D01*
X310324Y-807508D02*
X329372Y-797984D01*
X481753Y-978936D02*
X491277Y-988460D01*
X491277Y-988460D02*
X481753Y-997984D01*
X481753Y-997984D02*
X472229Y-988460D01*
X472229Y-988460D02*
X481753Y-978936D01*
X481753Y-978936D02*
X481753Y-997984D01*
X557944Y-797984D02*
X681753Y-797984D01*
X681753Y-797984D02*
X615086Y-874174D01*
X615086Y-874174D02*
X643658Y-874174D01*
X643658Y-874174D02*
X662705Y-883698D01*
X662705Y-883698D02*
X672229Y-893222D01*
X672229Y-893222D02*
X681753Y-912269D01*
X681753Y-912269D02*
X681753Y-959888D01*
X681753Y-959888D02*
X672229Y-978936D01*
X672229Y-978936D02*
X662705Y-988460D01*
X662705Y-988460D02*
X643658Y-997984D01*
X643658Y-997984D02*
X586515Y-997984D01*
X586515Y-997984D02*
X567467Y-988460D01*
X567467Y-988460D02*
X557944Y-978936D01*
X805562Y-797984D02*
X824610Y-797984D01*
X824610Y-797984D02*
X843658Y-807508D01*
X843658Y-807508D02*
X853182Y-817031D01*
X853182Y-817031D02*
X862705Y-836079D01*
X862705Y-836079D02*
X872229Y-874174D01*
X872229Y-874174D02*
X872229Y-921793D01*
X872229Y-921793D02*
X862705Y-959888D01*
X862705Y-959888D02*
X853182Y-978936D01*
X853182Y-978936D02*
X843658Y-988460D01*
X843658Y-988460D02*
X824610Y-997984D01*
X824610Y-997984D02*
X805562Y-997984D01*
X805562Y-997984D02*
X786515Y-988460D01*
X786515Y-988460D02*
X776991Y-978936D01*
X776991Y-978936D02*
X767467Y-959888D01*
X767467Y-959888D02*
X757943Y-921793D01*
X757943Y-921793D02*
X757943Y-874174D01*
X757943Y-874174D02*
X767467Y-836079D01*
X767467Y-836079D02*
X776991Y-817031D01*
X776991Y-817031D02*
X786515Y-807508D01*
X786515Y-807508D02*
X805562Y-797984D01*
X996039Y-797984D02*
X1015086Y-797984D01*
X1015086Y-797984D02*
X1034134Y-807508D01*
X1034134Y-807508D02*
X1043658Y-817031D01*
X1043658Y-817031D02*
X1053182Y-836079D01*
X1053182Y-836079D02*
X1062705Y-874174D01*
X1062705Y-874174D02*
X1062705Y-921793D01*
X1062705Y-921793D02*
X1053182Y-959888D01*
X1053182Y-959888D02*
X1043658Y-978936D01*
X1043658Y-978936D02*
X1034134Y-988460D01*
X1034134Y-988460D02*
X1015086Y-997984D01*
X1015086Y-997984D02*
X996039Y-997984D01*
X996039Y-997984D02*
X976991Y-988460D01*
X976991Y-988460D02*
X967467Y-978936D01*
X967467Y-978936D02*
X957943Y-959888D01*
X957943Y-959888D02*
X948420Y-921793D01*
X948420Y-921793D02*
X948420Y-874174D01*
X948420Y-874174D02*
X957943Y-836079D01*
X957943Y-836079D02*
X967467Y-817031D01*
X967467Y-817031D02*
X976991Y-807508D01*
X976991Y-807508D02*
X996039Y-797984D01*
X1148420Y-997984D02*
X1148420Y-864650D01*
X1148420Y-883698D02*
X1157944Y-874174D01*
X1157944Y-874174D02*
X1176991Y-864650D01*
X1176991Y-864650D02*
X1205563Y-864650D01*
X1205563Y-864650D02*
X1224610Y-874174D01*
X1224610Y-874174D02*
X1234134Y-893222D01*
X1234134Y-893222D02*
X1234134Y-997984D01*
X1234134Y-893222D02*
X1243658Y-874174D01*
X1243658Y-874174D02*
X1262705Y-864650D01*
X1262705Y-864650D02*
X1291277Y-864650D01*
X1291277Y-864650D02*
X1310325Y-874174D01*
X1310325Y-874174D02*
X1319848Y-893222D01*
X1319848Y-893222D02*
X1319848Y-997984D01*
X1415086Y-997984D02*
X1415086Y-864650D01*
X1415086Y-883698D02*
X1424610Y-874174D01*
X1424610Y-874174D02*
X1443658Y-864650D01*
X1443658Y-864650D02*
X1472229Y-864650D01*
X1472229Y-864650D02*
X1491277Y-874174D01*
X1491277Y-874174D02*
X1500801Y-893222D01*
X1500801Y-893222D02*
X1500801Y-997984D01*
X1500801Y-893222D02*
X1510324Y-874174D01*
X1510324Y-874174D02*
X1529372Y-864650D01*
X1529372Y-864650D02*
X1557943Y-864650D01*
X1557943Y-864650D02*
X1576991Y-874174D01*
X1576991Y-874174D02*
X1586515Y-893222D01*
X1586515Y-893222D02*
X1586515Y-997984D01*
X1976991Y-788460D02*
X1805563Y-1045603D01*
X2234134Y-797984D02*
X2253182Y-797984D01*
X2253182Y-797984D02*
X2272229Y-807508D01*
X2272229Y-807508D02*
X2281753Y-817031D01*
X2281753Y-817031D02*
X2291277Y-836079D01*
X2291277Y-836079D02*
X2300801Y-874174D01*
X2300801Y-874174D02*
X2300801Y-921793D01*
X2300801Y-921793D02*
X2291277Y-959888D01*
X2291277Y-959888D02*
X2281753Y-978936D01*
X2281753Y-978936D02*
X2272229Y-988460D01*
X2272229Y-988460D02*
X2253182Y-997984D01*
X2253182Y-997984D02*
X2234134Y-997984D01*
X2234134Y-997984D02*
X2215087Y-988460D01*
X2215087Y-988460D02*
X2205563Y-978936D01*
X2205563Y-978936D02*
X2196039Y-959888D01*
X2196039Y-959888D02*
X2186515Y-921793D01*
X2186515Y-921793D02*
X2186515Y-874174D01*
X2186515Y-874174D02*
X2196039Y-836079D01*
X2196039Y-836079D02*
X2205563Y-817031D01*
X2205563Y-817031D02*
X2215087Y-807508D01*
X2215087Y-807508D02*
X2234134Y-797984D01*
X2386515Y-978936D02*
X2396039Y-988460D01*
X2396039Y-988460D02*
X2386515Y-997984D01*
X2386515Y-997984D02*
X2376991Y-988460D01*
X2376991Y-988460D02*
X2386515Y-978936D01*
X2386515Y-978936D02*
X2386515Y-997984D01*
X2519848Y-797984D02*
X2538896Y-797984D01*
X2538896Y-797984D02*
X2557944Y-807508D01*
X2557944Y-807508D02*
X2567468Y-817031D01*
X2567468Y-817031D02*
X2576991Y-836079D01*
X2576991Y-836079D02*
X2586515Y-874174D01*
X2586515Y-874174D02*
X2586515Y-921793D01*
X2586515Y-921793D02*
X2576991Y-959888D01*
X2576991Y-959888D02*
X2567468Y-978936D01*
X2567468Y-978936D02*
X2557944Y-988460D01*
X2557944Y-988460D02*
X2538896Y-997984D01*
X2538896Y-997984D02*
X2519848Y-997984D01*
X2519848Y-997984D02*
X2500801Y-988460D01*
X2500801Y-988460D02*
X2491277Y-978936D01*
X2491277Y-978936D02*
X2481753Y-959888D01*
X2481753Y-959888D02*
X2472229Y-921793D01*
X2472229Y-921793D02*
X2472229Y-874174D01*
X2472229Y-874174D02*
X2481753Y-836079D01*
X2481753Y-836079D02*
X2491277Y-817031D01*
X2491277Y-817031D02*
X2500801Y-807508D01*
X2500801Y-807508D02*
X2519848Y-797984D01*
X2776991Y-997984D02*
X2662706Y-997984D01*
X2719848Y-997984D02*
X2719848Y-797984D01*
X2719848Y-797984D02*
X2700801Y-826555D01*
X2700801Y-826555D02*
X2681753Y-845603D01*
X2681753Y-845603D02*
X2662706Y-855127D01*
X2967467Y-997984D02*
X2853182Y-997984D01*
X2910325Y-997984D02*
X2910325Y-797984D01*
X2910325Y-797984D02*
X2891277Y-826555D01*
X2891277Y-826555D02*
X2872229Y-845603D01*
X2872229Y-845603D02*
X2853182Y-855127D01*
X3081753Y-883698D02*
X3062706Y-874174D01*
X3062706Y-874174D02*
X3053182Y-864650D01*
X3053182Y-864650D02*
X3043658Y-845603D01*
X3043658Y-845603D02*
X3043658Y-836079D01*
X3043658Y-836079D02*
X3053182Y-817031D01*
X3053182Y-817031D02*
X3062706Y-807508D01*
X3062706Y-807508D02*
X3081753Y-797984D01*
X3081753Y-797984D02*
X3119848Y-797984D01*
X3119848Y-797984D02*
X3138896Y-807508D01*
X3138896Y-807508D02*
X3148420Y-817031D01*
X3148420Y-817031D02*
X3157944Y-836079D01*
X3157944Y-836079D02*
X3157944Y-845603D01*
X3157944Y-845603D02*
X3148420Y-864650D01*
X3148420Y-864650D02*
X3138896Y-874174D01*
X3138896Y-874174D02*
X3119848Y-883698D01*
X3119848Y-883698D02*
X3081753Y-883698D01*
X3081753Y-883698D02*
X3062706Y-893222D01*
X3062706Y-893222D02*
X3053182Y-902746D01*
X3053182Y-902746D02*
X3043658Y-921793D01*
X3043658Y-921793D02*
X3043658Y-959888D01*
X3043658Y-959888D02*
X3053182Y-978936D01*
X3053182Y-978936D02*
X3062706Y-988460D01*
X3062706Y-988460D02*
X3081753Y-997984D01*
X3081753Y-997984D02*
X3119848Y-997984D01*
X3119848Y-997984D02*
X3138896Y-988460D01*
X3138896Y-988460D02*
X3148420Y-978936D01*
X3148420Y-978936D02*
X3157944Y-959888D01*
X3157944Y-959888D02*
X3157944Y-921793D01*
X3157944Y-921793D02*
X3148420Y-902746D01*
X3148420Y-902746D02*
X3138896Y-893222D01*
X3138896Y-893222D02*
X3119848Y-883698D01*
X3234134Y-797984D02*
X3234134Y-836079D01*
X3310325Y-797984D02*
X3310325Y-836079D01*
X3605563Y-1074174D02*
X3596039Y-1064650D01*
X3596039Y-1064650D02*
X3576991Y-1036079D01*
X3576991Y-1036079D02*
X3567468Y-1017031D01*
X3567468Y-1017031D02*
X3557944Y-988460D01*
X3557944Y-988460D02*
X3548420Y-940841D01*
X3548420Y-940841D02*
X3548420Y-902746D01*
X3548420Y-902746D02*
X3557944Y-855127D01*
X3557944Y-855127D02*
X3567468Y-826555D01*
X3567468Y-826555D02*
X3576991Y-807508D01*
X3576991Y-807508D02*
X3596039Y-778936D01*
X3596039Y-778936D02*
X3605563Y-769412D01*
X3691277Y-997984D02*
X3729372Y-997984D01*
X3729372Y-997984D02*
X3748420Y-988460D01*
X3748420Y-988460D02*
X3757944Y-978936D01*
X3757944Y-978936D02*
X3776991Y-950365D01*
X3776991Y-950365D02*
X3786515Y-912269D01*
X3786515Y-912269D02*
X3786515Y-836079D01*
X3786515Y-836079D02*
X3776991Y-817031D01*
X3776991Y-817031D02*
X3767468Y-807508D01*
X3767468Y-807508D02*
X3748420Y-797984D01*
X3748420Y-797984D02*
X3710325Y-797984D01*
X3710325Y-797984D02*
X3691277Y-807508D01*
X3691277Y-807508D02*
X3681753Y-817031D01*
X3681753Y-817031D02*
X3672229Y-836079D01*
X3672229Y-836079D02*
X3672229Y-883698D01*
X3672229Y-883698D02*
X3681753Y-902746D01*
X3681753Y-902746D02*
X3691277Y-912269D01*
X3691277Y-912269D02*
X3710325Y-921793D01*
X3710325Y-921793D02*
X3748420Y-921793D01*
X3748420Y-921793D02*
X3767468Y-912269D01*
X3767468Y-912269D02*
X3776991Y-902746D01*
X3776991Y-902746D02*
X3786515Y-883698D01*
X4024610Y-997984D02*
X4024610Y-797984D01*
X4110325Y-997984D02*
X4110325Y-893222D01*
X4110325Y-893222D02*
X4100801Y-874174D01*
X4100801Y-874174D02*
X4081753Y-864650D01*
X4081753Y-864650D02*
X4053182Y-864650D01*
X4053182Y-864650D02*
X4034134Y-874174D01*
X4034134Y-874174D02*
X4024610Y-883698D01*
X4234134Y-997984D02*
X4215087Y-988460D01*
X4215087Y-988460D02*
X4205563Y-978936D01*
X4205563Y-978936D02*
X4196039Y-959888D01*
X4196039Y-959888D02*
X4196039Y-902746D01*
X4196039Y-902746D02*
X4205563Y-883698D01*
X4205563Y-883698D02*
X4215087Y-874174D01*
X4215087Y-874174D02*
X4234134Y-864650D01*
X4234134Y-864650D02*
X4262706Y-864650D01*
X4262706Y-864650D02*
X4281753Y-874174D01*
X4281753Y-874174D02*
X4291277Y-883698D01*
X4291277Y-883698D02*
X4300801Y-902746D01*
X4300801Y-902746D02*
X4300801Y-959888D01*
X4300801Y-959888D02*
X4291277Y-978936D01*
X4291277Y-978936D02*
X4281753Y-988460D01*
X4281753Y-988460D02*
X4262706Y-997984D01*
X4262706Y-997984D02*
X4234134Y-997984D01*
X4415087Y-997984D02*
X4396039Y-988460D01*
X4396039Y-988460D02*
X4386515Y-969412D01*
X4386515Y-969412D02*
X4386515Y-797984D01*
X4567468Y-988460D02*
X4548420Y-997984D01*
X4548420Y-997984D02*
X4510325Y-997984D01*
X4510325Y-997984D02*
X4491277Y-988460D01*
X4491277Y-988460D02*
X4481753Y-969412D01*
X4481753Y-969412D02*
X4481753Y-893222D01*
X4481753Y-893222D02*
X4491277Y-874174D01*
X4491277Y-874174D02*
X4510325Y-864650D01*
X4510325Y-864650D02*
X4548420Y-864650D01*
X4548420Y-864650D02*
X4567468Y-874174D01*
X4567468Y-874174D02*
X4576992Y-893222D01*
X4576992Y-893222D02*
X4576992Y-912269D01*
X4576992Y-912269D02*
X4481753Y-931317D01*
X4653182Y-988460D02*
X4672230Y-997984D01*
X4672230Y-997984D02*
X4710325Y-997984D01*
X4710325Y-997984D02*
X4729373Y-988460D01*
X4729373Y-988460D02*
X4738896Y-969412D01*
X4738896Y-969412D02*
X4738896Y-959888D01*
X4738896Y-959888D02*
X4729373Y-940841D01*
X4729373Y-940841D02*
X4710325Y-931317D01*
X4710325Y-931317D02*
X4681753Y-931317D01*
X4681753Y-931317D02*
X4662706Y-921793D01*
X4662706Y-921793D02*
X4653182Y-902746D01*
X4653182Y-902746D02*
X4653182Y-893222D01*
X4653182Y-893222D02*
X4662706Y-874174D01*
X4662706Y-874174D02*
X4681753Y-864650D01*
X4681753Y-864650D02*
X4710325Y-864650D01*
X4710325Y-864650D02*
X4729373Y-874174D01*
X4805563Y-1074174D02*
X4815087Y-1064650D01*
X4815087Y-1064650D02*
X4834134Y-1036079D01*
X4834134Y-1036079D02*
X4843658Y-1017031D01*
X4843658Y-1017031D02*
X4853182Y-988460D01*
X4853182Y-988460D02*
X4862706Y-940841D01*
X4862706Y-940841D02*
X4862706Y-902746D01*
X4862706Y-902746D02*
X4853182Y-855127D01*
X4853182Y-855127D02*
X4843658Y-826555D01*
X4843658Y-826555D02*
X4834134Y-807508D01*
X4834134Y-807508D02*
X4815087Y-778936D01*
X4815087Y-778936D02*
X4805563Y-769412D01*
D12*
X500Y-1140500D02*
X500Y-1200500D01*
X-29500Y-1170500D02*
X30500Y-1170500D01*
D11*
X329372Y-1061984D02*
X348420Y-1061984D01*
X348420Y-1061984D02*
X367467Y-1071508D01*
X367467Y-1071508D02*
X376991Y-1081031D01*
X376991Y-1081031D02*
X386515Y-1100079D01*
X386515Y-1100079D02*
X396039Y-1138174D01*
X396039Y-1138174D02*
X396039Y-1185793D01*
X396039Y-1185793D02*
X386515Y-1223889D01*
X386515Y-1223889D02*
X376991Y-1242936D01*
X376991Y-1242936D02*
X367467Y-1252460D01*
X367467Y-1252460D02*
X348420Y-1261984D01*
X348420Y-1261984D02*
X329372Y-1261984D01*
X329372Y-1261984D02*
X310324Y-1252460D01*
X310324Y-1252460D02*
X300801Y-1242936D01*
X300801Y-1242936D02*
X291277Y-1223889D01*
X291277Y-1223889D02*
X281753Y-1185793D01*
X281753Y-1185793D02*
X281753Y-1138174D01*
X281753Y-1138174D02*
X291277Y-1100079D01*
X291277Y-1100079D02*
X300801Y-1081031D01*
X300801Y-1081031D02*
X310324Y-1071508D01*
X310324Y-1071508D02*
X329372Y-1061984D01*
X481753Y-1242936D02*
X491277Y-1252460D01*
X491277Y-1252460D02*
X481753Y-1261984D01*
X481753Y-1261984D02*
X472229Y-1252460D01*
X472229Y-1252460D02*
X481753Y-1242936D01*
X481753Y-1242936D02*
X481753Y-1261984D01*
X662705Y-1061984D02*
X624610Y-1061984D01*
X624610Y-1061984D02*
X605563Y-1071508D01*
X605563Y-1071508D02*
X596039Y-1081031D01*
X596039Y-1081031D02*
X576991Y-1109603D01*
X576991Y-1109603D02*
X567467Y-1147698D01*
X567467Y-1147698D02*
X567467Y-1223889D01*
X567467Y-1223889D02*
X576991Y-1242936D01*
X576991Y-1242936D02*
X586515Y-1252460D01*
X586515Y-1252460D02*
X605563Y-1261984D01*
X605563Y-1261984D02*
X643658Y-1261984D01*
X643658Y-1261984D02*
X662705Y-1252460D01*
X662705Y-1252460D02*
X672229Y-1242936D01*
X672229Y-1242936D02*
X681753Y-1223889D01*
X681753Y-1223889D02*
X681753Y-1176270D01*
X681753Y-1176270D02*
X672229Y-1157222D01*
X672229Y-1157222D02*
X662705Y-1147698D01*
X662705Y-1147698D02*
X643658Y-1138174D01*
X643658Y-1138174D02*
X605563Y-1138174D01*
X605563Y-1138174D02*
X586515Y-1147698D01*
X586515Y-1147698D02*
X576991Y-1157222D01*
X576991Y-1157222D02*
X567467Y-1176270D01*
X805562Y-1061984D02*
X824610Y-1061984D01*
X824610Y-1061984D02*
X843658Y-1071508D01*
X843658Y-1071508D02*
X853182Y-1081031D01*
X853182Y-1081031D02*
X862705Y-1100079D01*
X862705Y-1100079D02*
X872229Y-1138174D01*
X872229Y-1138174D02*
X872229Y-1185793D01*
X872229Y-1185793D02*
X862705Y-1223889D01*
X862705Y-1223889D02*
X853182Y-1242936D01*
X853182Y-1242936D02*
X843658Y-1252460D01*
X843658Y-1252460D02*
X824610Y-1261984D01*
X824610Y-1261984D02*
X805562Y-1261984D01*
X805562Y-1261984D02*
X786515Y-1252460D01*
X786515Y-1252460D02*
X776991Y-1242936D01*
X776991Y-1242936D02*
X767467Y-1223889D01*
X767467Y-1223889D02*
X757943Y-1185793D01*
X757943Y-1185793D02*
X757943Y-1138174D01*
X757943Y-1138174D02*
X767467Y-1100079D01*
X767467Y-1100079D02*
X776991Y-1081031D01*
X776991Y-1081031D02*
X786515Y-1071508D01*
X786515Y-1071508D02*
X805562Y-1061984D01*
X996039Y-1061984D02*
X1015086Y-1061984D01*
X1015086Y-1061984D02*
X1034134Y-1071508D01*
X1034134Y-1071508D02*
X1043658Y-1081031D01*
X1043658Y-1081031D02*
X1053182Y-1100079D01*
X1053182Y-1100079D02*
X1062705Y-1138174D01*
X1062705Y-1138174D02*
X1062705Y-1185793D01*
X1062705Y-1185793D02*
X1053182Y-1223889D01*
X1053182Y-1223889D02*
X1043658Y-1242936D01*
X1043658Y-1242936D02*
X1034134Y-1252460D01*
X1034134Y-1252460D02*
X1015086Y-1261984D01*
X1015086Y-1261984D02*
X996039Y-1261984D01*
X996039Y-1261984D02*
X976991Y-1252460D01*
X976991Y-1252460D02*
X967467Y-1242936D01*
X967467Y-1242936D02*
X957943Y-1223889D01*
X957943Y-1223889D02*
X948420Y-1185793D01*
X948420Y-1185793D02*
X948420Y-1138174D01*
X948420Y-1138174D02*
X957943Y-1100079D01*
X957943Y-1100079D02*
X967467Y-1081031D01*
X967467Y-1081031D02*
X976991Y-1071508D01*
X976991Y-1071508D02*
X996039Y-1061984D01*
X1148420Y-1261984D02*
X1148420Y-1128650D01*
X1148420Y-1147698D02*
X1157944Y-1138174D01*
X1157944Y-1138174D02*
X1176991Y-1128650D01*
X1176991Y-1128650D02*
X1205563Y-1128650D01*
X1205563Y-1128650D02*
X1224610Y-1138174D01*
X1224610Y-1138174D02*
X1234134Y-1157222D01*
X1234134Y-1157222D02*
X1234134Y-1261984D01*
X1234134Y-1157222D02*
X1243658Y-1138174D01*
X1243658Y-1138174D02*
X1262705Y-1128650D01*
X1262705Y-1128650D02*
X1291277Y-1128650D01*
X1291277Y-1128650D02*
X1310325Y-1138174D01*
X1310325Y-1138174D02*
X1319848Y-1157222D01*
X1319848Y-1157222D02*
X1319848Y-1261984D01*
X1415086Y-1261984D02*
X1415086Y-1128650D01*
X1415086Y-1147698D02*
X1424610Y-1138174D01*
X1424610Y-1138174D02*
X1443658Y-1128650D01*
X1443658Y-1128650D02*
X1472229Y-1128650D01*
X1472229Y-1128650D02*
X1491277Y-1138174D01*
X1491277Y-1138174D02*
X1500801Y-1157222D01*
X1500801Y-1157222D02*
X1500801Y-1261984D01*
X1500801Y-1157222D02*
X1510324Y-1138174D01*
X1510324Y-1138174D02*
X1529372Y-1128650D01*
X1529372Y-1128650D02*
X1557943Y-1128650D01*
X1557943Y-1128650D02*
X1576991Y-1138174D01*
X1576991Y-1138174D02*
X1586515Y-1157222D01*
X1586515Y-1157222D02*
X1586515Y-1261984D01*
X1976991Y-1052460D02*
X1805563Y-1309603D01*
X2234134Y-1061984D02*
X2253182Y-1061984D01*
X2253182Y-1061984D02*
X2272229Y-1071508D01*
X2272229Y-1071508D02*
X2281753Y-1081031D01*
X2281753Y-1081031D02*
X2291277Y-1100079D01*
X2291277Y-1100079D02*
X2300801Y-1138174D01*
X2300801Y-1138174D02*
X2300801Y-1185793D01*
X2300801Y-1185793D02*
X2291277Y-1223889D01*
X2291277Y-1223889D02*
X2281753Y-1242936D01*
X2281753Y-1242936D02*
X2272229Y-1252460D01*
X2272229Y-1252460D02*
X2253182Y-1261984D01*
X2253182Y-1261984D02*
X2234134Y-1261984D01*
X2234134Y-1261984D02*
X2215087Y-1252460D01*
X2215087Y-1252460D02*
X2205563Y-1242936D01*
X2205563Y-1242936D02*
X2196039Y-1223889D01*
X2196039Y-1223889D02*
X2186515Y-1185793D01*
X2186515Y-1185793D02*
X2186515Y-1138174D01*
X2186515Y-1138174D02*
X2196039Y-1100079D01*
X2196039Y-1100079D02*
X2205563Y-1081031D01*
X2205563Y-1081031D02*
X2215087Y-1071508D01*
X2215087Y-1071508D02*
X2234134Y-1061984D01*
X2386515Y-1242936D02*
X2396039Y-1252460D01*
X2396039Y-1252460D02*
X2386515Y-1261984D01*
X2386515Y-1261984D02*
X2376991Y-1252460D01*
X2376991Y-1252460D02*
X2386515Y-1242936D01*
X2386515Y-1242936D02*
X2386515Y-1261984D01*
X2519848Y-1061984D02*
X2538896Y-1061984D01*
X2538896Y-1061984D02*
X2557944Y-1071508D01*
X2557944Y-1071508D02*
X2567468Y-1081031D01*
X2567468Y-1081031D02*
X2576991Y-1100079D01*
X2576991Y-1100079D02*
X2586515Y-1138174D01*
X2586515Y-1138174D02*
X2586515Y-1185793D01*
X2586515Y-1185793D02*
X2576991Y-1223889D01*
X2576991Y-1223889D02*
X2567468Y-1242936D01*
X2567468Y-1242936D02*
X2557944Y-1252460D01*
X2557944Y-1252460D02*
X2538896Y-1261984D01*
X2538896Y-1261984D02*
X2519848Y-1261984D01*
X2519848Y-1261984D02*
X2500801Y-1252460D01*
X2500801Y-1252460D02*
X2491277Y-1242936D01*
X2491277Y-1242936D02*
X2481753Y-1223889D01*
X2481753Y-1223889D02*
X2472229Y-1185793D01*
X2472229Y-1185793D02*
X2472229Y-1138174D01*
X2472229Y-1138174D02*
X2481753Y-1100079D01*
X2481753Y-1100079D02*
X2491277Y-1081031D01*
X2491277Y-1081031D02*
X2500801Y-1071508D01*
X2500801Y-1071508D02*
X2519848Y-1061984D01*
X2662706Y-1081031D02*
X2672229Y-1071508D01*
X2672229Y-1071508D02*
X2691277Y-1061984D01*
X2691277Y-1061984D02*
X2738896Y-1061984D01*
X2738896Y-1061984D02*
X2757944Y-1071508D01*
X2757944Y-1071508D02*
X2767468Y-1081031D01*
X2767468Y-1081031D02*
X2776991Y-1100079D01*
X2776991Y-1100079D02*
X2776991Y-1119127D01*
X2776991Y-1119127D02*
X2767468Y-1147698D01*
X2767468Y-1147698D02*
X2653182Y-1261984D01*
X2653182Y-1261984D02*
X2776991Y-1261984D01*
X2843658Y-1061984D02*
X2967467Y-1061984D01*
X2967467Y-1061984D02*
X2900801Y-1138174D01*
X2900801Y-1138174D02*
X2929372Y-1138174D01*
X2929372Y-1138174D02*
X2948420Y-1147698D01*
X2948420Y-1147698D02*
X2957944Y-1157222D01*
X2957944Y-1157222D02*
X2967467Y-1176270D01*
X2967467Y-1176270D02*
X2967467Y-1223889D01*
X2967467Y-1223889D02*
X2957944Y-1242936D01*
X2957944Y-1242936D02*
X2948420Y-1252460D01*
X2948420Y-1252460D02*
X2929372Y-1261984D01*
X2929372Y-1261984D02*
X2872229Y-1261984D01*
X2872229Y-1261984D02*
X2853182Y-1252460D01*
X2853182Y-1252460D02*
X2843658Y-1242936D01*
X3138896Y-1061984D02*
X3100801Y-1061984D01*
X3100801Y-1061984D02*
X3081753Y-1071508D01*
X3081753Y-1071508D02*
X3072229Y-1081031D01*
X3072229Y-1081031D02*
X3053182Y-1109603D01*
X3053182Y-1109603D02*
X3043658Y-1147698D01*
X3043658Y-1147698D02*
X3043658Y-1223889D01*
X3043658Y-1223889D02*
X3053182Y-1242936D01*
X3053182Y-1242936D02*
X3062706Y-1252460D01*
X3062706Y-1252460D02*
X3081753Y-1261984D01*
X3081753Y-1261984D02*
X3119848Y-1261984D01*
X3119848Y-1261984D02*
X3138896Y-1252460D01*
X3138896Y-1252460D02*
X3148420Y-1242936D01*
X3148420Y-1242936D02*
X3157944Y-1223889D01*
X3157944Y-1223889D02*
X3157944Y-1176270D01*
X3157944Y-1176270D02*
X3148420Y-1157222D01*
X3148420Y-1157222D02*
X3138896Y-1147698D01*
X3138896Y-1147698D02*
X3119848Y-1138174D01*
X3119848Y-1138174D02*
X3081753Y-1138174D01*
X3081753Y-1138174D02*
X3062706Y-1147698D01*
X3062706Y-1147698D02*
X3053182Y-1157222D01*
X3053182Y-1157222D02*
X3043658Y-1176270D01*
X3234134Y-1061984D02*
X3234134Y-1100079D01*
X3310325Y-1061984D02*
X3310325Y-1100079D01*
X3605563Y-1338174D02*
X3596039Y-1328650D01*
X3596039Y-1328650D02*
X3576991Y-1300079D01*
X3576991Y-1300079D02*
X3567468Y-1281031D01*
X3567468Y-1281031D02*
X3557944Y-1252460D01*
X3557944Y-1252460D02*
X3548420Y-1204841D01*
X3548420Y-1204841D02*
X3548420Y-1166746D01*
X3548420Y-1166746D02*
X3557944Y-1119127D01*
X3557944Y-1119127D02*
X3567468Y-1090555D01*
X3567468Y-1090555D02*
X3576991Y-1071508D01*
X3576991Y-1071508D02*
X3596039Y-1042936D01*
X3596039Y-1042936D02*
X3605563Y-1033412D01*
X3719848Y-1061984D02*
X3738896Y-1061984D01*
X3738896Y-1061984D02*
X3757944Y-1071508D01*
X3757944Y-1071508D02*
X3767468Y-1081031D01*
X3767468Y-1081031D02*
X3776991Y-1100079D01*
X3776991Y-1100079D02*
X3786515Y-1138174D01*
X3786515Y-1138174D02*
X3786515Y-1185793D01*
X3786515Y-1185793D02*
X3776991Y-1223889D01*
X3776991Y-1223889D02*
X3767468Y-1242936D01*
X3767468Y-1242936D02*
X3757944Y-1252460D01*
X3757944Y-1252460D02*
X3738896Y-1261984D01*
X3738896Y-1261984D02*
X3719848Y-1261984D01*
X3719848Y-1261984D02*
X3700801Y-1252460D01*
X3700801Y-1252460D02*
X3691277Y-1242936D01*
X3691277Y-1242936D02*
X3681753Y-1223889D01*
X3681753Y-1223889D02*
X3672229Y-1185793D01*
X3672229Y-1185793D02*
X3672229Y-1138174D01*
X3672229Y-1138174D02*
X3681753Y-1100079D01*
X3681753Y-1100079D02*
X3691277Y-1081031D01*
X3691277Y-1081031D02*
X3700801Y-1071508D01*
X3700801Y-1071508D02*
X3719848Y-1061984D01*
X4024610Y-1261984D02*
X4024610Y-1061984D01*
X4110325Y-1261984D02*
X4110325Y-1157222D01*
X4110325Y-1157222D02*
X4100801Y-1138174D01*
X4100801Y-1138174D02*
X4081753Y-1128650D01*
X4081753Y-1128650D02*
X4053182Y-1128650D01*
X4053182Y-1128650D02*
X4034134Y-1138174D01*
X4034134Y-1138174D02*
X4024610Y-1147698D01*
X4234134Y-1261984D02*
X4215087Y-1252460D01*
X4215087Y-1252460D02*
X4205563Y-1242936D01*
X4205563Y-1242936D02*
X4196039Y-1223889D01*
X4196039Y-1223889D02*
X4196039Y-1166746D01*
X4196039Y-1166746D02*
X4205563Y-1147698D01*
X4205563Y-1147698D02*
X4215087Y-1138174D01*
X4215087Y-1138174D02*
X4234134Y-1128650D01*
X4234134Y-1128650D02*
X4262706Y-1128650D01*
X4262706Y-1128650D02*
X4281753Y-1138174D01*
X4281753Y-1138174D02*
X4291277Y-1147698D01*
X4291277Y-1147698D02*
X4300801Y-1166746D01*
X4300801Y-1166746D02*
X4300801Y-1223889D01*
X4300801Y-1223889D02*
X4291277Y-1242936D01*
X4291277Y-1242936D02*
X4281753Y-1252460D01*
X4281753Y-1252460D02*
X4262706Y-1261984D01*
X4262706Y-1261984D02*
X4234134Y-1261984D01*
X4415087Y-1261984D02*
X4396039Y-1252460D01*
X4396039Y-1252460D02*
X4386515Y-1233412D01*
X4386515Y-1233412D02*
X4386515Y-1061984D01*
X4567468Y-1252460D02*
X4548420Y-1261984D01*
X4548420Y-1261984D02*
X4510325Y-1261984D01*
X4510325Y-1261984D02*
X4491277Y-1252460D01*
X4491277Y-1252460D02*
X4481753Y-1233412D01*
X4481753Y-1233412D02*
X4481753Y-1157222D01*
X4481753Y-1157222D02*
X4491277Y-1138174D01*
X4491277Y-1138174D02*
X4510325Y-1128650D01*
X4510325Y-1128650D02*
X4548420Y-1128650D01*
X4548420Y-1128650D02*
X4567468Y-1138174D01*
X4567468Y-1138174D02*
X4576992Y-1157222D01*
X4576992Y-1157222D02*
X4576992Y-1176270D01*
X4576992Y-1176270D02*
X4481753Y-1195317D01*
X4653182Y-1252460D02*
X4672230Y-1261984D01*
X4672230Y-1261984D02*
X4710325Y-1261984D01*
X4710325Y-1261984D02*
X4729373Y-1252460D01*
X4729373Y-1252460D02*
X4738896Y-1233412D01*
X4738896Y-1233412D02*
X4738896Y-1223889D01*
X4738896Y-1223889D02*
X4729373Y-1204841D01*
X4729373Y-1204841D02*
X4710325Y-1195317D01*
X4710325Y-1195317D02*
X4681753Y-1195317D01*
X4681753Y-1195317D02*
X4662706Y-1185793D01*
X4662706Y-1185793D02*
X4653182Y-1166746D01*
X4653182Y-1166746D02*
X4653182Y-1157222D01*
X4653182Y-1157222D02*
X4662706Y-1138174D01*
X4662706Y-1138174D02*
X4681753Y-1128650D01*
X4681753Y-1128650D02*
X4710325Y-1128650D01*
X4710325Y-1128650D02*
X4729373Y-1138174D01*
X4976992Y-1185793D02*
X5129373Y-1185793D01*
X5053182Y-1261984D02*
X5053182Y-1109603D01*
X5462706Y-1128650D02*
X5462706Y-1261984D01*
X5415087Y-1052460D02*
X5367468Y-1195317D01*
X5367468Y-1195317D02*
X5491277Y-1195317D01*
X5710325Y-1252460D02*
X5729373Y-1261984D01*
X5729373Y-1261984D02*
X5767468Y-1261984D01*
X5767468Y-1261984D02*
X5786515Y-1252460D01*
X5786515Y-1252460D02*
X5796039Y-1233412D01*
X5796039Y-1233412D02*
X5796039Y-1223889D01*
X5796039Y-1223889D02*
X5786515Y-1204841D01*
X5786515Y-1204841D02*
X5767468Y-1195317D01*
X5767468Y-1195317D02*
X5738896Y-1195317D01*
X5738896Y-1195317D02*
X5719849Y-1185793D01*
X5719849Y-1185793D02*
X5710325Y-1166746D01*
X5710325Y-1166746D02*
X5710325Y-1157222D01*
X5710325Y-1157222D02*
X5719849Y-1138174D01*
X5719849Y-1138174D02*
X5738896Y-1128650D01*
X5738896Y-1128650D02*
X5767468Y-1128650D01*
X5767468Y-1128650D02*
X5786515Y-1138174D01*
X5910325Y-1261984D02*
X5891277Y-1252460D01*
X5891277Y-1252460D02*
X5881754Y-1233412D01*
X5881754Y-1233412D02*
X5881754Y-1061984D01*
X6015087Y-1261984D02*
X5996039Y-1252460D01*
X5996039Y-1252460D02*
X5986515Y-1242936D01*
X5986515Y-1242936D02*
X5976992Y-1223889D01*
X5976992Y-1223889D02*
X5976992Y-1166746D01*
X5976992Y-1166746D02*
X5986515Y-1147698D01*
X5986515Y-1147698D02*
X5996039Y-1138174D01*
X5996039Y-1138174D02*
X6015087Y-1128650D01*
X6015087Y-1128650D02*
X6043658Y-1128650D01*
X6043658Y-1128650D02*
X6062706Y-1138174D01*
X6062706Y-1138174D02*
X6072230Y-1147698D01*
X6072230Y-1147698D02*
X6081754Y-1166746D01*
X6081754Y-1166746D02*
X6081754Y-1223889D01*
X6081754Y-1223889D02*
X6072230Y-1242936D01*
X6072230Y-1242936D02*
X6062706Y-1252460D01*
X6062706Y-1252460D02*
X6043658Y-1261984D01*
X6043658Y-1261984D02*
X6015087Y-1261984D01*
X6138896Y-1128650D02*
X6215087Y-1128650D01*
X6167468Y-1061984D02*
X6167468Y-1233412D01*
X6167468Y-1233412D02*
X6176992Y-1252460D01*
X6176992Y-1252460D02*
X6196039Y-1261984D01*
X6196039Y-1261984D02*
X6215087Y-1261984D01*
X6272230Y-1252460D02*
X6291277Y-1261984D01*
X6291277Y-1261984D02*
X6329373Y-1261984D01*
X6329373Y-1261984D02*
X6348420Y-1252460D01*
X6348420Y-1252460D02*
X6357944Y-1233412D01*
X6357944Y-1233412D02*
X6357944Y-1223889D01*
X6357944Y-1223889D02*
X6348420Y-1204841D01*
X6348420Y-1204841D02*
X6329373Y-1195317D01*
X6329373Y-1195317D02*
X6300801Y-1195317D01*
X6300801Y-1195317D02*
X6281754Y-1185793D01*
X6281754Y-1185793D02*
X6272230Y-1166746D01*
X6272230Y-1166746D02*
X6272230Y-1157222D01*
X6272230Y-1157222D02*
X6281754Y-1138174D01*
X6281754Y-1138174D02*
X6300801Y-1128650D01*
X6300801Y-1128650D02*
X6329373Y-1128650D01*
X6329373Y-1128650D02*
X6348420Y-1138174D01*
X6424611Y-1338174D02*
X6434135Y-1328650D01*
X6434135Y-1328650D02*
X6453182Y-1300079D01*
X6453182Y-1300079D02*
X6462706Y-1281031D01*
X6462706Y-1281031D02*
X6472230Y-1252460D01*
X6472230Y-1252460D02*
X6481754Y-1204841D01*
X6481754Y-1204841D02*
X6481754Y-1166746D01*
X6481754Y-1166746D02*
X6472230Y-1119127D01*
X6472230Y-1119127D02*
X6462706Y-1090555D01*
X6462706Y-1090555D02*
X6453182Y-1071508D01*
X6453182Y-1071508D02*
X6434135Y-1042936D01*
X6434135Y-1042936D02*
X6424611Y-1033412D01*
D12*
X17481Y-1465931D02*
X17481Y-1403069D01*
X-45381Y-1403069D01*
X-45381Y-1465931D01*
X17481Y-1465931D01*
D11*
X329372Y-1325984D02*
X348420Y-1325984D01*
X348420Y-1325984D02*
X367467Y-1335508D01*
X367467Y-1335508D02*
X376991Y-1345031D01*
X376991Y-1345031D02*
X386515Y-1364079D01*
X386515Y-1364079D02*
X396039Y-1402174D01*
X396039Y-1402174D02*
X396039Y-1449793D01*
X396039Y-1449793D02*
X386515Y-1487888D01*
X386515Y-1487888D02*
X376991Y-1506936D01*
X376991Y-1506936D02*
X367467Y-1516460D01*
X367467Y-1516460D02*
X348420Y-1525984D01*
X348420Y-1525984D02*
X329372Y-1525984D01*
X329372Y-1525984D02*
X310324Y-1516460D01*
X310324Y-1516460D02*
X300801Y-1506936D01*
X300801Y-1506936D02*
X291277Y-1487888D01*
X291277Y-1487888D02*
X281753Y-1449793D01*
X281753Y-1449793D02*
X281753Y-1402174D01*
X281753Y-1402174D02*
X291277Y-1364079D01*
X291277Y-1364079D02*
X300801Y-1345031D01*
X300801Y-1345031D02*
X310324Y-1335508D01*
X310324Y-1335508D02*
X329372Y-1325984D01*
X481753Y-1506936D02*
X491277Y-1516460D01*
X491277Y-1516460D02*
X481753Y-1525984D01*
X481753Y-1525984D02*
X472229Y-1516460D01*
X472229Y-1516460D02*
X481753Y-1506936D01*
X481753Y-1506936D02*
X481753Y-1525984D01*
X605563Y-1411698D02*
X586515Y-1402174D01*
X586515Y-1402174D02*
X576991Y-1392650D01*
X576991Y-1392650D02*
X567467Y-1373603D01*
X567467Y-1373603D02*
X567467Y-1364079D01*
X567467Y-1364079D02*
X576991Y-1345031D01*
X576991Y-1345031D02*
X586515Y-1335508D01*
X586515Y-1335508D02*
X605563Y-1325984D01*
X605563Y-1325984D02*
X643658Y-1325984D01*
X643658Y-1325984D02*
X662705Y-1335508D01*
X662705Y-1335508D02*
X672229Y-1345031D01*
X672229Y-1345031D02*
X681753Y-1364079D01*
X681753Y-1364079D02*
X681753Y-1373603D01*
X681753Y-1373603D02*
X672229Y-1392650D01*
X672229Y-1392650D02*
X662705Y-1402174D01*
X662705Y-1402174D02*
X643658Y-1411698D01*
X643658Y-1411698D02*
X605563Y-1411698D01*
X605563Y-1411698D02*
X586515Y-1421222D01*
X586515Y-1421222D02*
X576991Y-1430746D01*
X576991Y-1430746D02*
X567467Y-1449793D01*
X567467Y-1449793D02*
X567467Y-1487888D01*
X567467Y-1487888D02*
X576991Y-1506936D01*
X576991Y-1506936D02*
X586515Y-1516460D01*
X586515Y-1516460D02*
X605563Y-1525984D01*
X605563Y-1525984D02*
X643658Y-1525984D01*
X643658Y-1525984D02*
X662705Y-1516460D01*
X662705Y-1516460D02*
X672229Y-1506936D01*
X672229Y-1506936D02*
X681753Y-1487888D01*
X681753Y-1487888D02*
X681753Y-1449793D01*
X681753Y-1449793D02*
X672229Y-1430746D01*
X672229Y-1430746D02*
X662705Y-1421222D01*
X662705Y-1421222D02*
X643658Y-1411698D01*
X796039Y-1411698D02*
X776991Y-1402174D01*
X776991Y-1402174D02*
X767467Y-1392650D01*
X767467Y-1392650D02*
X757943Y-1373603D01*
X757943Y-1373603D02*
X757943Y-1364079D01*
X757943Y-1364079D02*
X767467Y-1345031D01*
X767467Y-1345031D02*
X776991Y-1335508D01*
X776991Y-1335508D02*
X796039Y-1325984D01*
X796039Y-1325984D02*
X834134Y-1325984D01*
X834134Y-1325984D02*
X853182Y-1335508D01*
X853182Y-1335508D02*
X862705Y-1345031D01*
X862705Y-1345031D02*
X872229Y-1364079D01*
X872229Y-1364079D02*
X872229Y-1373603D01*
X872229Y-1373603D02*
X862705Y-1392650D01*
X862705Y-1392650D02*
X853182Y-1402174D01*
X853182Y-1402174D02*
X834134Y-1411698D01*
X834134Y-1411698D02*
X796039Y-1411698D01*
X796039Y-1411698D02*
X776991Y-1421222D01*
X776991Y-1421222D02*
X767467Y-1430746D01*
X767467Y-1430746D02*
X757943Y-1449793D01*
X757943Y-1449793D02*
X757943Y-1487888D01*
X757943Y-1487888D02*
X767467Y-1506936D01*
X767467Y-1506936D02*
X776991Y-1516460D01*
X776991Y-1516460D02*
X796039Y-1525984D01*
X796039Y-1525984D02*
X834134Y-1525984D01*
X834134Y-1525984D02*
X853182Y-1516460D01*
X853182Y-1516460D02*
X862705Y-1506936D01*
X862705Y-1506936D02*
X872229Y-1487888D01*
X872229Y-1487888D02*
X872229Y-1449793D01*
X872229Y-1449793D02*
X862705Y-1430746D01*
X862705Y-1430746D02*
X853182Y-1421222D01*
X853182Y-1421222D02*
X834134Y-1411698D01*
X967467Y-1525984D02*
X1005562Y-1525984D01*
X1005562Y-1525984D02*
X1024610Y-1516460D01*
X1024610Y-1516460D02*
X1034134Y-1506936D01*
X1034134Y-1506936D02*
X1053182Y-1478365D01*
X1053182Y-1478365D02*
X1062705Y-1440269D01*
X1062705Y-1440269D02*
X1062705Y-1364079D01*
X1062705Y-1364079D02*
X1053182Y-1345031D01*
X1053182Y-1345031D02*
X1043658Y-1335508D01*
X1043658Y-1335508D02*
X1024610Y-1325984D01*
X1024610Y-1325984D02*
X986515Y-1325984D01*
X986515Y-1325984D02*
X967467Y-1335508D01*
X967467Y-1335508D02*
X957943Y-1345031D01*
X957943Y-1345031D02*
X948420Y-1364079D01*
X948420Y-1364079D02*
X948420Y-1411698D01*
X948420Y-1411698D02*
X957943Y-1430746D01*
X957943Y-1430746D02*
X967467Y-1440269D01*
X967467Y-1440269D02*
X986515Y-1449793D01*
X986515Y-1449793D02*
X1024610Y-1449793D01*
X1024610Y-1449793D02*
X1043658Y-1440269D01*
X1043658Y-1440269D02*
X1053182Y-1430746D01*
X1053182Y-1430746D02*
X1062705Y-1411698D01*
X1148420Y-1525984D02*
X1148420Y-1392650D01*
X1148420Y-1411698D02*
X1157944Y-1402174D01*
X1157944Y-1402174D02*
X1176991Y-1392650D01*
X1176991Y-1392650D02*
X1205563Y-1392650D01*
X1205563Y-1392650D02*
X1224610Y-1402174D01*
X1224610Y-1402174D02*
X1234134Y-1421222D01*
X1234134Y-1421222D02*
X1234134Y-1525984D01*
X1234134Y-1421222D02*
X1243658Y-1402174D01*
X1243658Y-1402174D02*
X1262705Y-1392650D01*
X1262705Y-1392650D02*
X1291277Y-1392650D01*
X1291277Y-1392650D02*
X1310325Y-1402174D01*
X1310325Y-1402174D02*
X1319848Y-1421222D01*
X1319848Y-1421222D02*
X1319848Y-1525984D01*
X1415086Y-1525984D02*
X1415086Y-1392650D01*
X1415086Y-1411698D02*
X1424610Y-1402174D01*
X1424610Y-1402174D02*
X1443658Y-1392650D01*
X1443658Y-1392650D02*
X1472229Y-1392650D01*
X1472229Y-1392650D02*
X1491277Y-1402174D01*
X1491277Y-1402174D02*
X1500801Y-1421222D01*
X1500801Y-1421222D02*
X1500801Y-1525984D01*
X1500801Y-1421222D02*
X1510324Y-1402174D01*
X1510324Y-1402174D02*
X1529372Y-1392650D01*
X1529372Y-1392650D02*
X1557943Y-1392650D01*
X1557943Y-1392650D02*
X1576991Y-1402174D01*
X1576991Y-1402174D02*
X1586515Y-1421222D01*
X1586515Y-1421222D02*
X1586515Y-1525984D01*
X1976991Y-1316460D02*
X1805563Y-1573603D01*
X2234134Y-1325984D02*
X2253182Y-1325984D01*
X2253182Y-1325984D02*
X2272229Y-1335508D01*
X2272229Y-1335508D02*
X2281753Y-1345031D01*
X2281753Y-1345031D02*
X2291277Y-1364079D01*
X2291277Y-1364079D02*
X2300801Y-1402174D01*
X2300801Y-1402174D02*
X2300801Y-1449793D01*
X2300801Y-1449793D02*
X2291277Y-1487888D01*
X2291277Y-1487888D02*
X2281753Y-1506936D01*
X2281753Y-1506936D02*
X2272229Y-1516460D01*
X2272229Y-1516460D02*
X2253182Y-1525984D01*
X2253182Y-1525984D02*
X2234134Y-1525984D01*
X2234134Y-1525984D02*
X2215087Y-1516460D01*
X2215087Y-1516460D02*
X2205563Y-1506936D01*
X2205563Y-1506936D02*
X2196039Y-1487888D01*
X2196039Y-1487888D02*
X2186515Y-1449793D01*
X2186515Y-1449793D02*
X2186515Y-1402174D01*
X2186515Y-1402174D02*
X2196039Y-1364079D01*
X2196039Y-1364079D02*
X2205563Y-1345031D01*
X2205563Y-1345031D02*
X2215087Y-1335508D01*
X2215087Y-1335508D02*
X2234134Y-1325984D01*
X2386515Y-1506936D02*
X2396039Y-1516460D01*
X2396039Y-1516460D02*
X2386515Y-1525984D01*
X2386515Y-1525984D02*
X2376991Y-1516460D01*
X2376991Y-1516460D02*
X2386515Y-1506936D01*
X2386515Y-1506936D02*
X2386515Y-1525984D01*
X2519848Y-1325984D02*
X2538896Y-1325984D01*
X2538896Y-1325984D02*
X2557944Y-1335508D01*
X2557944Y-1335508D02*
X2567468Y-1345031D01*
X2567468Y-1345031D02*
X2576991Y-1364079D01*
X2576991Y-1364079D02*
X2586515Y-1402174D01*
X2586515Y-1402174D02*
X2586515Y-1449793D01*
X2586515Y-1449793D02*
X2576991Y-1487888D01*
X2576991Y-1487888D02*
X2567468Y-1506936D01*
X2567468Y-1506936D02*
X2557944Y-1516460D01*
X2557944Y-1516460D02*
X2538896Y-1525984D01*
X2538896Y-1525984D02*
X2519848Y-1525984D01*
X2519848Y-1525984D02*
X2500801Y-1516460D01*
X2500801Y-1516460D02*
X2491277Y-1506936D01*
X2491277Y-1506936D02*
X2481753Y-1487888D01*
X2481753Y-1487888D02*
X2472229Y-1449793D01*
X2472229Y-1449793D02*
X2472229Y-1402174D01*
X2472229Y-1402174D02*
X2481753Y-1364079D01*
X2481753Y-1364079D02*
X2491277Y-1345031D01*
X2491277Y-1345031D02*
X2500801Y-1335508D01*
X2500801Y-1335508D02*
X2519848Y-1325984D01*
X2653182Y-1325984D02*
X2776991Y-1325984D01*
X2776991Y-1325984D02*
X2710325Y-1402174D01*
X2710325Y-1402174D02*
X2738896Y-1402174D01*
X2738896Y-1402174D02*
X2757944Y-1411698D01*
X2757944Y-1411698D02*
X2767468Y-1421222D01*
X2767468Y-1421222D02*
X2776991Y-1440269D01*
X2776991Y-1440269D02*
X2776991Y-1487888D01*
X2776991Y-1487888D02*
X2767468Y-1506936D01*
X2767468Y-1506936D02*
X2757944Y-1516460D01*
X2757944Y-1516460D02*
X2738896Y-1525984D01*
X2738896Y-1525984D02*
X2681753Y-1525984D01*
X2681753Y-1525984D02*
X2662706Y-1516460D01*
X2662706Y-1516460D02*
X2653182Y-1506936D01*
X2957944Y-1325984D02*
X2862706Y-1325984D01*
X2862706Y-1325984D02*
X2853182Y-1421222D01*
X2853182Y-1421222D02*
X2862706Y-1411698D01*
X2862706Y-1411698D02*
X2881753Y-1402174D01*
X2881753Y-1402174D02*
X2929372Y-1402174D01*
X2929372Y-1402174D02*
X2948420Y-1411698D01*
X2948420Y-1411698D02*
X2957944Y-1421222D01*
X2957944Y-1421222D02*
X2967467Y-1440269D01*
X2967467Y-1440269D02*
X2967467Y-1487888D01*
X2967467Y-1487888D02*
X2957944Y-1506936D01*
X2957944Y-1506936D02*
X2948420Y-1516460D01*
X2948420Y-1516460D02*
X2929372Y-1525984D01*
X2929372Y-1525984D02*
X2881753Y-1525984D01*
X2881753Y-1525984D02*
X2862706Y-1516460D01*
X2862706Y-1516460D02*
X2853182Y-1506936D01*
X3091277Y-1325984D02*
X3110325Y-1325984D01*
X3110325Y-1325984D02*
X3129372Y-1335508D01*
X3129372Y-1335508D02*
X3138896Y-1345031D01*
X3138896Y-1345031D02*
X3148420Y-1364079D01*
X3148420Y-1364079D02*
X3157944Y-1402174D01*
X3157944Y-1402174D02*
X3157944Y-1449793D01*
X3157944Y-1449793D02*
X3148420Y-1487888D01*
X3148420Y-1487888D02*
X3138896Y-1506936D01*
X3138896Y-1506936D02*
X3129372Y-1516460D01*
X3129372Y-1516460D02*
X3110325Y-1525984D01*
X3110325Y-1525984D02*
X3091277Y-1525984D01*
X3091277Y-1525984D02*
X3072229Y-1516460D01*
X3072229Y-1516460D02*
X3062706Y-1506936D01*
X3062706Y-1506936D02*
X3053182Y-1487888D01*
X3053182Y-1487888D02*
X3043658Y-1449793D01*
X3043658Y-1449793D02*
X3043658Y-1402174D01*
X3043658Y-1402174D02*
X3053182Y-1364079D01*
X3053182Y-1364079D02*
X3062706Y-1345031D01*
X3062706Y-1345031D02*
X3072229Y-1335508D01*
X3072229Y-1335508D02*
X3091277Y-1325984D01*
X3234134Y-1325984D02*
X3234134Y-1364079D01*
X3310325Y-1325984D02*
X3310325Y-1364079D01*
X3605563Y-1602174D02*
X3596039Y-1592650D01*
X3596039Y-1592650D02*
X3576991Y-1564079D01*
X3576991Y-1564079D02*
X3567468Y-1545031D01*
X3567468Y-1545031D02*
X3557944Y-1516460D01*
X3557944Y-1516460D02*
X3548420Y-1468841D01*
X3548420Y-1468841D02*
X3548420Y-1430746D01*
X3548420Y-1430746D02*
X3557944Y-1383127D01*
X3557944Y-1383127D02*
X3567468Y-1354555D01*
X3567468Y-1354555D02*
X3576991Y-1335508D01*
X3576991Y-1335508D02*
X3596039Y-1306936D01*
X3596039Y-1306936D02*
X3605563Y-1297412D01*
X3786515Y-1525984D02*
X3672229Y-1525984D01*
X3729372Y-1525984D02*
X3729372Y-1325984D01*
X3729372Y-1325984D02*
X3710325Y-1354555D01*
X3710325Y-1354555D02*
X3691277Y-1373603D01*
X3691277Y-1373603D02*
X3672229Y-1383127D01*
X3862706Y-1345031D02*
X3872229Y-1335508D01*
X3872229Y-1335508D02*
X3891277Y-1325984D01*
X3891277Y-1325984D02*
X3938896Y-1325984D01*
X3938896Y-1325984D02*
X3957944Y-1335508D01*
X3957944Y-1335508D02*
X3967468Y-1345031D01*
X3967468Y-1345031D02*
X3976991Y-1364079D01*
X3976991Y-1364079D02*
X3976991Y-1383127D01*
X3976991Y-1383127D02*
X3967468Y-1411698D01*
X3967468Y-1411698D02*
X3853182Y-1525984D01*
X3853182Y-1525984D02*
X3976991Y-1525984D01*
X4215087Y-1525984D02*
X4215087Y-1325984D01*
X4300801Y-1525984D02*
X4300801Y-1421222D01*
X4300801Y-1421222D02*
X4291277Y-1402174D01*
X4291277Y-1402174D02*
X4272230Y-1392650D01*
X4272230Y-1392650D02*
X4243658Y-1392650D01*
X4243658Y-1392650D02*
X4224611Y-1402174D01*
X4224611Y-1402174D02*
X4215087Y-1411698D01*
X4424611Y-1525984D02*
X4405563Y-1516460D01*
X4405563Y-1516460D02*
X4396039Y-1506936D01*
X4396039Y-1506936D02*
X4386515Y-1487888D01*
X4386515Y-1487888D02*
X4386515Y-1430746D01*
X4386515Y-1430746D02*
X4396039Y-1411698D01*
X4396039Y-1411698D02*
X4405563Y-1402174D01*
X4405563Y-1402174D02*
X4424611Y-1392650D01*
X4424611Y-1392650D02*
X4453182Y-1392650D01*
X4453182Y-1392650D02*
X4472230Y-1402174D01*
X4472230Y-1402174D02*
X4481753Y-1411698D01*
X4481753Y-1411698D02*
X4491277Y-1430746D01*
X4491277Y-1430746D02*
X4491277Y-1487888D01*
X4491277Y-1487888D02*
X4481753Y-1506936D01*
X4481753Y-1506936D02*
X4472230Y-1516460D01*
X4472230Y-1516460D02*
X4453182Y-1525984D01*
X4453182Y-1525984D02*
X4424611Y-1525984D01*
X4605563Y-1525984D02*
X4586515Y-1516460D01*
X4586515Y-1516460D02*
X4576992Y-1497412D01*
X4576992Y-1497412D02*
X4576992Y-1325984D01*
X4757944Y-1516460D02*
X4738896Y-1525984D01*
X4738896Y-1525984D02*
X4700801Y-1525984D01*
X4700801Y-1525984D02*
X4681753Y-1516460D01*
X4681753Y-1516460D02*
X4672230Y-1497412D01*
X4672230Y-1497412D02*
X4672230Y-1421222D01*
X4672230Y-1421222D02*
X4681753Y-1402174D01*
X4681753Y-1402174D02*
X4700801Y-1392650D01*
X4700801Y-1392650D02*
X4738896Y-1392650D01*
X4738896Y-1392650D02*
X4757944Y-1402174D01*
X4757944Y-1402174D02*
X4767468Y-1421222D01*
X4767468Y-1421222D02*
X4767468Y-1440269D01*
X4767468Y-1440269D02*
X4672230Y-1459317D01*
X4843658Y-1516460D02*
X4862706Y-1525984D01*
X4862706Y-1525984D02*
X4900801Y-1525984D01*
X4900801Y-1525984D02*
X4919849Y-1516460D01*
X4919849Y-1516460D02*
X4929373Y-1497412D01*
X4929373Y-1497412D02*
X4929373Y-1487888D01*
X4929373Y-1487888D02*
X4919849Y-1468841D01*
X4919849Y-1468841D02*
X4900801Y-1459317D01*
X4900801Y-1459317D02*
X4872230Y-1459317D01*
X4872230Y-1459317D02*
X4853182Y-1449793D01*
X4853182Y-1449793D02*
X4843658Y-1430746D01*
X4843658Y-1430746D02*
X4843658Y-1421222D01*
X4843658Y-1421222D02*
X4853182Y-1402174D01*
X4853182Y-1402174D02*
X4872230Y-1392650D01*
X4872230Y-1392650D02*
X4900801Y-1392650D01*
X4900801Y-1392650D02*
X4919849Y-1402174D01*
X4996039Y-1602174D02*
X5005563Y-1592650D01*
X5005563Y-1592650D02*
X5024611Y-1564079D01*
X5024611Y-1564079D02*
X5034134Y-1545031D01*
X5034134Y-1545031D02*
X5043658Y-1516460D01*
X5043658Y-1516460D02*
X5053182Y-1468841D01*
X5053182Y-1468841D02*
X5053182Y-1430746D01*
X5053182Y-1430746D02*
X5043658Y-1383127D01*
X5043658Y-1383127D02*
X5034134Y-1354555D01*
X5034134Y-1354555D02*
X5024611Y-1335508D01*
X5024611Y-1335508D02*
X5005563Y-1306936D01*
X5005563Y-1306936D02*
X4996039Y-1297412D01*
D12*
X-14500Y-1743500D02*
X30500Y-1698500D01*
X-14500Y-1653500D01*
X-59500Y-1698500D01*
X-14500Y-1743500D01*
D11*
X329372Y-1589984D02*
X348420Y-1589984D01*
X348420Y-1589984D02*
X367467Y-1599508D01*
X367467Y-1599508D02*
X376991Y-1609031D01*
X376991Y-1609031D02*
X386515Y-1628079D01*
X386515Y-1628079D02*
X396039Y-1666174D01*
X396039Y-1666174D02*
X396039Y-1713793D01*
X396039Y-1713793D02*
X386515Y-1751888D01*
X386515Y-1751888D02*
X376991Y-1770936D01*
X376991Y-1770936D02*
X367467Y-1780460D01*
X367467Y-1780460D02*
X348420Y-1789984D01*
X348420Y-1789984D02*
X329372Y-1789984D01*
X329372Y-1789984D02*
X310324Y-1780460D01*
X310324Y-1780460D02*
X300801Y-1770936D01*
X300801Y-1770936D02*
X291277Y-1751888D01*
X291277Y-1751888D02*
X281753Y-1713793D01*
X281753Y-1713793D02*
X281753Y-1666174D01*
X281753Y-1666174D02*
X291277Y-1628079D01*
X291277Y-1628079D02*
X300801Y-1609031D01*
X300801Y-1609031D02*
X310324Y-1599508D01*
X310324Y-1599508D02*
X329372Y-1589984D01*
X481753Y-1770936D02*
X491277Y-1780460D01*
X491277Y-1780460D02*
X481753Y-1789984D01*
X481753Y-1789984D02*
X472229Y-1780460D01*
X472229Y-1780460D02*
X481753Y-1770936D01*
X481753Y-1770936D02*
X481753Y-1789984D01*
X586515Y-1789984D02*
X624610Y-1789984D01*
X624610Y-1789984D02*
X643658Y-1780460D01*
X643658Y-1780460D02*
X653182Y-1770936D01*
X653182Y-1770936D02*
X672229Y-1742365D01*
X672229Y-1742365D02*
X681753Y-1704269D01*
X681753Y-1704269D02*
X681753Y-1628079D01*
X681753Y-1628079D02*
X672229Y-1609031D01*
X672229Y-1609031D02*
X662705Y-1599508D01*
X662705Y-1599508D02*
X643658Y-1589984D01*
X643658Y-1589984D02*
X605563Y-1589984D01*
X605563Y-1589984D02*
X586515Y-1599508D01*
X586515Y-1599508D02*
X576991Y-1609031D01*
X576991Y-1609031D02*
X567467Y-1628079D01*
X567467Y-1628079D02*
X567467Y-1675698D01*
X567467Y-1675698D02*
X576991Y-1694746D01*
X576991Y-1694746D02*
X586515Y-1704269D01*
X586515Y-1704269D02*
X605563Y-1713793D01*
X605563Y-1713793D02*
X643658Y-1713793D01*
X643658Y-1713793D02*
X662705Y-1704269D01*
X662705Y-1704269D02*
X672229Y-1694746D01*
X672229Y-1694746D02*
X681753Y-1675698D01*
X805562Y-1589984D02*
X824610Y-1589984D01*
X824610Y-1589984D02*
X843658Y-1599508D01*
X843658Y-1599508D02*
X853182Y-1609031D01*
X853182Y-1609031D02*
X862705Y-1628079D01*
X862705Y-1628079D02*
X872229Y-1666174D01*
X872229Y-1666174D02*
X872229Y-1713793D01*
X872229Y-1713793D02*
X862705Y-1751888D01*
X862705Y-1751888D02*
X853182Y-1770936D01*
X853182Y-1770936D02*
X843658Y-1780460D01*
X843658Y-1780460D02*
X824610Y-1789984D01*
X824610Y-1789984D02*
X805562Y-1789984D01*
X805562Y-1789984D02*
X786515Y-1780460D01*
X786515Y-1780460D02*
X776991Y-1770936D01*
X776991Y-1770936D02*
X767467Y-1751888D01*
X767467Y-1751888D02*
X757943Y-1713793D01*
X757943Y-1713793D02*
X757943Y-1666174D01*
X757943Y-1666174D02*
X767467Y-1628079D01*
X767467Y-1628079D02*
X776991Y-1609031D01*
X776991Y-1609031D02*
X786515Y-1599508D01*
X786515Y-1599508D02*
X805562Y-1589984D01*
X996039Y-1589984D02*
X1015086Y-1589984D01*
X1015086Y-1589984D02*
X1034134Y-1599508D01*
X1034134Y-1599508D02*
X1043658Y-1609031D01*
X1043658Y-1609031D02*
X1053182Y-1628079D01*
X1053182Y-1628079D02*
X1062705Y-1666174D01*
X1062705Y-1666174D02*
X1062705Y-1713793D01*
X1062705Y-1713793D02*
X1053182Y-1751888D01*
X1053182Y-1751888D02*
X1043658Y-1770936D01*
X1043658Y-1770936D02*
X1034134Y-1780460D01*
X1034134Y-1780460D02*
X1015086Y-1789984D01*
X1015086Y-1789984D02*
X996039Y-1789984D01*
X996039Y-1789984D02*
X976991Y-1780460D01*
X976991Y-1780460D02*
X967467Y-1770936D01*
X967467Y-1770936D02*
X957943Y-1751888D01*
X957943Y-1751888D02*
X948420Y-1713793D01*
X948420Y-1713793D02*
X948420Y-1666174D01*
X948420Y-1666174D02*
X957943Y-1628079D01*
X957943Y-1628079D02*
X967467Y-1609031D01*
X967467Y-1609031D02*
X976991Y-1599508D01*
X976991Y-1599508D02*
X996039Y-1589984D01*
X1148420Y-1789984D02*
X1148420Y-1656650D01*
X1148420Y-1675698D02*
X1157944Y-1666174D01*
X1157944Y-1666174D02*
X1176991Y-1656650D01*
X1176991Y-1656650D02*
X1205563Y-1656650D01*
X1205563Y-1656650D02*
X1224610Y-1666174D01*
X1224610Y-1666174D02*
X1234134Y-1685222D01*
X1234134Y-1685222D02*
X1234134Y-1789984D01*
X1234134Y-1685222D02*
X1243658Y-1666174D01*
X1243658Y-1666174D02*
X1262705Y-1656650D01*
X1262705Y-1656650D02*
X1291277Y-1656650D01*
X1291277Y-1656650D02*
X1310325Y-1666174D01*
X1310325Y-1666174D02*
X1319848Y-1685222D01*
X1319848Y-1685222D02*
X1319848Y-1789984D01*
X1415086Y-1789984D02*
X1415086Y-1656650D01*
X1415086Y-1675698D02*
X1424610Y-1666174D01*
X1424610Y-1666174D02*
X1443658Y-1656650D01*
X1443658Y-1656650D02*
X1472229Y-1656650D01*
X1472229Y-1656650D02*
X1491277Y-1666174D01*
X1491277Y-1666174D02*
X1500801Y-1685222D01*
X1500801Y-1685222D02*
X1500801Y-1789984D01*
X1500801Y-1685222D02*
X1510324Y-1666174D01*
X1510324Y-1666174D02*
X1529372Y-1656650D01*
X1529372Y-1656650D02*
X1557943Y-1656650D01*
X1557943Y-1656650D02*
X1576991Y-1666174D01*
X1576991Y-1666174D02*
X1586515Y-1685222D01*
X1586515Y-1685222D02*
X1586515Y-1789984D01*
X1976991Y-1580460D02*
X1805563Y-1837603D01*
X2234134Y-1589984D02*
X2253182Y-1589984D01*
X2253182Y-1589984D02*
X2272229Y-1599508D01*
X2272229Y-1599508D02*
X2281753Y-1609031D01*
X2281753Y-1609031D02*
X2291277Y-1628079D01*
X2291277Y-1628079D02*
X2300801Y-1666174D01*
X2300801Y-1666174D02*
X2300801Y-1713793D01*
X2300801Y-1713793D02*
X2291277Y-1751888D01*
X2291277Y-1751888D02*
X2281753Y-1770936D01*
X2281753Y-1770936D02*
X2272229Y-1780460D01*
X2272229Y-1780460D02*
X2253182Y-1789984D01*
X2253182Y-1789984D02*
X2234134Y-1789984D01*
X2234134Y-1789984D02*
X2215087Y-1780460D01*
X2215087Y-1780460D02*
X2205563Y-1770936D01*
X2205563Y-1770936D02*
X2196039Y-1751888D01*
X2196039Y-1751888D02*
X2186515Y-1713793D01*
X2186515Y-1713793D02*
X2186515Y-1666174D01*
X2186515Y-1666174D02*
X2196039Y-1628079D01*
X2196039Y-1628079D02*
X2205563Y-1609031D01*
X2205563Y-1609031D02*
X2215087Y-1599508D01*
X2215087Y-1599508D02*
X2234134Y-1589984D01*
X2386515Y-1770936D02*
X2396039Y-1780460D01*
X2396039Y-1780460D02*
X2386515Y-1789984D01*
X2386515Y-1789984D02*
X2376991Y-1780460D01*
X2376991Y-1780460D02*
X2386515Y-1770936D01*
X2386515Y-1770936D02*
X2386515Y-1789984D01*
X2519848Y-1589984D02*
X2538896Y-1589984D01*
X2538896Y-1589984D02*
X2557944Y-1599508D01*
X2557944Y-1599508D02*
X2567468Y-1609031D01*
X2567468Y-1609031D02*
X2576991Y-1628079D01*
X2576991Y-1628079D02*
X2586515Y-1666174D01*
X2586515Y-1666174D02*
X2586515Y-1713793D01*
X2586515Y-1713793D02*
X2576991Y-1751888D01*
X2576991Y-1751888D02*
X2567468Y-1770936D01*
X2567468Y-1770936D02*
X2557944Y-1780460D01*
X2557944Y-1780460D02*
X2538896Y-1789984D01*
X2538896Y-1789984D02*
X2519848Y-1789984D01*
X2519848Y-1789984D02*
X2500801Y-1780460D01*
X2500801Y-1780460D02*
X2491277Y-1770936D01*
X2491277Y-1770936D02*
X2481753Y-1751888D01*
X2481753Y-1751888D02*
X2472229Y-1713793D01*
X2472229Y-1713793D02*
X2472229Y-1666174D01*
X2472229Y-1666174D02*
X2481753Y-1628079D01*
X2481753Y-1628079D02*
X2491277Y-1609031D01*
X2491277Y-1609031D02*
X2500801Y-1599508D01*
X2500801Y-1599508D02*
X2519848Y-1589984D01*
X2653182Y-1589984D02*
X2776991Y-1589984D01*
X2776991Y-1589984D02*
X2710325Y-1666174D01*
X2710325Y-1666174D02*
X2738896Y-1666174D01*
X2738896Y-1666174D02*
X2757944Y-1675698D01*
X2757944Y-1675698D02*
X2767468Y-1685222D01*
X2767468Y-1685222D02*
X2776991Y-1704269D01*
X2776991Y-1704269D02*
X2776991Y-1751888D01*
X2776991Y-1751888D02*
X2767468Y-1770936D01*
X2767468Y-1770936D02*
X2757944Y-1780460D01*
X2757944Y-1780460D02*
X2738896Y-1789984D01*
X2738896Y-1789984D02*
X2681753Y-1789984D01*
X2681753Y-1789984D02*
X2662706Y-1780460D01*
X2662706Y-1780460D02*
X2653182Y-1770936D01*
X2957944Y-1589984D02*
X2862706Y-1589984D01*
X2862706Y-1589984D02*
X2853182Y-1685222D01*
X2853182Y-1685222D02*
X2862706Y-1675698D01*
X2862706Y-1675698D02*
X2881753Y-1666174D01*
X2881753Y-1666174D02*
X2929372Y-1666174D01*
X2929372Y-1666174D02*
X2948420Y-1675698D01*
X2948420Y-1675698D02*
X2957944Y-1685222D01*
X2957944Y-1685222D02*
X2967467Y-1704269D01*
X2967467Y-1704269D02*
X2967467Y-1751888D01*
X2967467Y-1751888D02*
X2957944Y-1770936D01*
X2957944Y-1770936D02*
X2948420Y-1780460D01*
X2948420Y-1780460D02*
X2929372Y-1789984D01*
X2929372Y-1789984D02*
X2881753Y-1789984D01*
X2881753Y-1789984D02*
X2862706Y-1780460D01*
X2862706Y-1780460D02*
X2853182Y-1770936D01*
X3138896Y-1656650D02*
X3138896Y-1789984D01*
X3091277Y-1580460D02*
X3043658Y-1723317D01*
X3043658Y-1723317D02*
X3167467Y-1723317D01*
X3234134Y-1589984D02*
X3234134Y-1628079D01*
X3310325Y-1589984D02*
X3310325Y-1628079D01*
X3605563Y-1866174D02*
X3596039Y-1856650D01*
X3596039Y-1856650D02*
X3576991Y-1828079D01*
X3576991Y-1828079D02*
X3567468Y-1809031D01*
X3567468Y-1809031D02*
X3557944Y-1780460D01*
X3557944Y-1780460D02*
X3548420Y-1732841D01*
X3548420Y-1732841D02*
X3548420Y-1694746D01*
X3548420Y-1694746D02*
X3557944Y-1647127D01*
X3557944Y-1647127D02*
X3567468Y-1618555D01*
X3567468Y-1618555D02*
X3576991Y-1599508D01*
X3576991Y-1599508D02*
X3596039Y-1570936D01*
X3596039Y-1570936D02*
X3605563Y-1561412D01*
X3691277Y-1789984D02*
X3729372Y-1789984D01*
X3729372Y-1789984D02*
X3748420Y-1780460D01*
X3748420Y-1780460D02*
X3757944Y-1770936D01*
X3757944Y-1770936D02*
X3776991Y-1742365D01*
X3776991Y-1742365D02*
X3786515Y-1704269D01*
X3786515Y-1704269D02*
X3786515Y-1628079D01*
X3786515Y-1628079D02*
X3776991Y-1609031D01*
X3776991Y-1609031D02*
X3767468Y-1599508D01*
X3767468Y-1599508D02*
X3748420Y-1589984D01*
X3748420Y-1589984D02*
X3710325Y-1589984D01*
X3710325Y-1589984D02*
X3691277Y-1599508D01*
X3691277Y-1599508D02*
X3681753Y-1609031D01*
X3681753Y-1609031D02*
X3672229Y-1628079D01*
X3672229Y-1628079D02*
X3672229Y-1675698D01*
X3672229Y-1675698D02*
X3681753Y-1694746D01*
X3681753Y-1694746D02*
X3691277Y-1704269D01*
X3691277Y-1704269D02*
X3710325Y-1713793D01*
X3710325Y-1713793D02*
X3748420Y-1713793D01*
X3748420Y-1713793D02*
X3767468Y-1704269D01*
X3767468Y-1704269D02*
X3776991Y-1694746D01*
X3776991Y-1694746D02*
X3786515Y-1675698D01*
X4024610Y-1789984D02*
X4024610Y-1589984D01*
X4110325Y-1789984D02*
X4110325Y-1685222D01*
X4110325Y-1685222D02*
X4100801Y-1666174D01*
X4100801Y-1666174D02*
X4081753Y-1656650D01*
X4081753Y-1656650D02*
X4053182Y-1656650D01*
X4053182Y-1656650D02*
X4034134Y-1666174D01*
X4034134Y-1666174D02*
X4024610Y-1675698D01*
X4234134Y-1789984D02*
X4215087Y-1780460D01*
X4215087Y-1780460D02*
X4205563Y-1770936D01*
X4205563Y-1770936D02*
X4196039Y-1751888D01*
X4196039Y-1751888D02*
X4196039Y-1694746D01*
X4196039Y-1694746D02*
X4205563Y-1675698D01*
X4205563Y-1675698D02*
X4215087Y-1666174D01*
X4215087Y-1666174D02*
X4234134Y-1656650D01*
X4234134Y-1656650D02*
X4262706Y-1656650D01*
X4262706Y-1656650D02*
X4281753Y-1666174D01*
X4281753Y-1666174D02*
X4291277Y-1675698D01*
X4291277Y-1675698D02*
X4300801Y-1694746D01*
X4300801Y-1694746D02*
X4300801Y-1751888D01*
X4300801Y-1751888D02*
X4291277Y-1770936D01*
X4291277Y-1770936D02*
X4281753Y-1780460D01*
X4281753Y-1780460D02*
X4262706Y-1789984D01*
X4262706Y-1789984D02*
X4234134Y-1789984D01*
X4415087Y-1789984D02*
X4396039Y-1780460D01*
X4396039Y-1780460D02*
X4386515Y-1761412D01*
X4386515Y-1761412D02*
X4386515Y-1589984D01*
X4567468Y-1780460D02*
X4548420Y-1789984D01*
X4548420Y-1789984D02*
X4510325Y-1789984D01*
X4510325Y-1789984D02*
X4491277Y-1780460D01*
X4491277Y-1780460D02*
X4481753Y-1761412D01*
X4481753Y-1761412D02*
X4481753Y-1685222D01*
X4481753Y-1685222D02*
X4491277Y-1666174D01*
X4491277Y-1666174D02*
X4510325Y-1656650D01*
X4510325Y-1656650D02*
X4548420Y-1656650D01*
X4548420Y-1656650D02*
X4567468Y-1666174D01*
X4567468Y-1666174D02*
X4576992Y-1685222D01*
X4576992Y-1685222D02*
X4576992Y-1704269D01*
X4576992Y-1704269D02*
X4481753Y-1723317D01*
X4653182Y-1780460D02*
X4672230Y-1789984D01*
X4672230Y-1789984D02*
X4710325Y-1789984D01*
X4710325Y-1789984D02*
X4729373Y-1780460D01*
X4729373Y-1780460D02*
X4738896Y-1761412D01*
X4738896Y-1761412D02*
X4738896Y-1751888D01*
X4738896Y-1751888D02*
X4729373Y-1732841D01*
X4729373Y-1732841D02*
X4710325Y-1723317D01*
X4710325Y-1723317D02*
X4681753Y-1723317D01*
X4681753Y-1723317D02*
X4662706Y-1713793D01*
X4662706Y-1713793D02*
X4653182Y-1694746D01*
X4653182Y-1694746D02*
X4653182Y-1685222D01*
X4653182Y-1685222D02*
X4662706Y-1666174D01*
X4662706Y-1666174D02*
X4681753Y-1656650D01*
X4681753Y-1656650D02*
X4710325Y-1656650D01*
X4710325Y-1656650D02*
X4729373Y-1666174D01*
X4805563Y-1866174D02*
X4815087Y-1856650D01*
X4815087Y-1856650D02*
X4834134Y-1828079D01*
X4834134Y-1828079D02*
X4843658Y-1809031D01*
X4843658Y-1809031D02*
X4853182Y-1780460D01*
X4853182Y-1780460D02*
X4862706Y-1732841D01*
X4862706Y-1732841D02*
X4862706Y-1694746D01*
X4862706Y-1694746D02*
X4853182Y-1647127D01*
X4853182Y-1647127D02*
X4843658Y-1618555D01*
X4843658Y-1618555D02*
X4834134Y-1599508D01*
X4834134Y-1599508D02*
X4815087Y-1570936D01*
X4815087Y-1570936D02*
X4805563Y-1561412D01*
D12*
X-69500Y-1912500D02*
X30500Y-2012500D01*
X30500Y-1912500D02*
X-69500Y-2012500D01*
X30500Y-1962500D02*
G75*
G02*
X-69500Y-1962500I-50000J0D01*
G01*
X-69500Y-1962500D02*
G75*
G02*
X30500Y-1962500I50000J0D01*
G01*
D11*
X396039Y-2053984D02*
X281753Y-2053984D01*
X338896Y-2053984D02*
X338896Y-1853984D01*
X338896Y-1853984D02*
X319848Y-1882555D01*
X319848Y-1882555D02*
X300801Y-1901603D01*
X300801Y-1901603D02*
X281753Y-1911127D01*
X481753Y-2034936D02*
X491277Y-2044460D01*
X491277Y-2044460D02*
X481753Y-2053984D01*
X481753Y-2053984D02*
X472229Y-2044460D01*
X472229Y-2044460D02*
X481753Y-2034936D01*
X481753Y-2034936D02*
X481753Y-2053984D01*
X615086Y-1853984D02*
X634134Y-1853984D01*
X634134Y-1853984D02*
X653182Y-1863508D01*
X653182Y-1863508D02*
X662705Y-1873031D01*
X662705Y-1873031D02*
X672229Y-1892079D01*
X672229Y-1892079D02*
X681753Y-1930174D01*
X681753Y-1930174D02*
X681753Y-1977793D01*
X681753Y-1977793D02*
X672229Y-2015888D01*
X672229Y-2015888D02*
X662705Y-2034936D01*
X662705Y-2034936D02*
X653182Y-2044460D01*
X653182Y-2044460D02*
X634134Y-2053984D01*
X634134Y-2053984D02*
X615086Y-2053984D01*
X615086Y-2053984D02*
X596039Y-2044460D01*
X596039Y-2044460D02*
X586515Y-2034936D01*
X586515Y-2034936D02*
X576991Y-2015888D01*
X576991Y-2015888D02*
X567467Y-1977793D01*
X567467Y-1977793D02*
X567467Y-1930174D01*
X567467Y-1930174D02*
X576991Y-1892079D01*
X576991Y-1892079D02*
X586515Y-1873031D01*
X586515Y-1873031D02*
X596039Y-1863508D01*
X596039Y-1863508D02*
X615086Y-1853984D01*
X805562Y-1853984D02*
X824610Y-1853984D01*
X824610Y-1853984D02*
X843658Y-1863508D01*
X843658Y-1863508D02*
X853182Y-1873031D01*
X853182Y-1873031D02*
X862705Y-1892079D01*
X862705Y-1892079D02*
X872229Y-1930174D01*
X872229Y-1930174D02*
X872229Y-1977793D01*
X872229Y-1977793D02*
X862705Y-2015888D01*
X862705Y-2015888D02*
X853182Y-2034936D01*
X853182Y-2034936D02*
X843658Y-2044460D01*
X843658Y-2044460D02*
X824610Y-2053984D01*
X824610Y-2053984D02*
X805562Y-2053984D01*
X805562Y-2053984D02*
X786515Y-2044460D01*
X786515Y-2044460D02*
X776991Y-2034936D01*
X776991Y-2034936D02*
X767467Y-2015888D01*
X767467Y-2015888D02*
X757943Y-1977793D01*
X757943Y-1977793D02*
X757943Y-1930174D01*
X757943Y-1930174D02*
X767467Y-1892079D01*
X767467Y-1892079D02*
X776991Y-1873031D01*
X776991Y-1873031D02*
X786515Y-1863508D01*
X786515Y-1863508D02*
X805562Y-1853984D01*
X996039Y-1853984D02*
X1015086Y-1853984D01*
X1015086Y-1853984D02*
X1034134Y-1863508D01*
X1034134Y-1863508D02*
X1043658Y-1873031D01*
X1043658Y-1873031D02*
X1053182Y-1892079D01*
X1053182Y-1892079D02*
X1062705Y-1930174D01*
X1062705Y-1930174D02*
X1062705Y-1977793D01*
X1062705Y-1977793D02*
X1053182Y-2015888D01*
X1053182Y-2015888D02*
X1043658Y-2034936D01*
X1043658Y-2034936D02*
X1034134Y-2044460D01*
X1034134Y-2044460D02*
X1015086Y-2053984D01*
X1015086Y-2053984D02*
X996039Y-2053984D01*
X996039Y-2053984D02*
X976991Y-2044460D01*
X976991Y-2044460D02*
X967467Y-2034936D01*
X967467Y-2034936D02*
X957943Y-2015888D01*
X957943Y-2015888D02*
X948420Y-1977793D01*
X948420Y-1977793D02*
X948420Y-1930174D01*
X948420Y-1930174D02*
X957943Y-1892079D01*
X957943Y-1892079D02*
X967467Y-1873031D01*
X967467Y-1873031D02*
X976991Y-1863508D01*
X976991Y-1863508D02*
X996039Y-1853984D01*
X1148420Y-2053984D02*
X1148420Y-1920650D01*
X1148420Y-1939698D02*
X1157944Y-1930174D01*
X1157944Y-1930174D02*
X1176991Y-1920650D01*
X1176991Y-1920650D02*
X1205563Y-1920650D01*
X1205563Y-1920650D02*
X1224610Y-1930174D01*
X1224610Y-1930174D02*
X1234134Y-1949222D01*
X1234134Y-1949222D02*
X1234134Y-2053984D01*
X1234134Y-1949222D02*
X1243658Y-1930174D01*
X1243658Y-1930174D02*
X1262705Y-1920650D01*
X1262705Y-1920650D02*
X1291277Y-1920650D01*
X1291277Y-1920650D02*
X1310325Y-1930174D01*
X1310325Y-1930174D02*
X1319848Y-1949222D01*
X1319848Y-1949222D02*
X1319848Y-2053984D01*
X1415086Y-2053984D02*
X1415086Y-1920650D01*
X1415086Y-1939698D02*
X1424610Y-1930174D01*
X1424610Y-1930174D02*
X1443658Y-1920650D01*
X1443658Y-1920650D02*
X1472229Y-1920650D01*
X1472229Y-1920650D02*
X1491277Y-1930174D01*
X1491277Y-1930174D02*
X1500801Y-1949222D01*
X1500801Y-1949222D02*
X1500801Y-2053984D01*
X1500801Y-1949222D02*
X1510324Y-1930174D01*
X1510324Y-1930174D02*
X1529372Y-1920650D01*
X1529372Y-1920650D02*
X1557943Y-1920650D01*
X1557943Y-1920650D02*
X1576991Y-1930174D01*
X1576991Y-1930174D02*
X1586515Y-1949222D01*
X1586515Y-1949222D02*
X1586515Y-2053984D01*
X1976991Y-1844460D02*
X1805563Y-2101603D01*
X2234134Y-1853984D02*
X2253182Y-1853984D01*
X2253182Y-1853984D02*
X2272229Y-1863508D01*
X2272229Y-1863508D02*
X2281753Y-1873031D01*
X2281753Y-1873031D02*
X2291277Y-1892079D01*
X2291277Y-1892079D02*
X2300801Y-1930174D01*
X2300801Y-1930174D02*
X2300801Y-1977793D01*
X2300801Y-1977793D02*
X2291277Y-2015888D01*
X2291277Y-2015888D02*
X2281753Y-2034936D01*
X2281753Y-2034936D02*
X2272229Y-2044460D01*
X2272229Y-2044460D02*
X2253182Y-2053984D01*
X2253182Y-2053984D02*
X2234134Y-2053984D01*
X2234134Y-2053984D02*
X2215087Y-2044460D01*
X2215087Y-2044460D02*
X2205563Y-2034936D01*
X2205563Y-2034936D02*
X2196039Y-2015888D01*
X2196039Y-2015888D02*
X2186515Y-1977793D01*
X2186515Y-1977793D02*
X2186515Y-1930174D01*
X2186515Y-1930174D02*
X2196039Y-1892079D01*
X2196039Y-1892079D02*
X2205563Y-1873031D01*
X2205563Y-1873031D02*
X2215087Y-1863508D01*
X2215087Y-1863508D02*
X2234134Y-1853984D01*
X2386515Y-2034936D02*
X2396039Y-2044460D01*
X2396039Y-2044460D02*
X2386515Y-2053984D01*
X2386515Y-2053984D02*
X2376991Y-2044460D01*
X2376991Y-2044460D02*
X2386515Y-2034936D01*
X2386515Y-2034936D02*
X2386515Y-2053984D01*
X2519848Y-1853984D02*
X2538896Y-1853984D01*
X2538896Y-1853984D02*
X2557944Y-1863508D01*
X2557944Y-1863508D02*
X2567468Y-1873031D01*
X2567468Y-1873031D02*
X2576991Y-1892079D01*
X2576991Y-1892079D02*
X2586515Y-1930174D01*
X2586515Y-1930174D02*
X2586515Y-1977793D01*
X2586515Y-1977793D02*
X2576991Y-2015888D01*
X2576991Y-2015888D02*
X2567468Y-2034936D01*
X2567468Y-2034936D02*
X2557944Y-2044460D01*
X2557944Y-2044460D02*
X2538896Y-2053984D01*
X2538896Y-2053984D02*
X2519848Y-2053984D01*
X2519848Y-2053984D02*
X2500801Y-2044460D01*
X2500801Y-2044460D02*
X2491277Y-2034936D01*
X2491277Y-2034936D02*
X2481753Y-2015888D01*
X2481753Y-2015888D02*
X2472229Y-1977793D01*
X2472229Y-1977793D02*
X2472229Y-1930174D01*
X2472229Y-1930174D02*
X2481753Y-1892079D01*
X2481753Y-1892079D02*
X2491277Y-1873031D01*
X2491277Y-1873031D02*
X2500801Y-1863508D01*
X2500801Y-1863508D02*
X2519848Y-1853984D01*
X2653182Y-1853984D02*
X2776991Y-1853984D01*
X2776991Y-1853984D02*
X2710325Y-1930174D01*
X2710325Y-1930174D02*
X2738896Y-1930174D01*
X2738896Y-1930174D02*
X2757944Y-1939698D01*
X2757944Y-1939698D02*
X2767468Y-1949222D01*
X2767468Y-1949222D02*
X2776991Y-1968269D01*
X2776991Y-1968269D02*
X2776991Y-2015888D01*
X2776991Y-2015888D02*
X2767468Y-2034936D01*
X2767468Y-2034936D02*
X2757944Y-2044460D01*
X2757944Y-2044460D02*
X2738896Y-2053984D01*
X2738896Y-2053984D02*
X2681753Y-2053984D01*
X2681753Y-2053984D02*
X2662706Y-2044460D01*
X2662706Y-2044460D02*
X2653182Y-2034936D01*
X2872229Y-2053984D02*
X2910325Y-2053984D01*
X2910325Y-2053984D02*
X2929372Y-2044460D01*
X2929372Y-2044460D02*
X2938896Y-2034936D01*
X2938896Y-2034936D02*
X2957944Y-2006365D01*
X2957944Y-2006365D02*
X2967467Y-1968269D01*
X2967467Y-1968269D02*
X2967467Y-1892079D01*
X2967467Y-1892079D02*
X2957944Y-1873031D01*
X2957944Y-1873031D02*
X2948420Y-1863508D01*
X2948420Y-1863508D02*
X2929372Y-1853984D01*
X2929372Y-1853984D02*
X2891277Y-1853984D01*
X2891277Y-1853984D02*
X2872229Y-1863508D01*
X2872229Y-1863508D02*
X2862706Y-1873031D01*
X2862706Y-1873031D02*
X2853182Y-1892079D01*
X2853182Y-1892079D02*
X2853182Y-1939698D01*
X2853182Y-1939698D02*
X2862706Y-1958746D01*
X2862706Y-1958746D02*
X2872229Y-1968269D01*
X2872229Y-1968269D02*
X2891277Y-1977793D01*
X2891277Y-1977793D02*
X2929372Y-1977793D01*
X2929372Y-1977793D02*
X2948420Y-1968269D01*
X2948420Y-1968269D02*
X2957944Y-1958746D01*
X2957944Y-1958746D02*
X2967467Y-1939698D01*
X3138896Y-1920650D02*
X3138896Y-2053984D01*
X3091277Y-1844460D02*
X3043658Y-1987317D01*
X3043658Y-1987317D02*
X3167467Y-1987317D01*
X3234134Y-1853984D02*
X3234134Y-1892079D01*
X3310325Y-1853984D02*
X3310325Y-1892079D01*
X3605563Y-2130174D02*
X3596039Y-2120650D01*
X3596039Y-2120650D02*
X3576991Y-2092079D01*
X3576991Y-2092079D02*
X3567468Y-2073031D01*
X3567468Y-2073031D02*
X3557944Y-2044460D01*
X3557944Y-2044460D02*
X3548420Y-1996841D01*
X3548420Y-1996841D02*
X3548420Y-1958746D01*
X3548420Y-1958746D02*
X3557944Y-1911127D01*
X3557944Y-1911127D02*
X3567468Y-1882555D01*
X3567468Y-1882555D02*
X3576991Y-1863508D01*
X3576991Y-1863508D02*
X3596039Y-1834936D01*
X3596039Y-1834936D02*
X3605563Y-1825412D01*
X3767468Y-1920650D02*
X3767468Y-2053984D01*
X3719848Y-1844460D02*
X3672229Y-1987317D01*
X3672229Y-1987317D02*
X3796039Y-1987317D01*
X4024610Y-2053984D02*
X4024610Y-1853984D01*
X4110325Y-2053984D02*
X4110325Y-1949222D01*
X4110325Y-1949222D02*
X4100801Y-1930174D01*
X4100801Y-1930174D02*
X4081753Y-1920650D01*
X4081753Y-1920650D02*
X4053182Y-1920650D01*
X4053182Y-1920650D02*
X4034134Y-1930174D01*
X4034134Y-1930174D02*
X4024610Y-1939698D01*
X4234134Y-2053984D02*
X4215087Y-2044460D01*
X4215087Y-2044460D02*
X4205563Y-2034936D01*
X4205563Y-2034936D02*
X4196039Y-2015888D01*
X4196039Y-2015888D02*
X4196039Y-1958746D01*
X4196039Y-1958746D02*
X4205563Y-1939698D01*
X4205563Y-1939698D02*
X4215087Y-1930174D01*
X4215087Y-1930174D02*
X4234134Y-1920650D01*
X4234134Y-1920650D02*
X4262706Y-1920650D01*
X4262706Y-1920650D02*
X4281753Y-1930174D01*
X4281753Y-1930174D02*
X4291277Y-1939698D01*
X4291277Y-1939698D02*
X4300801Y-1958746D01*
X4300801Y-1958746D02*
X4300801Y-2015888D01*
X4300801Y-2015888D02*
X4291277Y-2034936D01*
X4291277Y-2034936D02*
X4281753Y-2044460D01*
X4281753Y-2044460D02*
X4262706Y-2053984D01*
X4262706Y-2053984D02*
X4234134Y-2053984D01*
X4415087Y-2053984D02*
X4396039Y-2044460D01*
X4396039Y-2044460D02*
X4386515Y-2025412D01*
X4386515Y-2025412D02*
X4386515Y-1853984D01*
X4567468Y-2044460D02*
X4548420Y-2053984D01*
X4548420Y-2053984D02*
X4510325Y-2053984D01*
X4510325Y-2053984D02*
X4491277Y-2044460D01*
X4491277Y-2044460D02*
X4481753Y-2025412D01*
X4481753Y-2025412D02*
X4481753Y-1949222D01*
X4481753Y-1949222D02*
X4491277Y-1930174D01*
X4491277Y-1930174D02*
X4510325Y-1920650D01*
X4510325Y-1920650D02*
X4548420Y-1920650D01*
X4548420Y-1920650D02*
X4567468Y-1930174D01*
X4567468Y-1930174D02*
X4576992Y-1949222D01*
X4576992Y-1949222D02*
X4576992Y-1968269D01*
X4576992Y-1968269D02*
X4481753Y-1987317D01*
X4653182Y-2044460D02*
X4672230Y-2053984D01*
X4672230Y-2053984D02*
X4710325Y-2053984D01*
X4710325Y-2053984D02*
X4729373Y-2044460D01*
X4729373Y-2044460D02*
X4738896Y-2025412D01*
X4738896Y-2025412D02*
X4738896Y-2015888D01*
X4738896Y-2015888D02*
X4729373Y-1996841D01*
X4729373Y-1996841D02*
X4710325Y-1987317D01*
X4710325Y-1987317D02*
X4681753Y-1987317D01*
X4681753Y-1987317D02*
X4662706Y-1977793D01*
X4662706Y-1977793D02*
X4653182Y-1958746D01*
X4653182Y-1958746D02*
X4653182Y-1949222D01*
X4653182Y-1949222D02*
X4662706Y-1930174D01*
X4662706Y-1930174D02*
X4681753Y-1920650D01*
X4681753Y-1920650D02*
X4710325Y-1920650D01*
X4710325Y-1920650D02*
X4729373Y-1930174D01*
X4805563Y-2130174D02*
X4815087Y-2120650D01*
X4815087Y-2120650D02*
X4834134Y-2092079D01*
X4834134Y-2092079D02*
X4843658Y-2073031D01*
X4843658Y-2073031D02*
X4853182Y-2044460D01*
X4853182Y-2044460D02*
X4862706Y-1996841D01*
X4862706Y-1996841D02*
X4862706Y-1958746D01*
X4862706Y-1958746D02*
X4853182Y-1911127D01*
X4853182Y-1911127D02*
X4843658Y-1882555D01*
X4843658Y-1882555D02*
X4834134Y-1863508D01*
X4834134Y-1863508D02*
X4815087Y-1834936D01*
X4815087Y-1834936D02*
X4805563Y-1825412D01*
D13*
X-71100Y-2175700D02*
X30500Y-2277300D01*
X30500Y-2175700D02*
X-71100Y-2277300D01*
X-20300Y-2175700D02*
X-20300Y-2277300D01*
X-71100Y-2226500D02*
X30500Y-2226500D01*
D11*
X396039Y-2317984D02*
X281753Y-2317984D01*
X338896Y-2317984D02*
X338896Y-2117984D01*
X338896Y-2117984D02*
X319848Y-2146555D01*
X319848Y-2146555D02*
X300801Y-2165603D01*
X300801Y-2165603D02*
X281753Y-2175127D01*
X481753Y-2298936D02*
X491277Y-2308460D01*
X491277Y-2308460D02*
X481753Y-2317984D01*
X481753Y-2317984D02*
X472229Y-2308460D01*
X472229Y-2308460D02*
X481753Y-2298936D01*
X481753Y-2298936D02*
X481753Y-2317984D01*
X615086Y-2117984D02*
X634134Y-2117984D01*
X634134Y-2117984D02*
X653182Y-2127508D01*
X653182Y-2127508D02*
X662705Y-2137031D01*
X662705Y-2137031D02*
X672229Y-2156079D01*
X672229Y-2156079D02*
X681753Y-2194174D01*
X681753Y-2194174D02*
X681753Y-2241793D01*
X681753Y-2241793D02*
X672229Y-2279889D01*
X672229Y-2279889D02*
X662705Y-2298936D01*
X662705Y-2298936D02*
X653182Y-2308460D01*
X653182Y-2308460D02*
X634134Y-2317984D01*
X634134Y-2317984D02*
X615086Y-2317984D01*
X615086Y-2317984D02*
X596039Y-2308460D01*
X596039Y-2308460D02*
X586515Y-2298936D01*
X586515Y-2298936D02*
X576991Y-2279889D01*
X576991Y-2279889D02*
X567467Y-2241793D01*
X567467Y-2241793D02*
X567467Y-2194174D01*
X567467Y-2194174D02*
X576991Y-2156079D01*
X576991Y-2156079D02*
X586515Y-2137031D01*
X586515Y-2137031D02*
X596039Y-2127508D01*
X596039Y-2127508D02*
X615086Y-2117984D01*
X872229Y-2317984D02*
X757943Y-2317984D01*
X815086Y-2317984D02*
X815086Y-2117984D01*
X815086Y-2117984D02*
X796039Y-2146555D01*
X796039Y-2146555D02*
X776991Y-2165603D01*
X776991Y-2165603D02*
X757943Y-2175127D01*
X1043658Y-2117984D02*
X1005562Y-2117984D01*
X1005562Y-2117984D02*
X986515Y-2127508D01*
X986515Y-2127508D02*
X976991Y-2137031D01*
X976991Y-2137031D02*
X957943Y-2165603D01*
X957943Y-2165603D02*
X948420Y-2203698D01*
X948420Y-2203698D02*
X948420Y-2279889D01*
X948420Y-2279889D02*
X957943Y-2298936D01*
X957943Y-2298936D02*
X967467Y-2308460D01*
X967467Y-2308460D02*
X986515Y-2317984D01*
X986515Y-2317984D02*
X1024610Y-2317984D01*
X1024610Y-2317984D02*
X1043658Y-2308460D01*
X1043658Y-2308460D02*
X1053182Y-2298936D01*
X1053182Y-2298936D02*
X1062705Y-2279889D01*
X1062705Y-2279889D02*
X1062705Y-2232270D01*
X1062705Y-2232270D02*
X1053182Y-2213222D01*
X1053182Y-2213222D02*
X1043658Y-2203698D01*
X1043658Y-2203698D02*
X1024610Y-2194174D01*
X1024610Y-2194174D02*
X986515Y-2194174D01*
X986515Y-2194174D02*
X967467Y-2203698D01*
X967467Y-2203698D02*
X957943Y-2213222D01*
X957943Y-2213222D02*
X948420Y-2232270D01*
X1148420Y-2317984D02*
X1148420Y-2184650D01*
X1148420Y-2203698D02*
X1157944Y-2194174D01*
X1157944Y-2194174D02*
X1176991Y-2184650D01*
X1176991Y-2184650D02*
X1205563Y-2184650D01*
X1205563Y-2184650D02*
X1224610Y-2194174D01*
X1224610Y-2194174D02*
X1234134Y-2213222D01*
X1234134Y-2213222D02*
X1234134Y-2317984D01*
X1234134Y-2213222D02*
X1243658Y-2194174D01*
X1243658Y-2194174D02*
X1262705Y-2184650D01*
X1262705Y-2184650D02*
X1291277Y-2184650D01*
X1291277Y-2184650D02*
X1310325Y-2194174D01*
X1310325Y-2194174D02*
X1319848Y-2213222D01*
X1319848Y-2213222D02*
X1319848Y-2317984D01*
X1415086Y-2317984D02*
X1415086Y-2184650D01*
X1415086Y-2203698D02*
X1424610Y-2194174D01*
X1424610Y-2194174D02*
X1443658Y-2184650D01*
X1443658Y-2184650D02*
X1472229Y-2184650D01*
X1472229Y-2184650D02*
X1491277Y-2194174D01*
X1491277Y-2194174D02*
X1500801Y-2213222D01*
X1500801Y-2213222D02*
X1500801Y-2317984D01*
X1500801Y-2213222D02*
X1510324Y-2194174D01*
X1510324Y-2194174D02*
X1529372Y-2184650D01*
X1529372Y-2184650D02*
X1557943Y-2184650D01*
X1557943Y-2184650D02*
X1576991Y-2194174D01*
X1576991Y-2194174D02*
X1586515Y-2213222D01*
X1586515Y-2213222D02*
X1586515Y-2317984D01*
X1976991Y-2108460D02*
X1805563Y-2365603D01*
X2234134Y-2117984D02*
X2253182Y-2117984D01*
X2253182Y-2117984D02*
X2272229Y-2127508D01*
X2272229Y-2127508D02*
X2281753Y-2137031D01*
X2281753Y-2137031D02*
X2291277Y-2156079D01*
X2291277Y-2156079D02*
X2300801Y-2194174D01*
X2300801Y-2194174D02*
X2300801Y-2241793D01*
X2300801Y-2241793D02*
X2291277Y-2279889D01*
X2291277Y-2279889D02*
X2281753Y-2298936D01*
X2281753Y-2298936D02*
X2272229Y-2308460D01*
X2272229Y-2308460D02*
X2253182Y-2317984D01*
X2253182Y-2317984D02*
X2234134Y-2317984D01*
X2234134Y-2317984D02*
X2215087Y-2308460D01*
X2215087Y-2308460D02*
X2205563Y-2298936D01*
X2205563Y-2298936D02*
X2196039Y-2279889D01*
X2196039Y-2279889D02*
X2186515Y-2241793D01*
X2186515Y-2241793D02*
X2186515Y-2194174D01*
X2186515Y-2194174D02*
X2196039Y-2156079D01*
X2196039Y-2156079D02*
X2205563Y-2137031D01*
X2205563Y-2137031D02*
X2215087Y-2127508D01*
X2215087Y-2127508D02*
X2234134Y-2117984D01*
X2386515Y-2298936D02*
X2396039Y-2308460D01*
X2396039Y-2308460D02*
X2386515Y-2317984D01*
X2386515Y-2317984D02*
X2376991Y-2308460D01*
X2376991Y-2308460D02*
X2386515Y-2298936D01*
X2386515Y-2298936D02*
X2386515Y-2317984D01*
X2519848Y-2117984D02*
X2538896Y-2117984D01*
X2538896Y-2117984D02*
X2557944Y-2127508D01*
X2557944Y-2127508D02*
X2567468Y-2137031D01*
X2567468Y-2137031D02*
X2576991Y-2156079D01*
X2576991Y-2156079D02*
X2586515Y-2194174D01*
X2586515Y-2194174D02*
X2586515Y-2241793D01*
X2586515Y-2241793D02*
X2576991Y-2279889D01*
X2576991Y-2279889D02*
X2567468Y-2298936D01*
X2567468Y-2298936D02*
X2557944Y-2308460D01*
X2557944Y-2308460D02*
X2538896Y-2317984D01*
X2538896Y-2317984D02*
X2519848Y-2317984D01*
X2519848Y-2317984D02*
X2500801Y-2308460D01*
X2500801Y-2308460D02*
X2491277Y-2298936D01*
X2491277Y-2298936D02*
X2481753Y-2279889D01*
X2481753Y-2279889D02*
X2472229Y-2241793D01*
X2472229Y-2241793D02*
X2472229Y-2194174D01*
X2472229Y-2194174D02*
X2481753Y-2156079D01*
X2481753Y-2156079D02*
X2491277Y-2137031D01*
X2491277Y-2137031D02*
X2500801Y-2127508D01*
X2500801Y-2127508D02*
X2519848Y-2117984D01*
X2757944Y-2184650D02*
X2757944Y-2317984D01*
X2710325Y-2108460D02*
X2662706Y-2251317D01*
X2662706Y-2251317D02*
X2786515Y-2251317D01*
X2900801Y-2117984D02*
X2919848Y-2117984D01*
X2919848Y-2117984D02*
X2938896Y-2127508D01*
X2938896Y-2127508D02*
X2948420Y-2137031D01*
X2948420Y-2137031D02*
X2957944Y-2156079D01*
X2957944Y-2156079D02*
X2967467Y-2194174D01*
X2967467Y-2194174D02*
X2967467Y-2241793D01*
X2967467Y-2241793D02*
X2957944Y-2279889D01*
X2957944Y-2279889D02*
X2948420Y-2298936D01*
X2948420Y-2298936D02*
X2938896Y-2308460D01*
X2938896Y-2308460D02*
X2919848Y-2317984D01*
X2919848Y-2317984D02*
X2900801Y-2317984D01*
X2900801Y-2317984D02*
X2881753Y-2308460D01*
X2881753Y-2308460D02*
X2872229Y-2298936D01*
X2872229Y-2298936D02*
X2862706Y-2279889D01*
X2862706Y-2279889D02*
X2853182Y-2241793D01*
X2853182Y-2241793D02*
X2853182Y-2194174D01*
X2853182Y-2194174D02*
X2862706Y-2156079D01*
X2862706Y-2156079D02*
X2872229Y-2137031D01*
X2872229Y-2137031D02*
X2881753Y-2127508D01*
X2881753Y-2127508D02*
X2900801Y-2117984D01*
X3091277Y-2117984D02*
X3110325Y-2117984D01*
X3110325Y-2117984D02*
X3129372Y-2127508D01*
X3129372Y-2127508D02*
X3138896Y-2137031D01*
X3138896Y-2137031D02*
X3148420Y-2156079D01*
X3148420Y-2156079D02*
X3157944Y-2194174D01*
X3157944Y-2194174D02*
X3157944Y-2241793D01*
X3157944Y-2241793D02*
X3148420Y-2279889D01*
X3148420Y-2279889D02*
X3138896Y-2298936D01*
X3138896Y-2298936D02*
X3129372Y-2308460D01*
X3129372Y-2308460D02*
X3110325Y-2317984D01*
X3110325Y-2317984D02*
X3091277Y-2317984D01*
X3091277Y-2317984D02*
X3072229Y-2308460D01*
X3072229Y-2308460D02*
X3062706Y-2298936D01*
X3062706Y-2298936D02*
X3053182Y-2279889D01*
X3053182Y-2279889D02*
X3043658Y-2241793D01*
X3043658Y-2241793D02*
X3043658Y-2194174D01*
X3043658Y-2194174D02*
X3053182Y-2156079D01*
X3053182Y-2156079D02*
X3062706Y-2137031D01*
X3062706Y-2137031D02*
X3072229Y-2127508D01*
X3072229Y-2127508D02*
X3091277Y-2117984D01*
X3234134Y-2117984D02*
X3234134Y-2156079D01*
X3310325Y-2117984D02*
X3310325Y-2156079D01*
X3605563Y-2394174D02*
X3596039Y-2384650D01*
X3596039Y-2384650D02*
X3576991Y-2356079D01*
X3576991Y-2356079D02*
X3567468Y-2337031D01*
X3567468Y-2337031D02*
X3557944Y-2308460D01*
X3557944Y-2308460D02*
X3548420Y-2260841D01*
X3548420Y-2260841D02*
X3548420Y-2222746D01*
X3548420Y-2222746D02*
X3557944Y-2175127D01*
X3557944Y-2175127D02*
X3567468Y-2146555D01*
X3567468Y-2146555D02*
X3576991Y-2127508D01*
X3576991Y-2127508D02*
X3596039Y-2098936D01*
X3596039Y-2098936D02*
X3605563Y-2089412D01*
X3662706Y-2117984D02*
X3786515Y-2117984D01*
X3786515Y-2117984D02*
X3719848Y-2194174D01*
X3719848Y-2194174D02*
X3748420Y-2194174D01*
X3748420Y-2194174D02*
X3767468Y-2203698D01*
X3767468Y-2203698D02*
X3776991Y-2213222D01*
X3776991Y-2213222D02*
X3786515Y-2232270D01*
X3786515Y-2232270D02*
X3786515Y-2279889D01*
X3786515Y-2279889D02*
X3776991Y-2298936D01*
X3776991Y-2298936D02*
X3767468Y-2308460D01*
X3767468Y-2308460D02*
X3748420Y-2317984D01*
X3748420Y-2317984D02*
X3691277Y-2317984D01*
X3691277Y-2317984D02*
X3672229Y-2308460D01*
X3672229Y-2308460D02*
X3662706Y-2298936D01*
X4024610Y-2317984D02*
X4024610Y-2117984D01*
X4110325Y-2317984D02*
X4110325Y-2213222D01*
X4110325Y-2213222D02*
X4100801Y-2194174D01*
X4100801Y-2194174D02*
X4081753Y-2184650D01*
X4081753Y-2184650D02*
X4053182Y-2184650D01*
X4053182Y-2184650D02*
X4034134Y-2194174D01*
X4034134Y-2194174D02*
X4024610Y-2203698D01*
X4234134Y-2317984D02*
X4215087Y-2308460D01*
X4215087Y-2308460D02*
X4205563Y-2298936D01*
X4205563Y-2298936D02*
X4196039Y-2279889D01*
X4196039Y-2279889D02*
X4196039Y-2222746D01*
X4196039Y-2222746D02*
X4205563Y-2203698D01*
X4205563Y-2203698D02*
X4215087Y-2194174D01*
X4215087Y-2194174D02*
X4234134Y-2184650D01*
X4234134Y-2184650D02*
X4262706Y-2184650D01*
X4262706Y-2184650D02*
X4281753Y-2194174D01*
X4281753Y-2194174D02*
X4291277Y-2203698D01*
X4291277Y-2203698D02*
X4300801Y-2222746D01*
X4300801Y-2222746D02*
X4300801Y-2279889D01*
X4300801Y-2279889D02*
X4291277Y-2298936D01*
X4291277Y-2298936D02*
X4281753Y-2308460D01*
X4281753Y-2308460D02*
X4262706Y-2317984D01*
X4262706Y-2317984D02*
X4234134Y-2317984D01*
X4415087Y-2317984D02*
X4396039Y-2308460D01*
X4396039Y-2308460D02*
X4386515Y-2289412D01*
X4386515Y-2289412D02*
X4386515Y-2117984D01*
X4567468Y-2308460D02*
X4548420Y-2317984D01*
X4548420Y-2317984D02*
X4510325Y-2317984D01*
X4510325Y-2317984D02*
X4491277Y-2308460D01*
X4491277Y-2308460D02*
X4481753Y-2289412D01*
X4481753Y-2289412D02*
X4481753Y-2213222D01*
X4481753Y-2213222D02*
X4491277Y-2194174D01*
X4491277Y-2194174D02*
X4510325Y-2184650D01*
X4510325Y-2184650D02*
X4548420Y-2184650D01*
X4548420Y-2184650D02*
X4567468Y-2194174D01*
X4567468Y-2194174D02*
X4576992Y-2213222D01*
X4576992Y-2213222D02*
X4576992Y-2232270D01*
X4576992Y-2232270D02*
X4481753Y-2251317D01*
X4653182Y-2308460D02*
X4672230Y-2317984D01*
X4672230Y-2317984D02*
X4710325Y-2317984D01*
X4710325Y-2317984D02*
X4729373Y-2308460D01*
X4729373Y-2308460D02*
X4738896Y-2289412D01*
X4738896Y-2289412D02*
X4738896Y-2279889D01*
X4738896Y-2279889D02*
X4729373Y-2260841D01*
X4729373Y-2260841D02*
X4710325Y-2251317D01*
X4710325Y-2251317D02*
X4681753Y-2251317D01*
X4681753Y-2251317D02*
X4662706Y-2241793D01*
X4662706Y-2241793D02*
X4653182Y-2222746D01*
X4653182Y-2222746D02*
X4653182Y-2213222D01*
X4653182Y-2213222D02*
X4662706Y-2194174D01*
X4662706Y-2194174D02*
X4681753Y-2184650D01*
X4681753Y-2184650D02*
X4710325Y-2184650D01*
X4710325Y-2184650D02*
X4729373Y-2194174D01*
X4805563Y-2394174D02*
X4815087Y-2384650D01*
X4815087Y-2384650D02*
X4834134Y-2356079D01*
X4834134Y-2356079D02*
X4843658Y-2337031D01*
X4843658Y-2337031D02*
X4853182Y-2308460D01*
X4853182Y-2308460D02*
X4862706Y-2260841D01*
X4862706Y-2260841D02*
X4862706Y-2222746D01*
X4862706Y-2222746D02*
X4853182Y-2175127D01*
X4853182Y-2175127D02*
X4843658Y-2146555D01*
X4843658Y-2146555D02*
X4834134Y-2127508D01*
X4834134Y-2127508D02*
X4815087Y-2098936D01*
X4815087Y-2098936D02*
X4805563Y-2089412D01*
D14*
X-99500Y-2425500D02*
X30500Y-2555500D01*
X30500Y-2425500D02*
X-99500Y-2555500D01*
X11462Y-2536462D02*
X11462Y-2444538D01*
X-80462Y-2444538D01*
X-80462Y-2536462D01*
X11462Y-2536462D01*
D11*
X396039Y-2581984D02*
X281753Y-2581984D01*
X338896Y-2581984D02*
X338896Y-2381984D01*
X338896Y-2381984D02*
X319848Y-2410555D01*
X319848Y-2410555D02*
X300801Y-2429603D01*
X300801Y-2429603D02*
X281753Y-2439127D01*
X481753Y-2562936D02*
X491277Y-2572460D01*
X491277Y-2572460D02*
X481753Y-2581984D01*
X481753Y-2581984D02*
X472229Y-2572460D01*
X472229Y-2572460D02*
X481753Y-2562936D01*
X481753Y-2562936D02*
X481753Y-2581984D01*
X557944Y-2381984D02*
X681753Y-2381984D01*
X681753Y-2381984D02*
X615086Y-2458174D01*
X615086Y-2458174D02*
X643658Y-2458174D01*
X643658Y-2458174D02*
X662705Y-2467698D01*
X662705Y-2467698D02*
X672229Y-2477222D01*
X672229Y-2477222D02*
X681753Y-2496270D01*
X681753Y-2496270D02*
X681753Y-2543889D01*
X681753Y-2543889D02*
X672229Y-2562936D01*
X672229Y-2562936D02*
X662705Y-2572460D01*
X662705Y-2572460D02*
X643658Y-2581984D01*
X643658Y-2581984D02*
X586515Y-2581984D01*
X586515Y-2581984D02*
X567467Y-2572460D01*
X567467Y-2572460D02*
X557944Y-2562936D01*
X805562Y-2381984D02*
X824610Y-2381984D01*
X824610Y-2381984D02*
X843658Y-2391508D01*
X843658Y-2391508D02*
X853182Y-2401031D01*
X853182Y-2401031D02*
X862705Y-2420079D01*
X862705Y-2420079D02*
X872229Y-2458174D01*
X872229Y-2458174D02*
X872229Y-2505793D01*
X872229Y-2505793D02*
X862705Y-2543889D01*
X862705Y-2543889D02*
X853182Y-2562936D01*
X853182Y-2562936D02*
X843658Y-2572460D01*
X843658Y-2572460D02*
X824610Y-2581984D01*
X824610Y-2581984D02*
X805562Y-2581984D01*
X805562Y-2581984D02*
X786515Y-2572460D01*
X786515Y-2572460D02*
X776991Y-2562936D01*
X776991Y-2562936D02*
X767467Y-2543889D01*
X767467Y-2543889D02*
X757943Y-2505793D01*
X757943Y-2505793D02*
X757943Y-2458174D01*
X757943Y-2458174D02*
X767467Y-2420079D01*
X767467Y-2420079D02*
X776991Y-2401031D01*
X776991Y-2401031D02*
X786515Y-2391508D01*
X786515Y-2391508D02*
X805562Y-2381984D01*
X996039Y-2381984D02*
X1015086Y-2381984D01*
X1015086Y-2381984D02*
X1034134Y-2391508D01*
X1034134Y-2391508D02*
X1043658Y-2401031D01*
X1043658Y-2401031D02*
X1053182Y-2420079D01*
X1053182Y-2420079D02*
X1062705Y-2458174D01*
X1062705Y-2458174D02*
X1062705Y-2505793D01*
X1062705Y-2505793D02*
X1053182Y-2543889D01*
X1053182Y-2543889D02*
X1043658Y-2562936D01*
X1043658Y-2562936D02*
X1034134Y-2572460D01*
X1034134Y-2572460D02*
X1015086Y-2581984D01*
X1015086Y-2581984D02*
X996039Y-2581984D01*
X996039Y-2581984D02*
X976991Y-2572460D01*
X976991Y-2572460D02*
X967467Y-2562936D01*
X967467Y-2562936D02*
X957943Y-2543889D01*
X957943Y-2543889D02*
X948420Y-2505793D01*
X948420Y-2505793D02*
X948420Y-2458174D01*
X948420Y-2458174D02*
X957943Y-2420079D01*
X957943Y-2420079D02*
X967467Y-2401031D01*
X967467Y-2401031D02*
X976991Y-2391508D01*
X976991Y-2391508D02*
X996039Y-2381984D01*
X1148420Y-2581984D02*
X1148420Y-2448650D01*
X1148420Y-2467698D02*
X1157944Y-2458174D01*
X1157944Y-2458174D02*
X1176991Y-2448650D01*
X1176991Y-2448650D02*
X1205563Y-2448650D01*
X1205563Y-2448650D02*
X1224610Y-2458174D01*
X1224610Y-2458174D02*
X1234134Y-2477222D01*
X1234134Y-2477222D02*
X1234134Y-2581984D01*
X1234134Y-2477222D02*
X1243658Y-2458174D01*
X1243658Y-2458174D02*
X1262705Y-2448650D01*
X1262705Y-2448650D02*
X1291277Y-2448650D01*
X1291277Y-2448650D02*
X1310325Y-2458174D01*
X1310325Y-2458174D02*
X1319848Y-2477222D01*
X1319848Y-2477222D02*
X1319848Y-2581984D01*
X1415086Y-2581984D02*
X1415086Y-2448650D01*
X1415086Y-2467698D02*
X1424610Y-2458174D01*
X1424610Y-2458174D02*
X1443658Y-2448650D01*
X1443658Y-2448650D02*
X1472229Y-2448650D01*
X1472229Y-2448650D02*
X1491277Y-2458174D01*
X1491277Y-2458174D02*
X1500801Y-2477222D01*
X1500801Y-2477222D02*
X1500801Y-2581984D01*
X1500801Y-2477222D02*
X1510324Y-2458174D01*
X1510324Y-2458174D02*
X1529372Y-2448650D01*
X1529372Y-2448650D02*
X1557943Y-2448650D01*
X1557943Y-2448650D02*
X1576991Y-2458174D01*
X1576991Y-2458174D02*
X1586515Y-2477222D01*
X1586515Y-2477222D02*
X1586515Y-2581984D01*
X1976991Y-2372460D02*
X1805563Y-2629603D01*
X2234134Y-2381984D02*
X2253182Y-2381984D01*
X2253182Y-2381984D02*
X2272229Y-2391508D01*
X2272229Y-2391508D02*
X2281753Y-2401031D01*
X2281753Y-2401031D02*
X2291277Y-2420079D01*
X2291277Y-2420079D02*
X2300801Y-2458174D01*
X2300801Y-2458174D02*
X2300801Y-2505793D01*
X2300801Y-2505793D02*
X2291277Y-2543889D01*
X2291277Y-2543889D02*
X2281753Y-2562936D01*
X2281753Y-2562936D02*
X2272229Y-2572460D01*
X2272229Y-2572460D02*
X2253182Y-2581984D01*
X2253182Y-2581984D02*
X2234134Y-2581984D01*
X2234134Y-2581984D02*
X2215087Y-2572460D01*
X2215087Y-2572460D02*
X2205563Y-2562936D01*
X2205563Y-2562936D02*
X2196039Y-2543889D01*
X2196039Y-2543889D02*
X2186515Y-2505793D01*
X2186515Y-2505793D02*
X2186515Y-2458174D01*
X2186515Y-2458174D02*
X2196039Y-2420079D01*
X2196039Y-2420079D02*
X2205563Y-2401031D01*
X2205563Y-2401031D02*
X2215087Y-2391508D01*
X2215087Y-2391508D02*
X2234134Y-2381984D01*
X2386515Y-2562936D02*
X2396039Y-2572460D01*
X2396039Y-2572460D02*
X2386515Y-2581984D01*
X2386515Y-2581984D02*
X2376991Y-2572460D01*
X2376991Y-2572460D02*
X2386515Y-2562936D01*
X2386515Y-2562936D02*
X2386515Y-2581984D01*
X2519848Y-2381984D02*
X2538896Y-2381984D01*
X2538896Y-2381984D02*
X2557944Y-2391508D01*
X2557944Y-2391508D02*
X2567468Y-2401031D01*
X2567468Y-2401031D02*
X2576991Y-2420079D01*
X2576991Y-2420079D02*
X2586515Y-2458174D01*
X2586515Y-2458174D02*
X2586515Y-2505793D01*
X2586515Y-2505793D02*
X2576991Y-2543889D01*
X2576991Y-2543889D02*
X2567468Y-2562936D01*
X2567468Y-2562936D02*
X2557944Y-2572460D01*
X2557944Y-2572460D02*
X2538896Y-2581984D01*
X2538896Y-2581984D02*
X2519848Y-2581984D01*
X2519848Y-2581984D02*
X2500801Y-2572460D01*
X2500801Y-2572460D02*
X2491277Y-2562936D01*
X2491277Y-2562936D02*
X2481753Y-2543889D01*
X2481753Y-2543889D02*
X2472229Y-2505793D01*
X2472229Y-2505793D02*
X2472229Y-2458174D01*
X2472229Y-2458174D02*
X2481753Y-2420079D01*
X2481753Y-2420079D02*
X2491277Y-2401031D01*
X2491277Y-2401031D02*
X2500801Y-2391508D01*
X2500801Y-2391508D02*
X2519848Y-2381984D01*
X2767468Y-2381984D02*
X2672229Y-2381984D01*
X2672229Y-2381984D02*
X2662706Y-2477222D01*
X2662706Y-2477222D02*
X2672229Y-2467698D01*
X2672229Y-2467698D02*
X2691277Y-2458174D01*
X2691277Y-2458174D02*
X2738896Y-2458174D01*
X2738896Y-2458174D02*
X2757944Y-2467698D01*
X2757944Y-2467698D02*
X2767468Y-2477222D01*
X2767468Y-2477222D02*
X2776991Y-2496270D01*
X2776991Y-2496270D02*
X2776991Y-2543889D01*
X2776991Y-2543889D02*
X2767468Y-2562936D01*
X2767468Y-2562936D02*
X2757944Y-2572460D01*
X2757944Y-2572460D02*
X2738896Y-2581984D01*
X2738896Y-2581984D02*
X2691277Y-2581984D01*
X2691277Y-2581984D02*
X2672229Y-2572460D01*
X2672229Y-2572460D02*
X2662706Y-2562936D01*
X2967467Y-2581984D02*
X2853182Y-2581984D01*
X2910325Y-2581984D02*
X2910325Y-2381984D01*
X2910325Y-2381984D02*
X2891277Y-2410555D01*
X2891277Y-2410555D02*
X2872229Y-2429603D01*
X2872229Y-2429603D02*
X2853182Y-2439127D01*
X3043658Y-2401031D02*
X3053182Y-2391508D01*
X3053182Y-2391508D02*
X3072229Y-2381984D01*
X3072229Y-2381984D02*
X3119848Y-2381984D01*
X3119848Y-2381984D02*
X3138896Y-2391508D01*
X3138896Y-2391508D02*
X3148420Y-2401031D01*
X3148420Y-2401031D02*
X3157944Y-2420079D01*
X3157944Y-2420079D02*
X3157944Y-2439127D01*
X3157944Y-2439127D02*
X3148420Y-2467698D01*
X3148420Y-2467698D02*
X3034134Y-2581984D01*
X3034134Y-2581984D02*
X3157944Y-2581984D01*
X3234134Y-2381984D02*
X3234134Y-2420079D01*
X3310325Y-2381984D02*
X3310325Y-2420079D01*
X3605563Y-2658174D02*
X3596039Y-2648650D01*
X3596039Y-2648650D02*
X3576991Y-2620079D01*
X3576991Y-2620079D02*
X3567468Y-2601031D01*
X3567468Y-2601031D02*
X3557944Y-2572460D01*
X3557944Y-2572460D02*
X3548420Y-2524841D01*
X3548420Y-2524841D02*
X3548420Y-2486746D01*
X3548420Y-2486746D02*
X3557944Y-2439127D01*
X3557944Y-2439127D02*
X3567468Y-2410555D01*
X3567468Y-2410555D02*
X3576991Y-2391508D01*
X3576991Y-2391508D02*
X3596039Y-2362936D01*
X3596039Y-2362936D02*
X3605563Y-2353412D01*
X3767468Y-2448650D02*
X3767468Y-2581984D01*
X3719848Y-2372460D02*
X3672229Y-2515317D01*
X3672229Y-2515317D02*
X3796039Y-2515317D01*
X4024610Y-2581984D02*
X4024610Y-2381984D01*
X4110325Y-2581984D02*
X4110325Y-2477222D01*
X4110325Y-2477222D02*
X4100801Y-2458174D01*
X4100801Y-2458174D02*
X4081753Y-2448650D01*
X4081753Y-2448650D02*
X4053182Y-2448650D01*
X4053182Y-2448650D02*
X4034134Y-2458174D01*
X4034134Y-2458174D02*
X4024610Y-2467698D01*
X4234134Y-2581984D02*
X4215087Y-2572460D01*
X4215087Y-2572460D02*
X4205563Y-2562936D01*
X4205563Y-2562936D02*
X4196039Y-2543889D01*
X4196039Y-2543889D02*
X4196039Y-2486746D01*
X4196039Y-2486746D02*
X4205563Y-2467698D01*
X4205563Y-2467698D02*
X4215087Y-2458174D01*
X4215087Y-2458174D02*
X4234134Y-2448650D01*
X4234134Y-2448650D02*
X4262706Y-2448650D01*
X4262706Y-2448650D02*
X4281753Y-2458174D01*
X4281753Y-2458174D02*
X4291277Y-2467698D01*
X4291277Y-2467698D02*
X4300801Y-2486746D01*
X4300801Y-2486746D02*
X4300801Y-2543889D01*
X4300801Y-2543889D02*
X4291277Y-2562936D01*
X4291277Y-2562936D02*
X4281753Y-2572460D01*
X4281753Y-2572460D02*
X4262706Y-2581984D01*
X4262706Y-2581984D02*
X4234134Y-2581984D01*
X4415087Y-2581984D02*
X4396039Y-2572460D01*
X4396039Y-2572460D02*
X4386515Y-2553412D01*
X4386515Y-2553412D02*
X4386515Y-2381984D01*
X4567468Y-2572460D02*
X4548420Y-2581984D01*
X4548420Y-2581984D02*
X4510325Y-2581984D01*
X4510325Y-2581984D02*
X4491277Y-2572460D01*
X4491277Y-2572460D02*
X4481753Y-2553412D01*
X4481753Y-2553412D02*
X4481753Y-2477222D01*
X4481753Y-2477222D02*
X4491277Y-2458174D01*
X4491277Y-2458174D02*
X4510325Y-2448650D01*
X4510325Y-2448650D02*
X4548420Y-2448650D01*
X4548420Y-2448650D02*
X4567468Y-2458174D01*
X4567468Y-2458174D02*
X4576992Y-2477222D01*
X4576992Y-2477222D02*
X4576992Y-2496270D01*
X4576992Y-2496270D02*
X4481753Y-2515317D01*
X4653182Y-2572460D02*
X4672230Y-2581984D01*
X4672230Y-2581984D02*
X4710325Y-2581984D01*
X4710325Y-2581984D02*
X4729373Y-2572460D01*
X4729373Y-2572460D02*
X4738896Y-2553412D01*
X4738896Y-2553412D02*
X4738896Y-2543889D01*
X4738896Y-2543889D02*
X4729373Y-2524841D01*
X4729373Y-2524841D02*
X4710325Y-2515317D01*
X4710325Y-2515317D02*
X4681753Y-2515317D01*
X4681753Y-2515317D02*
X4662706Y-2505793D01*
X4662706Y-2505793D02*
X4653182Y-2486746D01*
X4653182Y-2486746D02*
X4653182Y-2477222D01*
X4653182Y-2477222D02*
X4662706Y-2458174D01*
X4662706Y-2458174D02*
X4681753Y-2448650D01*
X4681753Y-2448650D02*
X4710325Y-2448650D01*
X4710325Y-2448650D02*
X4729373Y-2458174D01*
X4805563Y-2658174D02*
X4815087Y-2648650D01*
X4815087Y-2648650D02*
X4834134Y-2620079D01*
X4834134Y-2620079D02*
X4843658Y-2601031D01*
X4843658Y-2601031D02*
X4853182Y-2572460D01*
X4853182Y-2572460D02*
X4862706Y-2524841D01*
X4862706Y-2524841D02*
X4862706Y-2486746D01*
X4862706Y-2486746D02*
X4853182Y-2439127D01*
X4853182Y-2439127D02*
X4843658Y-2410555D01*
X4843658Y-2410555D02*
X4834134Y-2391508D01*
X4834134Y-2391508D02*
X4815087Y-2362936D01*
X4815087Y-2362936D02*
X4805563Y-2353412D01*
D15*
X-119500Y-2679500D02*
X30500Y-2829500D01*
X30500Y-2679500D02*
X-119500Y-2829500D01*
X-44500Y-2829500D02*
X30500Y-2754500D01*
X-44500Y-2679500D01*
X-119500Y-2754500D01*
X-44500Y-2829500D01*
D11*
X396039Y-2845984D02*
X281753Y-2845984D01*
X338896Y-2845984D02*
X338896Y-2645984D01*
X338896Y-2645984D02*
X319848Y-2674555D01*
X319848Y-2674555D02*
X300801Y-2693603D01*
X300801Y-2693603D02*
X281753Y-2703127D01*
X481753Y-2826936D02*
X491277Y-2836460D01*
X491277Y-2836460D02*
X481753Y-2845984D01*
X481753Y-2845984D02*
X472229Y-2836460D01*
X472229Y-2836460D02*
X481753Y-2826936D01*
X481753Y-2826936D02*
X481753Y-2845984D01*
X672229Y-2645984D02*
X576991Y-2645984D01*
X576991Y-2645984D02*
X567467Y-2741222D01*
X567467Y-2741222D02*
X576991Y-2731698D01*
X576991Y-2731698D02*
X596039Y-2722174D01*
X596039Y-2722174D02*
X643658Y-2722174D01*
X643658Y-2722174D02*
X662705Y-2731698D01*
X662705Y-2731698D02*
X672229Y-2741222D01*
X672229Y-2741222D02*
X681753Y-2760270D01*
X681753Y-2760270D02*
X681753Y-2807888D01*
X681753Y-2807888D02*
X672229Y-2826936D01*
X672229Y-2826936D02*
X662705Y-2836460D01*
X662705Y-2836460D02*
X643658Y-2845984D01*
X643658Y-2845984D02*
X596039Y-2845984D01*
X596039Y-2845984D02*
X576991Y-2836460D01*
X576991Y-2836460D02*
X567467Y-2826936D01*
X805562Y-2645984D02*
X824610Y-2645984D01*
X824610Y-2645984D02*
X843658Y-2655508D01*
X843658Y-2655508D02*
X853182Y-2665031D01*
X853182Y-2665031D02*
X862705Y-2684079D01*
X862705Y-2684079D02*
X872229Y-2722174D01*
X872229Y-2722174D02*
X872229Y-2769793D01*
X872229Y-2769793D02*
X862705Y-2807888D01*
X862705Y-2807888D02*
X853182Y-2826936D01*
X853182Y-2826936D02*
X843658Y-2836460D01*
X843658Y-2836460D02*
X824610Y-2845984D01*
X824610Y-2845984D02*
X805562Y-2845984D01*
X805562Y-2845984D02*
X786515Y-2836460D01*
X786515Y-2836460D02*
X776991Y-2826936D01*
X776991Y-2826936D02*
X767467Y-2807888D01*
X767467Y-2807888D02*
X757943Y-2769793D01*
X757943Y-2769793D02*
X757943Y-2722174D01*
X757943Y-2722174D02*
X767467Y-2684079D01*
X767467Y-2684079D02*
X776991Y-2665031D01*
X776991Y-2665031D02*
X786515Y-2655508D01*
X786515Y-2655508D02*
X805562Y-2645984D01*
X996039Y-2645984D02*
X1015086Y-2645984D01*
X1015086Y-2645984D02*
X1034134Y-2655508D01*
X1034134Y-2655508D02*
X1043658Y-2665031D01*
X1043658Y-2665031D02*
X1053182Y-2684079D01*
X1053182Y-2684079D02*
X1062705Y-2722174D01*
X1062705Y-2722174D02*
X1062705Y-2769793D01*
X1062705Y-2769793D02*
X1053182Y-2807888D01*
X1053182Y-2807888D02*
X1043658Y-2826936D01*
X1043658Y-2826936D02*
X1034134Y-2836460D01*
X1034134Y-2836460D02*
X1015086Y-2845984D01*
X1015086Y-2845984D02*
X996039Y-2845984D01*
X996039Y-2845984D02*
X976991Y-2836460D01*
X976991Y-2836460D02*
X967467Y-2826936D01*
X967467Y-2826936D02*
X957943Y-2807888D01*
X957943Y-2807888D02*
X948420Y-2769793D01*
X948420Y-2769793D02*
X948420Y-2722174D01*
X948420Y-2722174D02*
X957943Y-2684079D01*
X957943Y-2684079D02*
X967467Y-2665031D01*
X967467Y-2665031D02*
X976991Y-2655508D01*
X976991Y-2655508D02*
X996039Y-2645984D01*
X1148420Y-2845984D02*
X1148420Y-2712650D01*
X1148420Y-2731698D02*
X1157944Y-2722174D01*
X1157944Y-2722174D02*
X1176991Y-2712650D01*
X1176991Y-2712650D02*
X1205563Y-2712650D01*
X1205563Y-2712650D02*
X1224610Y-2722174D01*
X1224610Y-2722174D02*
X1234134Y-2741222D01*
X1234134Y-2741222D02*
X1234134Y-2845984D01*
X1234134Y-2741222D02*
X1243658Y-2722174D01*
X1243658Y-2722174D02*
X1262705Y-2712650D01*
X1262705Y-2712650D02*
X1291277Y-2712650D01*
X1291277Y-2712650D02*
X1310325Y-2722174D01*
X1310325Y-2722174D02*
X1319848Y-2741222D01*
X1319848Y-2741222D02*
X1319848Y-2845984D01*
X1415086Y-2845984D02*
X1415086Y-2712650D01*
X1415086Y-2731698D02*
X1424610Y-2722174D01*
X1424610Y-2722174D02*
X1443658Y-2712650D01*
X1443658Y-2712650D02*
X1472229Y-2712650D01*
X1472229Y-2712650D02*
X1491277Y-2722174D01*
X1491277Y-2722174D02*
X1500801Y-2741222D01*
X1500801Y-2741222D02*
X1500801Y-2845984D01*
X1500801Y-2741222D02*
X1510324Y-2722174D01*
X1510324Y-2722174D02*
X1529372Y-2712650D01*
X1529372Y-2712650D02*
X1557943Y-2712650D01*
X1557943Y-2712650D02*
X1576991Y-2722174D01*
X1576991Y-2722174D02*
X1586515Y-2741222D01*
X1586515Y-2741222D02*
X1586515Y-2845984D01*
X1976991Y-2636460D02*
X1805563Y-2893603D01*
X2234134Y-2645984D02*
X2253182Y-2645984D01*
X2253182Y-2645984D02*
X2272229Y-2655508D01*
X2272229Y-2655508D02*
X2281753Y-2665031D01*
X2281753Y-2665031D02*
X2291277Y-2684079D01*
X2291277Y-2684079D02*
X2300801Y-2722174D01*
X2300801Y-2722174D02*
X2300801Y-2769793D01*
X2300801Y-2769793D02*
X2291277Y-2807888D01*
X2291277Y-2807888D02*
X2281753Y-2826936D01*
X2281753Y-2826936D02*
X2272229Y-2836460D01*
X2272229Y-2836460D02*
X2253182Y-2845984D01*
X2253182Y-2845984D02*
X2234134Y-2845984D01*
X2234134Y-2845984D02*
X2215087Y-2836460D01*
X2215087Y-2836460D02*
X2205563Y-2826936D01*
X2205563Y-2826936D02*
X2196039Y-2807888D01*
X2196039Y-2807888D02*
X2186515Y-2769793D01*
X2186515Y-2769793D02*
X2186515Y-2722174D01*
X2186515Y-2722174D02*
X2196039Y-2684079D01*
X2196039Y-2684079D02*
X2205563Y-2665031D01*
X2205563Y-2665031D02*
X2215087Y-2655508D01*
X2215087Y-2655508D02*
X2234134Y-2645984D01*
X2386515Y-2826936D02*
X2396039Y-2836460D01*
X2396039Y-2836460D02*
X2386515Y-2845984D01*
X2386515Y-2845984D02*
X2376991Y-2836460D01*
X2376991Y-2836460D02*
X2386515Y-2826936D01*
X2386515Y-2826936D02*
X2386515Y-2845984D01*
X2519848Y-2645984D02*
X2538896Y-2645984D01*
X2538896Y-2645984D02*
X2557944Y-2655508D01*
X2557944Y-2655508D02*
X2567468Y-2665031D01*
X2567468Y-2665031D02*
X2576991Y-2684079D01*
X2576991Y-2684079D02*
X2586515Y-2722174D01*
X2586515Y-2722174D02*
X2586515Y-2769793D01*
X2586515Y-2769793D02*
X2576991Y-2807888D01*
X2576991Y-2807888D02*
X2567468Y-2826936D01*
X2567468Y-2826936D02*
X2557944Y-2836460D01*
X2557944Y-2836460D02*
X2538896Y-2845984D01*
X2538896Y-2845984D02*
X2519848Y-2845984D01*
X2519848Y-2845984D02*
X2500801Y-2836460D01*
X2500801Y-2836460D02*
X2491277Y-2826936D01*
X2491277Y-2826936D02*
X2481753Y-2807888D01*
X2481753Y-2807888D02*
X2472229Y-2769793D01*
X2472229Y-2769793D02*
X2472229Y-2722174D01*
X2472229Y-2722174D02*
X2481753Y-2684079D01*
X2481753Y-2684079D02*
X2491277Y-2665031D01*
X2491277Y-2665031D02*
X2500801Y-2655508D01*
X2500801Y-2655508D02*
X2519848Y-2645984D01*
X2767468Y-2645984D02*
X2672229Y-2645984D01*
X2672229Y-2645984D02*
X2662706Y-2741222D01*
X2662706Y-2741222D02*
X2672229Y-2731698D01*
X2672229Y-2731698D02*
X2691277Y-2722174D01*
X2691277Y-2722174D02*
X2738896Y-2722174D01*
X2738896Y-2722174D02*
X2757944Y-2731698D01*
X2757944Y-2731698D02*
X2767468Y-2741222D01*
X2767468Y-2741222D02*
X2776991Y-2760270D01*
X2776991Y-2760270D02*
X2776991Y-2807888D01*
X2776991Y-2807888D02*
X2767468Y-2826936D01*
X2767468Y-2826936D02*
X2757944Y-2836460D01*
X2757944Y-2836460D02*
X2738896Y-2845984D01*
X2738896Y-2845984D02*
X2691277Y-2845984D01*
X2691277Y-2845984D02*
X2672229Y-2836460D01*
X2672229Y-2836460D02*
X2662706Y-2826936D01*
X2872229Y-2845984D02*
X2910325Y-2845984D01*
X2910325Y-2845984D02*
X2929372Y-2836460D01*
X2929372Y-2836460D02*
X2938896Y-2826936D01*
X2938896Y-2826936D02*
X2957944Y-2798365D01*
X2957944Y-2798365D02*
X2967467Y-2760270D01*
X2967467Y-2760270D02*
X2967467Y-2684079D01*
X2967467Y-2684079D02*
X2957944Y-2665031D01*
X2957944Y-2665031D02*
X2948420Y-2655508D01*
X2948420Y-2655508D02*
X2929372Y-2645984D01*
X2929372Y-2645984D02*
X2891277Y-2645984D01*
X2891277Y-2645984D02*
X2872229Y-2655508D01*
X2872229Y-2655508D02*
X2862706Y-2665031D01*
X2862706Y-2665031D02*
X2853182Y-2684079D01*
X2853182Y-2684079D02*
X2853182Y-2731698D01*
X2853182Y-2731698D02*
X2862706Y-2750746D01*
X2862706Y-2750746D02*
X2872229Y-2760270D01*
X2872229Y-2760270D02*
X2891277Y-2769793D01*
X2891277Y-2769793D02*
X2929372Y-2769793D01*
X2929372Y-2769793D02*
X2948420Y-2760270D01*
X2948420Y-2760270D02*
X2957944Y-2750746D01*
X2957944Y-2750746D02*
X2967467Y-2731698D01*
X3157944Y-2845984D02*
X3043658Y-2845984D01*
X3100801Y-2845984D02*
X3100801Y-2645984D01*
X3100801Y-2645984D02*
X3081753Y-2674555D01*
X3081753Y-2674555D02*
X3062706Y-2693603D01*
X3062706Y-2693603D02*
X3043658Y-2703127D01*
X3234134Y-2645984D02*
X3234134Y-2684079D01*
X3310325Y-2645984D02*
X3310325Y-2684079D01*
X3605563Y-2922174D02*
X3596039Y-2912650D01*
X3596039Y-2912650D02*
X3576991Y-2884079D01*
X3576991Y-2884079D02*
X3567468Y-2865031D01*
X3567468Y-2865031D02*
X3557944Y-2836460D01*
X3557944Y-2836460D02*
X3548420Y-2788841D01*
X3548420Y-2788841D02*
X3548420Y-2750746D01*
X3548420Y-2750746D02*
X3557944Y-2703127D01*
X3557944Y-2703127D02*
X3567468Y-2674555D01*
X3567468Y-2674555D02*
X3576991Y-2655508D01*
X3576991Y-2655508D02*
X3596039Y-2626936D01*
X3596039Y-2626936D02*
X3605563Y-2617412D01*
X3767468Y-2712650D02*
X3767468Y-2845984D01*
X3719848Y-2636460D02*
X3672229Y-2779317D01*
X3672229Y-2779317D02*
X3796039Y-2779317D01*
X4024610Y-2845984D02*
X4024610Y-2645984D01*
X4110325Y-2845984D02*
X4110325Y-2741222D01*
X4110325Y-2741222D02*
X4100801Y-2722174D01*
X4100801Y-2722174D02*
X4081753Y-2712650D01*
X4081753Y-2712650D02*
X4053182Y-2712650D01*
X4053182Y-2712650D02*
X4034134Y-2722174D01*
X4034134Y-2722174D02*
X4024610Y-2731698D01*
X4234134Y-2845984D02*
X4215087Y-2836460D01*
X4215087Y-2836460D02*
X4205563Y-2826936D01*
X4205563Y-2826936D02*
X4196039Y-2807888D01*
X4196039Y-2807888D02*
X4196039Y-2750746D01*
X4196039Y-2750746D02*
X4205563Y-2731698D01*
X4205563Y-2731698D02*
X4215087Y-2722174D01*
X4215087Y-2722174D02*
X4234134Y-2712650D01*
X4234134Y-2712650D02*
X4262706Y-2712650D01*
X4262706Y-2712650D02*
X4281753Y-2722174D01*
X4281753Y-2722174D02*
X4291277Y-2731698D01*
X4291277Y-2731698D02*
X4300801Y-2750746D01*
X4300801Y-2750746D02*
X4300801Y-2807888D01*
X4300801Y-2807888D02*
X4291277Y-2826936D01*
X4291277Y-2826936D02*
X4281753Y-2836460D01*
X4281753Y-2836460D02*
X4262706Y-2845984D01*
X4262706Y-2845984D02*
X4234134Y-2845984D01*
X4415087Y-2845984D02*
X4396039Y-2836460D01*
X4396039Y-2836460D02*
X4386515Y-2817412D01*
X4386515Y-2817412D02*
X4386515Y-2645984D01*
X4567468Y-2836460D02*
X4548420Y-2845984D01*
X4548420Y-2845984D02*
X4510325Y-2845984D01*
X4510325Y-2845984D02*
X4491277Y-2836460D01*
X4491277Y-2836460D02*
X4481753Y-2817412D01*
X4481753Y-2817412D02*
X4481753Y-2741222D01*
X4481753Y-2741222D02*
X4491277Y-2722174D01*
X4491277Y-2722174D02*
X4510325Y-2712650D01*
X4510325Y-2712650D02*
X4548420Y-2712650D01*
X4548420Y-2712650D02*
X4567468Y-2722174D01*
X4567468Y-2722174D02*
X4576992Y-2741222D01*
X4576992Y-2741222D02*
X4576992Y-2760270D01*
X4576992Y-2760270D02*
X4481753Y-2779317D01*
X4653182Y-2836460D02*
X4672230Y-2845984D01*
X4672230Y-2845984D02*
X4710325Y-2845984D01*
X4710325Y-2845984D02*
X4729373Y-2836460D01*
X4729373Y-2836460D02*
X4738896Y-2817412D01*
X4738896Y-2817412D02*
X4738896Y-2807888D01*
X4738896Y-2807888D02*
X4729373Y-2788841D01*
X4729373Y-2788841D02*
X4710325Y-2779317D01*
X4710325Y-2779317D02*
X4681753Y-2779317D01*
X4681753Y-2779317D02*
X4662706Y-2769793D01*
X4662706Y-2769793D02*
X4653182Y-2750746D01*
X4653182Y-2750746D02*
X4653182Y-2741222D01*
X4653182Y-2741222D02*
X4662706Y-2722174D01*
X4662706Y-2722174D02*
X4681753Y-2712650D01*
X4681753Y-2712650D02*
X4710325Y-2712650D01*
X4710325Y-2712650D02*
X4729373Y-2722174D01*
X4805563Y-2922174D02*
X4815087Y-2912650D01*
X4815087Y-2912650D02*
X4834134Y-2884079D01*
X4834134Y-2884079D02*
X4843658Y-2865031D01*
X4843658Y-2865031D02*
X4853182Y-2836460D01*
X4853182Y-2836460D02*
X4862706Y-2788841D01*
X4862706Y-2788841D02*
X4862706Y-2750746D01*
X4862706Y-2750746D02*
X4853182Y-2703127D01*
X4853182Y-2703127D02*
X4843658Y-2674555D01*
X4843658Y-2674555D02*
X4834134Y-2655508D01*
X4834134Y-2655508D02*
X4815087Y-2626936D01*
X4815087Y-2626936D02*
X4805563Y-2617412D01*
D16*
X-54500Y-2939500D02*
X-54500Y-3109500D01*
X-139500Y-3024500D02*
X30500Y-3024500D01*
X30500Y-3024500D02*
G75*
G02*
X-139500Y-3024500I-85000J0D01*
G01*
X-139500Y-3024500D02*
G75*
G02*
X30500Y-3024500I85000J0D01*
G01*
D11*
X396039Y-3115984D02*
X281753Y-3115984D01*
X338896Y-3115984D02*
X338896Y-2915984D01*
X338896Y-2915984D02*
X319848Y-2944555D01*
X319848Y-2944555D02*
X300801Y-2963603D01*
X300801Y-2963603D02*
X281753Y-2973127D01*
X481753Y-3096936D02*
X491277Y-3106460D01*
X491277Y-3106460D02*
X481753Y-3115984D01*
X481753Y-3115984D02*
X472229Y-3106460D01*
X472229Y-3106460D02*
X481753Y-3096936D01*
X481753Y-3096936D02*
X481753Y-3115984D01*
X557944Y-2915984D02*
X691277Y-2915984D01*
X691277Y-2915984D02*
X605563Y-3115984D01*
X805562Y-2915984D02*
X824610Y-2915984D01*
X824610Y-2915984D02*
X843658Y-2925508D01*
X843658Y-2925508D02*
X853182Y-2935031D01*
X853182Y-2935031D02*
X862705Y-2954079D01*
X862705Y-2954079D02*
X872229Y-2992174D01*
X872229Y-2992174D02*
X872229Y-3039793D01*
X872229Y-3039793D02*
X862705Y-3077888D01*
X862705Y-3077888D02*
X853182Y-3096936D01*
X853182Y-3096936D02*
X843658Y-3106460D01*
X843658Y-3106460D02*
X824610Y-3115984D01*
X824610Y-3115984D02*
X805562Y-3115984D01*
X805562Y-3115984D02*
X786515Y-3106460D01*
X786515Y-3106460D02*
X776991Y-3096936D01*
X776991Y-3096936D02*
X767467Y-3077888D01*
X767467Y-3077888D02*
X757943Y-3039793D01*
X757943Y-3039793D02*
X757943Y-2992174D01*
X757943Y-2992174D02*
X767467Y-2954079D01*
X767467Y-2954079D02*
X776991Y-2935031D01*
X776991Y-2935031D02*
X786515Y-2925508D01*
X786515Y-2925508D02*
X805562Y-2915984D01*
X996039Y-2915984D02*
X1015086Y-2915984D01*
X1015086Y-2915984D02*
X1034134Y-2925508D01*
X1034134Y-2925508D02*
X1043658Y-2935031D01*
X1043658Y-2935031D02*
X1053182Y-2954079D01*
X1053182Y-2954079D02*
X1062705Y-2992174D01*
X1062705Y-2992174D02*
X1062705Y-3039793D01*
X1062705Y-3039793D02*
X1053182Y-3077888D01*
X1053182Y-3077888D02*
X1043658Y-3096936D01*
X1043658Y-3096936D02*
X1034134Y-3106460D01*
X1034134Y-3106460D02*
X1015086Y-3115984D01*
X1015086Y-3115984D02*
X996039Y-3115984D01*
X996039Y-3115984D02*
X976991Y-3106460D01*
X976991Y-3106460D02*
X967467Y-3096936D01*
X967467Y-3096936D02*
X957943Y-3077888D01*
X957943Y-3077888D02*
X948420Y-3039793D01*
X948420Y-3039793D02*
X948420Y-2992174D01*
X948420Y-2992174D02*
X957943Y-2954079D01*
X957943Y-2954079D02*
X967467Y-2935031D01*
X967467Y-2935031D02*
X976991Y-2925508D01*
X976991Y-2925508D02*
X996039Y-2915984D01*
X1148420Y-3115984D02*
X1148420Y-2982650D01*
X1148420Y-3001698D02*
X1157944Y-2992174D01*
X1157944Y-2992174D02*
X1176991Y-2982650D01*
X1176991Y-2982650D02*
X1205563Y-2982650D01*
X1205563Y-2982650D02*
X1224610Y-2992174D01*
X1224610Y-2992174D02*
X1234134Y-3011222D01*
X1234134Y-3011222D02*
X1234134Y-3115984D01*
X1234134Y-3011222D02*
X1243658Y-2992174D01*
X1243658Y-2992174D02*
X1262705Y-2982650D01*
X1262705Y-2982650D02*
X1291277Y-2982650D01*
X1291277Y-2982650D02*
X1310325Y-2992174D01*
X1310325Y-2992174D02*
X1319848Y-3011222D01*
X1319848Y-3011222D02*
X1319848Y-3115984D01*
X1415086Y-3115984D02*
X1415086Y-2982650D01*
X1415086Y-3001698D02*
X1424610Y-2992174D01*
X1424610Y-2992174D02*
X1443658Y-2982650D01*
X1443658Y-2982650D02*
X1472229Y-2982650D01*
X1472229Y-2982650D02*
X1491277Y-2992174D01*
X1491277Y-2992174D02*
X1500801Y-3011222D01*
X1500801Y-3011222D02*
X1500801Y-3115984D01*
X1500801Y-3011222D02*
X1510324Y-2992174D01*
X1510324Y-2992174D02*
X1529372Y-2982650D01*
X1529372Y-2982650D02*
X1557943Y-2982650D01*
X1557943Y-2982650D02*
X1576991Y-2992174D01*
X1576991Y-2992174D02*
X1586515Y-3011222D01*
X1586515Y-3011222D02*
X1586515Y-3115984D01*
X1976991Y-2906460D02*
X1805563Y-3163603D01*
X2234134Y-2915984D02*
X2253182Y-2915984D01*
X2253182Y-2915984D02*
X2272229Y-2925508D01*
X2272229Y-2925508D02*
X2281753Y-2935031D01*
X2281753Y-2935031D02*
X2291277Y-2954079D01*
X2291277Y-2954079D02*
X2300801Y-2992174D01*
X2300801Y-2992174D02*
X2300801Y-3039793D01*
X2300801Y-3039793D02*
X2291277Y-3077888D01*
X2291277Y-3077888D02*
X2281753Y-3096936D01*
X2281753Y-3096936D02*
X2272229Y-3106460D01*
X2272229Y-3106460D02*
X2253182Y-3115984D01*
X2253182Y-3115984D02*
X2234134Y-3115984D01*
X2234134Y-3115984D02*
X2215087Y-3106460D01*
X2215087Y-3106460D02*
X2205563Y-3096936D01*
X2205563Y-3096936D02*
X2196039Y-3077888D01*
X2196039Y-3077888D02*
X2186515Y-3039793D01*
X2186515Y-3039793D02*
X2186515Y-2992174D01*
X2186515Y-2992174D02*
X2196039Y-2954079D01*
X2196039Y-2954079D02*
X2205563Y-2935031D01*
X2205563Y-2935031D02*
X2215087Y-2925508D01*
X2215087Y-2925508D02*
X2234134Y-2915984D01*
X2386515Y-3096936D02*
X2396039Y-3106460D01*
X2396039Y-3106460D02*
X2386515Y-3115984D01*
X2386515Y-3115984D02*
X2376991Y-3106460D01*
X2376991Y-3106460D02*
X2386515Y-3096936D01*
X2386515Y-3096936D02*
X2386515Y-3115984D01*
X2519848Y-2915984D02*
X2538896Y-2915984D01*
X2538896Y-2915984D02*
X2557944Y-2925508D01*
X2557944Y-2925508D02*
X2567468Y-2935031D01*
X2567468Y-2935031D02*
X2576991Y-2954079D01*
X2576991Y-2954079D02*
X2586515Y-2992174D01*
X2586515Y-2992174D02*
X2586515Y-3039793D01*
X2586515Y-3039793D02*
X2576991Y-3077888D01*
X2576991Y-3077888D02*
X2567468Y-3096936D01*
X2567468Y-3096936D02*
X2557944Y-3106460D01*
X2557944Y-3106460D02*
X2538896Y-3115984D01*
X2538896Y-3115984D02*
X2519848Y-3115984D01*
X2519848Y-3115984D02*
X2500801Y-3106460D01*
X2500801Y-3106460D02*
X2491277Y-3096936D01*
X2491277Y-3096936D02*
X2481753Y-3077888D01*
X2481753Y-3077888D02*
X2472229Y-3039793D01*
X2472229Y-3039793D02*
X2472229Y-2992174D01*
X2472229Y-2992174D02*
X2481753Y-2954079D01*
X2481753Y-2954079D02*
X2491277Y-2935031D01*
X2491277Y-2935031D02*
X2500801Y-2925508D01*
X2500801Y-2925508D02*
X2519848Y-2915984D01*
X2757944Y-2915984D02*
X2719848Y-2915984D01*
X2719848Y-2915984D02*
X2700801Y-2925508D01*
X2700801Y-2925508D02*
X2691277Y-2935031D01*
X2691277Y-2935031D02*
X2672229Y-2963603D01*
X2672229Y-2963603D02*
X2662706Y-3001698D01*
X2662706Y-3001698D02*
X2662706Y-3077888D01*
X2662706Y-3077888D02*
X2672229Y-3096936D01*
X2672229Y-3096936D02*
X2681753Y-3106460D01*
X2681753Y-3106460D02*
X2700801Y-3115984D01*
X2700801Y-3115984D02*
X2738896Y-3115984D01*
X2738896Y-3115984D02*
X2757944Y-3106460D01*
X2757944Y-3106460D02*
X2767468Y-3096936D01*
X2767468Y-3096936D02*
X2776991Y-3077888D01*
X2776991Y-3077888D02*
X2776991Y-3030269D01*
X2776991Y-3030269D02*
X2767468Y-3011222D01*
X2767468Y-3011222D02*
X2757944Y-3001698D01*
X2757944Y-3001698D02*
X2738896Y-2992174D01*
X2738896Y-2992174D02*
X2700801Y-2992174D01*
X2700801Y-2992174D02*
X2681753Y-3001698D01*
X2681753Y-3001698D02*
X2672229Y-3011222D01*
X2672229Y-3011222D02*
X2662706Y-3030269D01*
X2948420Y-2915984D02*
X2910325Y-2915984D01*
X2910325Y-2915984D02*
X2891277Y-2925508D01*
X2891277Y-2925508D02*
X2881753Y-2935031D01*
X2881753Y-2935031D02*
X2862706Y-2963603D01*
X2862706Y-2963603D02*
X2853182Y-3001698D01*
X2853182Y-3001698D02*
X2853182Y-3077888D01*
X2853182Y-3077888D02*
X2862706Y-3096936D01*
X2862706Y-3096936D02*
X2872229Y-3106460D01*
X2872229Y-3106460D02*
X2891277Y-3115984D01*
X2891277Y-3115984D02*
X2929372Y-3115984D01*
X2929372Y-3115984D02*
X2948420Y-3106460D01*
X2948420Y-3106460D02*
X2957944Y-3096936D01*
X2957944Y-3096936D02*
X2967467Y-3077888D01*
X2967467Y-3077888D02*
X2967467Y-3030269D01*
X2967467Y-3030269D02*
X2957944Y-3011222D01*
X2957944Y-3011222D02*
X2948420Y-3001698D01*
X2948420Y-3001698D02*
X2929372Y-2992174D01*
X2929372Y-2992174D02*
X2891277Y-2992174D01*
X2891277Y-2992174D02*
X2872229Y-3001698D01*
X2872229Y-3001698D02*
X2862706Y-3011222D01*
X2862706Y-3011222D02*
X2853182Y-3030269D01*
X3062706Y-3115984D02*
X3100801Y-3115984D01*
X3100801Y-3115984D02*
X3119848Y-3106460D01*
X3119848Y-3106460D02*
X3129372Y-3096936D01*
X3129372Y-3096936D02*
X3148420Y-3068365D01*
X3148420Y-3068365D02*
X3157944Y-3030269D01*
X3157944Y-3030269D02*
X3157944Y-2954079D01*
X3157944Y-2954079D02*
X3148420Y-2935031D01*
X3148420Y-2935031D02*
X3138896Y-2925508D01*
X3138896Y-2925508D02*
X3119848Y-2915984D01*
X3119848Y-2915984D02*
X3081753Y-2915984D01*
X3081753Y-2915984D02*
X3062706Y-2925508D01*
X3062706Y-2925508D02*
X3053182Y-2935031D01*
X3053182Y-2935031D02*
X3043658Y-2954079D01*
X3043658Y-2954079D02*
X3043658Y-3001698D01*
X3043658Y-3001698D02*
X3053182Y-3020746D01*
X3053182Y-3020746D02*
X3062706Y-3030269D01*
X3062706Y-3030269D02*
X3081753Y-3039793D01*
X3081753Y-3039793D02*
X3119848Y-3039793D01*
X3119848Y-3039793D02*
X3138896Y-3030269D01*
X3138896Y-3030269D02*
X3148420Y-3020746D01*
X3148420Y-3020746D02*
X3157944Y-3001698D01*
X3234134Y-2915984D02*
X3234134Y-2954079D01*
X3310325Y-2915984D02*
X3310325Y-2954079D01*
X3605563Y-3192174D02*
X3596039Y-3182650D01*
X3596039Y-3182650D02*
X3576991Y-3154079D01*
X3576991Y-3154079D02*
X3567468Y-3135031D01*
X3567468Y-3135031D02*
X3557944Y-3106460D01*
X3557944Y-3106460D02*
X3548420Y-3058841D01*
X3548420Y-3058841D02*
X3548420Y-3020746D01*
X3548420Y-3020746D02*
X3557944Y-2973127D01*
X3557944Y-2973127D02*
X3567468Y-2944555D01*
X3567468Y-2944555D02*
X3576991Y-2925508D01*
X3576991Y-2925508D02*
X3596039Y-2896936D01*
X3596039Y-2896936D02*
X3605563Y-2887412D01*
X3691277Y-3115984D02*
X3729372Y-3115984D01*
X3729372Y-3115984D02*
X3748420Y-3106460D01*
X3748420Y-3106460D02*
X3757944Y-3096936D01*
X3757944Y-3096936D02*
X3776991Y-3068365D01*
X3776991Y-3068365D02*
X3786515Y-3030269D01*
X3786515Y-3030269D02*
X3786515Y-2954079D01*
X3786515Y-2954079D02*
X3776991Y-2935031D01*
X3776991Y-2935031D02*
X3767468Y-2925508D01*
X3767468Y-2925508D02*
X3748420Y-2915984D01*
X3748420Y-2915984D02*
X3710325Y-2915984D01*
X3710325Y-2915984D02*
X3691277Y-2925508D01*
X3691277Y-2925508D02*
X3681753Y-2935031D01*
X3681753Y-2935031D02*
X3672229Y-2954079D01*
X3672229Y-2954079D02*
X3672229Y-3001698D01*
X3672229Y-3001698D02*
X3681753Y-3020746D01*
X3681753Y-3020746D02*
X3691277Y-3030269D01*
X3691277Y-3030269D02*
X3710325Y-3039793D01*
X3710325Y-3039793D02*
X3748420Y-3039793D01*
X3748420Y-3039793D02*
X3767468Y-3030269D01*
X3767468Y-3030269D02*
X3776991Y-3020746D01*
X3776991Y-3020746D02*
X3786515Y-3001698D01*
X4024610Y-3115984D02*
X4024610Y-2915984D01*
X4110325Y-3115984D02*
X4110325Y-3011222D01*
X4110325Y-3011222D02*
X4100801Y-2992174D01*
X4100801Y-2992174D02*
X4081753Y-2982650D01*
X4081753Y-2982650D02*
X4053182Y-2982650D01*
X4053182Y-2982650D02*
X4034134Y-2992174D01*
X4034134Y-2992174D02*
X4024610Y-3001698D01*
X4234134Y-3115984D02*
X4215087Y-3106460D01*
X4215087Y-3106460D02*
X4205563Y-3096936D01*
X4205563Y-3096936D02*
X4196039Y-3077888D01*
X4196039Y-3077888D02*
X4196039Y-3020746D01*
X4196039Y-3020746D02*
X4205563Y-3001698D01*
X4205563Y-3001698D02*
X4215087Y-2992174D01*
X4215087Y-2992174D02*
X4234134Y-2982650D01*
X4234134Y-2982650D02*
X4262706Y-2982650D01*
X4262706Y-2982650D02*
X4281753Y-2992174D01*
X4281753Y-2992174D02*
X4291277Y-3001698D01*
X4291277Y-3001698D02*
X4300801Y-3020746D01*
X4300801Y-3020746D02*
X4300801Y-3077888D01*
X4300801Y-3077888D02*
X4291277Y-3096936D01*
X4291277Y-3096936D02*
X4281753Y-3106460D01*
X4281753Y-3106460D02*
X4262706Y-3115984D01*
X4262706Y-3115984D02*
X4234134Y-3115984D01*
X4415087Y-3115984D02*
X4396039Y-3106460D01*
X4396039Y-3106460D02*
X4386515Y-3087412D01*
X4386515Y-3087412D02*
X4386515Y-2915984D01*
X4567468Y-3106460D02*
X4548420Y-3115984D01*
X4548420Y-3115984D02*
X4510325Y-3115984D01*
X4510325Y-3115984D02*
X4491277Y-3106460D01*
X4491277Y-3106460D02*
X4481753Y-3087412D01*
X4481753Y-3087412D02*
X4481753Y-3011222D01*
X4481753Y-3011222D02*
X4491277Y-2992174D01*
X4491277Y-2992174D02*
X4510325Y-2982650D01*
X4510325Y-2982650D02*
X4548420Y-2982650D01*
X4548420Y-2982650D02*
X4567468Y-2992174D01*
X4567468Y-2992174D02*
X4576992Y-3011222D01*
X4576992Y-3011222D02*
X4576992Y-3030269D01*
X4576992Y-3030269D02*
X4481753Y-3049317D01*
X4653182Y-3106460D02*
X4672230Y-3115984D01*
X4672230Y-3115984D02*
X4710325Y-3115984D01*
X4710325Y-3115984D02*
X4729373Y-3106460D01*
X4729373Y-3106460D02*
X4738896Y-3087412D01*
X4738896Y-3087412D02*
X4738896Y-3077888D01*
X4738896Y-3077888D02*
X4729373Y-3058841D01*
X4729373Y-3058841D02*
X4710325Y-3049317D01*
X4710325Y-3049317D02*
X4681753Y-3049317D01*
X4681753Y-3049317D02*
X4662706Y-3039793D01*
X4662706Y-3039793D02*
X4653182Y-3020746D01*
X4653182Y-3020746D02*
X4653182Y-3011222D01*
X4653182Y-3011222D02*
X4662706Y-2992174D01*
X4662706Y-2992174D02*
X4681753Y-2982650D01*
X4681753Y-2982650D02*
X4710325Y-2982650D01*
X4710325Y-2982650D02*
X4729373Y-2992174D01*
X4805563Y-3192174D02*
X4815087Y-3182650D01*
X4815087Y-3182650D02*
X4834134Y-3154079D01*
X4834134Y-3154079D02*
X4843658Y-3135031D01*
X4843658Y-3135031D02*
X4853182Y-3106460D01*
X4853182Y-3106460D02*
X4862706Y-3058841D01*
X4862706Y-3058841D02*
X4862706Y-3020746D01*
X4862706Y-3020746D02*
X4853182Y-2973127D01*
X4853182Y-2973127D02*
X4843658Y-2944555D01*
X4843658Y-2944555D02*
X4834134Y-2925508D01*
X4834134Y-2925508D02*
X4815087Y-2896936D01*
X4815087Y-2896936D02*
X4805563Y-2887412D01*
D17*
X4140Y-3378140D02*
X4140Y-3250860D01*
X-123140Y-3250860D01*
X-123140Y-3378140D01*
X4140Y-3378140D01*
X30500Y-3314500D02*
G75*
G02*
X-149500Y-3314500I-90000J0D01*
G01*
X-149500Y-3314500D02*
G75*
G02*
X30500Y-3314500I90000J0D01*
G01*
D11*
X396039Y-3405984D02*
X281753Y-3405984D01*
X338896Y-3405984D02*
X338896Y-3205984D01*
X338896Y-3205984D02*
X319848Y-3234555D01*
X319848Y-3234555D02*
X300801Y-3253603D01*
X300801Y-3253603D02*
X281753Y-3263127D01*
X481753Y-3386936D02*
X491277Y-3396460D01*
X491277Y-3396460D02*
X481753Y-3405984D01*
X481753Y-3405984D02*
X472229Y-3396460D01*
X472229Y-3396460D02*
X481753Y-3386936D01*
X481753Y-3386936D02*
X481753Y-3405984D01*
X605563Y-3291698D02*
X586515Y-3282174D01*
X586515Y-3282174D02*
X576991Y-3272650D01*
X576991Y-3272650D02*
X567467Y-3253603D01*
X567467Y-3253603D02*
X567467Y-3244079D01*
X567467Y-3244079D02*
X576991Y-3225031D01*
X576991Y-3225031D02*
X586515Y-3215508D01*
X586515Y-3215508D02*
X605563Y-3205984D01*
X605563Y-3205984D02*
X643658Y-3205984D01*
X643658Y-3205984D02*
X662705Y-3215508D01*
X662705Y-3215508D02*
X672229Y-3225031D01*
X672229Y-3225031D02*
X681753Y-3244079D01*
X681753Y-3244079D02*
X681753Y-3253603D01*
X681753Y-3253603D02*
X672229Y-3272650D01*
X672229Y-3272650D02*
X662705Y-3282174D01*
X662705Y-3282174D02*
X643658Y-3291698D01*
X643658Y-3291698D02*
X605563Y-3291698D01*
X605563Y-3291698D02*
X586515Y-3301222D01*
X586515Y-3301222D02*
X576991Y-3310746D01*
X576991Y-3310746D02*
X567467Y-3329793D01*
X567467Y-3329793D02*
X567467Y-3367888D01*
X567467Y-3367888D02*
X576991Y-3386936D01*
X576991Y-3386936D02*
X586515Y-3396460D01*
X586515Y-3396460D02*
X605563Y-3405984D01*
X605563Y-3405984D02*
X643658Y-3405984D01*
X643658Y-3405984D02*
X662705Y-3396460D01*
X662705Y-3396460D02*
X672229Y-3386936D01*
X672229Y-3386936D02*
X681753Y-3367888D01*
X681753Y-3367888D02*
X681753Y-3329793D01*
X681753Y-3329793D02*
X672229Y-3310746D01*
X672229Y-3310746D02*
X662705Y-3301222D01*
X662705Y-3301222D02*
X643658Y-3291698D01*
X805562Y-3205984D02*
X824610Y-3205984D01*
X824610Y-3205984D02*
X843658Y-3215508D01*
X843658Y-3215508D02*
X853182Y-3225031D01*
X853182Y-3225031D02*
X862705Y-3244079D01*
X862705Y-3244079D02*
X872229Y-3282174D01*
X872229Y-3282174D02*
X872229Y-3329793D01*
X872229Y-3329793D02*
X862705Y-3367888D01*
X862705Y-3367888D02*
X853182Y-3386936D01*
X853182Y-3386936D02*
X843658Y-3396460D01*
X843658Y-3396460D02*
X824610Y-3405984D01*
X824610Y-3405984D02*
X805562Y-3405984D01*
X805562Y-3405984D02*
X786515Y-3396460D01*
X786515Y-3396460D02*
X776991Y-3386936D01*
X776991Y-3386936D02*
X767467Y-3367888D01*
X767467Y-3367888D02*
X757943Y-3329793D01*
X757943Y-3329793D02*
X757943Y-3282174D01*
X757943Y-3282174D02*
X767467Y-3244079D01*
X767467Y-3244079D02*
X776991Y-3225031D01*
X776991Y-3225031D02*
X786515Y-3215508D01*
X786515Y-3215508D02*
X805562Y-3205984D01*
X996039Y-3205984D02*
X1015086Y-3205984D01*
X1015086Y-3205984D02*
X1034134Y-3215508D01*
X1034134Y-3215508D02*
X1043658Y-3225031D01*
X1043658Y-3225031D02*
X1053182Y-3244079D01*
X1053182Y-3244079D02*
X1062705Y-3282174D01*
X1062705Y-3282174D02*
X1062705Y-3329793D01*
X1062705Y-3329793D02*
X1053182Y-3367888D01*
X1053182Y-3367888D02*
X1043658Y-3386936D01*
X1043658Y-3386936D02*
X1034134Y-3396460D01*
X1034134Y-3396460D02*
X1015086Y-3405984D01*
X1015086Y-3405984D02*
X996039Y-3405984D01*
X996039Y-3405984D02*
X976991Y-3396460D01*
X976991Y-3396460D02*
X967467Y-3386936D01*
X967467Y-3386936D02*
X957943Y-3367888D01*
X957943Y-3367888D02*
X948420Y-3329793D01*
X948420Y-3329793D02*
X948420Y-3282174D01*
X948420Y-3282174D02*
X957943Y-3244079D01*
X957943Y-3244079D02*
X967467Y-3225031D01*
X967467Y-3225031D02*
X976991Y-3215508D01*
X976991Y-3215508D02*
X996039Y-3205984D01*
X1148420Y-3405984D02*
X1148420Y-3272650D01*
X1148420Y-3291698D02*
X1157944Y-3282174D01*
X1157944Y-3282174D02*
X1176991Y-3272650D01*
X1176991Y-3272650D02*
X1205563Y-3272650D01*
X1205563Y-3272650D02*
X1224610Y-3282174D01*
X1224610Y-3282174D02*
X1234134Y-3301222D01*
X1234134Y-3301222D02*
X1234134Y-3405984D01*
X1234134Y-3301222D02*
X1243658Y-3282174D01*
X1243658Y-3282174D02*
X1262705Y-3272650D01*
X1262705Y-3272650D02*
X1291277Y-3272650D01*
X1291277Y-3272650D02*
X1310325Y-3282174D01*
X1310325Y-3282174D02*
X1319848Y-3301222D01*
X1319848Y-3301222D02*
X1319848Y-3405984D01*
X1415086Y-3405984D02*
X1415086Y-3272650D01*
X1415086Y-3291698D02*
X1424610Y-3282174D01*
X1424610Y-3282174D02*
X1443658Y-3272650D01*
X1443658Y-3272650D02*
X1472229Y-3272650D01*
X1472229Y-3272650D02*
X1491277Y-3282174D01*
X1491277Y-3282174D02*
X1500801Y-3301222D01*
X1500801Y-3301222D02*
X1500801Y-3405984D01*
X1500801Y-3301222D02*
X1510324Y-3282174D01*
X1510324Y-3282174D02*
X1529372Y-3272650D01*
X1529372Y-3272650D02*
X1557943Y-3272650D01*
X1557943Y-3272650D02*
X1576991Y-3282174D01*
X1576991Y-3282174D02*
X1586515Y-3301222D01*
X1586515Y-3301222D02*
X1586515Y-3405984D01*
X1976991Y-3196460D02*
X1805563Y-3453603D01*
X2234134Y-3205984D02*
X2253182Y-3205984D01*
X2253182Y-3205984D02*
X2272229Y-3215508D01*
X2272229Y-3215508D02*
X2281753Y-3225031D01*
X2281753Y-3225031D02*
X2291277Y-3244079D01*
X2291277Y-3244079D02*
X2300801Y-3282174D01*
X2300801Y-3282174D02*
X2300801Y-3329793D01*
X2300801Y-3329793D02*
X2291277Y-3367888D01*
X2291277Y-3367888D02*
X2281753Y-3386936D01*
X2281753Y-3386936D02*
X2272229Y-3396460D01*
X2272229Y-3396460D02*
X2253182Y-3405984D01*
X2253182Y-3405984D02*
X2234134Y-3405984D01*
X2234134Y-3405984D02*
X2215087Y-3396460D01*
X2215087Y-3396460D02*
X2205563Y-3386936D01*
X2205563Y-3386936D02*
X2196039Y-3367888D01*
X2196039Y-3367888D02*
X2186515Y-3329793D01*
X2186515Y-3329793D02*
X2186515Y-3282174D01*
X2186515Y-3282174D02*
X2196039Y-3244079D01*
X2196039Y-3244079D02*
X2205563Y-3225031D01*
X2205563Y-3225031D02*
X2215087Y-3215508D01*
X2215087Y-3215508D02*
X2234134Y-3205984D01*
X2386515Y-3386936D02*
X2396039Y-3396460D01*
X2396039Y-3396460D02*
X2386515Y-3405984D01*
X2386515Y-3405984D02*
X2376991Y-3396460D01*
X2376991Y-3396460D02*
X2386515Y-3386936D01*
X2386515Y-3386936D02*
X2386515Y-3405984D01*
X2519848Y-3205984D02*
X2538896Y-3205984D01*
X2538896Y-3205984D02*
X2557944Y-3215508D01*
X2557944Y-3215508D02*
X2567468Y-3225031D01*
X2567468Y-3225031D02*
X2576991Y-3244079D01*
X2576991Y-3244079D02*
X2586515Y-3282174D01*
X2586515Y-3282174D02*
X2586515Y-3329793D01*
X2586515Y-3329793D02*
X2576991Y-3367888D01*
X2576991Y-3367888D02*
X2567468Y-3386936D01*
X2567468Y-3386936D02*
X2557944Y-3396460D01*
X2557944Y-3396460D02*
X2538896Y-3405984D01*
X2538896Y-3405984D02*
X2519848Y-3405984D01*
X2519848Y-3405984D02*
X2500801Y-3396460D01*
X2500801Y-3396460D02*
X2491277Y-3386936D01*
X2491277Y-3386936D02*
X2481753Y-3367888D01*
X2481753Y-3367888D02*
X2472229Y-3329793D01*
X2472229Y-3329793D02*
X2472229Y-3282174D01*
X2472229Y-3282174D02*
X2481753Y-3244079D01*
X2481753Y-3244079D02*
X2491277Y-3225031D01*
X2491277Y-3225031D02*
X2500801Y-3215508D01*
X2500801Y-3215508D02*
X2519848Y-3205984D01*
X2653182Y-3205984D02*
X2786515Y-3205984D01*
X2786515Y-3205984D02*
X2700801Y-3405984D01*
X2900801Y-3205984D02*
X2919848Y-3205984D01*
X2919848Y-3205984D02*
X2938896Y-3215508D01*
X2938896Y-3215508D02*
X2948420Y-3225031D01*
X2948420Y-3225031D02*
X2957944Y-3244079D01*
X2957944Y-3244079D02*
X2967467Y-3282174D01*
X2967467Y-3282174D02*
X2967467Y-3329793D01*
X2967467Y-3329793D02*
X2957944Y-3367888D01*
X2957944Y-3367888D02*
X2948420Y-3386936D01*
X2948420Y-3386936D02*
X2938896Y-3396460D01*
X2938896Y-3396460D02*
X2919848Y-3405984D01*
X2919848Y-3405984D02*
X2900801Y-3405984D01*
X2900801Y-3405984D02*
X2881753Y-3396460D01*
X2881753Y-3396460D02*
X2872229Y-3386936D01*
X2872229Y-3386936D02*
X2862706Y-3367888D01*
X2862706Y-3367888D02*
X2853182Y-3329793D01*
X2853182Y-3329793D02*
X2853182Y-3282174D01*
X2853182Y-3282174D02*
X2862706Y-3244079D01*
X2862706Y-3244079D02*
X2872229Y-3225031D01*
X2872229Y-3225031D02*
X2881753Y-3215508D01*
X2881753Y-3215508D02*
X2900801Y-3205984D01*
X3062706Y-3405984D02*
X3100801Y-3405984D01*
X3100801Y-3405984D02*
X3119848Y-3396460D01*
X3119848Y-3396460D02*
X3129372Y-3386936D01*
X3129372Y-3386936D02*
X3148420Y-3358365D01*
X3148420Y-3358365D02*
X3157944Y-3320269D01*
X3157944Y-3320269D02*
X3157944Y-3244079D01*
X3157944Y-3244079D02*
X3148420Y-3225031D01*
X3148420Y-3225031D02*
X3138896Y-3215508D01*
X3138896Y-3215508D02*
X3119848Y-3205984D01*
X3119848Y-3205984D02*
X3081753Y-3205984D01*
X3081753Y-3205984D02*
X3062706Y-3215508D01*
X3062706Y-3215508D02*
X3053182Y-3225031D01*
X3053182Y-3225031D02*
X3043658Y-3244079D01*
X3043658Y-3244079D02*
X3043658Y-3291698D01*
X3043658Y-3291698D02*
X3053182Y-3310746D01*
X3053182Y-3310746D02*
X3062706Y-3320269D01*
X3062706Y-3320269D02*
X3081753Y-3329793D01*
X3081753Y-3329793D02*
X3119848Y-3329793D01*
X3119848Y-3329793D02*
X3138896Y-3320269D01*
X3138896Y-3320269D02*
X3148420Y-3310746D01*
X3148420Y-3310746D02*
X3157944Y-3291698D01*
X3234134Y-3205984D02*
X3234134Y-3244079D01*
X3310325Y-3205984D02*
X3310325Y-3244079D01*
X3605563Y-3482174D02*
X3596039Y-3472650D01*
X3596039Y-3472650D02*
X3576991Y-3444079D01*
X3576991Y-3444079D02*
X3567468Y-3425031D01*
X3567468Y-3425031D02*
X3557944Y-3396460D01*
X3557944Y-3396460D02*
X3548420Y-3348841D01*
X3548420Y-3348841D02*
X3548420Y-3310746D01*
X3548420Y-3310746D02*
X3557944Y-3263127D01*
X3557944Y-3263127D02*
X3567468Y-3234555D01*
X3567468Y-3234555D02*
X3576991Y-3215508D01*
X3576991Y-3215508D02*
X3596039Y-3186936D01*
X3596039Y-3186936D02*
X3605563Y-3177412D01*
X3719848Y-3205984D02*
X3738896Y-3205984D01*
X3738896Y-3205984D02*
X3757944Y-3215508D01*
X3757944Y-3215508D02*
X3767468Y-3225031D01*
X3767468Y-3225031D02*
X3776991Y-3244079D01*
X3776991Y-3244079D02*
X3786515Y-3282174D01*
X3786515Y-3282174D02*
X3786515Y-3329793D01*
X3786515Y-3329793D02*
X3776991Y-3367888D01*
X3776991Y-3367888D02*
X3767468Y-3386936D01*
X3767468Y-3386936D02*
X3757944Y-3396460D01*
X3757944Y-3396460D02*
X3738896Y-3405984D01*
X3738896Y-3405984D02*
X3719848Y-3405984D01*
X3719848Y-3405984D02*
X3700801Y-3396460D01*
X3700801Y-3396460D02*
X3691277Y-3386936D01*
X3691277Y-3386936D02*
X3681753Y-3367888D01*
X3681753Y-3367888D02*
X3672229Y-3329793D01*
X3672229Y-3329793D02*
X3672229Y-3282174D01*
X3672229Y-3282174D02*
X3681753Y-3244079D01*
X3681753Y-3244079D02*
X3691277Y-3225031D01*
X3691277Y-3225031D02*
X3700801Y-3215508D01*
X3700801Y-3215508D02*
X3719848Y-3205984D01*
X4024610Y-3405984D02*
X4024610Y-3205984D01*
X4110325Y-3405984D02*
X4110325Y-3301222D01*
X4110325Y-3301222D02*
X4100801Y-3282174D01*
X4100801Y-3282174D02*
X4081753Y-3272650D01*
X4081753Y-3272650D02*
X4053182Y-3272650D01*
X4053182Y-3272650D02*
X4034134Y-3282174D01*
X4034134Y-3282174D02*
X4024610Y-3291698D01*
X4234134Y-3405984D02*
X4215087Y-3396460D01*
X4215087Y-3396460D02*
X4205563Y-3386936D01*
X4205563Y-3386936D02*
X4196039Y-3367888D01*
X4196039Y-3367888D02*
X4196039Y-3310746D01*
X4196039Y-3310746D02*
X4205563Y-3291698D01*
X4205563Y-3291698D02*
X4215087Y-3282174D01*
X4215087Y-3282174D02*
X4234134Y-3272650D01*
X4234134Y-3272650D02*
X4262706Y-3272650D01*
X4262706Y-3272650D02*
X4281753Y-3282174D01*
X4281753Y-3282174D02*
X4291277Y-3291698D01*
X4291277Y-3291698D02*
X4300801Y-3310746D01*
X4300801Y-3310746D02*
X4300801Y-3367888D01*
X4300801Y-3367888D02*
X4291277Y-3386936D01*
X4291277Y-3386936D02*
X4281753Y-3396460D01*
X4281753Y-3396460D02*
X4262706Y-3405984D01*
X4262706Y-3405984D02*
X4234134Y-3405984D01*
X4415087Y-3405984D02*
X4396039Y-3396460D01*
X4396039Y-3396460D02*
X4386515Y-3377412D01*
X4386515Y-3377412D02*
X4386515Y-3205984D01*
X4567468Y-3396460D02*
X4548420Y-3405984D01*
X4548420Y-3405984D02*
X4510325Y-3405984D01*
X4510325Y-3405984D02*
X4491277Y-3396460D01*
X4491277Y-3396460D02*
X4481753Y-3377412D01*
X4481753Y-3377412D02*
X4481753Y-3301222D01*
X4481753Y-3301222D02*
X4491277Y-3282174D01*
X4491277Y-3282174D02*
X4510325Y-3272650D01*
X4510325Y-3272650D02*
X4548420Y-3272650D01*
X4548420Y-3272650D02*
X4567468Y-3282174D01*
X4567468Y-3282174D02*
X4576992Y-3301222D01*
X4576992Y-3301222D02*
X4576992Y-3320269D01*
X4576992Y-3320269D02*
X4481753Y-3339317D01*
X4653182Y-3396460D02*
X4672230Y-3405984D01*
X4672230Y-3405984D02*
X4710325Y-3405984D01*
X4710325Y-3405984D02*
X4729373Y-3396460D01*
X4729373Y-3396460D02*
X4738896Y-3377412D01*
X4738896Y-3377412D02*
X4738896Y-3367888D01*
X4738896Y-3367888D02*
X4729373Y-3348841D01*
X4729373Y-3348841D02*
X4710325Y-3339317D01*
X4710325Y-3339317D02*
X4681753Y-3339317D01*
X4681753Y-3339317D02*
X4662706Y-3329793D01*
X4662706Y-3329793D02*
X4653182Y-3310746D01*
X4653182Y-3310746D02*
X4653182Y-3301222D01*
X4653182Y-3301222D02*
X4662706Y-3282174D01*
X4662706Y-3282174D02*
X4681753Y-3272650D01*
X4681753Y-3272650D02*
X4710325Y-3272650D01*
X4710325Y-3272650D02*
X4729373Y-3282174D01*
X4976992Y-3329793D02*
X5129373Y-3329793D01*
X5053182Y-3405984D02*
X5053182Y-3253603D01*
X5462706Y-3272650D02*
X5462706Y-3405984D01*
X5415087Y-3196460D02*
X5367468Y-3339317D01*
X5367468Y-3339317D02*
X5491277Y-3339317D01*
X5710325Y-3396460D02*
X5729373Y-3405984D01*
X5729373Y-3405984D02*
X5767468Y-3405984D01*
X5767468Y-3405984D02*
X5786515Y-3396460D01*
X5786515Y-3396460D02*
X5796039Y-3377412D01*
X5796039Y-3377412D02*
X5796039Y-3367888D01*
X5796039Y-3367888D02*
X5786515Y-3348841D01*
X5786515Y-3348841D02*
X5767468Y-3339317D01*
X5767468Y-3339317D02*
X5738896Y-3339317D01*
X5738896Y-3339317D02*
X5719849Y-3329793D01*
X5719849Y-3329793D02*
X5710325Y-3310746D01*
X5710325Y-3310746D02*
X5710325Y-3301222D01*
X5710325Y-3301222D02*
X5719849Y-3282174D01*
X5719849Y-3282174D02*
X5738896Y-3272650D01*
X5738896Y-3272650D02*
X5767468Y-3272650D01*
X5767468Y-3272650D02*
X5786515Y-3282174D01*
X5910325Y-3405984D02*
X5891277Y-3396460D01*
X5891277Y-3396460D02*
X5881754Y-3377412D01*
X5881754Y-3377412D02*
X5881754Y-3205984D01*
X6015087Y-3405984D02*
X5996039Y-3396460D01*
X5996039Y-3396460D02*
X5986515Y-3386936D01*
X5986515Y-3386936D02*
X5976992Y-3367888D01*
X5976992Y-3367888D02*
X5976992Y-3310746D01*
X5976992Y-3310746D02*
X5986515Y-3291698D01*
X5986515Y-3291698D02*
X5996039Y-3282174D01*
X5996039Y-3282174D02*
X6015087Y-3272650D01*
X6015087Y-3272650D02*
X6043658Y-3272650D01*
X6043658Y-3272650D02*
X6062706Y-3282174D01*
X6062706Y-3282174D02*
X6072230Y-3291698D01*
X6072230Y-3291698D02*
X6081754Y-3310746D01*
X6081754Y-3310746D02*
X6081754Y-3367888D01*
X6081754Y-3367888D02*
X6072230Y-3386936D01*
X6072230Y-3386936D02*
X6062706Y-3396460D01*
X6062706Y-3396460D02*
X6043658Y-3405984D01*
X6043658Y-3405984D02*
X6015087Y-3405984D01*
X6138896Y-3272650D02*
X6215087Y-3272650D01*
X6167468Y-3205984D02*
X6167468Y-3377412D01*
X6167468Y-3377412D02*
X6176992Y-3396460D01*
X6176992Y-3396460D02*
X6196039Y-3405984D01*
X6196039Y-3405984D02*
X6215087Y-3405984D01*
X6272230Y-3396460D02*
X6291277Y-3405984D01*
X6291277Y-3405984D02*
X6329373Y-3405984D01*
X6329373Y-3405984D02*
X6348420Y-3396460D01*
X6348420Y-3396460D02*
X6357944Y-3377412D01*
X6357944Y-3377412D02*
X6357944Y-3367888D01*
X6357944Y-3367888D02*
X6348420Y-3348841D01*
X6348420Y-3348841D02*
X6329373Y-3339317D01*
X6329373Y-3339317D02*
X6300801Y-3339317D01*
X6300801Y-3339317D02*
X6281754Y-3329793D01*
X6281754Y-3329793D02*
X6272230Y-3310746D01*
X6272230Y-3310746D02*
X6272230Y-3301222D01*
X6272230Y-3301222D02*
X6281754Y-3282174D01*
X6281754Y-3282174D02*
X6300801Y-3272650D01*
X6300801Y-3272650D02*
X6329373Y-3272650D01*
X6329373Y-3272650D02*
X6348420Y-3282174D01*
X6424611Y-3482174D02*
X6434135Y-3472650D01*
X6434135Y-3472650D02*
X6453182Y-3444079D01*
X6453182Y-3444079D02*
X6462706Y-3425031D01*
X6462706Y-3425031D02*
X6472230Y-3396460D01*
X6472230Y-3396460D02*
X6481754Y-3348841D01*
X6481754Y-3348841D02*
X6481754Y-3310746D01*
X6481754Y-3310746D02*
X6472230Y-3263127D01*
X6472230Y-3263127D02*
X6462706Y-3234555D01*
X6462706Y-3234555D02*
X6453182Y-3215508D01*
X6453182Y-3215508D02*
X6434135Y-3186936D01*
X6434135Y-3186936D02*
X6424611Y-3177412D01*
X-69500Y-3714500D02*
X30500Y-3614500D01*
X-69500Y-3514500D01*
X-169500Y-3614500D01*
X-69500Y-3714500D01*
X30500Y-3614500D02*
G75*
G02*
X-169500Y-3614500I-100000J0D01*
G01*
X-169500Y-3614500D02*
G75*
G02*
X30500Y-3614500I100000J0D01*
G01*
X281753Y-3525031D02*
X291277Y-3515508D01*
X291277Y-3515508D02*
X310324Y-3505984D01*
X310324Y-3505984D02*
X357943Y-3505984D01*
X357943Y-3505984D02*
X376991Y-3515508D01*
X376991Y-3515508D02*
X386515Y-3525031D01*
X386515Y-3525031D02*
X396039Y-3544079D01*
X396039Y-3544079D02*
X396039Y-3563127D01*
X396039Y-3563127D02*
X386515Y-3591698D01*
X386515Y-3591698D02*
X272229Y-3705984D01*
X272229Y-3705984D02*
X396039Y-3705984D01*
X481753Y-3686936D02*
X491277Y-3696460D01*
X491277Y-3696460D02*
X481753Y-3705984D01*
X481753Y-3705984D02*
X472229Y-3696460D01*
X472229Y-3696460D02*
X481753Y-3686936D01*
X481753Y-3686936D02*
X481753Y-3705984D01*
X567467Y-3525031D02*
X576991Y-3515508D01*
X576991Y-3515508D02*
X596039Y-3505984D01*
X596039Y-3505984D02*
X643658Y-3505984D01*
X643658Y-3505984D02*
X662705Y-3515508D01*
X662705Y-3515508D02*
X672229Y-3525031D01*
X672229Y-3525031D02*
X681753Y-3544079D01*
X681753Y-3544079D02*
X681753Y-3563127D01*
X681753Y-3563127D02*
X672229Y-3591698D01*
X672229Y-3591698D02*
X557944Y-3705984D01*
X557944Y-3705984D02*
X681753Y-3705984D01*
X805562Y-3505984D02*
X824610Y-3505984D01*
X824610Y-3505984D02*
X843658Y-3515508D01*
X843658Y-3515508D02*
X853182Y-3525031D01*
X853182Y-3525031D02*
X862705Y-3544079D01*
X862705Y-3544079D02*
X872229Y-3582174D01*
X872229Y-3582174D02*
X872229Y-3629793D01*
X872229Y-3629793D02*
X862705Y-3667888D01*
X862705Y-3667888D02*
X853182Y-3686936D01*
X853182Y-3686936D02*
X843658Y-3696460D01*
X843658Y-3696460D02*
X824610Y-3705984D01*
X824610Y-3705984D02*
X805562Y-3705984D01*
X805562Y-3705984D02*
X786515Y-3696460D01*
X786515Y-3696460D02*
X776991Y-3686936D01*
X776991Y-3686936D02*
X767467Y-3667888D01*
X767467Y-3667888D02*
X757943Y-3629793D01*
X757943Y-3629793D02*
X757943Y-3582174D01*
X757943Y-3582174D02*
X767467Y-3544079D01*
X767467Y-3544079D02*
X776991Y-3525031D01*
X776991Y-3525031D02*
X786515Y-3515508D01*
X786515Y-3515508D02*
X805562Y-3505984D01*
X996039Y-3505984D02*
X1015086Y-3505984D01*
X1015086Y-3505984D02*
X1034134Y-3515508D01*
X1034134Y-3515508D02*
X1043658Y-3525031D01*
X1043658Y-3525031D02*
X1053182Y-3544079D01*
X1053182Y-3544079D02*
X1062705Y-3582174D01*
X1062705Y-3582174D02*
X1062705Y-3629793D01*
X1062705Y-3629793D02*
X1053182Y-3667888D01*
X1053182Y-3667888D02*
X1043658Y-3686936D01*
X1043658Y-3686936D02*
X1034134Y-3696460D01*
X1034134Y-3696460D02*
X1015086Y-3705984D01*
X1015086Y-3705984D02*
X996039Y-3705984D01*
X996039Y-3705984D02*
X976991Y-3696460D01*
X976991Y-3696460D02*
X967467Y-3686936D01*
X967467Y-3686936D02*
X957943Y-3667888D01*
X957943Y-3667888D02*
X948420Y-3629793D01*
X948420Y-3629793D02*
X948420Y-3582174D01*
X948420Y-3582174D02*
X957943Y-3544079D01*
X957943Y-3544079D02*
X967467Y-3525031D01*
X967467Y-3525031D02*
X976991Y-3515508D01*
X976991Y-3515508D02*
X996039Y-3505984D01*
X1148420Y-3705984D02*
X1148420Y-3572650D01*
X1148420Y-3591698D02*
X1157944Y-3582174D01*
X1157944Y-3582174D02*
X1176991Y-3572650D01*
X1176991Y-3572650D02*
X1205563Y-3572650D01*
X1205563Y-3572650D02*
X1224610Y-3582174D01*
X1224610Y-3582174D02*
X1234134Y-3601222D01*
X1234134Y-3601222D02*
X1234134Y-3705984D01*
X1234134Y-3601222D02*
X1243658Y-3582174D01*
X1243658Y-3582174D02*
X1262705Y-3572650D01*
X1262705Y-3572650D02*
X1291277Y-3572650D01*
X1291277Y-3572650D02*
X1310325Y-3582174D01*
X1310325Y-3582174D02*
X1319848Y-3601222D01*
X1319848Y-3601222D02*
X1319848Y-3705984D01*
X1415086Y-3705984D02*
X1415086Y-3572650D01*
X1415086Y-3591698D02*
X1424610Y-3582174D01*
X1424610Y-3582174D02*
X1443658Y-3572650D01*
X1443658Y-3572650D02*
X1472229Y-3572650D01*
X1472229Y-3572650D02*
X1491277Y-3582174D01*
X1491277Y-3582174D02*
X1500801Y-3601222D01*
X1500801Y-3601222D02*
X1500801Y-3705984D01*
X1500801Y-3601222D02*
X1510324Y-3582174D01*
X1510324Y-3582174D02*
X1529372Y-3572650D01*
X1529372Y-3572650D02*
X1557943Y-3572650D01*
X1557943Y-3572650D02*
X1576991Y-3582174D01*
X1576991Y-3582174D02*
X1586515Y-3601222D01*
X1586515Y-3601222D02*
X1586515Y-3705984D01*
X1976991Y-3496460D02*
X1805563Y-3753603D01*
X2234134Y-3505984D02*
X2253182Y-3505984D01*
X2253182Y-3505984D02*
X2272229Y-3515508D01*
X2272229Y-3515508D02*
X2281753Y-3525031D01*
X2281753Y-3525031D02*
X2291277Y-3544079D01*
X2291277Y-3544079D02*
X2300801Y-3582174D01*
X2300801Y-3582174D02*
X2300801Y-3629793D01*
X2300801Y-3629793D02*
X2291277Y-3667888D01*
X2291277Y-3667888D02*
X2281753Y-3686936D01*
X2281753Y-3686936D02*
X2272229Y-3696460D01*
X2272229Y-3696460D02*
X2253182Y-3705984D01*
X2253182Y-3705984D02*
X2234134Y-3705984D01*
X2234134Y-3705984D02*
X2215087Y-3696460D01*
X2215087Y-3696460D02*
X2205563Y-3686936D01*
X2205563Y-3686936D02*
X2196039Y-3667888D01*
X2196039Y-3667888D02*
X2186515Y-3629793D01*
X2186515Y-3629793D02*
X2186515Y-3582174D01*
X2186515Y-3582174D02*
X2196039Y-3544079D01*
X2196039Y-3544079D02*
X2205563Y-3525031D01*
X2205563Y-3525031D02*
X2215087Y-3515508D01*
X2215087Y-3515508D02*
X2234134Y-3505984D01*
X2386515Y-3686936D02*
X2396039Y-3696460D01*
X2396039Y-3696460D02*
X2386515Y-3705984D01*
X2386515Y-3705984D02*
X2376991Y-3696460D01*
X2376991Y-3696460D02*
X2386515Y-3686936D01*
X2386515Y-3686936D02*
X2386515Y-3705984D01*
X2519848Y-3505984D02*
X2538896Y-3505984D01*
X2538896Y-3505984D02*
X2557944Y-3515508D01*
X2557944Y-3515508D02*
X2567468Y-3525031D01*
X2567468Y-3525031D02*
X2576991Y-3544079D01*
X2576991Y-3544079D02*
X2586515Y-3582174D01*
X2586515Y-3582174D02*
X2586515Y-3629793D01*
X2586515Y-3629793D02*
X2576991Y-3667888D01*
X2576991Y-3667888D02*
X2567468Y-3686936D01*
X2567468Y-3686936D02*
X2557944Y-3696460D01*
X2557944Y-3696460D02*
X2538896Y-3705984D01*
X2538896Y-3705984D02*
X2519848Y-3705984D01*
X2519848Y-3705984D02*
X2500801Y-3696460D01*
X2500801Y-3696460D02*
X2491277Y-3686936D01*
X2491277Y-3686936D02*
X2481753Y-3667888D01*
X2481753Y-3667888D02*
X2472229Y-3629793D01*
X2472229Y-3629793D02*
X2472229Y-3582174D01*
X2472229Y-3582174D02*
X2481753Y-3544079D01*
X2481753Y-3544079D02*
X2491277Y-3525031D01*
X2491277Y-3525031D02*
X2500801Y-3515508D01*
X2500801Y-3515508D02*
X2519848Y-3505984D01*
X2700801Y-3591698D02*
X2681753Y-3582174D01*
X2681753Y-3582174D02*
X2672229Y-3572650D01*
X2672229Y-3572650D02*
X2662706Y-3553603D01*
X2662706Y-3553603D02*
X2662706Y-3544079D01*
X2662706Y-3544079D02*
X2672229Y-3525031D01*
X2672229Y-3525031D02*
X2681753Y-3515508D01*
X2681753Y-3515508D02*
X2700801Y-3505984D01*
X2700801Y-3505984D02*
X2738896Y-3505984D01*
X2738896Y-3505984D02*
X2757944Y-3515508D01*
X2757944Y-3515508D02*
X2767468Y-3525031D01*
X2767468Y-3525031D02*
X2776991Y-3544079D01*
X2776991Y-3544079D02*
X2776991Y-3553603D01*
X2776991Y-3553603D02*
X2767468Y-3572650D01*
X2767468Y-3572650D02*
X2757944Y-3582174D01*
X2757944Y-3582174D02*
X2738896Y-3591698D01*
X2738896Y-3591698D02*
X2700801Y-3591698D01*
X2700801Y-3591698D02*
X2681753Y-3601222D01*
X2681753Y-3601222D02*
X2672229Y-3610746D01*
X2672229Y-3610746D02*
X2662706Y-3629793D01*
X2662706Y-3629793D02*
X2662706Y-3667888D01*
X2662706Y-3667888D02*
X2672229Y-3686936D01*
X2672229Y-3686936D02*
X2681753Y-3696460D01*
X2681753Y-3696460D02*
X2700801Y-3705984D01*
X2700801Y-3705984D02*
X2738896Y-3705984D01*
X2738896Y-3705984D02*
X2757944Y-3696460D01*
X2757944Y-3696460D02*
X2767468Y-3686936D01*
X2767468Y-3686936D02*
X2776991Y-3667888D01*
X2776991Y-3667888D02*
X2776991Y-3629793D01*
X2776991Y-3629793D02*
X2767468Y-3610746D01*
X2767468Y-3610746D02*
X2757944Y-3601222D01*
X2757944Y-3601222D02*
X2738896Y-3591698D01*
X2948420Y-3505984D02*
X2910325Y-3505984D01*
X2910325Y-3505984D02*
X2891277Y-3515508D01*
X2891277Y-3515508D02*
X2881753Y-3525031D01*
X2881753Y-3525031D02*
X2862706Y-3553603D01*
X2862706Y-3553603D02*
X2853182Y-3591698D01*
X2853182Y-3591698D02*
X2853182Y-3667888D01*
X2853182Y-3667888D02*
X2862706Y-3686936D01*
X2862706Y-3686936D02*
X2872229Y-3696460D01*
X2872229Y-3696460D02*
X2891277Y-3705984D01*
X2891277Y-3705984D02*
X2929372Y-3705984D01*
X2929372Y-3705984D02*
X2948420Y-3696460D01*
X2948420Y-3696460D02*
X2957944Y-3686936D01*
X2957944Y-3686936D02*
X2967467Y-3667888D01*
X2967467Y-3667888D02*
X2967467Y-3620269D01*
X2967467Y-3620269D02*
X2957944Y-3601222D01*
X2957944Y-3601222D02*
X2948420Y-3591698D01*
X2948420Y-3591698D02*
X2929372Y-3582174D01*
X2929372Y-3582174D02*
X2891277Y-3582174D01*
X2891277Y-3582174D02*
X2872229Y-3591698D01*
X2872229Y-3591698D02*
X2862706Y-3601222D01*
X2862706Y-3601222D02*
X2853182Y-3620269D01*
X3138896Y-3505984D02*
X3100801Y-3505984D01*
X3100801Y-3505984D02*
X3081753Y-3515508D01*
X3081753Y-3515508D02*
X3072229Y-3525031D01*
X3072229Y-3525031D02*
X3053182Y-3553603D01*
X3053182Y-3553603D02*
X3043658Y-3591698D01*
X3043658Y-3591698D02*
X3043658Y-3667888D01*
X3043658Y-3667888D02*
X3053182Y-3686936D01*
X3053182Y-3686936D02*
X3062706Y-3696460D01*
X3062706Y-3696460D02*
X3081753Y-3705984D01*
X3081753Y-3705984D02*
X3119848Y-3705984D01*
X3119848Y-3705984D02*
X3138896Y-3696460D01*
X3138896Y-3696460D02*
X3148420Y-3686936D01*
X3148420Y-3686936D02*
X3157944Y-3667888D01*
X3157944Y-3667888D02*
X3157944Y-3620269D01*
X3157944Y-3620269D02*
X3148420Y-3601222D01*
X3148420Y-3601222D02*
X3138896Y-3591698D01*
X3138896Y-3591698D02*
X3119848Y-3582174D01*
X3119848Y-3582174D02*
X3081753Y-3582174D01*
X3081753Y-3582174D02*
X3062706Y-3591698D01*
X3062706Y-3591698D02*
X3053182Y-3601222D01*
X3053182Y-3601222D02*
X3043658Y-3620269D01*
X3234134Y-3505984D02*
X3234134Y-3544079D01*
X3310325Y-3505984D02*
X3310325Y-3544079D01*
X3605563Y-3782174D02*
X3596039Y-3772650D01*
X3596039Y-3772650D02*
X3576991Y-3744079D01*
X3576991Y-3744079D02*
X3567468Y-3725031D01*
X3567468Y-3725031D02*
X3557944Y-3696460D01*
X3557944Y-3696460D02*
X3548420Y-3648841D01*
X3548420Y-3648841D02*
X3548420Y-3610746D01*
X3548420Y-3610746D02*
X3557944Y-3563127D01*
X3557944Y-3563127D02*
X3567468Y-3534555D01*
X3567468Y-3534555D02*
X3576991Y-3515508D01*
X3576991Y-3515508D02*
X3596039Y-3486936D01*
X3596039Y-3486936D02*
X3605563Y-3477412D01*
X3672229Y-3525031D02*
X3681753Y-3515508D01*
X3681753Y-3515508D02*
X3700801Y-3505984D01*
X3700801Y-3505984D02*
X3748420Y-3505984D01*
X3748420Y-3505984D02*
X3767468Y-3515508D01*
X3767468Y-3515508D02*
X3776991Y-3525031D01*
X3776991Y-3525031D02*
X3786515Y-3544079D01*
X3786515Y-3544079D02*
X3786515Y-3563127D01*
X3786515Y-3563127D02*
X3776991Y-3591698D01*
X3776991Y-3591698D02*
X3662706Y-3705984D01*
X3662706Y-3705984D02*
X3786515Y-3705984D01*
X4024610Y-3705984D02*
X4024610Y-3505984D01*
X4110325Y-3705984D02*
X4110325Y-3601222D01*
X4110325Y-3601222D02*
X4100801Y-3582174D01*
X4100801Y-3582174D02*
X4081753Y-3572650D01*
X4081753Y-3572650D02*
X4053182Y-3572650D01*
X4053182Y-3572650D02*
X4034134Y-3582174D01*
X4034134Y-3582174D02*
X4024610Y-3591698D01*
X4234134Y-3705984D02*
X4215087Y-3696460D01*
X4215087Y-3696460D02*
X4205563Y-3686936D01*
X4205563Y-3686936D02*
X4196039Y-3667888D01*
X4196039Y-3667888D02*
X4196039Y-3610746D01*
X4196039Y-3610746D02*
X4205563Y-3591698D01*
X4205563Y-3591698D02*
X4215087Y-3582174D01*
X4215087Y-3582174D02*
X4234134Y-3572650D01*
X4234134Y-3572650D02*
X4262706Y-3572650D01*
X4262706Y-3572650D02*
X4281753Y-3582174D01*
X4281753Y-3582174D02*
X4291277Y-3591698D01*
X4291277Y-3591698D02*
X4300801Y-3610746D01*
X4300801Y-3610746D02*
X4300801Y-3667888D01*
X4300801Y-3667888D02*
X4291277Y-3686936D01*
X4291277Y-3686936D02*
X4281753Y-3696460D01*
X4281753Y-3696460D02*
X4262706Y-3705984D01*
X4262706Y-3705984D02*
X4234134Y-3705984D01*
X4415087Y-3705984D02*
X4396039Y-3696460D01*
X4396039Y-3696460D02*
X4386515Y-3677412D01*
X4386515Y-3677412D02*
X4386515Y-3505984D01*
X4567468Y-3696460D02*
X4548420Y-3705984D01*
X4548420Y-3705984D02*
X4510325Y-3705984D01*
X4510325Y-3705984D02*
X4491277Y-3696460D01*
X4491277Y-3696460D02*
X4481753Y-3677412D01*
X4481753Y-3677412D02*
X4481753Y-3601222D01*
X4481753Y-3601222D02*
X4491277Y-3582174D01*
X4491277Y-3582174D02*
X4510325Y-3572650D01*
X4510325Y-3572650D02*
X4548420Y-3572650D01*
X4548420Y-3572650D02*
X4567468Y-3582174D01*
X4567468Y-3582174D02*
X4576992Y-3601222D01*
X4576992Y-3601222D02*
X4576992Y-3620269D01*
X4576992Y-3620269D02*
X4481753Y-3639317D01*
X4653182Y-3696460D02*
X4672230Y-3705984D01*
X4672230Y-3705984D02*
X4710325Y-3705984D01*
X4710325Y-3705984D02*
X4729373Y-3696460D01*
X4729373Y-3696460D02*
X4738896Y-3677412D01*
X4738896Y-3677412D02*
X4738896Y-3667888D01*
X4738896Y-3667888D02*
X4729373Y-3648841D01*
X4729373Y-3648841D02*
X4710325Y-3639317D01*
X4710325Y-3639317D02*
X4681753Y-3639317D01*
X4681753Y-3639317D02*
X4662706Y-3629793D01*
X4662706Y-3629793D02*
X4653182Y-3610746D01*
X4653182Y-3610746D02*
X4653182Y-3601222D01*
X4653182Y-3601222D02*
X4662706Y-3582174D01*
X4662706Y-3582174D02*
X4681753Y-3572650D01*
X4681753Y-3572650D02*
X4710325Y-3572650D01*
X4710325Y-3572650D02*
X4729373Y-3582174D01*
X4805563Y-3782174D02*
X4815087Y-3772650D01*
X4815087Y-3772650D02*
X4834134Y-3744079D01*
X4834134Y-3744079D02*
X4843658Y-3725031D01*
X4843658Y-3725031D02*
X4853182Y-3696460D01*
X4853182Y-3696460D02*
X4862706Y-3648841D01*
X4862706Y-3648841D02*
X4862706Y-3610746D01*
X4862706Y-3610746D02*
X4853182Y-3563127D01*
X4853182Y-3563127D02*
X4843658Y-3534555D01*
X4843658Y-3534555D02*
X4834134Y-3515508D01*
X4834134Y-3515508D02*
X4815087Y-3486936D01*
X4815087Y-3486936D02*
X4805563Y-3477412D01*
M02*
