G04 #@! TF.GenerationSoftware,KiCad,Pcbnew,9.0.3*
G04 #@! TF.CreationDate,2026-01-03T08:49:13-08:00*
G04 #@! TF.ProjectId,ir-remote,69722d72-656d-46f7-9465-2e6b69636164,rev?*
G04 #@! TF.SameCoordinates,Original*
G04 #@! TF.FileFunction,Soldermask,Bot*
G04 #@! TF.FilePolarity,Negative*
%FSLAX46Y46*%
G04 Gerber Fmt 4.6, Leading zero omitted, Abs format (unit mm)*
G04 Created by KiCad (PCBNEW 9.0.3) date 2026-01-03 08:49:13*
%MOMM*%
%LPD*%
G01*
G04 APERTURE LIST*
G04 Aperture macros list*
%AMRoundRect*
0 Rectangle with rounded corners*
0 $1 Rounding radius*
0 $2 $3 $4 $5 $6 $7 $8 $9 X,Y pos of 4 corners*
0 Add a 4 corners polygon primitive as box body*
4,1,4,$2,$3,$4,$5,$6,$7,$8,$9,$2,$3,0*
0 Add four circle primitives for the rounded corners*
1,1,$1+$1,$2,$3*
1,1,$1+$1,$4,$5*
1,1,$1+$1,$6,$7*
1,1,$1+$1,$8,$9*
0 Add four rect primitives between the rounded corners*
20,1,$1+$1,$2,$3,$4,$5,0*
20,1,$1+$1,$4,$5,$6,$7,0*
20,1,$1+$1,$6,$7,$8,$9,0*
20,1,$1+$1,$8,$9,$2,$3,0*%
G04 Aperture macros list end*
%ADD10C,1.451000*%
%ADD11C,1.651000*%
%ADD12C,3.000000*%
%ADD13R,1.700000X1.700000*%
%ADD14O,1.700000X1.700000*%
%ADD15O,1.727200X2.032000*%
%ADD16O,1.152400X2.352400*%
%ADD17O,1.152400X1.952400*%
%ADD18C,2.700000*%
%ADD19RoundRect,0.250200X-0.649800X-0.649800X0.649800X-0.649800X0.649800X0.649800X-0.649800X0.649800X0*%
%ADD20C,1.800000*%
%ADD21O,3.000000X4.000000*%
%ADD22C,2.500000*%
G04 APERTURE END LIST*
D10*
G04 #@! TO.C,TP8*
X75400000Y7510000D03*
G04 #@! TD*
G04 #@! TO.C,TP4*
X70330000Y23150000D03*
G04 #@! TD*
G04 #@! TO.C,TP12*
X76450000Y27700000D03*
G04 #@! TD*
D11*
G04 #@! TO.C,J1*
X97470000Y19640000D03*
X100010000Y19640000D03*
G04 #@! TD*
D12*
G04 #@! TO.C,H3*
X123860000Y4000000D03*
G04 #@! TD*
D13*
G04 #@! TO.C,J12*
X63870000Y26955000D03*
D14*
X61330000Y26955000D03*
X58790000Y26955000D03*
X56250000Y26955000D03*
G04 #@! TD*
D12*
G04 #@! TO.C,H4*
X4000000Y4000000D03*
G04 #@! TD*
D10*
G04 #@! TO.C,TP13*
X71370000Y27700000D03*
G04 #@! TD*
G04 #@! TO.C,TP2*
X90700000Y15340000D03*
G04 #@! TD*
D15*
G04 #@! TO.C,J6*
X82020000Y1920000D03*
X84560000Y1920000D03*
X87100000Y1920000D03*
G04 #@! TD*
D10*
G04 #@! TO.C,TP7*
X77940000Y4970000D03*
G04 #@! TD*
D16*
G04 #@! TO.C,J4*
X25370000Y1975000D03*
X34010000Y1975000D03*
D17*
X25370000Y5975000D03*
X34010000Y5975000D03*
G04 #@! TD*
D10*
G04 #@! TO.C,TP1*
X104850000Y15790000D03*
G04 #@! TD*
G04 #@! TO.C,TP5*
X75400000Y2430000D03*
G04 #@! TD*
D11*
G04 #@! TO.C,J2*
X97470000Y22890000D03*
X100010000Y22890000D03*
G04 #@! TD*
D10*
G04 #@! TO.C,TP6*
X77940000Y2430000D03*
G04 #@! TD*
G04 #@! TO.C,TP11*
X84620000Y28320000D03*
G04 #@! TD*
G04 #@! TO.C,TP3*
X59990000Y22340000D03*
G04 #@! TD*
D11*
G04 #@! TO.C,J8*
X22430000Y9120000D03*
X22430000Y6580000D03*
G04 #@! TD*
D12*
G04 #@! TO.C,H2*
X123860000Y43820000D03*
G04 #@! TD*
D10*
G04 #@! TO.C,TP14*
X75400000Y4970000D03*
G04 #@! TD*
D12*
G04 #@! TO.C,H1*
X4000000Y49480000D03*
G04 #@! TD*
D18*
G04 #@! TO.C,POT1*
X24490000Y39565000D03*
X24490000Y35815000D03*
X24490000Y43315000D03*
X24490000Y32065000D03*
X111990000Y43315000D03*
X111990000Y32065000D03*
X20240000Y16690000D03*
X7840000Y16690000D03*
D12*
X94090000Y37690000D03*
X42390000Y37690000D03*
D18*
X111990000Y39565000D03*
G04 #@! TD*
D19*
G04 #@! TO.C,U2*
X121090000Y50280000D03*
D20*
X123630000Y50280000D03*
X126170000Y50280000D03*
G04 #@! TD*
D21*
G04 #@! TO.C,J7*
X116690000Y8910000D03*
D12*
X114490000Y5310000D03*
X100490000Y5310000D03*
D21*
X90790000Y8910000D03*
D22*
X114490000Y12660000D03*
X100490000Y12660000D03*
G04 #@! TD*
D21*
G04 #@! TO.C,J5*
X71040000Y8910000D03*
D12*
X68840000Y5310000D03*
X54840000Y5310000D03*
D21*
X45140000Y8910000D03*
D22*
X68840000Y12660000D03*
X54840000Y12660000D03*
G04 #@! TD*
M02*
