M48
; DRILL file {KiCad 9.0.3} date 2026-01-03T08:49:13-0800
; FORMAT={-:-/ absolute / metric / decimal}
; #@! TF.CreationDate,2026-01-03T08:49:13-08:00
; #@! TF.GenerationSoftware,Kicad,Pcbnew,9.0.3
; #@! TF.FileFunction,Plated,1,2,PTH
FMAT,2
METRIC
; #@! TA.AperFunction,Plated,PTH,ViaDrill
T1C0.300
; #@! TA.AperFunction,Plated,PTH,ComponentDrill
T2C0.300
; #@! TA.AperFunction,Plated,PTH,ComponentDrill
T3C0.600
; #@! TA.AperFunction,Plated,PTH,ComponentDrill
T4C0.889
; #@! TA.AperFunction,Plated,PTH,ComponentDrill
T5C0.900
; #@! TA.AperFunction,Plated,PTH,ComponentDrill
T6C1.000
; #@! TA.AperFunction,Plated,PTH,ComponentDrill
T7C1.016
; #@! TA.AperFunction,Plated,PTH,ComponentDrill
T8C1.300
; #@! TA.AperFunction,Plated,PTH,ComponentDrill
T9C1.500
; #@! TA.AperFunction,Plated,PTH,ComponentDrill
T10C1.700
; #@! TA.AperFunction,Plated,PTH,ComponentDrill
T11C1.800
; #@! TA.AperFunction,Plated,PTH,ComponentDrill
T12C2.200
%
G90
G05
T1
X29.58Y10.46
X29.712Y4.605
X29.97Y8.07
X32.09Y8.01
X32.86Y8.37
X33.572Y37.617
X34.03Y32.46
X34.15Y7.7
X34.95Y31.14
X35.655Y37.31
X37.72Y36.08
X38.782Y38.097
X38.86Y36.36
X44.52Y39.84
X47.38Y33.46
X48.73Y44.75
X49.741Y36.271
X54.351Y36.779
X55.63Y35.61
X55.71Y38.78
X56.006Y43.038
X56.32Y33.83
X56.84Y38.26
X58.67Y43.047
X58.871Y40.081
X59.29Y43.047
X60.01Y28.57
X61.57Y36.46
X62.07Y34.27
X62.62Y32.2
X62.77Y36.84
X63.02Y34.47
X66.22Y40.65
X69.9Y18.19
X70.94Y36.385
X72.29Y34.51
X72.85Y24.84
X72.94Y20.58
X73.95Y26.49
X74.79Y26.55
X77.28Y46.76
X77.28Y45.41
X78.0Y15.39
X79.69Y45.19
X80.43Y27.44
X80.75Y26.74
X82.92Y42.74
X83.23Y39.88
X83.32Y33.43
X84.04Y14.19
X84.39Y33.27
X84.63Y18.66
X84.66Y19.6
X84.77Y8.91
X85.07Y20.25
X85.87Y13.75
X86.1Y23.68
X86.17Y32.01
X86.26Y34.71
X86.29Y40.25
X86.45Y36.685
X86.53Y26.7
X86.871Y31.744
X87.01Y16.71
X87.09Y34.62
X87.16Y36.08
X88.7Y18.39
X91.76Y23.33
X91.99Y21.37
X96.66Y30.49
X97.66Y28.85
X97.75Y26.34
X109.67Y21.26
X115.88Y23.21
X116.3Y50.14
T2
X80.26Y22.522
X80.26Y21.522
X80.26Y20.522
X81.26Y22.522
X81.26Y21.522
X81.26Y20.522
X82.26Y22.522
X82.26Y21.522
X82.26Y20.522
T4
X59.99Y22.34
X70.33Y23.15
X71.37Y27.7
X75.4Y7.51
X75.4Y4.97
X75.4Y2.43
X76.45Y27.7
X77.94Y4.97
X77.94Y2.43
X84.62Y28.32
X90.7Y15.34
X104.85Y15.79
T5
X22.43Y9.12
X22.43Y6.58
X97.47Y22.89
X97.47Y19.64
X100.01Y22.89
X100.01Y19.64
X121.09Y50.28
X123.63Y50.28
X126.17Y50.28
T6
X56.25Y26.955
X58.79Y26.955
X61.33Y26.955
X63.87Y26.955
T7
X82.02Y1.92
X84.56Y1.92
X87.1Y1.92
T8
X54.84Y12.66
X68.84Y12.66
X100.49Y12.66
X114.49Y12.66
T9
X54.84Y5.31
X68.84Y5.31
X100.49Y5.31
X114.49Y5.31
T10
X7.84Y16.69
X20.24Y16.69
X24.49Y43.315
X24.49Y39.565
X24.49Y35.815
X24.49Y32.065
X111.99Y43.315
X111.99Y39.565
X111.99Y32.065
T12
X42.39Y37.69
X94.09Y37.69
T3
G00X25.37Y6.375
M15
G01X25.37Y5.575
M16
G05
G00X25.37Y2.575
M15
G01X25.37Y1.375
M16
G05
G00X34.01Y6.375
M15
G01X34.01Y5.575
M16
G05
G00X34.01Y2.575
M15
G01X34.01Y1.375
M16
G05
T11
G00X45.14Y8.26
M15
G01X45.14Y9.56
M16
G05
G00X71.04Y8.26
M15
G01X71.04Y9.56
M16
G05
G00X90.79Y8.26
M15
G01X90.79Y9.56
M16
G05
G00X116.69Y8.26
M15
G01X116.69Y9.56
M16
G05
M30
