G04 #@! TF.GenerationSoftware,KiCad,Pcbnew,9.0.3*
G04 #@! TF.CreationDate,2026-01-03T08:49:13-08:00*
G04 #@! TF.ProjectId,ir-remote,69722d72-656d-46f7-9465-2e6b69636164,rev?*
G04 #@! TF.SameCoordinates,Original*
G04 #@! TF.FileFunction,Copper,L1,Top*
G04 #@! TF.FilePolarity,Positive*
%FSLAX46Y46*%
G04 Gerber Fmt 4.6, Leading zero omitted, Abs format (unit mm)*
G04 Created by KiCad (PCBNEW 9.0.3) date 2026-01-03 08:49:13*
%MOMM*%
%LPD*%
G01*
G04 APERTURE LIST*
G04 Aperture macros list*
%AMRoundRect*
0 Rectangle with rounded corners*
0 $1 Rounding radius*
0 $2 $3 $4 $5 $6 $7 $8 $9 X,Y pos of 4 corners*
0 Add a 4 corners polygon primitive as box body*
4,1,4,$2,$3,$4,$5,$6,$7,$8,$9,$2,$3,0*
0 Add four circle primitives for the rounded corners*
1,1,$1+$1,$2,$3*
1,1,$1+$1,$4,$5*
1,1,$1+$1,$6,$7*
1,1,$1+$1,$8,$9*
0 Add four rect primitives between the rounded corners*
20,1,$1+$1,$2,$3,$4,$5,0*
20,1,$1+$1,$4,$5,$6,$7,0*
20,1,$1+$1,$6,$7,$8,$9,0*
20,1,$1+$1,$8,$9,$2,$3,0*%
G04 Aperture macros list end*
G04 #@! TA.AperFunction,SMDPad,CuDef*
%ADD10R,1.000000X1.000000*%
G04 #@! TD*
G04 #@! TA.AperFunction,SMDPad,CuDef*
%ADD11R,0.340000X0.600000*%
G04 #@! TD*
G04 #@! TA.AperFunction,SMDPad,CuDef*
%ADD12RoundRect,0.243750X0.243750X0.456250X-0.243750X0.456250X-0.243750X-0.456250X0.243750X-0.456250X0*%
G04 #@! TD*
G04 #@! TA.AperFunction,ComponentPad*
%ADD13C,1.651000*%
G04 #@! TD*
G04 #@! TA.AperFunction,SMDPad,CuDef*
%ADD14R,1.000000X3.150000*%
G04 #@! TD*
G04 #@! TA.AperFunction,SMDPad,CuDef*
%ADD15R,1.700000X0.900000*%
G04 #@! TD*
G04 #@! TA.AperFunction,SMDPad,CuDef*
%ADD16RoundRect,0.150000X0.150000X-0.512500X0.150000X0.512500X-0.150000X0.512500X-0.150000X-0.512500X0*%
G04 #@! TD*
G04 #@! TA.AperFunction,ComponentPad*
%ADD17R,1.700000X1.700000*%
G04 #@! TD*
G04 #@! TA.AperFunction,ComponentPad*
%ADD18O,1.700000X1.700000*%
G04 #@! TD*
G04 #@! TA.AperFunction,SMDPad,CuDef*
%ADD19R,0.800100X0.800100*%
G04 #@! TD*
G04 #@! TA.AperFunction,SMDPad,CuDef*
%ADD20R,1.200000X3.700000*%
G04 #@! TD*
G04 #@! TA.AperFunction,SMDPad,CuDef*
%ADD21RoundRect,0.075000X-0.075000X0.662500X-0.075000X-0.662500X0.075000X-0.662500X0.075000X0.662500X0*%
G04 #@! TD*
G04 #@! TA.AperFunction,SMDPad,CuDef*
%ADD22RoundRect,0.075000X-0.662500X0.075000X-0.662500X-0.075000X0.662500X-0.075000X0.662500X0.075000X0*%
G04 #@! TD*
G04 #@! TA.AperFunction,ComponentPad*
%ADD23O,1.727200X2.032000*%
G04 #@! TD*
G04 #@! TA.AperFunction,SMDPad,CuDef*
%ADD24R,1.060000X0.650000*%
G04 #@! TD*
G04 #@! TA.AperFunction,SMDPad,CuDef*
%ADD25R,0.500000X0.160000*%
G04 #@! TD*
G04 #@! TA.AperFunction,SMDPad,CuDef*
%ADD26R,0.590000X1.150000*%
G04 #@! TD*
G04 #@! TA.AperFunction,SMDPad,CuDef*
%ADD27R,0.298000X1.150000*%
G04 #@! TD*
G04 #@! TA.AperFunction,ComponentPad*
%ADD28O,1.000000X2.200000*%
G04 #@! TD*
G04 #@! TA.AperFunction,ComponentPad*
%ADD29O,1.000000X1.800000*%
G04 #@! TD*
G04 #@! TA.AperFunction,SMDPad,CuDef*
%ADD30RoundRect,0.062500X-0.062500X0.375000X-0.062500X-0.375000X0.062500X-0.375000X0.062500X0.375000X0*%
G04 #@! TD*
G04 #@! TA.AperFunction,SMDPad,CuDef*
%ADD31RoundRect,0.062500X-0.375000X0.062500X-0.375000X-0.062500X0.375000X-0.062500X0.375000X0.062500X0*%
G04 #@! TD*
G04 #@! TA.AperFunction,HeatsinkPad*
%ADD32C,0.500000*%
G04 #@! TD*
G04 #@! TA.AperFunction,HeatsinkPad*
%ADD33R,3.450000X3.450000*%
G04 #@! TD*
G04 #@! TA.AperFunction,SMDPad,CuDef*
%ADD34R,0.700000X1.300000*%
G04 #@! TD*
G04 #@! TA.AperFunction,SMDPad,CuDef*
%ADD35R,1.168400X1.600200*%
G04 #@! TD*
G04 #@! TA.AperFunction,SMDPad,CuDef*
%ADD36R,0.160000X0.500000*%
G04 #@! TD*
G04 #@! TA.AperFunction,SMDPad,CuDef*
%ADD37R,1.220000X0.650000*%
G04 #@! TD*
G04 #@! TA.AperFunction,SMDPad,CuDef*
%ADD38RoundRect,0.150000X-0.512500X-0.150000X0.512500X-0.150000X0.512500X0.150000X-0.512500X0.150000X0*%
G04 #@! TD*
G04 #@! TA.AperFunction,SMDPad,CuDef*
%ADD39RoundRect,0.087500X0.250000X0.087500X-0.250000X0.087500X-0.250000X-0.087500X0.250000X-0.087500X0*%
G04 #@! TD*
G04 #@! TA.AperFunction,SMDPad,CuDef*
%ADD40R,1.300000X0.700000*%
G04 #@! TD*
G04 #@! TA.AperFunction,SMDPad,CuDef*
%ADD41RoundRect,0.147500X-0.172500X0.147500X-0.172500X-0.147500X0.172500X-0.147500X0.172500X0.147500X0*%
G04 #@! TD*
G04 #@! TA.AperFunction,SMDPad,CuDef*
%ADD42R,1.400000X1.150000*%
G04 #@! TD*
G04 #@! TA.AperFunction,ComponentPad*
%ADD43C,2.700000*%
G04 #@! TD*
G04 #@! TA.AperFunction,ComponentPad*
%ADD44C,3.000000*%
G04 #@! TD*
G04 #@! TA.AperFunction,ComponentPad*
%ADD45RoundRect,0.250200X-0.649800X-0.649800X0.649800X-0.649800X0.649800X0.649800X-0.649800X0.649800X0*%
G04 #@! TD*
G04 #@! TA.AperFunction,ComponentPad*
%ADD46C,1.800000*%
G04 #@! TD*
G04 #@! TA.AperFunction,ComponentPad*
%ADD47O,3.000000X4.000000*%
G04 #@! TD*
G04 #@! TA.AperFunction,ComponentPad*
%ADD48C,2.500000*%
G04 #@! TD*
G04 #@! TA.AperFunction,ViaPad*
%ADD49C,0.600000*%
G04 #@! TD*
G04 #@! TA.AperFunction,Conductor*
%ADD50C,0.150000*%
G04 #@! TD*
G04 #@! TA.AperFunction,Conductor*
%ADD51C,0.200000*%
G04 #@! TD*
G04 APERTURE END LIST*
D10*
G04 #@! TO.P,R18,1*
G04 #@! TO.N,Net-(J4-CC1)*
X23290000Y13300000D03*
G04 #@! TO.P,R18,2*
G04 #@! TO.N,GND*
X21590000Y13300000D03*
G04 #@! TD*
G04 #@! TO.P,R17,1*
G04 #@! TO.N,Net-(J4-CC2)*
X34520000Y10740000D03*
G04 #@! TO.P,R17,2*
G04 #@! TO.N,GND*
X34520000Y12440000D03*
G04 #@! TD*
G04 #@! TO.P,R16,1*
G04 #@! TO.N,Net-(C26-Pad2)*
X96860120Y15861751D03*
G04 #@! TO.P,R16,2*
G04 #@! TO.N,Net-(C23-Pad1)*
X96860120Y14161751D03*
G04 #@! TD*
G04 #@! TO.P,C24,1*
G04 #@! TO.N,GND*
X60936000Y43947500D03*
G04 #@! TO.P,C24,2*
G04 #@! TO.N,/XTAL1*
X60936000Y45647500D03*
G04 #@! TD*
G04 #@! TO.P,R13,1*
G04 #@! TO.N,Net-(C21-Pad2)*
X110560000Y16044092D03*
G04 #@! TO.P,R13,2*
G04 #@! TO.N,Net-(C22-Pad1)*
X110560000Y14344092D03*
G04 #@! TD*
D11*
G04 #@! TO.P,U8,1,EN*
G04 #@! TO.N,/V_USB*
X91880000Y26270000D03*
G04 #@! TO.P,U8,2,GND*
G04 #@! TO.N,GND*
X91230000Y26270000D03*
G04 #@! TO.P,U8,3,Noise*
G04 #@! TO.N,Net-(U8-Noise)*
X90580000Y26270000D03*
G04 #@! TO.P,U8,4,OUT*
G04 #@! TO.N,/VLDO*
X90580000Y24470000D03*
G04 #@! TO.P,U8,5,IN*
G04 #@! TO.N,/V_USB*
X91880000Y24470000D03*
G04 #@! TD*
D10*
G04 #@! TO.P,C20,1*
G04 #@! TO.N,Net-(C20-Pad1)*
X71500000Y17600000D03*
G04 #@! TO.P,C20,2*
G04 #@! TO.N,Net-(C20-Pad2)*
X71500000Y15900000D03*
G04 #@! TD*
G04 #@! TO.P,R3,1*
G04 #@! TO.N,/SAI_SD_B*
X75370000Y30510000D03*
G04 #@! TO.P,R3,2*
G04 #@! TO.N,Net-(U5-DOUT_MFP2)*
X77070000Y30510000D03*
G04 #@! TD*
D12*
G04 #@! TO.P,L3,1,1*
G04 #@! TO.N,/V_USB*
X36890000Y40537500D03*
G04 #@! TO.P,L3,2,2*
G04 #@! TO.N,Net-(U112-SW)*
X35015000Y40537500D03*
G04 #@! TD*
D10*
G04 #@! TO.P,R27,1*
G04 #@! TO.N,Net-(V11-FB)*
X88250000Y41910000D03*
G04 #@! TO.P,R27,2*
G04 #@! TO.N,GND*
X88250000Y40210000D03*
G04 #@! TD*
D13*
G04 #@! TO.P,TP8,1,1*
G04 #@! TO.N,/MICBIAS*
X75400000Y7510000D03*
G04 #@! TD*
G04 #@! TO.P,TP4,1,1*
G04 #@! TO.N,/INR*
X70330000Y23150000D03*
G04 #@! TD*
D14*
G04 #@! TO.P,J3,1,Pin_1*
G04 #@! TO.N,/UART_TX*
X44940000Y50035000D03*
G04 #@! TO.P,J3,2,Pin_2*
G04 #@! TO.N,GND*
X44940000Y44985000D03*
G04 #@! TO.P,J3,3,Pin_3*
G04 #@! TO.N,/UART_RX*
X42400000Y50035000D03*
G04 #@! TO.P,J3,4,Pin_4*
G04 #@! TO.N,GND*
X42400000Y44985000D03*
G04 #@! TO.P,J3,5,Pin_5*
G04 #@! TO.N,/DEBUG2*
X39860000Y50035000D03*
G04 #@! TO.P,J3,6,Pin_6*
G04 #@! TO.N,GND*
X39860000Y44985000D03*
G04 #@! TO.P,J3,7,Pin_7*
G04 #@! TO.N,/DEBUG3*
X37320000Y50035000D03*
G04 #@! TO.P,J3,8,Pin_8*
G04 #@! TO.N,GND*
X37320000Y44985000D03*
G04 #@! TD*
D13*
G04 #@! TO.P,TP12,1,1*
G04 #@! TO.N,/SCK_MICDET*
X76450000Y27700000D03*
G04 #@! TD*
D15*
G04 #@! TO.P,C39,1*
G04 #@! TO.N,+3V3*
X81210000Y48832500D03*
G04 #@! TO.P,C39,2*
G04 #@! TO.N,GND*
X81210000Y45932500D03*
G04 #@! TD*
D13*
G04 #@! TO.P,J1,1,Pin_1*
G04 #@! TO.N,Net-(J1-Pin_1)*
X97470000Y19640000D03*
G04 #@! TO.P,J1,2,Pin_2*
G04 #@! TO.N,/AVDD*
X100010000Y19640000D03*
G04 #@! TD*
D10*
G04 #@! TO.P,R4,1*
G04 #@! TO.N,/Vmotor*
X31862500Y32587500D03*
G04 #@! TO.P,R4,2*
G04 #@! TO.N,Net-(U112-FB)*
X31862500Y34287500D03*
G04 #@! TD*
G04 #@! TO.P,C9,1*
G04 #@! TO.N,GNDA*
X78080000Y16500000D03*
G04 #@! TO.P,C9,2*
G04 #@! TO.N,Net-(U5-REF)*
X79780000Y16500000D03*
G04 #@! TD*
G04 #@! TO.P,C19,1*
G04 #@! TO.N,Net-(C19-Pad1)*
X60120000Y17030000D03*
G04 #@! TO.P,C19,2*
G04 #@! TO.N,Net-(C19-Pad2)*
X60120000Y15330000D03*
G04 #@! TD*
G04 #@! TO.P,C1,1*
G04 #@! TO.N,+3V3*
X49370000Y32240000D03*
G04 #@! TO.P,C1,2*
G04 #@! TO.N,GND*
X49370000Y33940000D03*
G04 #@! TD*
G04 #@! TO.P,C34,1*
G04 #@! TO.N,ADCGND*
X48420000Y42980000D03*
G04 #@! TO.P,C34,2*
G04 #@! TO.N,/Slider_ADC*
X50120000Y42980000D03*
G04 #@! TD*
G04 #@! TO.P,R26,1*
G04 #@! TO.N,/V_USB*
X92710000Y44340000D03*
G04 #@! TO.P,R26,2*
G04 #@! TO.N,Net-(V11-EN)*
X91010000Y44340000D03*
G04 #@! TD*
G04 #@! TO.P,C32,1*
G04 #@! TO.N,/V_USB*
X93680000Y24370000D03*
G04 #@! TO.P,C32,2*
G04 #@! TO.N,GND*
X93680000Y26070000D03*
G04 #@! TD*
G04 #@! TO.P,R15,1*
G04 #@! TO.N,Net-(C20-Pad2)*
X69300000Y15940000D03*
G04 #@! TO.P,R15,2*
G04 #@! TO.N,GNDA*
X69300000Y17640000D03*
G04 #@! TD*
G04 #@! TO.P,R14,1*
G04 #@! TO.N,Net-(C19-Pad2)*
X57890000Y15300000D03*
G04 #@! TO.P,R14,2*
G04 #@! TO.N,GNDA*
X57890000Y17000000D03*
G04 #@! TD*
G04 #@! TO.P,C2,1*
G04 #@! TO.N,GND*
X117500000Y50360000D03*
G04 #@! TO.P,C2,2*
G04 #@! TO.N,+3V3*
X117500000Y48660000D03*
G04 #@! TD*
D16*
G04 #@! TO.P,U6,1,I/O1*
G04 #@! TO.N,/USB_DM*
X28927500Y9272500D03*
G04 #@! TO.P,U6,2,GND*
G04 #@! TO.N,GND*
X29877500Y9272500D03*
G04 #@! TO.P,U6,3,I/O2*
G04 #@! TO.N,/USB_DP*
X30827500Y9272500D03*
G04 #@! TO.P,U6,4,I/O2*
X30827500Y11547500D03*
G04 #@! TO.P,U6,5,VBUS*
G04 #@! TO.N,/V_USB*
X29877500Y11547500D03*
G04 #@! TO.P,U6,6,I/O1*
G04 #@! TO.N,/USB_DM*
X28927500Y11547500D03*
G04 #@! TD*
D10*
G04 #@! TO.P,C28,1*
G04 #@! TO.N,/V_USB*
X110575000Y25620000D03*
G04 #@! TO.P,C28,2*
G04 #@! TO.N,GND*
X110575000Y27320000D03*
G04 #@! TD*
D15*
G04 #@! TO.P,C18,1*
G04 #@! TO.N,Net-(U5-HPR)*
X86685000Y7170000D03*
G04 #@! TO.P,C18,2*
G04 #@! TO.N,Net-(J6-Pin_3)*
X86685000Y4270000D03*
G04 #@! TD*
D10*
G04 #@! TO.P,C25,1*
G04 #@! TO.N,GND*
X54556000Y43807500D03*
G04 #@! TO.P,C25,2*
G04 #@! TO.N,/XTAL2*
X54556000Y45507500D03*
G04 #@! TD*
G04 #@! TO.P,C35,1*
G04 #@! TO.N,Net-(V11-BST)*
X89990000Y46140000D03*
G04 #@! TO.P,C35,2*
G04 #@! TO.N,Net-(V11-SW)*
X89990000Y47840000D03*
G04 #@! TD*
G04 #@! TO.P,C5,1*
G04 #@! TO.N,+3V3REF*
X45680000Y32570000D03*
G04 #@! TO.P,C5,2*
G04 #@! TO.N,ADCGND*
X47380000Y32570000D03*
G04 #@! TD*
G04 #@! TO.P,R9,1*
G04 #@! TO.N,+3V3*
X90620000Y22850000D03*
G04 #@! TO.P,R9,2*
G04 #@! TO.N,Net-(JP1-B)*
X88920000Y22850000D03*
G04 #@! TD*
G04 #@! TO.P,C13,1*
G04 #@! TO.N,Net-(J1-Pin_1)*
X84055000Y16970000D03*
G04 #@! TO.P,C13,2*
G04 #@! TO.N,GNDA*
X85755000Y16970000D03*
G04 #@! TD*
D17*
G04 #@! TO.P,J12,1,Pin_1*
G04 #@! TO.N,+3V3*
X63870000Y26955000D03*
D18*
G04 #@! TO.P,J12,2,Pin_2*
G04 #@! TO.N,/SWCLK*
X61330000Y26955000D03*
G04 #@! TO.P,J12,3,Pin_3*
G04 #@! TO.N,GND*
X58790000Y26955000D03*
G04 #@! TO.P,J12,4,Pin_4*
G04 #@! TO.N,/SWDIO*
X56250000Y26955000D03*
G04 #@! TD*
D10*
G04 #@! TO.P,C15,1*
G04 #@! TO.N,/VLDO*
X89200000Y24460000D03*
G04 #@! TO.P,C15,2*
G04 #@! TO.N,GNDA*
X89200000Y26160000D03*
G04 #@! TD*
D15*
G04 #@! TO.P,C36,1*
G04 #@! TO.N,/V_USB*
X83210000Y41210000D03*
G04 #@! TO.P,C36,2*
G04 #@! TO.N,GND*
X83210000Y44110000D03*
G04 #@! TD*
D10*
G04 #@! TO.P,C14,1*
G04 #@! TO.N,GND*
X92530000Y27750000D03*
G04 #@! TO.P,C14,2*
G04 #@! TO.N,Net-(U8-Noise)*
X90830000Y27750000D03*
G04 #@! TD*
G04 #@! TO.P,C8,1*
G04 #@! TO.N,/INR*
X76260000Y19950000D03*
G04 #@! TO.P,C8,2*
G04 #@! TO.N,GNDA*
X74560000Y19950000D03*
G04 #@! TD*
D13*
G04 #@! TO.P,TP13,1,1*
G04 #@! TO.N,/MISO*
X71370000Y27700000D03*
G04 #@! TD*
D19*
G04 #@! TO.P,V12,1,VI*
G04 #@! TO.N,/V_USB*
X45850000Y37877500D03*
G04 #@! TO.P,V12,2,VO*
G04 #@! TO.N,+3V3REF*
X45850000Y35977500D03*
G04 #@! TO.P,V12,3,GND*
G04 #@! TO.N,ADCGND*
X47848980Y36927500D03*
G04 #@! TD*
D13*
G04 #@! TO.P,TP2,1,1*
G04 #@! TO.N,/LINEOUT_L*
X90700000Y15340000D03*
G04 #@! TD*
D10*
G04 #@! TO.P,C16,1*
G04 #@! TO.N,/VLDO*
X87390000Y24460000D03*
G04 #@! TO.P,C16,2*
G04 #@! TO.N,GNDA*
X87390000Y26160000D03*
G04 #@! TD*
G04 #@! TO.P,C3,1*
G04 #@! TO.N,+3V3*
X59900000Y29820000D03*
G04 #@! TO.P,C3,2*
G04 #@! TO.N,GND*
X58200000Y29820000D03*
G04 #@! TD*
G04 #@! TO.P,C40,1*
G04 #@! TO.N,/V_USB*
X45890000Y39777500D03*
G04 #@! TO.P,C40,2*
G04 #@! TO.N,ADCGND*
X47590000Y39777500D03*
G04 #@! TD*
G04 #@! TO.P,C30,1*
G04 #@! TO.N,/AVDD*
X110880000Y19370000D03*
G04 #@! TO.P,C30,2*
G04 #@! TO.N,GND*
X110880000Y21070000D03*
G04 #@! TD*
D20*
G04 #@! TO.P,L11,1,1*
G04 #@! TO.N,Net-(V11-SW)*
X88120000Y49190000D03*
G04 #@! TO.P,L11,2,2*
G04 #@! TO.N,+3V3*
X85320000Y49190000D03*
G04 #@! TD*
D10*
G04 #@! TO.P,C4,1*
G04 #@! TO.N,+3V3REF*
X45750000Y34360000D03*
G04 #@! TO.P,C4,2*
G04 #@! TO.N,ADCGND*
X47450000Y34360000D03*
G04 #@! TD*
D21*
G04 #@! TO.P,U1,1,VBAT*
G04 #@! TO.N,+3V3*
X58180000Y40772500D03*
G04 #@! TO.P,U1,2,PC13*
G04 #@! TO.N,unconnected-(U1-PC13-Pad2)*
X57680000Y40772500D03*
G04 #@! TO.P,U1,3,PC14*
G04 #@! TO.N,unconnected-(U1-PC14-Pad3)*
X57180000Y40772500D03*
G04 #@! TO.P,U1,4,PC15*
G04 #@! TO.N,unconnected-(U1-PC15-Pad4)*
X56680000Y40772500D03*
G04 #@! TO.P,U1,5,RCC_OSC_IN*
G04 #@! TO.N,/XTAL1*
X56180000Y40772500D03*
G04 #@! TO.P,U1,6,RCC_OSC_OUT*
G04 #@! TO.N,/XTAL2*
X55680000Y40772500D03*
G04 #@! TO.P,U1,7,PG10*
G04 #@! TO.N,unconnected-(U1-PG10-Pad7)*
X55180000Y40772500D03*
G04 #@! TO.P,U1,8,TIM2_CH1*
G04 #@! TO.N,/IR_DEMOD*
X54680000Y40772500D03*
G04 #@! TO.P,U1,9,PA1*
G04 #@! TO.N,unconnected-(U1-PA1-Pad9)*
X54180000Y40772500D03*
G04 #@! TO.P,U1,10,PA2*
G04 #@! TO.N,/UART_TX*
X53680000Y40772500D03*
G04 #@! TO.P,U1,11,PA3*
G04 #@! TO.N,/UART_RX*
X53180000Y40772500D03*
G04 #@! TO.P,U1,12,PA4*
G04 #@! TO.N,/DEBUG2*
X52680000Y40772500D03*
D22*
G04 #@! TO.P,U1,13,PA5*
G04 #@! TO.N,/DEBUG3*
X51267500Y39360000D03*
G04 #@! TO.P,U1,14,PA6*
G04 #@! TO.N,unconnected-(U1-PA6-Pad14)*
X51267500Y38860000D03*
G04 #@! TO.P,U1,15,PA7*
G04 #@! TO.N,unconnected-(U1-PA7-Pad15)*
X51267500Y38360000D03*
G04 #@! TO.P,U1,16,PB0*
G04 #@! TO.N,unconnected-(U1-PB0-Pad16)*
X51267500Y37860000D03*
G04 #@! TO.P,U1,17,PB1*
G04 #@! TO.N,unconnected-(U1-PB1-Pad17)*
X51267500Y37360000D03*
G04 #@! TO.P,U1,18,ADC2_IN12*
G04 #@! TO.N,/Slider_ADC*
X51267500Y36860000D03*
G04 #@! TO.P,U1,19,VSSA*
G04 #@! TO.N,ADCGND*
X51267500Y36360000D03*
G04 #@! TO.P,U1,20,VREF+*
G04 #@! TO.N,+3V3REF*
X51267500Y35860000D03*
G04 #@! TO.P,U1,21,VDDA*
X51267500Y35360000D03*
G04 #@! TO.P,U1,22,PB10*
G04 #@! TO.N,unconnected-(U1-PB10-Pad22)*
X51267500Y34860000D03*
G04 #@! TO.P,U1,23,VSS*
G04 #@! TO.N,GND*
X51267500Y34360000D03*
G04 #@! TO.P,U1,24,VDD*
G04 #@! TO.N,+3V3*
X51267500Y33860000D03*
D21*
G04 #@! TO.P,U1,25,PB11*
G04 #@! TO.N,unconnected-(U1-PB11-Pad25)*
X52680000Y32447500D03*
G04 #@! TO.P,U1,26,PB12*
G04 #@! TO.N,unconnected-(U1-PB12-Pad26)*
X53180000Y32447500D03*
G04 #@! TO.P,U1,27,PB13*
G04 #@! TO.N,unconnected-(U1-PB13-Pad27)*
X53680000Y32447500D03*
G04 #@! TO.P,U1,28,TIM15_CH1*
G04 #@! TO.N,unconnected-(U1-PB14-Pad28)*
X54180000Y32447500D03*
G04 #@! TO.P,U1,29,TIM15_CH2*
G04 #@! TO.N,unconnected-(U1-PB15-Pad29)*
X54680000Y32447500D03*
G04 #@! TO.P,U1,30,TIM1_CH1*
G04 #@! TO.N,/MOT-*
X55180000Y32447500D03*
G04 #@! TO.P,U1,31,TIM1_CH2*
G04 #@! TO.N,/MOT+*
X55680000Y32447500D03*
G04 #@! TO.P,U1,32,SAI1_SD_A*
G04 #@! TO.N,/SAI_SD_A*
X56180000Y32447500D03*
G04 #@! TO.P,U1,33,USB_DM*
G04 #@! TO.N,/USB_DM*
X56680000Y32447500D03*
G04 #@! TO.P,U1,34,USB_DP*
G04 #@! TO.N,/USB_DP*
X57180000Y32447500D03*
G04 #@! TO.P,U1,35,VSS*
G04 #@! TO.N,GND*
X57680000Y32447500D03*
G04 #@! TO.P,U1,36,VDD*
G04 #@! TO.N,+3V3*
X58180000Y32447500D03*
D22*
G04 #@! TO.P,U1,37,SYS_JTMS-SWDIO*
G04 #@! TO.N,/SWDIO*
X59592500Y33860000D03*
G04 #@! TO.P,U1,38,SYS_JTCK-SWCLK*
G04 #@! TO.N,/SWCLK*
X59592500Y34360000D03*
G04 #@! TO.P,U1,39,I2C1_SCL*
G04 #@! TO.N,/I2C_SCL*
X59592500Y34860000D03*
G04 #@! TO.P,U1,40,SAI1_SCK_B*
G04 #@! TO.N,/SAI_SCK*
X59592500Y35360000D03*
G04 #@! TO.P,U1,41,SAI1_MCLK_B*
G04 #@! TO.N,/SAI_MCLK*
X59592500Y35860000D03*
G04 #@! TO.P,U1,42,SAI1_SD_B*
G04 #@! TO.N,/SAI_SD_B*
X59592500Y36360000D03*
G04 #@! TO.P,U1,43,SAI1_FS_B*
G04 #@! TO.N,/SAI_FS*
X59592500Y36860000D03*
G04 #@! TO.P,U1,44,I2C1_SDA*
G04 #@! TO.N,/I2C_SDA*
X59592500Y37360000D03*
G04 #@! TO.P,U1,45,PB8*
G04 #@! TO.N,/CODEC_RESET*
X59592500Y37860000D03*
G04 #@! TO.P,U1,46,PB9*
G04 #@! TO.N,unconnected-(U1-PB9-Pad46)*
X59592500Y38360000D03*
G04 #@! TO.P,U1,47,VSS*
G04 #@! TO.N,GND*
X59592500Y38860000D03*
G04 #@! TO.P,U1,48,VDD*
G04 #@! TO.N,+3V3*
X59592500Y39360000D03*
G04 #@! TD*
D10*
G04 #@! TO.P,R6,1*
G04 #@! TO.N,/SAI_MCLK*
X75350000Y36980000D03*
G04 #@! TO.P,R6,2*
G04 #@! TO.N,Net-(U5-MCLK)*
X77050000Y36980000D03*
G04 #@! TD*
D23*
G04 #@! TO.P,J6,1,Pin_1*
G04 #@! TO.N,Net-(J6-Pin_1)*
X82020000Y1920000D03*
G04 #@! TO.P,J6,2,Pin_2*
G04 #@! TO.N,GNDA*
X84560000Y1920000D03*
G04 #@! TO.P,J6,3,Pin_3*
G04 #@! TO.N,Net-(J6-Pin_3)*
X87100000Y1920000D03*
G04 #@! TD*
D13*
G04 #@! TO.P,TP7,1,1*
G04 #@! TO.N,/IN3_L*
X77940000Y4970000D03*
G04 #@! TD*
D24*
G04 #@! TO.P,U3,1,IN*
G04 #@! TO.N,/V_USB*
X108325000Y24630000D03*
G04 #@! TO.P,U3,2,GND*
G04 #@! TO.N,GND*
X108325000Y25580000D03*
G04 #@! TO.P,U3,3,EN*
G04 #@! TO.N,/V_USB*
X108325000Y26530000D03*
G04 #@! TO.P,U3,4,NC*
G04 #@! TO.N,unconnected-(U3-NC-Pad4)*
X106125000Y26530000D03*
G04 #@! TO.P,U3,5,OUT*
G04 #@! TO.N,/DVDD*
X106125000Y24630000D03*
G04 #@! TD*
D10*
G04 #@! TO.P,C22,1*
G04 #@! TO.N,Net-(C22-Pad1)*
X116990000Y15950000D03*
G04 #@! TO.P,C22,2*
G04 #@! TO.N,GNDA*
X116990000Y14250000D03*
G04 #@! TD*
D25*
G04 #@! TO.P,NT2,1,1*
G04 #@! TO.N,GND*
X89490000Y27480000D03*
G04 #@! TO.P,NT2,2,2*
G04 #@! TO.N,GNDA*
X88990000Y27480000D03*
G04 #@! TD*
D10*
G04 #@! TO.P,C10,1*
G04 #@! TO.N,Net-(J2-Pin_1)*
X86550000Y21770000D03*
G04 #@! TO.P,C10,2*
G04 #@! TO.N,GND*
X86550000Y20070000D03*
G04 #@! TD*
G04 #@! TO.P,R12,1*
G04 #@! TO.N,GND*
X74420000Y23970000D03*
G04 #@! TO.P,R12,2*
G04 #@! TO.N,Net-(U5-SPI_SELECT)*
X76120000Y23970000D03*
G04 #@! TD*
D26*
G04 #@! TO.P,J4,A1B12,GND1*
G04 #@! TO.N,GND*
X26490000Y6550000D03*
G04 #@! TO.P,J4,A4B9,VBUS1*
G04 #@! TO.N,/V_USB*
X27290000Y6550000D03*
D27*
G04 #@! TO.P,J4,A5,CC1*
G04 #@! TO.N,Net-(J4-CC1)*
X28440000Y6550000D03*
G04 #@! TO.P,J4,A6,D+1*
G04 #@! TO.N,/USB_DP*
X29440000Y6550000D03*
G04 #@! TO.P,J4,A7,D-1*
G04 #@! TO.N,/USB_DM*
X29940000Y6550000D03*
G04 #@! TO.P,J4,A8,SBU1*
G04 #@! TO.N,unconnected-(J4-SBU1-PadA8)*
X30940000Y6550000D03*
D26*
G04 #@! TO.P,J4,B1A12,GND3*
G04 #@! TO.N,GND*
X32890000Y6550000D03*
G04 #@! TO.P,J4,B4A9,VBUS3*
G04 #@! TO.N,/V_USB*
X32090000Y6550000D03*
D27*
G04 #@! TO.P,J4,B5,CC2*
G04 #@! TO.N,Net-(J4-CC2)*
X31440000Y6550000D03*
G04 #@! TO.P,J4,B6,D+2*
G04 #@! TO.N,/USB_DP*
X30440000Y6550000D03*
G04 #@! TO.P,J4,B7,D-2*
G04 #@! TO.N,/USB_DM*
X28940000Y6550000D03*
G04 #@! TO.P,J4,B8,SBU2*
G04 #@! TO.N,unconnected-(J4-SBU2-PadB8)*
X27940000Y6550000D03*
D28*
G04 #@! TO.P,J4,SH1,Shield1*
G04 #@! TO.N,Net-(J4-Shield1)*
X25370000Y1975000D03*
G04 #@! TO.P,J4,SH2,Shield2*
X34010000Y1975000D03*
D29*
G04 #@! TO.P,J4,SH3,Shield3*
X25370000Y5975000D03*
G04 #@! TO.P,J4,SH4,Shield4*
X34010000Y5975000D03*
G04 #@! TD*
D10*
G04 #@! TO.P,C12,1*
G04 #@! TO.N,GNDA*
X85770000Y26200000D03*
G04 #@! TO.P,C12,2*
G04 #@! TO.N,/VLDO*
X85770000Y24500000D03*
G04 #@! TD*
D13*
G04 #@! TO.P,TP1,1,1*
G04 #@! TO.N,/LINEOUT_R*
X104850000Y15790000D03*
G04 #@! TD*
D10*
G04 #@! TO.P,R11,1*
G04 #@! TO.N,/INR*
X71210000Y19670000D03*
G04 #@! TO.P,R11,2*
G04 #@! TO.N,Net-(C20-Pad1)*
X69510000Y19670000D03*
G04 #@! TD*
D13*
G04 #@! TO.P,TP5,1,1*
G04 #@! TO.N,/IN2_L*
X75400000Y2430000D03*
G04 #@! TD*
G04 #@! TO.P,J2,1,Pin_1*
G04 #@! TO.N,Net-(J2-Pin_1)*
X97470000Y22890000D03*
G04 #@! TO.P,J2,2,Pin_2*
G04 #@! TO.N,/DVDD*
X100010000Y22890000D03*
G04 #@! TD*
D10*
G04 #@! TO.P,C23,1*
G04 #@! TO.N,Net-(C23-Pad1)*
X99700000Y15030000D03*
G04 #@! TO.P,C23,2*
G04 #@! TO.N,GNDA*
X101400000Y15030000D03*
G04 #@! TD*
D30*
G04 #@! TO.P,U5,1,MCLK*
G04 #@! TO.N,Net-(U5-MCLK)*
X83010000Y23960000D03*
G04 #@! TO.P,U5,2,BCLK*
G04 #@! TO.N,Net-(U5-BCLK)*
X82510000Y23960000D03*
G04 #@! TO.P,U5,3,WCLK*
G04 #@! TO.N,Net-(U5-WCLK)*
X82010000Y23960000D03*
G04 #@! TO.P,U5,4,DIN_MFP1*
G04 #@! TO.N,Net-(U5-DIN_MFP1)*
X81510000Y23960000D03*
G04 #@! TO.P,U5,5,DOUT_MFP2*
G04 #@! TO.N,Net-(U5-DOUT_MFP2)*
X81010000Y23960000D03*
G04 #@! TO.P,U5,6,IOVDD*
G04 #@! TO.N,+3V3*
X80510000Y23960000D03*
G04 #@! TO.P,U5,7,IOVSS*
G04 #@! TO.N,GND*
X80010000Y23960000D03*
G04 #@! TO.P,U5,8,SCLK_MFP3*
G04 #@! TO.N,/SCK_MICDET*
X79510000Y23960000D03*
D31*
G04 #@! TO.P,U5,9,SCL_SS_N*
G04 #@! TO.N,/I2C_SCL*
X78822500Y23272500D03*
G04 #@! TO.P,U5,10,SDA_MOSI*
G04 #@! TO.N,/I2C_SDA*
X78822500Y22772500D03*
G04 #@! TO.P,U5,11,MISO_MFP4*
G04 #@! TO.N,/MISO*
X78822500Y22272500D03*
G04 #@! TO.P,U5,12,SPI_SELECT*
G04 #@! TO.N,Net-(U5-SPI_SELECT)*
X78822500Y21772500D03*
G04 #@! TO.P,U5,13,IN1_L*
G04 #@! TO.N,/INL*
X78822500Y21272500D03*
G04 #@! TO.P,U5,14,IN1_R*
G04 #@! TO.N,/INR*
X78822500Y20772500D03*
G04 #@! TO.P,U5,15,IN2_L*
G04 #@! TO.N,/IN2_L*
X78822500Y20272500D03*
G04 #@! TO.P,U5,16,IN2_R*
G04 #@! TO.N,/IN2_R*
X78822500Y19772500D03*
D30*
G04 #@! TO.P,U5,17,AVSS*
G04 #@! TO.N,GNDA*
X79510000Y19085000D03*
G04 #@! TO.P,U5,18,REF*
G04 #@! TO.N,Net-(U5-REF)*
X80010000Y19085000D03*
G04 #@! TO.P,U5,19,MICBIAS*
G04 #@! TO.N,/MICBIAS*
X80510000Y19085000D03*
G04 #@! TO.P,U5,20,IN3_L*
G04 #@! TO.N,/IN3_L*
X81010000Y19085000D03*
G04 #@! TO.P,U5,21,IN3_R*
G04 #@! TO.N,/IN3_R*
X81510000Y19085000D03*
G04 #@! TO.P,U5,22,LOL*
G04 #@! TO.N,/LINEOUT_L*
X82010000Y19085000D03*
G04 #@! TO.P,U5,23,LOR*
G04 #@! TO.N,/LINEOUT_R*
X82510000Y19085000D03*
G04 #@! TO.P,U5,24,AVDD*
G04 #@! TO.N,Net-(J1-Pin_1)*
X83010000Y19085000D03*
D31*
G04 #@! TO.P,U5,25,HPL*
G04 #@! TO.N,Net-(U5-HPL)*
X83697500Y19772500D03*
G04 #@! TO.P,U5,26,LDOIN_HPVDD*
G04 #@! TO.N,/VLDO*
X83697500Y20272500D03*
G04 #@! TO.P,U5,27,HPR*
G04 #@! TO.N,Net-(U5-HPR)*
X83697500Y20772500D03*
G04 #@! TO.P,U5,28,DVSS*
G04 #@! TO.N,GND*
X83697500Y21272500D03*
G04 #@! TO.P,U5,29,DVDD*
G04 #@! TO.N,Net-(J2-Pin_1)*
X83697500Y21772500D03*
G04 #@! TO.P,U5,30,LDO_SELECT*
G04 #@! TO.N,Net-(JP1-B)*
X83697500Y22272500D03*
G04 #@! TO.P,U5,31,RESET_N*
G04 #@! TO.N,/CODEC_RESET*
X83697500Y22772500D03*
G04 #@! TO.P,U5,32,GPIO_MFP5*
G04 #@! TO.N,/GPIO*
X83697500Y23272500D03*
D32*
G04 #@! TO.P,U5,33,PAD*
G04 #@! TO.N,GND*
X82260000Y22522500D03*
X81260000Y22522500D03*
X80260000Y22522500D03*
X82260000Y21522500D03*
X81260000Y21522500D03*
D33*
X81260000Y21522500D03*
D32*
X80260000Y21522500D03*
X82260000Y20522500D03*
X81260000Y20522500D03*
X80260000Y20522500D03*
G04 #@! TD*
D15*
G04 #@! TO.P,C17,1*
G04 #@! TO.N,Net-(U5-HPL)*
X81985000Y7295000D03*
G04 #@! TO.P,C17,2*
G04 #@! TO.N,Net-(J6-Pin_1)*
X81985000Y4395000D03*
G04 #@! TD*
D34*
G04 #@! TO.P,C303,1*
G04 #@! TO.N,/Vmotor*
X36780000Y34810000D03*
G04 #@! TO.P,C303,2*
G04 #@! TO.N,GND*
X34880000Y34810000D03*
G04 #@! TD*
D10*
G04 #@! TO.P,C7,1*
G04 #@! TO.N,/INL*
X76250000Y21550000D03*
G04 #@! TO.P,C7,2*
G04 #@! TO.N,GNDA*
X74550000Y21550000D03*
G04 #@! TD*
D13*
G04 #@! TO.P,TP6,1,1*
G04 #@! TO.N,/IN3_R*
X77940000Y2430000D03*
G04 #@! TD*
D10*
G04 #@! TO.P,C29,1*
G04 #@! TO.N,/V_USB*
X117100000Y20070000D03*
G04 #@! TO.P,C29,2*
G04 #@! TO.N,GND*
X117100000Y21770000D03*
G04 #@! TD*
D15*
G04 #@! TO.P,C37,1*
G04 #@! TO.N,+3V3*
X78840000Y48922500D03*
G04 #@! TO.P,C37,2*
G04 #@! TO.N,GND*
X78840000Y46022500D03*
G04 #@! TD*
D10*
G04 #@! TO.P,R25,1*
G04 #@! TO.N,+3V3*
X91830000Y42040000D03*
G04 #@! TO.P,R25,2*
G04 #@! TO.N,Net-(V11-FB)*
X90130000Y42040000D03*
G04 #@! TD*
D13*
G04 #@! TO.P,TP11,1,1*
G04 #@! TO.N,/GPIO*
X84620000Y28320000D03*
G04 #@! TD*
D10*
G04 #@! TO.P,C33,1*
G04 #@! TO.N,+3V3*
X62570000Y40840000D03*
G04 #@! TO.P,C33,2*
G04 #@! TO.N,GND*
X62570000Y39140000D03*
G04 #@! TD*
G04 #@! TO.P,C26,1*
G04 #@! TO.N,/LINEOUT_L*
X93700120Y15961751D03*
G04 #@! TO.P,C26,2*
G04 #@! TO.N,Net-(C26-Pad2)*
X93700120Y14261751D03*
G04 #@! TD*
G04 #@! TO.P,C21,1*
G04 #@! TO.N,/LINEOUT_R*
X107790000Y16044092D03*
G04 #@! TO.P,C21,2*
G04 #@! TO.N,Net-(C21-Pad2)*
X107790000Y14344092D03*
G04 #@! TD*
G04 #@! TO.P,R10,1*
G04 #@! TO.N,/INL*
X60090000Y19090000D03*
G04 #@! TO.P,R10,2*
G04 #@! TO.N,Net-(C19-Pad1)*
X58390000Y19090000D03*
G04 #@! TD*
D35*
G04 #@! TO.P,JP1,1,A*
G04 #@! TO.N,GND*
X90512000Y20730000D03*
G04 #@! TO.P,JP1,2,B*
G04 #@! TO.N,Net-(JP1-B)*
X88990540Y20730000D03*
G04 #@! TD*
D36*
G04 #@! TO.P,NT11,1,1*
G04 #@! TO.N,ADCGND*
X44720000Y36270000D03*
G04 #@! TO.P,NT11,2,2*
G04 #@! TO.N,GND*
X44720000Y35770000D03*
G04 #@! TD*
D13*
G04 #@! TO.P,TP3,1,1*
G04 #@! TO.N,/INL*
X59990000Y22340000D03*
G04 #@! TD*
G04 #@! TO.P,J8,1,Pin_1*
G04 #@! TO.N,GND*
X22430000Y9120000D03*
G04 #@! TO.P,J8,2,Pin_2*
G04 #@! TO.N,Net-(J4-Shield1)*
X22430000Y6580000D03*
G04 #@! TD*
D37*
G04 #@! TO.P,V11,1,GND*
G04 #@! TO.N,GND*
X85442850Y45620000D03*
G04 #@! TO.P,V11,2,SW*
G04 #@! TO.N,Net-(V11-SW)*
X85442850Y44670000D03*
G04 #@! TO.P,V11,3,IN*
G04 #@! TO.N,/V_USB*
X85442850Y43720000D03*
G04 #@! TO.P,V11,4,FB*
G04 #@! TO.N,Net-(V11-FB)*
X88062850Y43720000D03*
G04 #@! TO.P,V11,5,EN*
G04 #@! TO.N,Net-(V11-EN)*
X88062850Y44670000D03*
G04 #@! TO.P,V11,6,BST*
G04 #@! TO.N,Net-(V11-BST)*
X88062850Y45620000D03*
G04 #@! TD*
D10*
G04 #@! TO.P,C11,1*
G04 #@! TO.N,+3V3*
X80680000Y25700000D03*
G04 #@! TO.P,C11,2*
G04 #@! TO.N,GND*
X78980000Y25700000D03*
G04 #@! TD*
G04 #@! TO.P,R8,1*
G04 #@! TO.N,/SAI_FS*
X75390000Y33750000D03*
G04 #@! TO.P,R8,2*
G04 #@! TO.N,Net-(U5-WCLK)*
X77090000Y33750000D03*
G04 #@! TD*
D13*
G04 #@! TO.P,TP14,1,1*
G04 #@! TO.N,/IN2_R*
X75400000Y4970000D03*
G04 #@! TD*
D10*
G04 #@! TO.P,R2,1*
G04 #@! TO.N,/SAI_SD_A*
X75370000Y32130000D03*
G04 #@! TO.P,R2,2*
G04 #@! TO.N,Net-(U5-DIN_MFP1)*
X77070000Y32130000D03*
G04 #@! TD*
D34*
G04 #@! TO.P,C6,1*
G04 #@! TO.N,/Vmotor*
X36720000Y32900000D03*
G04 #@! TO.P,C6,2*
G04 #@! TO.N,GND*
X34820000Y32900000D03*
G04 #@! TD*
D10*
G04 #@! TO.P,C31,1*
G04 #@! TO.N,/Slider_ADC*
X29430000Y42060000D03*
G04 #@! TO.P,C31,2*
G04 #@! TO.N,+3V3REF*
X29430000Y40360000D03*
G04 #@! TD*
D38*
G04 #@! TO.P,U112,1,SW*
G04 #@! TO.N,Net-(U112-SW)*
X34685000Y38567500D03*
G04 #@! TO.P,U112,2,GND*
G04 #@! TO.N,GND*
X34685000Y37617500D03*
G04 #@! TO.P,U112,3,FB*
G04 #@! TO.N,Net-(U112-FB)*
X34685000Y36667500D03*
G04 #@! TO.P,U112,4,EN*
G04 #@! TO.N,/V_USB*
X36960000Y36667500D03*
G04 #@! TO.P,U112,5,VOUT*
G04 #@! TO.N,/Vmotor*
X36960000Y37617500D03*
G04 #@! TO.P,U112,6,VI*
G04 #@! TO.N,/V_USB*
X36960000Y38567500D03*
G04 #@! TD*
D10*
G04 #@! TO.P,C27,1*
G04 #@! TO.N,/DVDD*
X104425000Y24810000D03*
G04 #@! TO.P,C27,2*
G04 #@! TO.N,GND*
X104425000Y26510000D03*
G04 #@! TD*
G04 #@! TO.P,R1,1*
G04 #@! TO.N,Net-(J4-Shield1)*
X19980000Y7220000D03*
G04 #@! TO.P,R1,2*
G04 #@! TO.N,GND*
X19980000Y8920000D03*
G04 #@! TD*
G04 #@! TO.P,R5,1*
G04 #@! TO.N,Net-(U112-FB)*
X31782500Y36167500D03*
G04 #@! TO.P,R5,2*
G04 #@! TO.N,GND*
X31782500Y37867500D03*
G04 #@! TD*
D39*
G04 #@! TO.P,U7,1,IN1*
G04 #@! TO.N,/MOT+*
X33962500Y30150000D03*
G04 #@! TO.P,U7,2,IN2*
G04 #@! TO.N,/MOT-*
X33962500Y30650000D03*
G04 #@! TO.P,U7,3,GND*
G04 #@! TO.N,GND*
X33962500Y31150000D03*
G04 #@! TO.P,U7,4,OUT2*
G04 #@! TO.N,Net-(U7-OUT2)*
X32537500Y31150000D03*
G04 #@! TO.P,U7,5,VM*
G04 #@! TO.N,/Vmotor*
X32537500Y30650000D03*
G04 #@! TO.P,U7,6,OUT1*
G04 #@! TO.N,Net-(U7-OUT1)*
X32537500Y30150000D03*
G04 #@! TD*
D40*
G04 #@! TO.P,C38,1*
G04 #@! TO.N,+3V3*
X83420000Y48912500D03*
G04 #@! TO.P,C38,2*
G04 #@! TO.N,GND*
X83420000Y47012500D03*
G04 #@! TD*
D41*
G04 #@! TO.P,C300,1*
G04 #@! TO.N,/V_USB*
X38832500Y39952500D03*
G04 #@! TO.P,C300,2*
G04 #@! TO.N,GND*
X38832500Y38982500D03*
G04 #@! TD*
D42*
G04 #@! TO.P,X10,1,1*
G04 #@! TO.N,/XTAL2*
X56676000Y44377500D03*
G04 #@! TO.P,X10,2,2*
G04 #@! TO.N,/XTAL1*
X58776000Y45877500D03*
G04 #@! TO.P,X10,3,3*
G04 #@! TO.N,unconnected-(X10-Pad3)*
X58776000Y44377500D03*
G04 #@! TO.P,X10,4,4*
G04 #@! TO.N,unconnected-(X10-Pad4)*
X56676000Y45877500D03*
G04 #@! TD*
D10*
G04 #@! TO.P,R7,1*
G04 #@! TO.N,/SAI_SCK*
X75370000Y35380000D03*
G04 #@! TO.P,R7,2*
G04 #@! TO.N,Net-(U5-BCLK)*
X77070000Y35380000D03*
G04 #@! TD*
D24*
G04 #@! TO.P,U4,1,IN*
G04 #@! TO.N,/V_USB*
X114960000Y19270000D03*
G04 #@! TO.P,U4,2,GND*
G04 #@! TO.N,GND*
X114960000Y20220000D03*
G04 #@! TO.P,U4,3,EN*
G04 #@! TO.N,/V_USB*
X114960000Y21170000D03*
G04 #@! TO.P,U4,4,NC*
G04 #@! TO.N,unconnected-(U4-NC-Pad4)*
X112760000Y21170000D03*
G04 #@! TO.P,U4,5,OUT*
G04 #@! TO.N,/AVDD*
X112760000Y19270000D03*
G04 #@! TD*
D43*
G04 #@! TO.P,POT1,1,Left*
G04 #@! TO.N,+3V3REF*
X24490000Y39565000D03*
G04 #@! TO.P,POT1,1',Left*
G04 #@! TO.N,unconnected-(POT1B-Left-Pad1&apos;)*
X24490000Y35815000D03*
G04 #@! TO.P,POT1,2,Center*
G04 #@! TO.N,/Slider_ADC*
X24490000Y43315000D03*
G04 #@! TO.P,POT1,2',Center*
G04 #@! TO.N,unconnected-(POT1B-Center-Pad2&apos;)*
X24490000Y32065000D03*
G04 #@! TO.P,POT1,3,Right*
G04 #@! TO.N,ADCGND*
X111990000Y43315000D03*
G04 #@! TO.P,POT1,3',Right*
G04 #@! TO.N,unconnected-(POT1B-Right-Pad3&apos;)*
X111990000Y32065000D03*
G04 #@! TO.P,POT1,MOTORA,MOTORA*
G04 #@! TO.N,Net-(U7-OUT1)*
X20240000Y16690000D03*
G04 #@! TO.P,POT1,MOTORB,MOTORB*
G04 #@! TO.N,Net-(U7-OUT2)*
X7840000Y16690000D03*
D44*
G04 #@! TO.P,POT1,S1,GND*
G04 #@! TO.N,GND*
X94090000Y37690000D03*
G04 #@! TO.P,POT1,S2,GND*
X42390000Y37690000D03*
D43*
G04 #@! TO.P,POT1,T,Touch*
G04 #@! TO.N,unconnected-(POT1D-Touch-PadT)*
X111990000Y39565000D03*
G04 #@! TD*
D45*
G04 #@! TO.P,U2,1,OUT*
G04 #@! TO.N,/IR_DEMOD*
X121090000Y50280000D03*
D46*
G04 #@! TO.P,U2,2,GND*
G04 #@! TO.N,GND*
X123630000Y50280000D03*
G04 #@! TO.P,U2,3,Vs*
G04 #@! TO.N,+3V3*
X126170000Y50280000D03*
G04 #@! TD*
D47*
G04 #@! TO.P,J7,S1*
G04 #@! TO.N,GNDA*
X116690000Y8910000D03*
D44*
X114490000Y5310000D03*
G04 #@! TO.P,J7,S2*
X100490000Y5310000D03*
D47*
X90790000Y8910000D03*
D48*
G04 #@! TO.P,J7,T1*
G04 #@! TO.N,Net-(C22-Pad1)*
X114490000Y12660000D03*
G04 #@! TO.P,J7,T2*
G04 #@! TO.N,Net-(C23-Pad1)*
X100490000Y12660000D03*
G04 #@! TD*
D47*
G04 #@! TO.P,J5,S1*
G04 #@! TO.N,GNDA*
X71040000Y8910000D03*
D44*
X68840000Y5310000D03*
G04 #@! TO.P,J5,S2*
X54840000Y5310000D03*
D47*
X45140000Y8910000D03*
D48*
G04 #@! TO.P,J5,T1*
G04 #@! TO.N,Net-(C20-Pad2)*
X68840000Y12660000D03*
G04 #@! TO.P,J5,T2*
G04 #@! TO.N,Net-(C19-Pad2)*
X54840000Y12660000D03*
G04 #@! TD*
D49*
G04 #@! TO.N,+3V3*
X86871251Y31744008D03*
X91760000Y23330000D03*
X60010000Y28570000D03*
X80750000Y26740000D03*
X87160000Y36080000D03*
X87090000Y34620000D03*
X56840000Y38260000D03*
X77280000Y45410000D03*
X58871250Y40081250D03*
X77280000Y46760000D03*
G04 #@! TO.N,GND*
X48730000Y44750000D03*
X34150000Y7700000D03*
X55630000Y35610000D03*
X86170000Y32010000D03*
X109670000Y21260000D03*
X59290000Y43047500D03*
X32860000Y8370000D03*
X88700000Y18390000D03*
X96660000Y30490000D03*
X29712500Y4605000D03*
X56006000Y43037500D03*
X80430000Y27440000D03*
X116300000Y50140000D03*
X72850000Y24840000D03*
X34950000Y31140000D03*
X86290000Y40250000D03*
X34030000Y32460000D03*
X35655000Y37310000D03*
X54351379Y36778621D03*
X86450000Y36685000D03*
X29970000Y8070000D03*
X82920000Y42740000D03*
X79690000Y45190000D03*
X58670000Y43047500D03*
X55710000Y38780000D03*
X86260000Y34710000D03*
X38782500Y38097500D03*
X33572500Y37617500D03*
X91990000Y21370000D03*
G04 #@! TO.N,ADCGND*
X66220000Y40650000D03*
X47380000Y33460000D03*
X49741232Y36271232D03*
G04 #@! TO.N,/V_USB*
X38860000Y36360000D03*
X97750000Y26340000D03*
X32090000Y8010000D03*
X97660000Y28850000D03*
X83320000Y33430000D03*
X115880000Y23210000D03*
X37720000Y36080000D03*
X84390000Y33270000D03*
X83230000Y39880000D03*
X44520000Y39840000D03*
X29580000Y10460000D03*
G04 #@! TO.N,GNDA*
X69900000Y18190000D03*
X87010000Y16710000D03*
X72940000Y20580000D03*
X78000000Y15390000D03*
X84770000Y8910000D03*
X86530000Y26700000D03*
G04 #@! TO.N,/I2C_SCL*
X74790000Y26550000D03*
X72290000Y34510000D03*
G04 #@! TO.N,/I2C_SDA*
X70940000Y36385000D03*
X73950000Y26490000D03*
G04 #@! TO.N,/SAI_FS*
X63020000Y34470000D03*
X62770000Y36840000D03*
G04 #@! TO.N,/SAI_SD_A*
X62620000Y32200000D03*
X56320000Y33830000D03*
G04 #@! TO.N,/SAI_SD_B*
X61570000Y36460000D03*
X62070000Y34270000D03*
G04 #@! TO.N,/VLDO*
X86100000Y23680000D03*
X84660000Y19600000D03*
G04 #@! TO.N,Net-(U5-HPL)*
X84040000Y14190000D03*
X84630000Y18660000D03*
G04 #@! TO.N,Net-(U5-HPR)*
X85070000Y20250000D03*
X85870000Y13750000D03*
G04 #@! TD*
D50*
G04 #@! TO.N,GND*
X34520000Y12440000D02*
X35246000Y11714000D01*
X35246000Y8706000D02*
X34240000Y7700000D01*
X35246000Y11714000D02*
X35246000Y8706000D01*
X34240000Y7700000D02*
X34150000Y7700000D01*
G04 #@! TO.N,Net-(J4-CC2)*
X31440000Y6550000D02*
X31440000Y8530000D01*
X31440000Y8530000D02*
X33650000Y10740000D01*
X33650000Y10740000D02*
X34520000Y10740000D01*
G04 #@! TO.N,GND*
X21590000Y13300000D02*
X21590000Y9960000D01*
X21590000Y9960000D02*
X22430000Y9120000D01*
G04 #@! TO.N,Net-(J4-CC1)*
X28440000Y6550000D02*
X28440000Y7580000D01*
X28440000Y7580000D02*
X23290000Y12730000D01*
X23290000Y12730000D02*
X23290000Y13300000D01*
G04 #@! TO.N,+3V3*
X91830000Y42040000D02*
X91830000Y50170000D01*
X78310000Y50590000D02*
X78310000Y49800000D01*
X84800000Y36160000D02*
X86530000Y36160000D01*
X58871250Y40081250D02*
X59592500Y39360000D01*
X58180000Y31540000D02*
X59900000Y29820000D01*
X91830000Y50310000D02*
X91660000Y50480000D01*
X81210000Y48832500D02*
X83340000Y48832500D01*
X62570000Y40840000D02*
X61072500Y40840000D01*
X91660000Y50480000D02*
X90460000Y51680000D01*
X56840000Y37870000D02*
X56840000Y38260000D01*
X52830000Y33860000D02*
X55500000Y36530000D01*
X78370000Y49740000D02*
X78370000Y49392500D01*
X90460000Y51680000D02*
X79400000Y51680000D01*
X70652500Y48922500D02*
X62570000Y40840000D01*
X85320000Y49190000D02*
X83697500Y49190000D01*
X78370000Y49392500D02*
X78840000Y48922500D01*
X78840000Y48922500D02*
X81120000Y48922500D01*
X58180000Y32447500D02*
X58180000Y33850000D01*
X78840000Y48922500D02*
X70652500Y48922500D01*
X118080000Y48080000D02*
X117500000Y48660000D01*
X58180000Y32447500D02*
X58180000Y31540000D01*
X59900000Y29820000D02*
X59900000Y28680000D01*
X59900000Y28680000D02*
X60010000Y28570000D01*
X87090000Y34620000D02*
X87090000Y31962757D01*
X91660000Y50480000D02*
X93560000Y48580000D01*
X55500000Y36530000D02*
X56840000Y37870000D01*
X86530000Y36160000D02*
X87080000Y36160000D01*
X58180000Y40772500D02*
X58871250Y40081250D01*
X83340000Y48832500D02*
X83420000Y48912500D01*
X126170000Y50280000D02*
X123970000Y48080000D01*
X78310000Y49800000D02*
X78370000Y49740000D01*
X78840000Y48922500D02*
X78840000Y48320000D01*
X123970000Y48080000D02*
X118080000Y48080000D01*
X49370000Y32240000D02*
X49647500Y32240000D01*
X77280000Y45410000D02*
X77280000Y43680000D01*
X51267500Y33860000D02*
X52830000Y33860000D01*
X91280000Y22850000D02*
X91760000Y23330000D01*
X80510000Y23960000D02*
X80510000Y25530000D01*
X117420000Y48580000D02*
X117500000Y48660000D01*
X90620000Y22850000D02*
X91280000Y22850000D01*
X87080000Y36160000D02*
X87160000Y36080000D01*
X78840000Y48320000D02*
X77280000Y46760000D01*
X80510000Y25530000D02*
X80680000Y25700000D01*
X77280000Y43680000D02*
X84010000Y36950000D01*
X79400000Y51680000D02*
X78310000Y50590000D01*
X61072500Y40840000D02*
X59592500Y39360000D01*
X58180000Y33850000D02*
X55500000Y36530000D01*
X80680000Y25700000D02*
X80680000Y26670000D01*
X84010000Y36950000D02*
X84800000Y36160000D01*
X81120000Y48922500D02*
X81210000Y48832500D01*
X83697500Y49190000D02*
X83420000Y48912500D01*
X87090000Y31962757D02*
X86871251Y31744008D01*
X49647500Y32240000D02*
X51267500Y33860000D01*
X91830000Y50170000D02*
X91830000Y50310000D01*
X80680000Y26670000D02*
X80750000Y26740000D01*
X93560000Y48580000D02*
X117420000Y48580000D01*
G04 #@! TO.N,GND*
X105355000Y25580000D02*
X108325000Y25580000D01*
X93680000Y26070000D02*
X93680000Y26600000D01*
D51*
X38832500Y38147500D02*
X38782500Y38097500D01*
D50*
X86170000Y32010000D02*
X86170000Y34620000D01*
X55710000Y38137242D02*
X54351379Y36778621D01*
X54351379Y36778621D02*
X51932758Y34360000D01*
X58670000Y43047500D02*
X58066000Y43047500D01*
D51*
X34685000Y37617500D02*
X33572500Y37617500D01*
D50*
X98590000Y26510000D02*
X97700000Y27400000D01*
X108325000Y25580000D02*
X108835000Y25580000D01*
X80010000Y23960000D02*
X80010000Y22772500D01*
X20270000Y9210000D02*
X22340000Y9210000D01*
X44310000Y35770000D02*
X42390000Y37690000D01*
X91230000Y26270000D02*
X91230000Y26450000D01*
X110880000Y21070000D02*
X111730000Y20220000D01*
X110690000Y21260000D02*
X110880000Y21070000D01*
X29712500Y4677500D02*
X29745000Y4710000D01*
X90512000Y20730000D02*
X91350000Y20730000D01*
X117280000Y50140000D02*
X117500000Y50360000D01*
X109670000Y21260000D02*
X110690000Y21260000D01*
X26490000Y5825000D02*
X26490000Y6550000D01*
X59592500Y38860000D02*
X62290000Y38860000D01*
X44720000Y35770000D02*
X44310000Y35770000D01*
X96720000Y28380000D02*
X96720000Y30290000D01*
X91350000Y20730000D02*
X91990000Y21370000D01*
X58066000Y43047500D02*
X60036000Y43047500D01*
X55710000Y38780000D02*
X55790000Y38860000D01*
X54556000Y43807500D02*
X54172500Y43807500D01*
X57680000Y30340000D02*
X57680000Y32447500D01*
X62570000Y39140000D02*
X69452500Y46022500D01*
X61176000Y46887500D02*
X61662000Y46401500D01*
X82920000Y43820000D02*
X83210000Y44110000D01*
D51*
X35347499Y37617500D02*
X35655000Y37310000D01*
X34880000Y34810000D02*
X35195000Y34810000D01*
X32860000Y6580000D02*
X32890000Y6550000D01*
D50*
X78840000Y46022500D02*
X78857500Y46022500D01*
D51*
X38832500Y38982500D02*
X38832500Y38147500D01*
D50*
X91230000Y26450000D02*
X92530000Y27750000D01*
X29877500Y8162500D02*
X29970000Y8070000D01*
X90334000Y25700000D02*
X90932000Y25700000D01*
X82340000Y45932500D02*
X83420000Y47012500D01*
X19980000Y8920000D02*
X20270000Y9210000D01*
X55790000Y38860000D02*
X59592500Y38860000D01*
X27710000Y4605000D02*
X26490000Y5825000D01*
X115640000Y20220000D02*
X114960000Y20220000D01*
D51*
X34030000Y32460000D02*
X34030000Y33300000D01*
X34820000Y32900000D02*
X34832500Y32912500D01*
X32860000Y8370000D02*
X32860000Y6580000D01*
D50*
X58200000Y27545000D02*
X58790000Y26955000D01*
X84050350Y47012500D02*
X83420000Y47012500D01*
X117100000Y21680000D02*
X115640000Y20220000D01*
X56006000Y43037500D02*
X55236000Y43807500D01*
X29712500Y4605000D02*
X29712500Y4677500D01*
X69452500Y46022500D02*
X78840000Y46022500D01*
D51*
X34880000Y34495000D02*
X34880000Y34810000D01*
X34832500Y34447500D02*
X34880000Y34495000D01*
D50*
X104425000Y26510000D02*
X98590000Y26510000D01*
X73720000Y23970000D02*
X72850000Y24840000D01*
X33000000Y6550000D02*
X34150000Y7700000D01*
X54484000Y46887500D02*
X61176000Y46887500D01*
X104425000Y26510000D02*
X105355000Y25580000D01*
X29745000Y4710000D02*
X32130000Y4710000D01*
X86170000Y34620000D02*
X86260000Y34710000D01*
X97700000Y27400000D02*
X96720000Y28380000D01*
X22340000Y9210000D02*
X22430000Y9120000D01*
X32890000Y6550000D02*
X33000000Y6550000D01*
X122130000Y48760000D02*
X119100000Y48760000D01*
X88250000Y40210000D02*
X86330000Y40210000D01*
X80010000Y22772500D02*
X81260000Y21522500D01*
X32890000Y5470000D02*
X32890000Y6550000D01*
X83210000Y44110000D02*
X84720000Y45620000D01*
D51*
X34832500Y32912500D02*
X34832500Y33470000D01*
D50*
X117100000Y21770000D02*
X117100000Y21680000D01*
D51*
X34832500Y33470000D02*
X34832500Y34447500D01*
D50*
X122130000Y48780000D02*
X123630000Y50280000D01*
X78840000Y46022500D02*
X78840000Y42720000D01*
X80010000Y24670000D02*
X78980000Y25700000D01*
X93680000Y26070000D02*
X96370000Y26070000D01*
X122130000Y48760000D02*
X122130000Y48780000D01*
X90110000Y25924000D02*
X90334000Y25700000D01*
X89490000Y27480000D02*
X90110000Y26860000D01*
X86330000Y40210000D02*
X86290000Y40250000D01*
X80740000Y40820000D02*
X84980000Y36580000D01*
X49790000Y34360000D02*
X49370000Y33940000D01*
X86550000Y20070000D02*
X86070000Y20070000D01*
X60036000Y43047500D02*
X60936000Y43947500D01*
X57680000Y32447500D02*
X57680000Y33560000D01*
X33962500Y31150000D02*
X34940000Y31150000D01*
X57680000Y33560000D02*
X55630000Y35610000D01*
X82920000Y42740000D02*
X82920000Y43820000D01*
X58200000Y29820000D02*
X57680000Y30340000D01*
X84980000Y36580000D02*
X86450000Y36580000D01*
X93680000Y26600000D02*
X92530000Y27750000D01*
X29877500Y9272500D02*
X29877500Y8162500D01*
D51*
X34030000Y33300000D02*
X34200000Y33470000D01*
D50*
X53830000Y44150000D02*
X53830000Y46233500D01*
X78980000Y25700000D02*
X78980000Y25990000D01*
X96370000Y26070000D02*
X97700000Y27400000D01*
X51267500Y34360000D02*
X49790000Y34360000D01*
X90110000Y26860000D02*
X90110000Y25924000D01*
D51*
X34685000Y37617500D02*
X35347499Y37617500D01*
D50*
X87020000Y20070000D02*
X88700000Y18390000D01*
X111730000Y20220000D02*
X114960000Y20220000D01*
X84720000Y45620000D02*
X85442850Y45620000D01*
D51*
X35195000Y34810000D02*
X35832500Y35447500D01*
D50*
X85442850Y45620000D02*
X84050350Y47012500D01*
X81210000Y45932500D02*
X82340000Y45932500D01*
X90932000Y25700000D02*
X91230000Y25998000D01*
X84867500Y21272500D02*
X83697500Y21272500D01*
X81210000Y45932500D02*
X78930000Y45932500D01*
X32130000Y4710000D02*
X32890000Y5470000D01*
X37320000Y44985000D02*
X44940000Y44985000D01*
X119100000Y48760000D02*
X117500000Y50360000D01*
X34940000Y31150000D02*
X34950000Y31140000D01*
X78857500Y46022500D02*
X79690000Y45190000D01*
X96720000Y30430000D02*
X96660000Y30490000D01*
X54172500Y43807500D02*
X53830000Y44150000D01*
D51*
X34200000Y33470000D02*
X34832500Y33470000D01*
X35832500Y37132499D02*
X35655000Y37310000D01*
D50*
X108835000Y25580000D02*
X110575000Y27320000D01*
X59290000Y43047500D02*
X58066000Y43047500D01*
X82510000Y21272500D02*
X82260000Y21522500D01*
X44940000Y44985000D02*
X48495000Y44985000D01*
X29712500Y4605000D02*
X27710000Y4605000D01*
X51932758Y34360000D02*
X51267500Y34360000D01*
X62290000Y38860000D02*
X62570000Y39140000D01*
X53830000Y46233500D02*
X54484000Y46887500D01*
X91230000Y25998000D02*
X91230000Y26450000D01*
X61662000Y46401500D02*
X61662000Y44673500D01*
X55710000Y38780000D02*
X55710000Y38137242D01*
X74420000Y23970000D02*
X73720000Y23970000D01*
D51*
X31782500Y37867500D02*
X32032500Y37617500D01*
D50*
X116300000Y50140000D02*
X117280000Y50140000D01*
D51*
X35832500Y35447500D02*
X35832500Y37132499D01*
D50*
X80010000Y23960000D02*
X80010000Y24670000D01*
X96720000Y30290000D02*
X96720000Y30430000D01*
X48495000Y44985000D02*
X48730000Y44750000D01*
X61662000Y44673500D02*
X60936000Y43947500D01*
X78980000Y25990000D02*
X80430000Y27440000D01*
X58200000Y29820000D02*
X58200000Y27545000D01*
X55236000Y43807500D02*
X54556000Y43807500D01*
X83697500Y21272500D02*
X82510000Y21272500D01*
X86550000Y20070000D02*
X87020000Y20070000D01*
X78930000Y45932500D02*
X78840000Y46022500D01*
X78840000Y42720000D02*
X80740000Y40820000D01*
D51*
X32032500Y37617500D02*
X33572500Y37617500D01*
D50*
X86070000Y20070000D02*
X84867500Y21272500D01*
G04 #@! TO.N,+3V3REF*
X48990000Y41030000D02*
X48330000Y41690000D01*
X49910000Y35360000D02*
X48990000Y36280000D01*
X25285000Y40360000D02*
X24490000Y39565000D01*
X45750000Y32640000D02*
X45680000Y32570000D01*
X30080000Y40360000D02*
X29430000Y40360000D01*
X45750000Y34360000D02*
X45750000Y32640000D01*
X48106000Y31844000D02*
X48430000Y32168000D01*
X24490000Y39565000D02*
X28635000Y39565000D01*
X48430000Y32168000D02*
X48430000Y35720000D01*
X45680000Y32570000D02*
X46406000Y31844000D01*
X48330000Y41690000D02*
X31410000Y41690000D01*
X46406000Y31844000D02*
X48106000Y31844000D01*
X48430000Y35720000D02*
X48990000Y36280000D01*
X31410000Y41690000D02*
X30080000Y40360000D01*
X51267500Y35360000D02*
X51267500Y35860000D01*
X45850000Y35977500D02*
X45850000Y34460000D01*
X45850000Y34460000D02*
X45750000Y34360000D01*
X28635000Y39565000D02*
X29217161Y40147161D01*
X48990000Y36280000D02*
X48990000Y41030000D01*
X51267500Y35360000D02*
X49910000Y35360000D01*
G04 #@! TO.N,ADCGND*
X50170000Y36360000D02*
X51267500Y36360000D01*
X50081232Y36271232D02*
X50170000Y36360000D01*
X77720000Y41190000D02*
X67000000Y41190000D01*
X104010000Y35335000D02*
X86001116Y35335000D01*
X67000000Y41190000D02*
X66640000Y40830000D01*
X66400000Y40830000D02*
X66220000Y40650000D01*
X47848980Y36927500D02*
X47848980Y34758980D01*
X44720000Y36630000D02*
X44720000Y36270000D01*
X45017500Y36927500D02*
X44720000Y36630000D01*
X47848980Y34758980D02*
X47450000Y34360000D01*
X86001116Y35335000D02*
X85806116Y35140000D01*
X47380000Y34290000D02*
X47450000Y34360000D01*
X66640000Y40830000D02*
X66400000Y40830000D01*
X83770000Y35140000D02*
X77720000Y41190000D01*
X49741232Y36271232D02*
X49470000Y36542464D01*
X111990000Y43315000D02*
X104010000Y35335000D01*
X49470000Y36542464D02*
X49470000Y41930000D01*
X47380000Y32570000D02*
X47380000Y34290000D01*
X47590000Y39777500D02*
X47590000Y37186480D01*
X47848980Y36927500D02*
X45017500Y36927500D01*
X49741232Y36271232D02*
X50081232Y36271232D01*
X47590000Y37186480D02*
X47848980Y36927500D01*
X47450000Y33530000D02*
X47450000Y34360000D01*
X49470000Y41930000D02*
X48420000Y42980000D01*
X47380000Y33460000D02*
X47450000Y33530000D01*
X85806116Y35140000D02*
X83770000Y35140000D01*
G04 #@! TO.N,/XTAL1*
X57850000Y43280000D02*
X57850000Y45178500D01*
X56180000Y40772500D02*
X56180000Y41610000D01*
X56180000Y41610000D02*
X57850000Y43280000D01*
X58549000Y45877500D02*
X58776000Y45877500D01*
X57850000Y45178500D02*
X58549000Y45877500D01*
X58776000Y45877500D02*
X60706000Y45877500D01*
X60706000Y45877500D02*
X60936000Y45647500D01*
G04 #@! TO.N,/XTAL2*
X56676000Y44377500D02*
X55686000Y44377500D01*
X56676000Y42734000D02*
X56676000Y44377500D01*
X56690000Y42640000D02*
X56690000Y42720000D01*
X55680000Y41630000D02*
X56690000Y42640000D01*
X55680000Y40772500D02*
X55680000Y41630000D01*
X56690000Y42720000D02*
X56676000Y42734000D01*
X56586000Y44287500D02*
X56676000Y44377500D01*
X55686000Y44377500D02*
X54556000Y45507500D01*
G04 #@! TO.N,/Slider_ADC*
X24490000Y43315000D02*
X28175000Y43315000D01*
X45960000Y42060000D02*
X47710000Y43810000D01*
X47710000Y43810000D02*
X49290000Y43810000D01*
X50070000Y37090000D02*
X50070000Y42930000D01*
X50070000Y42930000D02*
X50120000Y42980000D01*
X51267500Y36860000D02*
X50300000Y36860000D01*
X29430000Y42060000D02*
X45960000Y42060000D01*
X50300000Y36860000D02*
X50070000Y37090000D01*
X49290000Y43810000D02*
X50120000Y42980000D01*
X28175000Y43315000D02*
X29430000Y42060000D01*
G04 #@! TO.N,Net-(V11-SW)*
X88120000Y49190000D02*
X88640000Y49190000D01*
X88120000Y49190000D02*
X87226850Y48296850D01*
X88640000Y49190000D02*
X89990000Y47840000D01*
X86202850Y44670000D02*
X85442850Y44670000D01*
X87226850Y48296850D02*
X87226850Y45694000D01*
X87226850Y45694000D02*
X86202850Y44670000D01*
G04 #@! TO.N,Net-(V11-BST)*
X88582850Y46140000D02*
X88062850Y45620000D01*
X89990000Y46140000D02*
X88582850Y46140000D01*
G04 #@! TO.N,/V_USB*
X91620000Y39240000D02*
X92930000Y40550000D01*
X108325000Y24630000D02*
X109585000Y24630000D01*
X29645000Y10460000D02*
X29877500Y10692500D01*
X45890000Y39777500D02*
X44582500Y39777500D01*
X27290000Y5630000D02*
X27790000Y5130000D01*
D51*
X37475000Y39952500D02*
X36890000Y40537500D01*
D50*
X37132500Y36667500D02*
X37720000Y36080000D01*
X118130000Y20070000D02*
X117100000Y20070000D01*
X118170000Y20110000D02*
X118130000Y20070000D01*
X110175000Y28460000D02*
X98050000Y28460000D01*
X91980000Y24370000D02*
X91880000Y24470000D01*
X83230000Y39880000D02*
X83230000Y40500000D01*
X108325000Y26610000D02*
X110175000Y28460000D01*
D51*
X39580000Y37060000D02*
X38880000Y36360000D01*
D50*
X83210000Y41487150D02*
X85442850Y43720000D01*
X83210000Y41210000D02*
X83210000Y41487150D01*
X98050000Y28460000D02*
X97660000Y28850000D01*
X36960000Y36667500D02*
X37132500Y36667500D01*
X27290000Y6550000D02*
X27290000Y5630000D01*
X95780000Y24370000D02*
X97750000Y26340000D01*
X83230000Y39880000D02*
X83870000Y39240000D01*
X116160000Y23210000D02*
X115880000Y23210000D01*
X116580000Y22790000D02*
X116160000Y23210000D01*
X93680000Y24370000D02*
X91980000Y24370000D01*
X83320000Y33430000D02*
X84230000Y33430000D01*
X31410000Y5130000D02*
X32090000Y5810000D01*
X92930000Y43880000D02*
X92710000Y44100000D01*
X92710000Y44100000D02*
X92710000Y44340000D01*
X116580000Y22790000D02*
X118050000Y22790000D01*
X111595000Y25950000D02*
X111265000Y25620000D01*
D51*
X38880000Y36360000D02*
X38860000Y36360000D01*
D50*
X27790000Y5130000D02*
X31410000Y5130000D01*
X108325000Y26530000D02*
X108325000Y26610000D01*
X84270000Y39240000D02*
X91620000Y39240000D01*
X114960000Y21170000D02*
X116580000Y22790000D01*
D51*
X36890000Y40537500D02*
X36890000Y38637500D01*
X38832500Y39952500D02*
X39580000Y39205000D01*
D50*
X29580000Y10460000D02*
X29645000Y10460000D01*
X118050000Y22790000D02*
X118105000Y22735000D01*
X83230000Y40500000D02*
X83210000Y40520000D01*
X44582500Y39777500D02*
X44520000Y39840000D01*
X118105000Y22735000D02*
X118170000Y22670000D01*
X45850000Y39737500D02*
X45890000Y39777500D01*
X111265000Y25620000D02*
X110575000Y25620000D01*
X83870000Y39240000D02*
X84270000Y39240000D01*
X111335000Y28460000D02*
X111595000Y28200000D01*
X111595000Y28200000D02*
X111595000Y25950000D01*
X93680000Y24370000D02*
X95780000Y24370000D01*
X32090000Y6550000D02*
X32090000Y8010000D01*
X92930000Y40550000D02*
X92930000Y43880000D01*
X45850000Y37877500D02*
X45850000Y39737500D01*
D51*
X39580000Y39205000D02*
X39580000Y37060000D01*
X38832500Y39952500D02*
X37475000Y39952500D01*
D50*
X32090000Y5810000D02*
X32090000Y6550000D01*
X109585000Y24630000D02*
X110575000Y25620000D01*
X91880000Y26270000D02*
X91880000Y24470000D01*
D51*
X36890000Y38637500D02*
X36960000Y38567500D01*
D50*
X116300000Y19270000D02*
X117100000Y20070000D01*
X110175000Y28460000D02*
X111335000Y28460000D01*
X118170000Y22670000D02*
X118170000Y20110000D01*
X114960000Y19270000D02*
X116300000Y19270000D01*
X84230000Y33430000D02*
X84390000Y33270000D01*
X29877500Y10692500D02*
X29877500Y11547500D01*
X83210000Y40520000D02*
X83210000Y41210000D01*
G04 #@! TO.N,GNDA*
X101966000Y6786000D02*
X100490000Y5310000D01*
X87350000Y26200000D02*
X87390000Y26160000D01*
X78490000Y16860000D02*
X79510000Y17880000D01*
X73570000Y19950000D02*
X72940000Y20580000D01*
X74550000Y19960000D02*
X74560000Y19950000D01*
X101966000Y14464000D02*
X101966000Y6786000D01*
X95660000Y9770000D02*
X91650000Y9770000D01*
X86750000Y16970000D02*
X86870000Y16850000D01*
X100490000Y5310000D02*
X114490000Y5310000D01*
X66830000Y15170000D02*
X66830000Y10270000D01*
X69300000Y17640000D02*
X69350000Y17640000D01*
X53230000Y17000000D02*
X45140000Y8910000D01*
X74550000Y21550000D02*
X74550000Y19960000D01*
X85755000Y16970000D02*
X86750000Y16970000D01*
X66830000Y10270000D02*
X68190000Y8910000D01*
X78080000Y16500000D02*
X78440000Y16860000D01*
X86270000Y26700000D02*
X85770000Y26200000D01*
X69300000Y17640000D02*
X66830000Y15170000D01*
X116690000Y7510000D02*
X114490000Y5310000D01*
X79510000Y17880000D02*
X79510000Y19085000D01*
X116990000Y14250000D02*
X116990000Y9210000D01*
X74560000Y19950000D02*
X73570000Y19950000D01*
X89200000Y27270000D02*
X88990000Y27480000D01*
X116990000Y9210000D02*
X116690000Y8910000D01*
X68840000Y5310000D02*
X54840000Y5310000D01*
X69350000Y17640000D02*
X69900000Y18190000D01*
X89200000Y26160000D02*
X89200000Y27270000D01*
X57890000Y17000000D02*
X53230000Y17000000D01*
X91650000Y9770000D02*
X90790000Y8910000D01*
X85770000Y26200000D02*
X87350000Y26200000D01*
X68190000Y8910000D02*
X71040000Y8910000D01*
X51240000Y8910000D02*
X54840000Y5310000D01*
X101400000Y15030000D02*
X101966000Y14464000D01*
X95660000Y9770000D02*
X96030000Y9770000D01*
X78440000Y16860000D02*
X78490000Y16860000D01*
X86870000Y16850000D02*
X87010000Y16710000D01*
X68840000Y5310000D02*
X71040000Y7510000D01*
X87390000Y26160000D02*
X89200000Y26160000D01*
X84560000Y8700000D02*
X84770000Y8910000D01*
X84560000Y1920000D02*
X84560000Y8700000D01*
X86530000Y26700000D02*
X86270000Y26700000D01*
X116690000Y8910000D02*
X116690000Y7510000D01*
X78170000Y15390000D02*
X78080000Y15480000D01*
X78000000Y15390000D02*
X78170000Y15390000D01*
X78080000Y15480000D02*
X78080000Y16500000D01*
X71040000Y7510000D02*
X71040000Y8910000D01*
X96030000Y9770000D02*
X100490000Y5310000D01*
X45140000Y8910000D02*
X51240000Y8910000D01*
G04 #@! TO.N,/DEBUG2*
X39860000Y48960000D02*
X39860000Y50035000D01*
X52680000Y40772500D02*
X52680000Y42296264D01*
X50970264Y44006000D02*
X50858264Y44006000D01*
X50858264Y44006000D02*
X47204264Y47660000D01*
X47204264Y47660000D02*
X41160000Y47660000D01*
X52680000Y42296264D02*
X50970264Y44006000D01*
X41160000Y47660000D02*
X39860000Y48960000D01*
G04 #@! TO.N,/DEBUG3*
X51640000Y39732500D02*
X51640000Y42912000D01*
X47050000Y47360000D02*
X38430000Y47360000D01*
X38430000Y47360000D02*
X37320000Y48470000D01*
X51267500Y39360000D02*
X51640000Y39732500D01*
X50704000Y43706000D02*
X47050000Y47360000D01*
X51640000Y42912000D02*
X50846000Y43706000D01*
X50846000Y43706000D02*
X50704000Y43706000D01*
X37320000Y48470000D02*
X37320000Y50035000D01*
G04 #@! TO.N,/UART_RX*
X53180000Y42378528D02*
X53180000Y40772500D01*
X49990000Y45320000D02*
X50238528Y45320000D01*
X47310000Y48000000D02*
X49990000Y45320000D01*
X42400000Y50035000D02*
X44435000Y48000000D01*
X44435000Y48000000D02*
X47310000Y48000000D01*
X50238528Y45320000D02*
X53180000Y42378528D01*
G04 #@! TO.N,/UART_TX*
X46067792Y50035000D02*
X44940000Y50035000D01*
X53680000Y40772500D02*
X53680000Y42422792D01*
X53680000Y42422792D02*
X46067792Y50035000D01*
G04 #@! TO.N,Net-(J4-Shield1)*
X21500000Y7510000D02*
X22430000Y6580000D01*
X19980000Y7220000D02*
X20270000Y7510000D01*
X20270000Y7510000D02*
X21500000Y7510000D01*
X34010000Y1975000D02*
X34010000Y5975000D01*
X25370000Y1975000D02*
X25370000Y5975000D01*
G04 #@! TO.N,/SWCLK*
X61330000Y33940000D02*
X61330000Y26955000D01*
X60910000Y34360000D02*
X61330000Y33940000D01*
X59592500Y34360000D02*
X60910000Y34360000D01*
G04 #@! TO.N,/SWDIO*
X59290000Y25770000D02*
X57435000Y25770000D01*
X59592500Y33860000D02*
X60850000Y32602500D01*
X60110000Y26590000D02*
X59290000Y25770000D01*
X60850000Y32602500D02*
X60850000Y28526116D01*
X60110000Y27786116D02*
X60110000Y26590000D01*
X57435000Y25770000D02*
X56250000Y26955000D01*
X60850000Y28526116D02*
X60110000Y27786116D01*
D51*
G04 #@! TO.N,Net-(U112-SW)*
X34685000Y38567500D02*
X35015000Y38897500D01*
X35015000Y38897500D02*
X35015000Y40537500D01*
D50*
G04 #@! TO.N,Net-(U7-OUT2)*
X30090000Y31150000D02*
X15630000Y16690000D01*
X15630000Y16690000D02*
X7840000Y16690000D01*
X32537500Y31150000D02*
X30090000Y31150000D01*
G04 #@! TO.N,Net-(U7-OUT1)*
X20240000Y16690000D02*
X21090000Y16690000D01*
X21090000Y16690000D02*
X32537500Y28137500D01*
X32537500Y28137500D02*
X32537500Y30150000D01*
D51*
G04 #@! TO.N,Net-(U112-FB)*
X31782500Y36167500D02*
X31782500Y34367500D01*
X34185000Y36167500D02*
X34685000Y36667500D01*
X31782500Y34367500D02*
X31862500Y34287500D01*
X31782500Y36167500D02*
X34185000Y36167500D01*
D50*
G04 #@! TO.N,Net-(V11-FB)*
X88450000Y43720000D02*
X90130000Y42040000D01*
X88062850Y43720000D02*
X88450000Y43720000D01*
X88250000Y41910000D02*
X88250000Y43532850D01*
X88250000Y43532850D02*
X88062850Y43720000D01*
G04 #@! TO.N,Net-(V11-EN)*
X90680000Y44670000D02*
X91010000Y44340000D01*
X88062850Y44670000D02*
X90680000Y44670000D01*
G04 #@! TO.N,/I2C_SCL*
X62666123Y34860000D02*
X62802123Y34996000D01*
X74900000Y25890000D02*
X76760000Y25890000D01*
X62802123Y34996000D02*
X71734000Y34996000D01*
X78822500Y23827500D02*
X78822500Y23272500D01*
X74790000Y26550000D02*
X74790000Y26000000D01*
X72280000Y34500000D02*
X72290000Y34510000D01*
X72230000Y34500000D02*
X72280000Y34500000D01*
X71734000Y34996000D02*
X72230000Y34500000D01*
X76760000Y25890000D02*
X78822500Y23827500D01*
X59592500Y34860000D02*
X62666123Y34860000D01*
X74790000Y26000000D02*
X74900000Y25890000D01*
G04 #@! TO.N,/I2C_SDA*
X73950000Y26170000D02*
X74710000Y25410000D01*
X59652500Y37420000D02*
X59592500Y37360000D01*
X77930000Y23227501D02*
X78385001Y22772500D01*
X69905000Y37420000D02*
X59652500Y37420000D01*
X76265736Y25410000D02*
X76275736Y25400000D01*
X76275736Y25400000D02*
X76650000Y25400000D01*
X74710000Y25410000D02*
X76265736Y25410000D01*
X77930000Y24120000D02*
X77930000Y23227501D01*
X73950000Y26490000D02*
X73950000Y26170000D01*
X78385001Y22772500D02*
X78822500Y22772500D01*
X70940000Y36385000D02*
X69905000Y37420000D01*
X76650000Y25400000D02*
X77930000Y24120000D01*
D51*
G04 #@! TO.N,/MOT-*
X35379239Y30640000D02*
X35219239Y30480000D01*
X34680761Y30480000D02*
X34510761Y30650000D01*
X55180000Y31710001D02*
X54109999Y30640000D01*
X54109999Y30640000D02*
X35379239Y30640000D01*
X55180000Y32447500D02*
X55180000Y31710001D01*
X35219239Y30480000D02*
X34680761Y30480000D01*
X34510761Y30650000D02*
X33962500Y30650000D01*
D50*
G04 #@! TO.N,/SAI_FS*
X75390000Y33750000D02*
X63740000Y33750000D01*
X63740000Y33750000D02*
X63020000Y34470000D01*
X62073884Y36840000D02*
X61828884Y37085000D01*
X61086116Y36860000D02*
X59592500Y36860000D01*
X62770000Y36840000D02*
X62073884Y36840000D01*
X61311116Y37085000D02*
X61086116Y36860000D01*
X61828884Y37085000D02*
X61311116Y37085000D01*
D51*
G04 #@! TO.N,/MOT+*
X55680000Y31490000D02*
X55680000Y32447500D01*
X34382500Y29730000D02*
X53920000Y29730000D01*
X53920000Y29730000D02*
X55680000Y31490000D01*
X33962500Y30150000D02*
X34382500Y29730000D01*
D50*
G04 #@! TO.N,/SAI_SD_A*
X62660000Y32160000D02*
X62620000Y32200000D01*
X56200000Y33440000D02*
X56200000Y33134000D01*
X75370000Y32130000D02*
X62660000Y32130000D01*
X56200000Y33134000D02*
X56180000Y33114000D01*
X62660000Y32130000D02*
X62660000Y32160000D01*
X56180000Y33114000D02*
X56180000Y32447500D01*
X56320000Y33560000D02*
X56200000Y33440000D01*
X56320000Y33830000D02*
X56320000Y33560000D01*
G04 #@! TO.N,/SAI_SCK*
X59612500Y35380000D02*
X59592500Y35360000D01*
X75370000Y35380000D02*
X59612500Y35380000D01*
G04 #@! TO.N,/SAI_MCLK*
X74360000Y36980000D02*
X73240000Y35860000D01*
X75350000Y36980000D02*
X74360000Y36980000D01*
X73240000Y35860000D02*
X59592500Y35860000D01*
G04 #@! TO.N,/IR_DEMOD*
X54680000Y42050000D02*
X54680000Y40772500D01*
X53120000Y43610000D02*
X54680000Y42050000D01*
X78410000Y52590000D02*
X77430000Y51610000D01*
X56460000Y51610000D02*
X53110000Y48260000D01*
X53110000Y48260000D02*
X53110000Y45910000D01*
X121090000Y51100000D02*
X119600000Y52590000D01*
X53110000Y45910000D02*
X53120000Y45900000D01*
X77430000Y51610000D02*
X56460000Y51610000D01*
X119600000Y52590000D02*
X78410000Y52590000D01*
X53120000Y45900000D02*
X53120000Y43610000D01*
X121090000Y50280000D02*
X121090000Y51100000D01*
G04 #@! TO.N,/SAI_SD_B*
X62430000Y30510000D02*
X75370000Y30510000D01*
X62430000Y30510000D02*
X62070000Y30870000D01*
X61470000Y36360000D02*
X61570000Y36460000D01*
X62070000Y30870000D02*
X62070000Y34270000D01*
X59592500Y36360000D02*
X61470000Y36360000D01*
G04 #@! TO.N,/CODEC_RESET*
X78000000Y37860000D02*
X59592500Y37860000D01*
X84134999Y22772500D02*
X84520000Y23157501D01*
X83697500Y22772500D02*
X84134999Y22772500D01*
X86220000Y29640000D02*
X78000000Y37860000D01*
X84520000Y23157501D02*
X84520000Y26400000D01*
X84520000Y26400000D02*
X86220000Y28100000D01*
X86220000Y28100000D02*
X86220000Y29640000D01*
G04 #@! TO.N,/USB_DP*
X30175000Y7445000D02*
X30440000Y7180000D01*
X29440000Y6550000D02*
X29440000Y7275000D01*
X29440000Y7275000D02*
X29610000Y7445000D01*
X30827500Y7567500D02*
X30827500Y9272500D01*
X34770000Y17540000D02*
X48790000Y17540000D01*
X57170000Y31490000D02*
X57180000Y31500000D01*
X29610000Y7445000D02*
X30175000Y7445000D01*
X57180000Y31500000D02*
X57180000Y32447500D01*
X30827500Y11547500D02*
X30827500Y13597500D01*
X30440000Y7180000D02*
X30440000Y6550000D01*
X30827500Y9272500D02*
X30827500Y11547500D01*
X57170000Y30830000D02*
X57170000Y31490000D01*
X53920000Y22670000D02*
X53920000Y27580000D01*
X30827500Y13597500D02*
X34770000Y17540000D01*
X53920000Y27580000D02*
X57170000Y30830000D01*
X30440000Y7180000D02*
X30827500Y7567500D01*
X48790000Y17540000D02*
X53920000Y22670000D01*
G04 #@! TO.N,/USB_DM*
X28940000Y5680000D02*
X29150000Y5470000D01*
X56680000Y30764264D02*
X53570000Y27654264D01*
X29150000Y5470000D02*
X29660000Y5470000D01*
X34557501Y17840000D02*
X28927500Y12209999D01*
X29940000Y5750000D02*
X29940000Y6550000D01*
X29660000Y5470000D02*
X29940000Y5750000D01*
X53570000Y27654264D02*
X53570000Y22790000D01*
X28927500Y9272500D02*
X28927500Y11547500D01*
X56680000Y32447500D02*
X56680000Y30764264D01*
X28940000Y9260000D02*
X28927500Y9272500D01*
X28940000Y6550000D02*
X28940000Y9260000D01*
X53570000Y22790000D02*
X48620000Y17840000D01*
X48620000Y17840000D02*
X34557501Y17840000D01*
X28927500Y12209999D02*
X28927500Y11547500D01*
X28940000Y6550000D02*
X28940000Y5680000D01*
G04 #@! TO.N,/Vmotor*
X33120000Y31580000D02*
X33120000Y32380000D01*
X33120000Y30949218D02*
X33120000Y31580000D01*
X32537500Y30650000D02*
X32820782Y30650000D01*
D51*
X38310000Y37030000D02*
X38310000Y35705000D01*
D50*
X36740000Y32880000D02*
X36720000Y32900000D01*
D51*
X36720000Y32900000D02*
X36732500Y32912500D01*
D50*
X32912500Y32587500D02*
X31862500Y32587500D01*
X33120000Y31580000D02*
X33234000Y31694000D01*
D51*
X36780000Y34495000D02*
X36780000Y34810000D01*
D50*
X33234000Y31694000D02*
X36164000Y31694000D01*
X36740000Y32270000D02*
X36740000Y32880000D01*
D51*
X36960000Y37617500D02*
X37722500Y37617500D01*
X37415000Y34810000D02*
X36780000Y34810000D01*
D50*
X33120000Y32380000D02*
X32912500Y32587500D01*
D51*
X36732500Y32912500D02*
X36732500Y34447500D01*
X37722500Y37617500D02*
X38310000Y37030000D01*
X36732500Y34447500D02*
X36780000Y34495000D01*
X38310000Y35705000D02*
X37415000Y34810000D01*
D50*
X36164000Y31694000D02*
X36740000Y32270000D01*
X32820782Y30650000D02*
X33120000Y30949218D01*
G04 #@! TO.N,/INL*
X72310000Y23670000D02*
X72310000Y24810000D01*
X60090000Y19090000D02*
X60090000Y22240000D01*
X76527500Y21272500D02*
X76250000Y21550000D01*
X78822500Y21272500D02*
X76527500Y21272500D01*
X72310000Y24810000D02*
X71840000Y25280000D01*
X60090000Y22240000D02*
X59990000Y22340000D01*
X75190000Y22610000D02*
X73370000Y22610000D01*
X73370000Y22610000D02*
X72310000Y23670000D01*
X76250000Y21550000D02*
X75190000Y22610000D01*
X71840000Y25280000D02*
X62930000Y25280000D01*
X62930000Y25280000D02*
X59990000Y22340000D01*
G04 #@! TO.N,/INR*
X71656000Y19224000D02*
X71210000Y19670000D01*
X76260000Y19950000D02*
X75534000Y19224000D01*
X70330000Y23150000D02*
X70330000Y20550000D01*
X70330000Y20550000D02*
X71210000Y19670000D01*
X75534000Y19224000D02*
X71656000Y19224000D01*
X78822500Y20772500D02*
X77082500Y20772500D01*
X77082500Y20772500D02*
X76260000Y19950000D01*
G04 #@! TO.N,Net-(U5-REF)*
X80010000Y16770000D02*
X80010000Y19085000D01*
X79780000Y16500000D02*
X79780000Y16540000D01*
X79780000Y16540000D02*
X80010000Y16770000D01*
G04 #@! TO.N,Net-(J2-Pin_1)*
X87740000Y20580000D02*
X87740000Y20128000D01*
X86550000Y21770000D02*
X86520000Y21740000D01*
X93560000Y18980000D02*
X97470000Y22890000D01*
X86520000Y21740000D02*
X83730000Y21740000D01*
X83730000Y21740000D02*
X83697500Y21772500D01*
X88888000Y18980000D02*
X93560000Y18980000D01*
X87740000Y20128000D02*
X88888000Y18980000D01*
X86550000Y21770000D02*
X87740000Y20580000D01*
G04 #@! TO.N,/VLDO*
X84660000Y19657232D02*
X84044732Y20272500D01*
X85770000Y23780000D02*
X85770000Y24500000D01*
X89210000Y24470000D02*
X89200000Y24460000D01*
X86100000Y23680000D02*
X85870000Y23680000D01*
X85870000Y23680000D02*
X85770000Y23780000D01*
X87390000Y24460000D02*
X85810000Y24460000D01*
X85810000Y24460000D02*
X85770000Y24500000D01*
X90580000Y24470000D02*
X89210000Y24470000D01*
X87390000Y24460000D02*
X89200000Y24460000D01*
X84044732Y20272500D02*
X83697500Y20272500D01*
X84660000Y19600000D02*
X84660000Y19657232D01*
G04 #@! TO.N,Net-(J1-Pin_1)*
X84781000Y17696000D02*
X84055000Y16970000D01*
X97470000Y19640000D02*
X95404000Y17574000D01*
X95404000Y17574000D02*
X86603000Y17574000D01*
X86603000Y17574000D02*
X86481000Y17696000D01*
X84055000Y16970000D02*
X84055000Y18040000D01*
X84055000Y18040000D02*
X83010000Y19085000D01*
X86481000Y17696000D02*
X84781000Y17696000D01*
G04 #@! TO.N,Net-(U8-Noise)*
X90580000Y27500000D02*
X90830000Y27750000D01*
X90580000Y26270000D02*
X90580000Y27500000D01*
G04 #@! TO.N,Net-(J6-Pin_1)*
X82020000Y4360000D02*
X81985000Y4395000D01*
X82020000Y1920000D02*
X82020000Y4360000D01*
G04 #@! TO.N,Net-(U5-HPL)*
X84040000Y14190000D02*
X84040000Y8880000D01*
X83697500Y19772500D02*
X83697500Y19592500D01*
X82455000Y7295000D02*
X81985000Y7295000D01*
X84040000Y8880000D02*
X82455000Y7295000D01*
X83697500Y19592500D02*
X84630000Y18660000D01*
G04 #@! TO.N,Net-(J6-Pin_3)*
X87100000Y3855000D02*
X86685000Y4270000D01*
X87100000Y1920000D02*
X87100000Y3855000D01*
G04 #@! TO.N,Net-(U5-HPR)*
X85870000Y13750000D02*
X85870000Y8370000D01*
X84134999Y20772500D02*
X83697500Y20772500D01*
X86685000Y7555000D02*
X86685000Y7170000D01*
X84657499Y20250000D02*
X84134999Y20772500D01*
X83697500Y20767500D02*
X83697500Y20772500D01*
X83670000Y20740000D02*
X83697500Y20767500D01*
X85070000Y20250000D02*
X84657499Y20250000D01*
X85870000Y8370000D02*
X86685000Y7555000D01*
G04 #@! TO.N,Net-(C19-Pad1)*
X60120000Y17030000D02*
X60120000Y17360000D01*
X60120000Y17360000D02*
X58390000Y19090000D01*
G04 #@! TO.N,Net-(C19-Pad2)*
X57480000Y15300000D02*
X54840000Y12660000D01*
X57890000Y15300000D02*
X57480000Y15300000D01*
X60120000Y15330000D02*
X57920000Y15330000D01*
X57920000Y15330000D02*
X57890000Y15300000D01*
G04 #@! TO.N,Net-(C20-Pad1)*
X69510000Y19590000D02*
X71500000Y17600000D01*
X69510000Y19670000D02*
X69510000Y19590000D01*
G04 #@! TO.N,Net-(C20-Pad2)*
X71500000Y15900000D02*
X69340000Y15900000D01*
X69340000Y15900000D02*
X69300000Y15940000D01*
X69300000Y13120000D02*
X68840000Y12660000D01*
X69300000Y15940000D02*
X69300000Y13120000D01*
G04 #@! TO.N,/LINEOUT_L*
X88520000Y14760000D02*
X89100000Y15340000D01*
X82040000Y19055000D02*
X82040000Y16930000D01*
X93700120Y15380120D02*
X93700120Y15961751D01*
X90700000Y15340000D02*
X93660000Y15340000D01*
X93660000Y15340000D02*
X93700120Y15380120D01*
X84210000Y14760000D02*
X88520000Y14760000D01*
X82040000Y16930000D02*
X84210000Y14760000D01*
X82010000Y19085000D02*
X82040000Y19055000D01*
X89100000Y15340000D02*
X90700000Y15340000D01*
G04 #@! TO.N,Net-(C21-Pad2)*
X108860000Y14344092D02*
X110560000Y16044092D01*
X107790000Y14344092D02*
X108860000Y14344092D01*
G04 #@! TO.N,Net-(C22-Pad1)*
X110560000Y14344092D02*
X112805908Y14344092D01*
X112805908Y14344092D02*
X114490000Y12660000D01*
X114490000Y13450000D02*
X116990000Y15950000D01*
X114490000Y12660000D02*
X114490000Y13450000D01*
G04 #@! TO.N,Net-(C23-Pad1)*
X99700000Y13450000D02*
X100490000Y12660000D01*
X97728369Y15030000D02*
X96860120Y14161751D01*
X99700000Y15030000D02*
X97728369Y15030000D01*
X99700000Y15030000D02*
X99700000Y13450000D01*
G04 #@! TO.N,Net-(C26-Pad2)*
X93700120Y14261751D02*
X94320120Y14261751D01*
X94320120Y14261751D02*
X95920120Y15861751D01*
X95920120Y15861751D02*
X96860120Y15861751D01*
G04 #@! TO.N,/LINEOUT_R*
X84180000Y15290000D02*
X82510000Y16960000D01*
X104850000Y15790000D02*
X103780000Y16860000D01*
X107790000Y16044092D02*
X107245908Y15500000D01*
X88030000Y15290000D02*
X84180000Y15290000D01*
X89600000Y16860000D02*
X88030000Y15290000D01*
X105140000Y15500000D02*
X104850000Y15790000D01*
X103780000Y16860000D02*
X89600000Y16860000D01*
X107245908Y15500000D02*
X105140000Y15500000D01*
X82510000Y16960000D02*
X82510000Y19085000D01*
G04 #@! TO.N,/AVDD*
X110610000Y19640000D02*
X110880000Y19370000D01*
X100010000Y19640000D02*
X110610000Y19640000D01*
X112660000Y19370000D02*
X112760000Y19270000D01*
X110880000Y19370000D02*
X112660000Y19370000D01*
X100280000Y19370000D02*
X100010000Y19640000D01*
G04 #@! TO.N,/DVDD*
X104605000Y24630000D02*
X104425000Y24810000D01*
X106125000Y24630000D02*
X104605000Y24630000D01*
X102505000Y22890000D02*
X104425000Y24810000D01*
X100010000Y22890000D02*
X102505000Y22890000D01*
G04 #@! TO.N,Net-(JP1-B)*
X88990540Y22689460D02*
X88990540Y20730000D01*
X87920000Y22850000D02*
X88920000Y22850000D01*
X84732500Y22272500D02*
X85140000Y22680000D01*
X88920000Y22760000D02*
X88990540Y22689460D01*
X87750000Y22680000D02*
X87920000Y22850000D01*
X88920000Y22850000D02*
X88920000Y22760000D01*
X85140000Y22680000D02*
X87750000Y22680000D01*
X83697500Y22272500D02*
X84732500Y22272500D01*
G04 #@! TO.N,Net-(U5-DIN_MFP1)*
X82030000Y27930000D02*
X77830000Y32130000D01*
X82030000Y25060000D02*
X82030000Y27930000D01*
X81510000Y24540000D02*
X82030000Y25060000D01*
X81510000Y23960000D02*
X81510000Y24540000D01*
X77830000Y32130000D02*
X77070000Y32130000D01*
G04 #@! TO.N,Net-(U5-DOUT_MFP2)*
X81010000Y23960000D02*
X81010000Y24578000D01*
X81640000Y27010000D02*
X78140000Y30510000D01*
X81010000Y24578000D02*
X81640000Y25208000D01*
X81640000Y25208000D02*
X81640000Y27010000D01*
X78140000Y30510000D02*
X77070000Y30510000D01*
G04 #@! TO.N,Net-(U5-MCLK)*
X77810000Y36980000D02*
X77050000Y36980000D01*
X83210000Y31580000D02*
X77810000Y36980000D01*
X83210000Y24160000D02*
X83210000Y31580000D01*
X83010000Y23960000D02*
X83210000Y24160000D01*
G04 #@! TO.N,Net-(U5-BCLK)*
X82510000Y24370000D02*
X82750000Y24610000D01*
X77700000Y35380000D02*
X77070000Y35380000D01*
X82750000Y24610000D02*
X82750000Y30330000D01*
X82750000Y30330000D02*
X77700000Y35380000D01*
X82510000Y23960000D02*
X82510000Y24370000D01*
G04 #@! TO.N,Net-(U5-WCLK)*
X82380000Y24767499D02*
X82380000Y29040000D01*
X82380000Y29040000D02*
X77670000Y33750000D01*
X82010000Y24397499D02*
X82380000Y24767499D01*
X82010000Y23960000D02*
X82010000Y24397499D01*
X77670000Y33750000D02*
X77090000Y33750000D01*
G04 #@! TO.N,Net-(U5-SPI_SELECT)*
X77527500Y21772500D02*
X78822500Y21772500D01*
X76120000Y23180000D02*
X77527500Y21772500D01*
X76120000Y23970000D02*
X76120000Y23180000D01*
G04 #@! TO.N,/SCK_MICDET*
X79510000Y23960000D02*
X79268000Y23960000D01*
X76450000Y26778000D02*
X76450000Y27700000D01*
X79268000Y23960000D02*
X76450000Y26778000D01*
G04 #@! TO.N,/GPIO*
X83697500Y23272500D02*
X83697500Y24327500D01*
X83930000Y27630000D02*
X84620000Y28320000D01*
X83697500Y24327500D02*
X83930000Y24560000D01*
X83930000Y24560000D02*
X83930000Y27630000D01*
G04 #@! TO.N,/IN2_R*
X78822500Y19772500D02*
X76820000Y17770000D01*
X76820000Y11380000D02*
X73860000Y8420000D01*
X75000000Y4970000D02*
X75400000Y4970000D01*
X73860000Y8420000D02*
X73860000Y6110000D01*
X73860000Y6110000D02*
X75000000Y4970000D01*
X76820000Y17770000D02*
X76820000Y11380000D01*
G04 #@! TO.N,/IN3_L*
X78000000Y7350000D02*
X78000000Y5030000D01*
X81010000Y19085000D02*
X81010000Y18310000D01*
X78000000Y5030000D02*
X77940000Y4970000D01*
X81020000Y18300000D02*
X81020000Y10370000D01*
X81010000Y18310000D02*
X81020000Y18300000D01*
X81020000Y10370000D02*
X78000000Y7350000D01*
G04 #@! TO.N,/MISO*
X77550000Y23910000D02*
X77550000Y22740000D01*
X76755000Y24705000D02*
X77550000Y23910000D01*
X74365000Y24705000D02*
X76755000Y24705000D01*
X78017500Y22272500D02*
X78822500Y22272500D01*
X71370000Y27700000D02*
X74365000Y24705000D01*
X77550000Y22740000D02*
X78017500Y22272500D01*
G04 #@! TO.N,/MICBIAS*
X75990000Y7510000D02*
X75400000Y7510000D01*
X80510000Y19085000D02*
X80510000Y12030000D01*
X80510000Y12030000D02*
X75990000Y7510000D01*
G04 #@! TO.N,/IN3_R*
X81510000Y16100000D02*
X81510000Y9800000D01*
X81510000Y9800000D02*
X79280000Y7570000D01*
X81510000Y19085000D02*
X81510000Y16100000D01*
X79280000Y7570000D02*
X79280000Y2990000D01*
X78720000Y2430000D02*
X77940000Y2430000D01*
X79280000Y2990000D02*
X78720000Y2430000D01*
G04 #@! TO.N,/IN2_L*
X75290000Y10660000D02*
X73370000Y8740000D01*
X75290000Y17177499D02*
X75290000Y10660000D01*
X73370000Y3360000D02*
X74300000Y2430000D01*
X73370000Y8740000D02*
X73370000Y3360000D01*
X78822500Y20272500D02*
X78385001Y20272500D01*
X74300000Y2430000D02*
X75400000Y2430000D01*
X78385001Y20272500D02*
X75290000Y17177499D01*
G04 #@! TO.N,Net-(J4-Shield1)*
X25370000Y1975000D02*
X34010000Y1975000D01*
G04 #@! TD*
M02*
