%TF.GenerationSoftware,KiCad,Pcbnew,9.0.3*%
%TF.CreationDate,2026-01-03T08:49:13-08:00*%
%TF.ProjectId,ir-remote,69722d72-656d-46f7-9465-2e6b69636164,rev?*%
%TF.SameCoordinates,Original*%
%TF.FileFunction,Drillmap*%
%TF.FilePolarity,Positive*%
%FSLAX45Y45*%
G04 Gerber Fmt 4.5, Leading zero omitted, Abs format (unit mm)*
G04 Created by KiCad (PCBNEW 9.0.3) date 2026-01-03 08:49:13*
%MOMM*%
%LPD*%
G01*
G04 APERTURE LIST*
%ADD10C,0.050000*%
%ADD11C,0.200000*%
%ADD12C,0.300000*%
G04 APERTURE END LIST*
D10*
X12733000Y0D02*
X33000Y0D01*
X33000Y5348000D02*
X12733000Y5348000D01*
X33000Y0D02*
X33000Y5348000D01*
X12733000Y5348000D02*
X12733000Y0D01*
D11*
D12*
X250000Y5098000D02*
X550000Y4798000D01*
X550000Y5098000D02*
X250000Y4798000D01*
X250000Y550000D02*
X550000Y250000D01*
X550000Y550000D02*
X250000Y250000D01*
X12236000Y4532000D02*
X12536000Y4232000D01*
X12536000Y4532000D02*
X12236000Y4232000D01*
X12236000Y550000D02*
X12536000Y250000D01*
X12536000Y550000D02*
X12236000Y250000D01*
D11*
X291277Y-313984D02*
X291277Y-113984D01*
X291277Y-113984D02*
X338896Y-113984D01*
X338896Y-113984D02*
X367467Y-123508D01*
X367467Y-123508D02*
X386515Y-142555D01*
X386515Y-142555D02*
X396039Y-161603D01*
X396039Y-161603D02*
X405562Y-199698D01*
X405562Y-199698D02*
X405562Y-228269D01*
X405562Y-228269D02*
X396039Y-266365D01*
X396039Y-266365D02*
X386515Y-285412D01*
X386515Y-285412D02*
X367467Y-304460D01*
X367467Y-304460D02*
X338896Y-313984D01*
X338896Y-313984D02*
X291277Y-313984D01*
X491277Y-313984D02*
X491277Y-180650D01*
X491277Y-218746D02*
X500801Y-199698D01*
X500801Y-199698D02*
X510324Y-190174D01*
X510324Y-190174D02*
X529372Y-180650D01*
X529372Y-180650D02*
X548420Y-180650D01*
X615086Y-313984D02*
X615086Y-180650D01*
X615086Y-113984D02*
X605563Y-123508D01*
X605563Y-123508D02*
X615086Y-133031D01*
X615086Y-133031D02*
X624610Y-123508D01*
X624610Y-123508D02*
X615086Y-113984D01*
X615086Y-113984D02*
X615086Y-133031D01*
X738896Y-313984D02*
X719848Y-304460D01*
X719848Y-304460D02*
X710324Y-285412D01*
X710324Y-285412D02*
X710324Y-113984D01*
X843658Y-313984D02*
X824610Y-304460D01*
X824610Y-304460D02*
X815086Y-285412D01*
X815086Y-285412D02*
X815086Y-113984D01*
X1072229Y-313984D02*
X1072229Y-113984D01*
X1072229Y-113984D02*
X1138896Y-256841D01*
X1138896Y-256841D02*
X1205563Y-113984D01*
X1205563Y-113984D02*
X1205563Y-313984D01*
X1386515Y-313984D02*
X1386515Y-209222D01*
X1386515Y-209222D02*
X1376991Y-190174D01*
X1376991Y-190174D02*
X1357944Y-180650D01*
X1357944Y-180650D02*
X1319848Y-180650D01*
X1319848Y-180650D02*
X1300801Y-190174D01*
X1386515Y-304460D02*
X1367467Y-313984D01*
X1367467Y-313984D02*
X1319848Y-313984D01*
X1319848Y-313984D02*
X1300801Y-304460D01*
X1300801Y-304460D02*
X1291277Y-285412D01*
X1291277Y-285412D02*
X1291277Y-266365D01*
X1291277Y-266365D02*
X1300801Y-247317D01*
X1300801Y-247317D02*
X1319848Y-237793D01*
X1319848Y-237793D02*
X1367467Y-237793D01*
X1367467Y-237793D02*
X1386515Y-228269D01*
X1481753Y-180650D02*
X1481753Y-380650D01*
X1481753Y-190174D02*
X1500801Y-180650D01*
X1500801Y-180650D02*
X1538896Y-180650D01*
X1538896Y-180650D02*
X1557943Y-190174D01*
X1557943Y-190174D02*
X1567467Y-199698D01*
X1567467Y-199698D02*
X1576991Y-218746D01*
X1576991Y-218746D02*
X1576991Y-275889D01*
X1576991Y-275889D02*
X1567467Y-294936D01*
X1567467Y-294936D02*
X1557943Y-304460D01*
X1557943Y-304460D02*
X1538896Y-313984D01*
X1538896Y-313984D02*
X1500801Y-313984D01*
X1500801Y-313984D02*
X1481753Y-304460D01*
X1662705Y-294936D02*
X1672229Y-304460D01*
X1672229Y-304460D02*
X1662705Y-313984D01*
X1662705Y-313984D02*
X1653182Y-304460D01*
X1653182Y-304460D02*
X1662705Y-294936D01*
X1662705Y-294936D02*
X1662705Y-313984D01*
X1662705Y-190174D02*
X1672229Y-199698D01*
X1672229Y-199698D02*
X1662705Y-209222D01*
X1662705Y-209222D02*
X1653182Y-199698D01*
X1653182Y-199698D02*
X1662705Y-190174D01*
X1662705Y-190174D02*
X1662705Y-209222D01*
X-169500Y-542500D02*
X30500Y-742500D01*
X30500Y-542500D02*
X-169500Y-742500D01*
X272229Y-533984D02*
X396039Y-533984D01*
X396039Y-533984D02*
X329372Y-610174D01*
X329372Y-610174D02*
X357943Y-610174D01*
X357943Y-610174D02*
X376991Y-619698D01*
X376991Y-619698D02*
X386515Y-629222D01*
X386515Y-629222D02*
X396039Y-648270D01*
X396039Y-648270D02*
X396039Y-695889D01*
X396039Y-695889D02*
X386515Y-714936D01*
X386515Y-714936D02*
X376991Y-724460D01*
X376991Y-724460D02*
X357943Y-733984D01*
X357943Y-733984D02*
X300801Y-733984D01*
X300801Y-733984D02*
X281753Y-724460D01*
X281753Y-724460D02*
X272229Y-714936D01*
X481753Y-714936D02*
X491277Y-724460D01*
X491277Y-724460D02*
X481753Y-733984D01*
X481753Y-733984D02*
X472229Y-724460D01*
X472229Y-724460D02*
X481753Y-714936D01*
X481753Y-714936D02*
X481753Y-733984D01*
X615086Y-533984D02*
X634134Y-533984D01*
X634134Y-533984D02*
X653182Y-543508D01*
X653182Y-543508D02*
X662705Y-553031D01*
X662705Y-553031D02*
X672229Y-572079D01*
X672229Y-572079D02*
X681753Y-610174D01*
X681753Y-610174D02*
X681753Y-657793D01*
X681753Y-657793D02*
X672229Y-695889D01*
X672229Y-695889D02*
X662705Y-714936D01*
X662705Y-714936D02*
X653182Y-724460D01*
X653182Y-724460D02*
X634134Y-733984D01*
X634134Y-733984D02*
X615086Y-733984D01*
X615086Y-733984D02*
X596039Y-724460D01*
X596039Y-724460D02*
X586515Y-714936D01*
X586515Y-714936D02*
X576991Y-695889D01*
X576991Y-695889D02*
X567467Y-657793D01*
X567467Y-657793D02*
X567467Y-610174D01*
X567467Y-610174D02*
X576991Y-572079D01*
X576991Y-572079D02*
X586515Y-553031D01*
X586515Y-553031D02*
X596039Y-543508D01*
X596039Y-543508D02*
X615086Y-533984D01*
X805562Y-533984D02*
X824610Y-533984D01*
X824610Y-533984D02*
X843658Y-543508D01*
X843658Y-543508D02*
X853182Y-553031D01*
X853182Y-553031D02*
X862705Y-572079D01*
X862705Y-572079D02*
X872229Y-610174D01*
X872229Y-610174D02*
X872229Y-657793D01*
X872229Y-657793D02*
X862705Y-695889D01*
X862705Y-695889D02*
X853182Y-714936D01*
X853182Y-714936D02*
X843658Y-724460D01*
X843658Y-724460D02*
X824610Y-733984D01*
X824610Y-733984D02*
X805562Y-733984D01*
X805562Y-733984D02*
X786515Y-724460D01*
X786515Y-724460D02*
X776991Y-714936D01*
X776991Y-714936D02*
X767467Y-695889D01*
X767467Y-695889D02*
X757943Y-657793D01*
X757943Y-657793D02*
X757943Y-610174D01*
X757943Y-610174D02*
X767467Y-572079D01*
X767467Y-572079D02*
X776991Y-553031D01*
X776991Y-553031D02*
X786515Y-543508D01*
X786515Y-543508D02*
X805562Y-533984D01*
X996039Y-533984D02*
X1015086Y-533984D01*
X1015086Y-533984D02*
X1034134Y-543508D01*
X1034134Y-543508D02*
X1043658Y-553031D01*
X1043658Y-553031D02*
X1053182Y-572079D01*
X1053182Y-572079D02*
X1062705Y-610174D01*
X1062705Y-610174D02*
X1062705Y-657793D01*
X1062705Y-657793D02*
X1053182Y-695889D01*
X1053182Y-695889D02*
X1043658Y-714936D01*
X1043658Y-714936D02*
X1034134Y-724460D01*
X1034134Y-724460D02*
X1015086Y-733984D01*
X1015086Y-733984D02*
X996039Y-733984D01*
X996039Y-733984D02*
X976991Y-724460D01*
X976991Y-724460D02*
X967467Y-714936D01*
X967467Y-714936D02*
X957943Y-695889D01*
X957943Y-695889D02*
X948420Y-657793D01*
X948420Y-657793D02*
X948420Y-610174D01*
X948420Y-610174D02*
X957943Y-572079D01*
X957943Y-572079D02*
X967467Y-553031D01*
X967467Y-553031D02*
X976991Y-543508D01*
X976991Y-543508D02*
X996039Y-533984D01*
X1148420Y-733984D02*
X1148420Y-600650D01*
X1148420Y-619698D02*
X1157944Y-610174D01*
X1157944Y-610174D02*
X1176991Y-600650D01*
X1176991Y-600650D02*
X1205563Y-600650D01*
X1205563Y-600650D02*
X1224610Y-610174D01*
X1224610Y-610174D02*
X1234134Y-629222D01*
X1234134Y-629222D02*
X1234134Y-733984D01*
X1234134Y-629222D02*
X1243658Y-610174D01*
X1243658Y-610174D02*
X1262705Y-600650D01*
X1262705Y-600650D02*
X1291277Y-600650D01*
X1291277Y-600650D02*
X1310325Y-610174D01*
X1310325Y-610174D02*
X1319848Y-629222D01*
X1319848Y-629222D02*
X1319848Y-733984D01*
X1415086Y-733984D02*
X1415086Y-600650D01*
X1415086Y-619698D02*
X1424610Y-610174D01*
X1424610Y-610174D02*
X1443658Y-600650D01*
X1443658Y-600650D02*
X1472229Y-600650D01*
X1472229Y-600650D02*
X1491277Y-610174D01*
X1491277Y-610174D02*
X1500801Y-629222D01*
X1500801Y-629222D02*
X1500801Y-733984D01*
X1500801Y-629222D02*
X1510324Y-610174D01*
X1510324Y-610174D02*
X1529372Y-600650D01*
X1529372Y-600650D02*
X1557943Y-600650D01*
X1557943Y-600650D02*
X1576991Y-610174D01*
X1576991Y-610174D02*
X1586515Y-629222D01*
X1586515Y-629222D02*
X1586515Y-733984D01*
X1976991Y-524460D02*
X1805563Y-781603D01*
X2234134Y-533984D02*
X2253182Y-533984D01*
X2253182Y-533984D02*
X2272229Y-543508D01*
X2272229Y-543508D02*
X2281753Y-553031D01*
X2281753Y-553031D02*
X2291277Y-572079D01*
X2291277Y-572079D02*
X2300801Y-610174D01*
X2300801Y-610174D02*
X2300801Y-657793D01*
X2300801Y-657793D02*
X2291277Y-695889D01*
X2291277Y-695889D02*
X2281753Y-714936D01*
X2281753Y-714936D02*
X2272229Y-724460D01*
X2272229Y-724460D02*
X2253182Y-733984D01*
X2253182Y-733984D02*
X2234134Y-733984D01*
X2234134Y-733984D02*
X2215087Y-724460D01*
X2215087Y-724460D02*
X2205563Y-714936D01*
X2205563Y-714936D02*
X2196039Y-695889D01*
X2196039Y-695889D02*
X2186515Y-657793D01*
X2186515Y-657793D02*
X2186515Y-610174D01*
X2186515Y-610174D02*
X2196039Y-572079D01*
X2196039Y-572079D02*
X2205563Y-553031D01*
X2205563Y-553031D02*
X2215087Y-543508D01*
X2215087Y-543508D02*
X2234134Y-533984D01*
X2386515Y-714936D02*
X2396039Y-724460D01*
X2396039Y-724460D02*
X2386515Y-733984D01*
X2386515Y-733984D02*
X2376991Y-724460D01*
X2376991Y-724460D02*
X2386515Y-714936D01*
X2386515Y-714936D02*
X2386515Y-733984D01*
X2586515Y-733984D02*
X2472229Y-733984D01*
X2529372Y-733984D02*
X2529372Y-533984D01*
X2529372Y-533984D02*
X2510325Y-562555D01*
X2510325Y-562555D02*
X2491277Y-581603D01*
X2491277Y-581603D02*
X2472229Y-591127D01*
X2776991Y-733984D02*
X2662706Y-733984D01*
X2719848Y-733984D02*
X2719848Y-533984D01*
X2719848Y-533984D02*
X2700801Y-562555D01*
X2700801Y-562555D02*
X2681753Y-581603D01*
X2681753Y-581603D02*
X2662706Y-591127D01*
X2891277Y-619698D02*
X2872229Y-610174D01*
X2872229Y-610174D02*
X2862706Y-600650D01*
X2862706Y-600650D02*
X2853182Y-581603D01*
X2853182Y-581603D02*
X2853182Y-572079D01*
X2853182Y-572079D02*
X2862706Y-553031D01*
X2862706Y-553031D02*
X2872229Y-543508D01*
X2872229Y-543508D02*
X2891277Y-533984D01*
X2891277Y-533984D02*
X2929372Y-533984D01*
X2929372Y-533984D02*
X2948420Y-543508D01*
X2948420Y-543508D02*
X2957944Y-553031D01*
X2957944Y-553031D02*
X2967467Y-572079D01*
X2967467Y-572079D02*
X2967467Y-581603D01*
X2967467Y-581603D02*
X2957944Y-600650D01*
X2957944Y-600650D02*
X2948420Y-610174D01*
X2948420Y-610174D02*
X2929372Y-619698D01*
X2929372Y-619698D02*
X2891277Y-619698D01*
X2891277Y-619698D02*
X2872229Y-629222D01*
X2872229Y-629222D02*
X2862706Y-638746D01*
X2862706Y-638746D02*
X2853182Y-657793D01*
X2853182Y-657793D02*
X2853182Y-695889D01*
X2853182Y-695889D02*
X2862706Y-714936D01*
X2862706Y-714936D02*
X2872229Y-724460D01*
X2872229Y-724460D02*
X2891277Y-733984D01*
X2891277Y-733984D02*
X2929372Y-733984D01*
X2929372Y-733984D02*
X2948420Y-724460D01*
X2948420Y-724460D02*
X2957944Y-714936D01*
X2957944Y-714936D02*
X2967467Y-695889D01*
X2967467Y-695889D02*
X2967467Y-657793D01*
X2967467Y-657793D02*
X2957944Y-638746D01*
X2957944Y-638746D02*
X2948420Y-629222D01*
X2948420Y-629222D02*
X2929372Y-619698D01*
X3157944Y-733984D02*
X3043658Y-733984D01*
X3100801Y-733984D02*
X3100801Y-533984D01*
X3100801Y-533984D02*
X3081753Y-562555D01*
X3081753Y-562555D02*
X3062706Y-581603D01*
X3062706Y-581603D02*
X3043658Y-591127D01*
X3234134Y-533984D02*
X3234134Y-572079D01*
X3310325Y-533984D02*
X3310325Y-572079D01*
X3605563Y-810174D02*
X3596039Y-800650D01*
X3596039Y-800650D02*
X3576991Y-772079D01*
X3576991Y-772079D02*
X3567468Y-753031D01*
X3567468Y-753031D02*
X3557944Y-724460D01*
X3557944Y-724460D02*
X3548420Y-676841D01*
X3548420Y-676841D02*
X3548420Y-638746D01*
X3548420Y-638746D02*
X3557944Y-591127D01*
X3557944Y-591127D02*
X3567468Y-562555D01*
X3567468Y-562555D02*
X3576991Y-543508D01*
X3576991Y-543508D02*
X3596039Y-514936D01*
X3596039Y-514936D02*
X3605563Y-505412D01*
X3767468Y-600650D02*
X3767468Y-733984D01*
X3719848Y-524460D02*
X3672229Y-667317D01*
X3672229Y-667317D02*
X3796039Y-667317D01*
X4024610Y-733984D02*
X4024610Y-533984D01*
X4110325Y-733984D02*
X4110325Y-629222D01*
X4110325Y-629222D02*
X4100801Y-610174D01*
X4100801Y-610174D02*
X4081753Y-600650D01*
X4081753Y-600650D02*
X4053182Y-600650D01*
X4053182Y-600650D02*
X4034134Y-610174D01*
X4034134Y-610174D02*
X4024610Y-619698D01*
X4234134Y-733984D02*
X4215087Y-724460D01*
X4215087Y-724460D02*
X4205563Y-714936D01*
X4205563Y-714936D02*
X4196039Y-695889D01*
X4196039Y-695889D02*
X4196039Y-638746D01*
X4196039Y-638746D02*
X4205563Y-619698D01*
X4205563Y-619698D02*
X4215087Y-610174D01*
X4215087Y-610174D02*
X4234134Y-600650D01*
X4234134Y-600650D02*
X4262706Y-600650D01*
X4262706Y-600650D02*
X4281753Y-610174D01*
X4281753Y-610174D02*
X4291277Y-619698D01*
X4291277Y-619698D02*
X4300801Y-638746D01*
X4300801Y-638746D02*
X4300801Y-695889D01*
X4300801Y-695889D02*
X4291277Y-714936D01*
X4291277Y-714936D02*
X4281753Y-724460D01*
X4281753Y-724460D02*
X4262706Y-733984D01*
X4262706Y-733984D02*
X4234134Y-733984D01*
X4415087Y-733984D02*
X4396039Y-724460D01*
X4396039Y-724460D02*
X4386515Y-705412D01*
X4386515Y-705412D02*
X4386515Y-533984D01*
X4567468Y-724460D02*
X4548420Y-733984D01*
X4548420Y-733984D02*
X4510325Y-733984D01*
X4510325Y-733984D02*
X4491277Y-724460D01*
X4491277Y-724460D02*
X4481753Y-705412D01*
X4481753Y-705412D02*
X4481753Y-629222D01*
X4481753Y-629222D02*
X4491277Y-610174D01*
X4491277Y-610174D02*
X4510325Y-600650D01*
X4510325Y-600650D02*
X4548420Y-600650D01*
X4548420Y-600650D02*
X4567468Y-610174D01*
X4567468Y-610174D02*
X4576992Y-629222D01*
X4576992Y-629222D02*
X4576992Y-648270D01*
X4576992Y-648270D02*
X4481753Y-667317D01*
X4653182Y-724460D02*
X4672230Y-733984D01*
X4672230Y-733984D02*
X4710325Y-733984D01*
X4710325Y-733984D02*
X4729373Y-724460D01*
X4729373Y-724460D02*
X4738896Y-705412D01*
X4738896Y-705412D02*
X4738896Y-695889D01*
X4738896Y-695889D02*
X4729373Y-676841D01*
X4729373Y-676841D02*
X4710325Y-667317D01*
X4710325Y-667317D02*
X4681753Y-667317D01*
X4681753Y-667317D02*
X4662706Y-657793D01*
X4662706Y-657793D02*
X4653182Y-638746D01*
X4653182Y-638746D02*
X4653182Y-629222D01*
X4653182Y-629222D02*
X4662706Y-610174D01*
X4662706Y-610174D02*
X4681753Y-600650D01*
X4681753Y-600650D02*
X4710325Y-600650D01*
X4710325Y-600650D02*
X4729373Y-610174D01*
X4805563Y-810174D02*
X4815087Y-800650D01*
X4815087Y-800650D02*
X4834134Y-772079D01*
X4834134Y-772079D02*
X4843658Y-753031D01*
X4843658Y-753031D02*
X4853182Y-724460D01*
X4853182Y-724460D02*
X4862706Y-676841D01*
X4862706Y-676841D02*
X4862706Y-638746D01*
X4862706Y-638746D02*
X4853182Y-591127D01*
X4853182Y-591127D02*
X4843658Y-562555D01*
X4843658Y-562555D02*
X4834134Y-543508D01*
X4834134Y-543508D02*
X4815087Y-514936D01*
X4815087Y-514936D02*
X4805563Y-505412D01*
X5167468Y-810174D02*
X5157944Y-800650D01*
X5157944Y-800650D02*
X5138896Y-772079D01*
X5138896Y-772079D02*
X5129373Y-753031D01*
X5129373Y-753031D02*
X5119849Y-724460D01*
X5119849Y-724460D02*
X5110325Y-676841D01*
X5110325Y-676841D02*
X5110325Y-638746D01*
X5110325Y-638746D02*
X5119849Y-591127D01*
X5119849Y-591127D02*
X5129373Y-562555D01*
X5129373Y-562555D02*
X5138896Y-543508D01*
X5138896Y-543508D02*
X5157944Y-514936D01*
X5157944Y-514936D02*
X5167468Y-505412D01*
X5243658Y-600650D02*
X5243658Y-733984D01*
X5243658Y-619698D02*
X5253182Y-610174D01*
X5253182Y-610174D02*
X5272230Y-600650D01*
X5272230Y-600650D02*
X5300801Y-600650D01*
X5300801Y-600650D02*
X5319849Y-610174D01*
X5319849Y-610174D02*
X5329373Y-629222D01*
X5329373Y-629222D02*
X5329373Y-733984D01*
X5453182Y-733984D02*
X5434134Y-724460D01*
X5434134Y-724460D02*
X5424611Y-714936D01*
X5424611Y-714936D02*
X5415087Y-695889D01*
X5415087Y-695889D02*
X5415087Y-638746D01*
X5415087Y-638746D02*
X5424611Y-619698D01*
X5424611Y-619698D02*
X5434134Y-610174D01*
X5434134Y-610174D02*
X5453182Y-600650D01*
X5453182Y-600650D02*
X5481754Y-600650D01*
X5481754Y-600650D02*
X5500801Y-610174D01*
X5500801Y-610174D02*
X5510325Y-619698D01*
X5510325Y-619698D02*
X5519849Y-638746D01*
X5519849Y-638746D02*
X5519849Y-695889D01*
X5519849Y-695889D02*
X5510325Y-714936D01*
X5510325Y-714936D02*
X5500801Y-724460D01*
X5500801Y-724460D02*
X5481754Y-733984D01*
X5481754Y-733984D02*
X5453182Y-733984D01*
X5576992Y-600650D02*
X5653182Y-600650D01*
X5605563Y-533984D02*
X5605563Y-705412D01*
X5605563Y-705412D02*
X5615087Y-724460D01*
X5615087Y-724460D02*
X5634134Y-733984D01*
X5634134Y-733984D02*
X5653182Y-733984D01*
X5872230Y-600650D02*
X5872230Y-800650D01*
X5872230Y-610174D02*
X5891277Y-600650D01*
X5891277Y-600650D02*
X5929373Y-600650D01*
X5929373Y-600650D02*
X5948420Y-610174D01*
X5948420Y-610174D02*
X5957944Y-619698D01*
X5957944Y-619698D02*
X5967468Y-638746D01*
X5967468Y-638746D02*
X5967468Y-695889D01*
X5967468Y-695889D02*
X5957944Y-714936D01*
X5957944Y-714936D02*
X5948420Y-724460D01*
X5948420Y-724460D02*
X5929373Y-733984D01*
X5929373Y-733984D02*
X5891277Y-733984D01*
X5891277Y-733984D02*
X5872230Y-724460D01*
X6081753Y-733984D02*
X6062706Y-724460D01*
X6062706Y-724460D02*
X6053182Y-705412D01*
X6053182Y-705412D02*
X6053182Y-533984D01*
X6243658Y-733984D02*
X6243658Y-629222D01*
X6243658Y-629222D02*
X6234134Y-610174D01*
X6234134Y-610174D02*
X6215087Y-600650D01*
X6215087Y-600650D02*
X6176992Y-600650D01*
X6176992Y-600650D02*
X6157944Y-610174D01*
X6243658Y-724460D02*
X6224611Y-733984D01*
X6224611Y-733984D02*
X6176992Y-733984D01*
X6176992Y-733984D02*
X6157944Y-724460D01*
X6157944Y-724460D02*
X6148420Y-705412D01*
X6148420Y-705412D02*
X6148420Y-686365D01*
X6148420Y-686365D02*
X6157944Y-667317D01*
X6157944Y-667317D02*
X6176992Y-657793D01*
X6176992Y-657793D02*
X6224611Y-657793D01*
X6224611Y-657793D02*
X6243658Y-648270D01*
X6310325Y-600650D02*
X6386515Y-600650D01*
X6338896Y-533984D02*
X6338896Y-705412D01*
X6338896Y-705412D02*
X6348420Y-724460D01*
X6348420Y-724460D02*
X6367468Y-733984D01*
X6367468Y-733984D02*
X6386515Y-733984D01*
X6529373Y-724460D02*
X6510325Y-733984D01*
X6510325Y-733984D02*
X6472230Y-733984D01*
X6472230Y-733984D02*
X6453182Y-724460D01*
X6453182Y-724460D02*
X6443658Y-705412D01*
X6443658Y-705412D02*
X6443658Y-629222D01*
X6443658Y-629222D02*
X6453182Y-610174D01*
X6453182Y-610174D02*
X6472230Y-600650D01*
X6472230Y-600650D02*
X6510325Y-600650D01*
X6510325Y-600650D02*
X6529373Y-610174D01*
X6529373Y-610174D02*
X6538896Y-629222D01*
X6538896Y-629222D02*
X6538896Y-648270D01*
X6538896Y-648270D02*
X6443658Y-667317D01*
X6710325Y-733984D02*
X6710325Y-533984D01*
X6710325Y-724460D02*
X6691277Y-733984D01*
X6691277Y-733984D02*
X6653182Y-733984D01*
X6653182Y-733984D02*
X6634134Y-724460D01*
X6634134Y-724460D02*
X6624611Y-714936D01*
X6624611Y-714936D02*
X6615087Y-695889D01*
X6615087Y-695889D02*
X6615087Y-638746D01*
X6615087Y-638746D02*
X6624611Y-619698D01*
X6624611Y-619698D02*
X6634134Y-610174D01*
X6634134Y-610174D02*
X6653182Y-600650D01*
X6653182Y-600650D02*
X6691277Y-600650D01*
X6691277Y-600650D02*
X6710325Y-610174D01*
X6786515Y-810174D02*
X6796039Y-800650D01*
X6796039Y-800650D02*
X6815087Y-772079D01*
X6815087Y-772079D02*
X6824611Y-753031D01*
X6824611Y-753031D02*
X6834134Y-724460D01*
X6834134Y-724460D02*
X6843658Y-676841D01*
X6843658Y-676841D02*
X6843658Y-638746D01*
X6843658Y-638746D02*
X6834134Y-591127D01*
X6834134Y-591127D02*
X6824611Y-562555D01*
X6824611Y-562555D02*
X6815087Y-543508D01*
X6815087Y-543508D02*
X6796039Y-514936D01*
X6796039Y-514936D02*
X6786515Y-505412D01*
M02*
