G04 #@! TF.GenerationSoftware,KiCad,Pcbnew,9.0.3*
G04 #@! TF.CreationDate,2026-01-03T08:49:13-08:00*
G04 #@! TF.ProjectId,ir-remote,69722d72-656d-46f7-9465-2e6b69636164,rev?*
G04 #@! TF.SameCoordinates,Original*
G04 #@! TF.FileFunction,Legend,Top*
G04 #@! TF.FilePolarity,Positive*
%FSLAX46Y46*%
G04 Gerber Fmt 4.6, Leading zero omitted, Abs format (unit mm)*
G04 Created by KiCad (PCBNEW 9.0.3) date 2026-01-03 08:49:13*
%MOMM*%
%LPD*%
G01*
G04 APERTURE LIST*
G04 Aperture macros list*
%AMRoundRect*
0 Rectangle with rounded corners*
0 $1 Rounding radius*
0 $2 $3 $4 $5 $6 $7 $8 $9 X,Y pos of 4 corners*
0 Add a 4 corners polygon primitive as box body*
4,1,4,$2,$3,$4,$5,$6,$7,$8,$9,$2,$3,0*
0 Add four circle primitives for the rounded corners*
1,1,$1+$1,$2,$3*
1,1,$1+$1,$4,$5*
1,1,$1+$1,$6,$7*
1,1,$1+$1,$8,$9*
0 Add four rect primitives between the rounded corners*
20,1,$1+$1,$2,$3,$4,$5,0*
20,1,$1+$1,$4,$5,$6,$7,0*
20,1,$1+$1,$6,$7,$8,$9,0*
20,1,$1+$1,$8,$9,$2,$3,0*%
G04 Aperture macros list end*
%ADD10C,0.150000*%
%ADD11C,0.100000*%
%ADD12C,0.101600*%
%ADD13C,0.200000*%
%ADD14C,0.120000*%
%ADD15C,0.203200*%
%ADD16C,0.152400*%
%ADD17C,0.050000*%
%ADD18C,0.127000*%
%ADD19C,0.010000*%
%ADD20R,1.000000X1.000000*%
%ADD21R,0.340000X0.600000*%
%ADD22RoundRect,0.243750X0.243750X0.456250X-0.243750X0.456250X-0.243750X-0.456250X0.243750X-0.456250X0*%
%ADD23C,1.451000*%
%ADD24R,1.000000X3.150000*%
%ADD25R,1.700000X0.900000*%
%ADD26C,1.651000*%
%ADD27C,3.000000*%
%ADD28RoundRect,0.150000X0.150000X-0.512500X0.150000X0.512500X-0.150000X0.512500X-0.150000X-0.512500X0*%
%ADD29R,1.700000X1.700000*%
%ADD30O,1.700000X1.700000*%
%ADD31R,0.800100X0.800100*%
%ADD32R,1.200000X3.700000*%
%ADD33RoundRect,0.075000X-0.075000X0.662500X-0.075000X-0.662500X0.075000X-0.662500X0.075000X0.662500X0*%
%ADD34RoundRect,0.075000X-0.662500X0.075000X-0.662500X-0.075000X0.662500X-0.075000X0.662500X0.075000X0*%
%ADD35O,1.727200X2.032000*%
%ADD36R,1.060000X0.650000*%
%ADD37R,0.500000X0.160000*%
%ADD38O,1.152400X2.352400*%
%ADD39O,1.152400X1.952400*%
%ADD40RoundRect,0.062500X-0.062500X0.375000X-0.062500X-0.375000X0.062500X-0.375000X0.062500X0.375000X0*%
%ADD41RoundRect,0.062500X-0.375000X0.062500X-0.375000X-0.062500X0.375000X-0.062500X0.375000X0.062500X0*%
%ADD42R,3.450000X3.450000*%
%ADD43R,0.700000X1.300000*%
%ADD44R,1.168400X1.600200*%
%ADD45R,0.160000X0.500000*%
%ADD46R,1.220000X0.650000*%
%ADD47RoundRect,0.150000X-0.512500X-0.150000X0.512500X-0.150000X0.512500X0.150000X-0.512500X0.150000X0*%
%ADD48RoundRect,0.087500X0.250000X0.087500X-0.250000X0.087500X-0.250000X-0.087500X0.250000X-0.087500X0*%
%ADD49R,1.300000X0.700000*%
%ADD50RoundRect,0.147500X-0.172500X0.147500X-0.172500X-0.147500X0.172500X-0.147500X0.172500X0.147500X0*%
%ADD51R,1.400000X1.150000*%
%ADD52C,2.700000*%
%ADD53RoundRect,0.250200X-0.649800X-0.649800X0.649800X-0.649800X0.649800X0.649800X-0.649800X0.649800X0*%
%ADD54C,1.800000*%
%ADD55O,3.000000X4.000000*%
%ADD56C,2.500000*%
G04 APERTURE END LIST*
D10*
X97179160Y17375896D02*
X97655350Y17375896D01*
X97083922Y17090181D02*
X97417255Y18090181D01*
X97417255Y18090181D02*
X97750588Y17090181D01*
X97941065Y18090181D02*
X98274398Y17090181D01*
X98274398Y17090181D02*
X98607731Y18090181D01*
X98941065Y17090181D02*
X98941065Y18090181D01*
X98941065Y18090181D02*
X99179160Y18090181D01*
X99179160Y18090181D02*
X99322017Y18042562D01*
X99322017Y18042562D02*
X99417255Y17947324D01*
X99417255Y17947324D02*
X99464874Y17852086D01*
X99464874Y17852086D02*
X99512493Y17661610D01*
X99512493Y17661610D02*
X99512493Y17518753D01*
X99512493Y17518753D02*
X99464874Y17328277D01*
X99464874Y17328277D02*
X99417255Y17233039D01*
X99417255Y17233039D02*
X99322017Y17137800D01*
X99322017Y17137800D02*
X99179160Y17090181D01*
X99179160Y17090181D02*
X98941065Y17090181D01*
X99941065Y17090181D02*
X99941065Y18090181D01*
X99941065Y18090181D02*
X100179160Y18090181D01*
X100179160Y18090181D02*
X100322017Y18042562D01*
X100322017Y18042562D02*
X100417255Y17947324D01*
X100417255Y17947324D02*
X100464874Y17852086D01*
X100464874Y17852086D02*
X100512493Y17661610D01*
X100512493Y17661610D02*
X100512493Y17518753D01*
X100512493Y17518753D02*
X100464874Y17328277D01*
X100464874Y17328277D02*
X100417255Y17233039D01*
X100417255Y17233039D02*
X100322017Y17137800D01*
X100322017Y17137800D02*
X100179160Y17090181D01*
X100179160Y17090181D02*
X99941065Y17090181D01*
D11*
X32267693Y45569962D02*
X32172455Y45617581D01*
X32172455Y45617581D02*
X32029598Y45617581D01*
X32029598Y45617581D02*
X31886741Y45569962D01*
X31886741Y45569962D02*
X31791503Y45474724D01*
X31791503Y45474724D02*
X31743884Y45379486D01*
X31743884Y45379486D02*
X31696265Y45189010D01*
X31696265Y45189010D02*
X31696265Y45046153D01*
X31696265Y45046153D02*
X31743884Y44855677D01*
X31743884Y44855677D02*
X31791503Y44760439D01*
X31791503Y44760439D02*
X31886741Y44665200D01*
X31886741Y44665200D02*
X32029598Y44617581D01*
X32029598Y44617581D02*
X32124836Y44617581D01*
X32124836Y44617581D02*
X32267693Y44665200D01*
X32267693Y44665200D02*
X32315312Y44712820D01*
X32315312Y44712820D02*
X32315312Y45046153D01*
X32315312Y45046153D02*
X32124836Y45046153D01*
X32743884Y44617581D02*
X32743884Y45617581D01*
X32743884Y45617581D02*
X33315312Y44617581D01*
X33315312Y44617581D02*
X33315312Y45617581D01*
X33791503Y44617581D02*
X33791503Y45617581D01*
X33791503Y45617581D02*
X34029598Y45617581D01*
X34029598Y45617581D02*
X34172455Y45569962D01*
X34172455Y45569962D02*
X34267693Y45474724D01*
X34267693Y45474724D02*
X34315312Y45379486D01*
X34315312Y45379486D02*
X34362931Y45189010D01*
X34362931Y45189010D02*
X34362931Y45046153D01*
X34362931Y45046153D02*
X34315312Y44855677D01*
X34315312Y44855677D02*
X34267693Y44760439D01*
X34267693Y44760439D02*
X34172455Y44665200D01*
X34172455Y44665200D02*
X34029598Y44617581D01*
X34029598Y44617581D02*
X33791503Y44617581D01*
X34791503Y45284248D02*
X35553408Y44998534D01*
X35553408Y44998534D02*
X34791503Y44712820D01*
D10*
X51899160Y26567800D02*
X52042017Y26520181D01*
X52042017Y26520181D02*
X52280112Y26520181D01*
X52280112Y26520181D02*
X52375350Y26567800D01*
X52375350Y26567800D02*
X52422969Y26615420D01*
X52422969Y26615420D02*
X52470588Y26710658D01*
X52470588Y26710658D02*
X52470588Y26805896D01*
X52470588Y26805896D02*
X52422969Y26901134D01*
X52422969Y26901134D02*
X52375350Y26948753D01*
X52375350Y26948753D02*
X52280112Y26996372D01*
X52280112Y26996372D02*
X52089636Y27043991D01*
X52089636Y27043991D02*
X51994398Y27091610D01*
X51994398Y27091610D02*
X51946779Y27139229D01*
X51946779Y27139229D02*
X51899160Y27234467D01*
X51899160Y27234467D02*
X51899160Y27329705D01*
X51899160Y27329705D02*
X51946779Y27424943D01*
X51946779Y27424943D02*
X51994398Y27472562D01*
X51994398Y27472562D02*
X52089636Y27520181D01*
X52089636Y27520181D02*
X52327731Y27520181D01*
X52327731Y27520181D02*
X52470588Y27472562D01*
X52803922Y27520181D02*
X53042017Y26520181D01*
X53042017Y26520181D02*
X53232493Y27234467D01*
X53232493Y27234467D02*
X53422969Y26520181D01*
X53422969Y26520181D02*
X53661065Y27520181D01*
X54042017Y26520181D02*
X54042017Y27520181D01*
X54042017Y27520181D02*
X54280112Y27520181D01*
X54280112Y27520181D02*
X54422969Y27472562D01*
X54422969Y27472562D02*
X54518207Y27377324D01*
X54518207Y27377324D02*
X54565826Y27282086D01*
X54565826Y27282086D02*
X54613445Y27091610D01*
X54613445Y27091610D02*
X54613445Y26948753D01*
X54613445Y26948753D02*
X54565826Y26758277D01*
X54565826Y26758277D02*
X54518207Y26663039D01*
X54518207Y26663039D02*
X54422969Y26567800D01*
X54422969Y26567800D02*
X54280112Y26520181D01*
X54280112Y26520181D02*
X54042017Y26520181D01*
D11*
X24212419Y7583885D02*
X25021942Y7583885D01*
X25021942Y7583885D02*
X25117180Y7631504D01*
X25117180Y7631504D02*
X25164800Y7679123D01*
X25164800Y7679123D02*
X25212419Y7774361D01*
X25212419Y7774361D02*
X25212419Y7964837D01*
X25212419Y7964837D02*
X25164800Y8060075D01*
X25164800Y8060075D02*
X25117180Y8107694D01*
X25117180Y8107694D02*
X25021942Y8155313D01*
X25021942Y8155313D02*
X24212419Y8155313D01*
X25164800Y8583885D02*
X25212419Y8726742D01*
X25212419Y8726742D02*
X25212419Y8964837D01*
X25212419Y8964837D02*
X25164800Y9060075D01*
X25164800Y9060075D02*
X25117180Y9107694D01*
X25117180Y9107694D02*
X25021942Y9155313D01*
X25021942Y9155313D02*
X24926704Y9155313D01*
X24926704Y9155313D02*
X24831466Y9107694D01*
X24831466Y9107694D02*
X24783847Y9060075D01*
X24783847Y9060075D02*
X24736228Y8964837D01*
X24736228Y8964837D02*
X24688609Y8774361D01*
X24688609Y8774361D02*
X24640990Y8679123D01*
X24640990Y8679123D02*
X24593371Y8631504D01*
X24593371Y8631504D02*
X24498133Y8583885D01*
X24498133Y8583885D02*
X24402895Y8583885D01*
X24402895Y8583885D02*
X24307657Y8631504D01*
X24307657Y8631504D02*
X24260038Y8679123D01*
X24260038Y8679123D02*
X24212419Y8774361D01*
X24212419Y8774361D02*
X24212419Y9012456D01*
X24212419Y9012456D02*
X24260038Y9155313D01*
X24688609Y9917218D02*
X24736228Y10060075D01*
X24736228Y10060075D02*
X24783847Y10107694D01*
X24783847Y10107694D02*
X24879085Y10155313D01*
X24879085Y10155313D02*
X25021942Y10155313D01*
X25021942Y10155313D02*
X25117180Y10107694D01*
X25117180Y10107694D02*
X25164800Y10060075D01*
X25164800Y10060075D02*
X25212419Y9964837D01*
X25212419Y9964837D02*
X25212419Y9583885D01*
X25212419Y9583885D02*
X24212419Y9583885D01*
X24212419Y9583885D02*
X24212419Y9917218D01*
X24212419Y9917218D02*
X24260038Y10012456D01*
X24260038Y10012456D02*
X24307657Y10060075D01*
X24307657Y10060075D02*
X24402895Y10107694D01*
X24402895Y10107694D02*
X24498133Y10107694D01*
X24498133Y10107694D02*
X24593371Y10060075D01*
X24593371Y10060075D02*
X24640990Y10012456D01*
X24640990Y10012456D02*
X24688609Y9917218D01*
X24688609Y9917218D02*
X24688609Y9583885D01*
X24831466Y10583885D02*
X24831466Y11345789D01*
X25164800Y11774361D02*
X25212419Y11917218D01*
X25212419Y11917218D02*
X25212419Y12155313D01*
X25212419Y12155313D02*
X25164800Y12250551D01*
X25164800Y12250551D02*
X25117180Y12298170D01*
X25117180Y12298170D02*
X25021942Y12345789D01*
X25021942Y12345789D02*
X24926704Y12345789D01*
X24926704Y12345789D02*
X24831466Y12298170D01*
X24831466Y12298170D02*
X24783847Y12250551D01*
X24783847Y12250551D02*
X24736228Y12155313D01*
X24736228Y12155313D02*
X24688609Y11964837D01*
X24688609Y11964837D02*
X24640990Y11869599D01*
X24640990Y11869599D02*
X24593371Y11821980D01*
X24593371Y11821980D02*
X24498133Y11774361D01*
X24498133Y11774361D02*
X24402895Y11774361D01*
X24402895Y11774361D02*
X24307657Y11821980D01*
X24307657Y11821980D02*
X24260038Y11869599D01*
X24260038Y11869599D02*
X24212419Y11964837D01*
X24212419Y11964837D02*
X24212419Y12202932D01*
X24212419Y12202932D02*
X24260038Y12345789D01*
X25212419Y12774361D02*
X24212419Y12774361D01*
X24688609Y12774361D02*
X24688609Y13345789D01*
X25212419Y13345789D02*
X24212419Y13345789D01*
X25212419Y14298170D02*
X25212419Y13821980D01*
X25212419Y13821980D02*
X24212419Y13821980D01*
X25212419Y14631504D02*
X24212419Y14631504D01*
X24212419Y14631504D02*
X24212419Y14869599D01*
X24212419Y14869599D02*
X24260038Y15012456D01*
X24260038Y15012456D02*
X24355276Y15107694D01*
X24355276Y15107694D02*
X24450514Y15155313D01*
X24450514Y15155313D02*
X24640990Y15202932D01*
X24640990Y15202932D02*
X24783847Y15202932D01*
X24783847Y15202932D02*
X24974323Y15155313D01*
X24974323Y15155313D02*
X25069561Y15107694D01*
X25069561Y15107694D02*
X25164800Y15012456D01*
X25164800Y15012456D02*
X25212419Y14869599D01*
X25212419Y14869599D02*
X25212419Y14631504D01*
X24831466Y15631504D02*
X24831466Y16393408D01*
X24260038Y17393408D02*
X24212419Y17298170D01*
X24212419Y17298170D02*
X24212419Y17155313D01*
X24212419Y17155313D02*
X24260038Y17012456D01*
X24260038Y17012456D02*
X24355276Y16917218D01*
X24355276Y16917218D02*
X24450514Y16869599D01*
X24450514Y16869599D02*
X24640990Y16821980D01*
X24640990Y16821980D02*
X24783847Y16821980D01*
X24783847Y16821980D02*
X24974323Y16869599D01*
X24974323Y16869599D02*
X25069561Y16917218D01*
X25069561Y16917218D02*
X25164800Y17012456D01*
X25164800Y17012456D02*
X25212419Y17155313D01*
X25212419Y17155313D02*
X25212419Y17250551D01*
X25212419Y17250551D02*
X25164800Y17393408D01*
X25164800Y17393408D02*
X25117180Y17441027D01*
X25117180Y17441027D02*
X24783847Y17441027D01*
X24783847Y17441027D02*
X24783847Y17250551D01*
X25212419Y17869599D02*
X24212419Y17869599D01*
X24212419Y17869599D02*
X25212419Y18441027D01*
X25212419Y18441027D02*
X24212419Y18441027D01*
X25212419Y18917218D02*
X24212419Y18917218D01*
X24212419Y18917218D02*
X24212419Y19155313D01*
X24212419Y19155313D02*
X24260038Y19298170D01*
X24260038Y19298170D02*
X24355276Y19393408D01*
X24355276Y19393408D02*
X24450514Y19441027D01*
X24450514Y19441027D02*
X24640990Y19488646D01*
X24640990Y19488646D02*
X24783847Y19488646D01*
X24783847Y19488646D02*
X24974323Y19441027D01*
X24974323Y19441027D02*
X25069561Y19393408D01*
X25069561Y19393408D02*
X25164800Y19298170D01*
X25164800Y19298170D02*
X25212419Y19155313D01*
X25212419Y19155313D02*
X25212419Y18917218D01*
D10*
X90142969Y12830181D02*
X89666779Y12830181D01*
X89666779Y12830181D02*
X89666779Y13830181D01*
X90619160Y12830181D02*
X90523922Y12877800D01*
X90523922Y12877800D02*
X90476303Y12925420D01*
X90476303Y12925420D02*
X90428684Y13020658D01*
X90428684Y13020658D02*
X90428684Y13306372D01*
X90428684Y13306372D02*
X90476303Y13401610D01*
X90476303Y13401610D02*
X90523922Y13449229D01*
X90523922Y13449229D02*
X90619160Y13496848D01*
X90619160Y13496848D02*
X90762017Y13496848D01*
X90762017Y13496848D02*
X90857255Y13449229D01*
X90857255Y13449229D02*
X90904874Y13401610D01*
X90904874Y13401610D02*
X90952493Y13306372D01*
X90952493Y13306372D02*
X90952493Y13020658D01*
X90952493Y13020658D02*
X90904874Y12925420D01*
X90904874Y12925420D02*
X90857255Y12877800D01*
X90857255Y12877800D02*
X90762017Y12830181D01*
X90762017Y12830181D02*
X90619160Y12830181D01*
X91857255Y12830181D02*
X91381065Y12830181D01*
X91381065Y12830181D02*
X91381065Y13830181D01*
D11*
X42395312Y52017581D02*
X42061979Y52493772D01*
X41823884Y52017581D02*
X41823884Y53017581D01*
X41823884Y53017581D02*
X42204836Y53017581D01*
X42204836Y53017581D02*
X42300074Y52969962D01*
X42300074Y52969962D02*
X42347693Y52922343D01*
X42347693Y52922343D02*
X42395312Y52827105D01*
X42395312Y52827105D02*
X42395312Y52684248D01*
X42395312Y52684248D02*
X42347693Y52589010D01*
X42347693Y52589010D02*
X42300074Y52541391D01*
X42300074Y52541391D02*
X42204836Y52493772D01*
X42204836Y52493772D02*
X41823884Y52493772D01*
X42728646Y53017581D02*
X43395312Y52017581D01*
X43395312Y53017581D02*
X42728646Y52017581D01*
D10*
X78009160Y28127800D02*
X78152017Y28080181D01*
X78152017Y28080181D02*
X78390112Y28080181D01*
X78390112Y28080181D02*
X78485350Y28127800D01*
X78485350Y28127800D02*
X78532969Y28175420D01*
X78532969Y28175420D02*
X78580588Y28270658D01*
X78580588Y28270658D02*
X78580588Y28365896D01*
X78580588Y28365896D02*
X78532969Y28461134D01*
X78532969Y28461134D02*
X78485350Y28508753D01*
X78485350Y28508753D02*
X78390112Y28556372D01*
X78390112Y28556372D02*
X78199636Y28603991D01*
X78199636Y28603991D02*
X78104398Y28651610D01*
X78104398Y28651610D02*
X78056779Y28699229D01*
X78056779Y28699229D02*
X78009160Y28794467D01*
X78009160Y28794467D02*
X78009160Y28889705D01*
X78009160Y28889705D02*
X78056779Y28984943D01*
X78056779Y28984943D02*
X78104398Y29032562D01*
X78104398Y29032562D02*
X78199636Y29080181D01*
X78199636Y29080181D02*
X78437731Y29080181D01*
X78437731Y29080181D02*
X78580588Y29032562D01*
X79580588Y28175420D02*
X79532969Y28127800D01*
X79532969Y28127800D02*
X79390112Y28080181D01*
X79390112Y28080181D02*
X79294874Y28080181D01*
X79294874Y28080181D02*
X79152017Y28127800D01*
X79152017Y28127800D02*
X79056779Y28223039D01*
X79056779Y28223039D02*
X79009160Y28318277D01*
X79009160Y28318277D02*
X78961541Y28508753D01*
X78961541Y28508753D02*
X78961541Y28651610D01*
X78961541Y28651610D02*
X79009160Y28842086D01*
X79009160Y28842086D02*
X79056779Y28937324D01*
X79056779Y28937324D02*
X79152017Y29032562D01*
X79152017Y29032562D02*
X79294874Y29080181D01*
X79294874Y29080181D02*
X79390112Y29080181D01*
X79390112Y29080181D02*
X79532969Y29032562D01*
X79532969Y29032562D02*
X79580588Y28984943D01*
X80009160Y28080181D02*
X80009160Y29080181D01*
X80580588Y28080181D02*
X80152017Y28651610D01*
X80580588Y29080181D02*
X80009160Y28508753D01*
X97116779Y24620181D02*
X97116779Y25620181D01*
X97116779Y25620181D02*
X97354874Y25620181D01*
X97354874Y25620181D02*
X97497731Y25572562D01*
X97497731Y25572562D02*
X97592969Y25477324D01*
X97592969Y25477324D02*
X97640588Y25382086D01*
X97640588Y25382086D02*
X97688207Y25191610D01*
X97688207Y25191610D02*
X97688207Y25048753D01*
X97688207Y25048753D02*
X97640588Y24858277D01*
X97640588Y24858277D02*
X97592969Y24763039D01*
X97592969Y24763039D02*
X97497731Y24667800D01*
X97497731Y24667800D02*
X97354874Y24620181D01*
X97354874Y24620181D02*
X97116779Y24620181D01*
X97973922Y25620181D02*
X98307255Y24620181D01*
X98307255Y24620181D02*
X98640588Y25620181D01*
X98973922Y24620181D02*
X98973922Y25620181D01*
X98973922Y25620181D02*
X99212017Y25620181D01*
X99212017Y25620181D02*
X99354874Y25572562D01*
X99354874Y25572562D02*
X99450112Y25477324D01*
X99450112Y25477324D02*
X99497731Y25382086D01*
X99497731Y25382086D02*
X99545350Y25191610D01*
X99545350Y25191610D02*
X99545350Y25048753D01*
X99545350Y25048753D02*
X99497731Y24858277D01*
X99497731Y24858277D02*
X99450112Y24763039D01*
X99450112Y24763039D02*
X99354874Y24667800D01*
X99354874Y24667800D02*
X99212017Y24620181D01*
X99212017Y24620181D02*
X98973922Y24620181D01*
X99973922Y24620181D02*
X99973922Y25620181D01*
X99973922Y25620181D02*
X100212017Y25620181D01*
X100212017Y25620181D02*
X100354874Y25572562D01*
X100354874Y25572562D02*
X100450112Y25477324D01*
X100450112Y25477324D02*
X100497731Y25382086D01*
X100497731Y25382086D02*
X100545350Y25191610D01*
X100545350Y25191610D02*
X100545350Y25048753D01*
X100545350Y25048753D02*
X100497731Y24858277D01*
X100497731Y24858277D02*
X100450112Y24763039D01*
X100450112Y24763039D02*
X100354874Y24667800D01*
X100354874Y24667800D02*
X100212017Y24620181D01*
X100212017Y24620181D02*
X99973922Y24620181D01*
X80272969Y4240181D02*
X79796779Y4240181D01*
X79796779Y4240181D02*
X79796779Y5240181D01*
X71449819Y2556780D02*
X70449819Y2556780D01*
X71449819Y3032970D02*
X70449819Y3032970D01*
X70449819Y3032970D02*
X71449819Y3604398D01*
X71449819Y3604398D02*
X70449819Y3604398D01*
X70545057Y4032970D02*
X70497438Y4080589D01*
X70497438Y4080589D02*
X70449819Y4175827D01*
X70449819Y4175827D02*
X70449819Y4413922D01*
X70449819Y4413922D02*
X70497438Y4509160D01*
X70497438Y4509160D02*
X70545057Y4556779D01*
X70545057Y4556779D02*
X70640295Y4604398D01*
X70640295Y4604398D02*
X70735533Y4604398D01*
X70735533Y4604398D02*
X70878390Y4556779D01*
X70878390Y4556779D02*
X71449819Y3985351D01*
X71449819Y3985351D02*
X71449819Y4604398D01*
D11*
X36433884Y52067581D02*
X36433884Y53067581D01*
X36433884Y53067581D02*
X36671979Y53067581D01*
X36671979Y53067581D02*
X36814836Y53019962D01*
X36814836Y53019962D02*
X36910074Y52924724D01*
X36910074Y52924724D02*
X36957693Y52829486D01*
X36957693Y52829486D02*
X37005312Y52639010D01*
X37005312Y52639010D02*
X37005312Y52496153D01*
X37005312Y52496153D02*
X36957693Y52305677D01*
X36957693Y52305677D02*
X36910074Y52210439D01*
X36910074Y52210439D02*
X36814836Y52115200D01*
X36814836Y52115200D02*
X36671979Y52067581D01*
X36671979Y52067581D02*
X36433884Y52067581D01*
X37338646Y53067581D02*
X37957693Y53067581D01*
X37957693Y53067581D02*
X37624360Y52686629D01*
X37624360Y52686629D02*
X37767217Y52686629D01*
X37767217Y52686629D02*
X37862455Y52639010D01*
X37862455Y52639010D02*
X37910074Y52591391D01*
X37910074Y52591391D02*
X37957693Y52496153D01*
X37957693Y52496153D02*
X37957693Y52258058D01*
X37957693Y52258058D02*
X37910074Y52162820D01*
X37910074Y52162820D02*
X37862455Y52115200D01*
X37862455Y52115200D02*
X37767217Y52067581D01*
X37767217Y52067581D02*
X37481503Y52067581D01*
X37481503Y52067581D02*
X37386265Y52115200D01*
X37386265Y52115200D02*
X37338646Y52162820D01*
D10*
X88274398Y18040181D02*
X87917255Y18040181D01*
X87917255Y18040181D02*
X87917255Y19040181D01*
X88524398Y18040181D02*
X88524398Y19040181D01*
X88524398Y19040181D02*
X88702969Y19040181D01*
X88702969Y19040181D02*
X88810112Y18992562D01*
X88810112Y18992562D02*
X88881541Y18897324D01*
X88881541Y18897324D02*
X88917255Y18802086D01*
X88917255Y18802086D02*
X88952969Y18611610D01*
X88952969Y18611610D02*
X88952969Y18468753D01*
X88952969Y18468753D02*
X88917255Y18278277D01*
X88917255Y18278277D02*
X88881541Y18183039D01*
X88881541Y18183039D02*
X88810112Y18087800D01*
X88810112Y18087800D02*
X88702969Y18040181D01*
X88702969Y18040181D02*
X88524398Y18040181D01*
X89417255Y19040181D02*
X89560112Y19040181D01*
X89560112Y19040181D02*
X89631541Y18992562D01*
X89631541Y18992562D02*
X89702969Y18897324D01*
X89702969Y18897324D02*
X89738684Y18706848D01*
X89738684Y18706848D02*
X89738684Y18373515D01*
X89738684Y18373515D02*
X89702969Y18183039D01*
X89702969Y18183039D02*
X89631541Y18087800D01*
X89631541Y18087800D02*
X89560112Y18040181D01*
X89560112Y18040181D02*
X89417255Y18040181D01*
X89417255Y18040181D02*
X89345827Y18087800D01*
X89345827Y18087800D02*
X89274398Y18183039D01*
X89274398Y18183039D02*
X89238684Y18373515D01*
X89238684Y18373515D02*
X89238684Y18706848D01*
X89238684Y18706848D02*
X89274398Y18897324D01*
X89274398Y18897324D02*
X89345827Y18992562D01*
X89345827Y18992562D02*
X89417255Y19040181D01*
X90060112Y18421134D02*
X90631541Y18421134D01*
X90988683Y18563991D02*
X91238683Y18563991D01*
X91345826Y18040181D02*
X90988683Y18040181D01*
X90988683Y18040181D02*
X90988683Y19040181D01*
X90988683Y19040181D02*
X91345826Y19040181D01*
X91667254Y18040181D02*
X91667254Y19040181D01*
X91667254Y19040181D02*
X92095825Y18040181D01*
X92095825Y18040181D02*
X92095825Y19040181D01*
X104622969Y13280181D02*
X104146779Y13280181D01*
X104146779Y13280181D02*
X104146779Y14280181D01*
X105099160Y13280181D02*
X105003922Y13327800D01*
X105003922Y13327800D02*
X104956303Y13375420D01*
X104956303Y13375420D02*
X104908684Y13470658D01*
X104908684Y13470658D02*
X104908684Y13756372D01*
X104908684Y13756372D02*
X104956303Y13851610D01*
X104956303Y13851610D02*
X105003922Y13899229D01*
X105003922Y13899229D02*
X105099160Y13946848D01*
X105099160Y13946848D02*
X105242017Y13946848D01*
X105242017Y13946848D02*
X105337255Y13899229D01*
X105337255Y13899229D02*
X105384874Y13851610D01*
X105384874Y13851610D02*
X105432493Y13756372D01*
X105432493Y13756372D02*
X105432493Y13470658D01*
X105432493Y13470658D02*
X105384874Y13375420D01*
X105384874Y13375420D02*
X105337255Y13327800D01*
X105337255Y13327800D02*
X105242017Y13280181D01*
X105242017Y13280181D02*
X105099160Y13280181D01*
X106432493Y13280181D02*
X106099160Y13756372D01*
X105861065Y13280181D02*
X105861065Y14280181D01*
X105861065Y14280181D02*
X106242017Y14280181D01*
X106242017Y14280181D02*
X106337255Y14232562D01*
X106337255Y14232562D02*
X106384874Y14184943D01*
X106384874Y14184943D02*
X106432493Y14089705D01*
X106432493Y14089705D02*
X106432493Y13946848D01*
X106432493Y13946848D02*
X106384874Y13851610D01*
X106384874Y13851610D02*
X106337255Y13803991D01*
X106337255Y13803991D02*
X106242017Y13756372D01*
X106242017Y13756372D02*
X105861065Y13756372D01*
X67736779Y29410181D02*
X67736779Y30410181D01*
X67736779Y30410181D02*
X68070112Y29695896D01*
X68070112Y29695896D02*
X68403445Y30410181D01*
X68403445Y30410181D02*
X68403445Y29410181D01*
X68879636Y29410181D02*
X68879636Y30410181D01*
X69308207Y29457800D02*
X69451064Y29410181D01*
X69451064Y29410181D02*
X69689159Y29410181D01*
X69689159Y29410181D02*
X69784397Y29457800D01*
X69784397Y29457800D02*
X69832016Y29505420D01*
X69832016Y29505420D02*
X69879635Y29600658D01*
X69879635Y29600658D02*
X69879635Y29695896D01*
X69879635Y29695896D02*
X69832016Y29791134D01*
X69832016Y29791134D02*
X69784397Y29838753D01*
X69784397Y29838753D02*
X69689159Y29886372D01*
X69689159Y29886372D02*
X69498683Y29933991D01*
X69498683Y29933991D02*
X69403445Y29981610D01*
X69403445Y29981610D02*
X69355826Y30029229D01*
X69355826Y30029229D02*
X69308207Y30124467D01*
X69308207Y30124467D02*
X69308207Y30219705D01*
X69308207Y30219705D02*
X69355826Y30314943D01*
X69355826Y30314943D02*
X69403445Y30362562D01*
X69403445Y30362562D02*
X69498683Y30410181D01*
X69498683Y30410181D02*
X69736778Y30410181D01*
X69736778Y30410181D02*
X69879635Y30362562D01*
X70498683Y30410181D02*
X70689159Y30410181D01*
X70689159Y30410181D02*
X70784397Y30362562D01*
X70784397Y30362562D02*
X70879635Y30267324D01*
X70879635Y30267324D02*
X70927254Y30076848D01*
X70927254Y30076848D02*
X70927254Y29743515D01*
X70927254Y29743515D02*
X70879635Y29553039D01*
X70879635Y29553039D02*
X70784397Y29457800D01*
X70784397Y29457800D02*
X70689159Y29410181D01*
X70689159Y29410181D02*
X70498683Y29410181D01*
X70498683Y29410181D02*
X70403445Y29457800D01*
X70403445Y29457800D02*
X70308207Y29553039D01*
X70308207Y29553039D02*
X70260588Y29743515D01*
X70260588Y29743515D02*
X70260588Y30076848D01*
X70260588Y30076848D02*
X70308207Y30267324D01*
X70308207Y30267324D02*
X70403445Y30362562D01*
X70403445Y30362562D02*
X70498683Y30410181D01*
X73802969Y2020181D02*
X73326779Y2020181D01*
X73326779Y2020181D02*
X73326779Y3020181D01*
X73718207Y4520181D02*
X73384874Y4996372D01*
X73146779Y4520181D02*
X73146779Y5520181D01*
X73146779Y5520181D02*
X73527731Y5520181D01*
X73527731Y5520181D02*
X73622969Y5472562D01*
X73622969Y5472562D02*
X73670588Y5424943D01*
X73670588Y5424943D02*
X73718207Y5329705D01*
X73718207Y5329705D02*
X73718207Y5186848D01*
X73718207Y5186848D02*
X73670588Y5091610D01*
X73670588Y5091610D02*
X73622969Y5043991D01*
X73622969Y5043991D02*
X73527731Y4996372D01*
X73527731Y4996372D02*
X73146779Y4996372D01*
D11*
X39273884Y52067581D02*
X39273884Y53067581D01*
X39273884Y53067581D02*
X39511979Y53067581D01*
X39511979Y53067581D02*
X39654836Y53019962D01*
X39654836Y53019962D02*
X39750074Y52924724D01*
X39750074Y52924724D02*
X39797693Y52829486D01*
X39797693Y52829486D02*
X39845312Y52639010D01*
X39845312Y52639010D02*
X39845312Y52496153D01*
X39845312Y52496153D02*
X39797693Y52305677D01*
X39797693Y52305677D02*
X39750074Y52210439D01*
X39750074Y52210439D02*
X39654836Y52115200D01*
X39654836Y52115200D02*
X39511979Y52067581D01*
X39511979Y52067581D02*
X39273884Y52067581D01*
X40226265Y52972343D02*
X40273884Y53019962D01*
X40273884Y53019962D02*
X40369122Y53067581D01*
X40369122Y53067581D02*
X40607217Y53067581D01*
X40607217Y53067581D02*
X40702455Y53019962D01*
X40702455Y53019962D02*
X40750074Y52972343D01*
X40750074Y52972343D02*
X40797693Y52877105D01*
X40797693Y52877105D02*
X40797693Y52781867D01*
X40797693Y52781867D02*
X40750074Y52639010D01*
X40750074Y52639010D02*
X40178646Y52067581D01*
X40178646Y52067581D02*
X40797693Y52067581D01*
D10*
X80348207Y2000181D02*
X80014874Y2476372D01*
X79776779Y2000181D02*
X79776779Y3000181D01*
X79776779Y3000181D02*
X80157731Y3000181D01*
X80157731Y3000181D02*
X80252969Y2952562D01*
X80252969Y2952562D02*
X80300588Y2904943D01*
X80300588Y2904943D02*
X80348207Y2809705D01*
X80348207Y2809705D02*
X80348207Y2666848D01*
X80348207Y2666848D02*
X80300588Y2571610D01*
X80300588Y2571610D02*
X80252969Y2523991D01*
X80252969Y2523991D02*
X80157731Y2476372D01*
X80157731Y2476372D02*
X79776779Y2476372D01*
X83560588Y31002562D02*
X83465350Y31050181D01*
X83465350Y31050181D02*
X83322493Y31050181D01*
X83322493Y31050181D02*
X83179636Y31002562D01*
X83179636Y31002562D02*
X83084398Y30907324D01*
X83084398Y30907324D02*
X83036779Y30812086D01*
X83036779Y30812086D02*
X82989160Y30621610D01*
X82989160Y30621610D02*
X82989160Y30478753D01*
X82989160Y30478753D02*
X83036779Y30288277D01*
X83036779Y30288277D02*
X83084398Y30193039D01*
X83084398Y30193039D02*
X83179636Y30097800D01*
X83179636Y30097800D02*
X83322493Y30050181D01*
X83322493Y30050181D02*
X83417731Y30050181D01*
X83417731Y30050181D02*
X83560588Y30097800D01*
X83560588Y30097800D02*
X83608207Y30145420D01*
X83608207Y30145420D02*
X83608207Y30478753D01*
X83608207Y30478753D02*
X83417731Y30478753D01*
X84036779Y30050181D02*
X84036779Y31050181D01*
X84036779Y31050181D02*
X84417731Y31050181D01*
X84417731Y31050181D02*
X84512969Y31002562D01*
X84512969Y31002562D02*
X84560588Y30954943D01*
X84560588Y30954943D02*
X84608207Y30859705D01*
X84608207Y30859705D02*
X84608207Y30716848D01*
X84608207Y30716848D02*
X84560588Y30621610D01*
X84560588Y30621610D02*
X84512969Y30573991D01*
X84512969Y30573991D02*
X84417731Y30526372D01*
X84417731Y30526372D02*
X84036779Y30526372D01*
X85036779Y30050181D02*
X85036779Y31050181D01*
X85703445Y31050181D02*
X85893921Y31050181D01*
X85893921Y31050181D02*
X85989159Y31002562D01*
X85989159Y31002562D02*
X86084397Y30907324D01*
X86084397Y30907324D02*
X86132016Y30716848D01*
X86132016Y30716848D02*
X86132016Y30383515D01*
X86132016Y30383515D02*
X86084397Y30193039D01*
X86084397Y30193039D02*
X85989159Y30097800D01*
X85989159Y30097800D02*
X85893921Y30050181D01*
X85893921Y30050181D02*
X85703445Y30050181D01*
X85703445Y30050181D02*
X85608207Y30097800D01*
X85608207Y30097800D02*
X85512969Y30193039D01*
X85512969Y30193039D02*
X85465350Y30383515D01*
X85465350Y30383515D02*
X85465350Y30716848D01*
X85465350Y30716848D02*
X85512969Y30907324D01*
X85512969Y30907324D02*
X85608207Y31002562D01*
X85608207Y31002562D02*
X85703445Y31050181D01*
X57022969Y21950181D02*
X56546779Y21950181D01*
X56546779Y21950181D02*
X56546779Y22950181D01*
X57356303Y21950181D02*
X57356303Y22616848D01*
X57356303Y22950181D02*
X57308684Y22902562D01*
X57308684Y22902562D02*
X57356303Y22854943D01*
X57356303Y22854943D02*
X57403922Y22902562D01*
X57403922Y22902562D02*
X57356303Y22950181D01*
X57356303Y22950181D02*
X57356303Y22854943D01*
X58308683Y21950181D02*
X57832493Y21950181D01*
X57832493Y21950181D02*
X57832493Y22950181D01*
X77496779Y6630181D02*
X77496779Y7630181D01*
X77972969Y6630181D02*
X77972969Y7630181D01*
X77972969Y7630181D02*
X78544397Y6630181D01*
X78544397Y6630181D02*
X78544397Y7630181D01*
X78925350Y7630181D02*
X79544397Y7630181D01*
X79544397Y7630181D02*
X79211064Y7249229D01*
X79211064Y7249229D02*
X79353921Y7249229D01*
X79353921Y7249229D02*
X79449159Y7201610D01*
X79449159Y7201610D02*
X79496778Y7153991D01*
X79496778Y7153991D02*
X79544397Y7058753D01*
X79544397Y7058753D02*
X79544397Y6820658D01*
X79544397Y6820658D02*
X79496778Y6725420D01*
X79496778Y6725420D02*
X79449159Y6677800D01*
X79449159Y6677800D02*
X79353921Y6630181D01*
X79353921Y6630181D02*
X79068207Y6630181D01*
X79068207Y6630181D02*
X78972969Y6677800D01*
X78972969Y6677800D02*
X78925350Y6725420D01*
X89236779Y1540181D02*
X89236779Y2540181D01*
X89236779Y2063991D02*
X89808207Y2063991D01*
X89808207Y1540181D02*
X89808207Y2540181D01*
X90284398Y2063991D02*
X90617731Y2063991D01*
X90760588Y1540181D02*
X90284398Y1540181D01*
X90284398Y1540181D02*
X90284398Y2540181D01*
X90284398Y2540181D02*
X90760588Y2540181D01*
X91141541Y1825896D02*
X91617731Y1825896D01*
X91046303Y1540181D02*
X91379636Y2540181D01*
X91379636Y2540181D02*
X91712969Y1540181D01*
X92046303Y1540181D02*
X92046303Y2540181D01*
X92046303Y2540181D02*
X92284398Y2540181D01*
X92284398Y2540181D02*
X92427255Y2492562D01*
X92427255Y2492562D02*
X92522493Y2397324D01*
X92522493Y2397324D02*
X92570112Y2302086D01*
X92570112Y2302086D02*
X92617731Y2111610D01*
X92617731Y2111610D02*
X92617731Y1968753D01*
X92617731Y1968753D02*
X92570112Y1778277D01*
X92570112Y1778277D02*
X92522493Y1683039D01*
X92522493Y1683039D02*
X92427255Y1587800D01*
X92427255Y1587800D02*
X92284398Y1540181D01*
X92284398Y1540181D02*
X92046303Y1540181D01*
X93046303Y1540181D02*
X93046303Y2540181D01*
X93046303Y2540181D02*
X93427255Y2540181D01*
X93427255Y2540181D02*
X93522493Y2492562D01*
X93522493Y2492562D02*
X93570112Y2444943D01*
X93570112Y2444943D02*
X93617731Y2349705D01*
X93617731Y2349705D02*
X93617731Y2206848D01*
X93617731Y2206848D02*
X93570112Y2111610D01*
X93570112Y2111610D02*
X93522493Y2063991D01*
X93522493Y2063991D02*
X93427255Y2016372D01*
X93427255Y2016372D02*
X93046303Y2016372D01*
X94046303Y1540181D02*
X94046303Y2540181D01*
X94046303Y2063991D02*
X94617731Y2063991D01*
X94617731Y1540181D02*
X94617731Y2540181D01*
X95284398Y2540181D02*
X95474874Y2540181D01*
X95474874Y2540181D02*
X95570112Y2492562D01*
X95570112Y2492562D02*
X95665350Y2397324D01*
X95665350Y2397324D02*
X95712969Y2206848D01*
X95712969Y2206848D02*
X95712969Y1873515D01*
X95712969Y1873515D02*
X95665350Y1683039D01*
X95665350Y1683039D02*
X95570112Y1587800D01*
X95570112Y1587800D02*
X95474874Y1540181D01*
X95474874Y1540181D02*
X95284398Y1540181D01*
X95284398Y1540181D02*
X95189160Y1587800D01*
X95189160Y1587800D02*
X95093922Y1683039D01*
X95093922Y1683039D02*
X95046303Y1873515D01*
X95046303Y1873515D02*
X95046303Y2206848D01*
X95046303Y2206848D02*
X95093922Y2397324D01*
X95093922Y2397324D02*
X95189160Y2492562D01*
X95189160Y2492562D02*
X95284398Y2540181D01*
X96141541Y1540181D02*
X96141541Y2540181D01*
X96141541Y2540181D02*
X96712969Y1540181D01*
X96712969Y1540181D02*
X96712969Y2540181D01*
X97189160Y2063991D02*
X97522493Y2063991D01*
X97665350Y1540181D02*
X97189160Y1540181D01*
X97189160Y1540181D02*
X97189160Y2540181D01*
X97189160Y2540181D02*
X97665350Y2540181D01*
X98046303Y1587800D02*
X98189160Y1540181D01*
X98189160Y1540181D02*
X98427255Y1540181D01*
X98427255Y1540181D02*
X98522493Y1587800D01*
X98522493Y1587800D02*
X98570112Y1635420D01*
X98570112Y1635420D02*
X98617731Y1730658D01*
X98617731Y1730658D02*
X98617731Y1825896D01*
X98617731Y1825896D02*
X98570112Y1921134D01*
X98570112Y1921134D02*
X98522493Y1968753D01*
X98522493Y1968753D02*
X98427255Y2016372D01*
X98427255Y2016372D02*
X98236779Y2063991D01*
X98236779Y2063991D02*
X98141541Y2111610D01*
X98141541Y2111610D02*
X98093922Y2159229D01*
X98093922Y2159229D02*
X98046303Y2254467D01*
X98046303Y2254467D02*
X98046303Y2349705D01*
X98046303Y2349705D02*
X98093922Y2444943D01*
X98093922Y2444943D02*
X98141541Y2492562D01*
X98141541Y2492562D02*
X98236779Y2540181D01*
X98236779Y2540181D02*
X98474874Y2540181D01*
X98474874Y2540181D02*
X98617731Y2492562D01*
D11*
X44451027Y53067581D02*
X45022455Y53067581D01*
X44736741Y52067581D02*
X44736741Y53067581D01*
X45260551Y53067581D02*
X45927217Y52067581D01*
X45927217Y53067581D02*
X45260551Y52067581D01*
D10*
X67312969Y22460181D02*
X66836779Y22460181D01*
X66836779Y22460181D02*
X66836779Y23460181D01*
X67646303Y22460181D02*
X67646303Y23126848D01*
X67646303Y23460181D02*
X67598684Y23412562D01*
X67598684Y23412562D02*
X67646303Y23364943D01*
X67646303Y23364943D02*
X67693922Y23412562D01*
X67693922Y23412562D02*
X67646303Y23460181D01*
X67646303Y23460181D02*
X67646303Y23364943D01*
X68693921Y22460181D02*
X68360588Y22936372D01*
X68122493Y22460181D02*
X68122493Y23460181D01*
X68122493Y23460181D02*
X68503445Y23460181D01*
X68503445Y23460181D02*
X68598683Y23412562D01*
X68598683Y23412562D02*
X68646302Y23364943D01*
X68646302Y23364943D02*
X68693921Y23269705D01*
X68693921Y23269705D02*
X68693921Y23126848D01*
X68693921Y23126848D02*
X68646302Y23031610D01*
X68646302Y23031610D02*
X68598683Y22983991D01*
X68598683Y22983991D02*
X68503445Y22936372D01*
X68503445Y22936372D02*
X68122493Y22936372D01*
X73236779Y9440181D02*
X73236779Y10440181D01*
X73236779Y10440181D02*
X73570112Y9725896D01*
X73570112Y9725896D02*
X73903445Y10440181D01*
X73903445Y10440181D02*
X73903445Y9440181D01*
X74379636Y9440181D02*
X74379636Y10440181D01*
X75427254Y9535420D02*
X75379635Y9487800D01*
X75379635Y9487800D02*
X75236778Y9440181D01*
X75236778Y9440181D02*
X75141540Y9440181D01*
X75141540Y9440181D02*
X74998683Y9487800D01*
X74998683Y9487800D02*
X74903445Y9583039D01*
X74903445Y9583039D02*
X74855826Y9678277D01*
X74855826Y9678277D02*
X74808207Y9868753D01*
X74808207Y9868753D02*
X74808207Y10011610D01*
X74808207Y10011610D02*
X74855826Y10202086D01*
X74855826Y10202086D02*
X74903445Y10297324D01*
X74903445Y10297324D02*
X74998683Y10392562D01*
X74998683Y10392562D02*
X75141540Y10440181D01*
X75141540Y10440181D02*
X75236778Y10440181D01*
X75236778Y10440181D02*
X75379635Y10392562D01*
X75379635Y10392562D02*
X75427254Y10344943D01*
X76189159Y9963991D02*
X76332016Y9916372D01*
X76332016Y9916372D02*
X76379635Y9868753D01*
X76379635Y9868753D02*
X76427254Y9773515D01*
X76427254Y9773515D02*
X76427254Y9630658D01*
X76427254Y9630658D02*
X76379635Y9535420D01*
X76379635Y9535420D02*
X76332016Y9487800D01*
X76332016Y9487800D02*
X76236778Y9440181D01*
X76236778Y9440181D02*
X75855826Y9440181D01*
X75855826Y9440181D02*
X75855826Y10440181D01*
X75855826Y10440181D02*
X76189159Y10440181D01*
X76189159Y10440181D02*
X76284397Y10392562D01*
X76284397Y10392562D02*
X76332016Y10344943D01*
X76332016Y10344943D02*
X76379635Y10249705D01*
X76379635Y10249705D02*
X76379635Y10154467D01*
X76379635Y10154467D02*
X76332016Y10059229D01*
X76332016Y10059229D02*
X76284397Y10011610D01*
X76284397Y10011610D02*
X76189159Y9963991D01*
X76189159Y9963991D02*
X75855826Y9963991D01*
X76855826Y9440181D02*
X76855826Y10440181D01*
X77284397Y9725896D02*
X77760587Y9725896D01*
X77189159Y9440181D02*
X77522492Y10440181D01*
X77522492Y10440181D02*
X77855825Y9440181D01*
X78141540Y9487800D02*
X78284397Y9440181D01*
X78284397Y9440181D02*
X78522492Y9440181D01*
X78522492Y9440181D02*
X78617730Y9487800D01*
X78617730Y9487800D02*
X78665349Y9535420D01*
X78665349Y9535420D02*
X78712968Y9630658D01*
X78712968Y9630658D02*
X78712968Y9725896D01*
X78712968Y9725896D02*
X78665349Y9821134D01*
X78665349Y9821134D02*
X78617730Y9868753D01*
X78617730Y9868753D02*
X78522492Y9916372D01*
X78522492Y9916372D02*
X78332016Y9963991D01*
X78332016Y9963991D02*
X78236778Y10011610D01*
X78236778Y10011610D02*
X78189159Y10059229D01*
X78189159Y10059229D02*
X78141540Y10154467D01*
X78141540Y10154467D02*
X78141540Y10249705D01*
X78141540Y10249705D02*
X78189159Y10344943D01*
X78189159Y10344943D02*
X78236778Y10392562D01*
X78236778Y10392562D02*
X78332016Y10440181D01*
X78332016Y10440181D02*
X78570111Y10440181D01*
X78570111Y10440181D02*
X78712968Y10392562D01*
X22022142Y11557098D02*
X21805475Y11866622D01*
X21650713Y11557098D02*
X21650713Y12207098D01*
X21650713Y12207098D02*
X21898332Y12207098D01*
X21898332Y12207098D02*
X21960237Y12176146D01*
X21960237Y12176146D02*
X21991190Y12145193D01*
X21991190Y12145193D02*
X22022142Y12083289D01*
X22022142Y12083289D02*
X22022142Y11990431D01*
X22022142Y11990431D02*
X21991190Y11928527D01*
X21991190Y11928527D02*
X21960237Y11897574D01*
X21960237Y11897574D02*
X21898332Y11866622D01*
X21898332Y11866622D02*
X21650713Y11866622D01*
X22641190Y11557098D02*
X22269761Y11557098D01*
X22455475Y11557098D02*
X22455475Y12207098D01*
X22455475Y12207098D02*
X22393571Y12114241D01*
X22393571Y12114241D02*
X22331666Y12052336D01*
X22331666Y12052336D02*
X22269761Y12021384D01*
X23012619Y11928527D02*
X22950714Y11959479D01*
X22950714Y11959479D02*
X22919761Y11990431D01*
X22919761Y11990431D02*
X22888809Y12052336D01*
X22888809Y12052336D02*
X22888809Y12083289D01*
X22888809Y12083289D02*
X22919761Y12145193D01*
X22919761Y12145193D02*
X22950714Y12176146D01*
X22950714Y12176146D02*
X23012619Y12207098D01*
X23012619Y12207098D02*
X23136428Y12207098D01*
X23136428Y12207098D02*
X23198333Y12176146D01*
X23198333Y12176146D02*
X23229285Y12145193D01*
X23229285Y12145193D02*
X23260238Y12083289D01*
X23260238Y12083289D02*
X23260238Y12052336D01*
X23260238Y12052336D02*
X23229285Y11990431D01*
X23229285Y11990431D02*
X23198333Y11959479D01*
X23198333Y11959479D02*
X23136428Y11928527D01*
X23136428Y11928527D02*
X23012619Y11928527D01*
X23012619Y11928527D02*
X22950714Y11897574D01*
X22950714Y11897574D02*
X22919761Y11866622D01*
X22919761Y11866622D02*
X22888809Y11804717D01*
X22888809Y11804717D02*
X22888809Y11680908D01*
X22888809Y11680908D02*
X22919761Y11619003D01*
X22919761Y11619003D02*
X22950714Y11588050D01*
X22950714Y11588050D02*
X23012619Y11557098D01*
X23012619Y11557098D02*
X23136428Y11557098D01*
X23136428Y11557098D02*
X23198333Y11588050D01*
X23198333Y11588050D02*
X23229285Y11619003D01*
X23229285Y11619003D02*
X23260238Y11680908D01*
X23260238Y11680908D02*
X23260238Y11804717D01*
X23260238Y11804717D02*
X23229285Y11866622D01*
X23229285Y11866622D02*
X23198333Y11897574D01*
X23198333Y11897574D02*
X23136428Y11928527D01*
X33362902Y11172143D02*
X33053378Y10955476D01*
X33362902Y10800714D02*
X32712902Y10800714D01*
X32712902Y10800714D02*
X32712902Y11048333D01*
X32712902Y11048333D02*
X32743854Y11110238D01*
X32743854Y11110238D02*
X32774807Y11141191D01*
X32774807Y11141191D02*
X32836711Y11172143D01*
X32836711Y11172143D02*
X32929569Y11172143D01*
X32929569Y11172143D02*
X32991473Y11141191D01*
X32991473Y11141191D02*
X33022426Y11110238D01*
X33022426Y11110238D02*
X33053378Y11048333D01*
X33053378Y11048333D02*
X33053378Y10800714D01*
X33362902Y11791191D02*
X33362902Y11419762D01*
X33362902Y11605476D02*
X32712902Y11605476D01*
X32712902Y11605476D02*
X32805759Y11543572D01*
X32805759Y11543572D02*
X32867664Y11481667D01*
X32867664Y11481667D02*
X32898616Y11419762D01*
X32712902Y12007858D02*
X32712902Y12441191D01*
X32712902Y12441191D02*
X33362902Y12162620D01*
X98603022Y14593894D02*
X98293498Y14377227D01*
X98603022Y14222465D02*
X97953022Y14222465D01*
X97953022Y14222465D02*
X97953022Y14470084D01*
X97953022Y14470084D02*
X97983974Y14531989D01*
X97983974Y14531989D02*
X98014927Y14562942D01*
X98014927Y14562942D02*
X98076831Y14593894D01*
X98076831Y14593894D02*
X98169689Y14593894D01*
X98169689Y14593894D02*
X98231593Y14562942D01*
X98231593Y14562942D02*
X98262546Y14531989D01*
X98262546Y14531989D02*
X98293498Y14470084D01*
X98293498Y14470084D02*
X98293498Y14222465D01*
X98603022Y15212942D02*
X98603022Y14841513D01*
X98603022Y15027227D02*
X97953022Y15027227D01*
X97953022Y15027227D02*
X98045879Y14965323D01*
X98045879Y14965323D02*
X98107784Y14903418D01*
X98107784Y14903418D02*
X98138736Y14841513D01*
X97953022Y15770085D02*
X97953022Y15646275D01*
X97953022Y15646275D02*
X97983974Y15584371D01*
X97983974Y15584371D02*
X98014927Y15553418D01*
X98014927Y15553418D02*
X98107784Y15491513D01*
X98107784Y15491513D02*
X98231593Y15460561D01*
X98231593Y15460561D02*
X98479212Y15460561D01*
X98479212Y15460561D02*
X98541117Y15491513D01*
X98541117Y15491513D02*
X98572070Y15522466D01*
X98572070Y15522466D02*
X98603022Y15584371D01*
X98603022Y15584371D02*
X98603022Y15708180D01*
X98603022Y15708180D02*
X98572070Y15770085D01*
X98572070Y15770085D02*
X98541117Y15801037D01*
X98541117Y15801037D02*
X98479212Y15831990D01*
X98479212Y15831990D02*
X98324450Y15831990D01*
X98324450Y15831990D02*
X98262546Y15801037D01*
X98262546Y15801037D02*
X98231593Y15770085D01*
X98231593Y15770085D02*
X98200641Y15708180D01*
X98200641Y15708180D02*
X98200641Y15584371D01*
X98200641Y15584371D02*
X98231593Y15522466D01*
X98231593Y15522466D02*
X98262546Y15491513D01*
X98262546Y15491513D02*
X98324450Y15460561D01*
X62570997Y44529643D02*
X62601950Y44498691D01*
X62601950Y44498691D02*
X62632902Y44405833D01*
X62632902Y44405833D02*
X62632902Y44343929D01*
X62632902Y44343929D02*
X62601950Y44251072D01*
X62601950Y44251072D02*
X62540045Y44189167D01*
X62540045Y44189167D02*
X62478140Y44158214D01*
X62478140Y44158214D02*
X62354330Y44127262D01*
X62354330Y44127262D02*
X62261473Y44127262D01*
X62261473Y44127262D02*
X62137664Y44158214D01*
X62137664Y44158214D02*
X62075759Y44189167D01*
X62075759Y44189167D02*
X62013854Y44251072D01*
X62013854Y44251072D02*
X61982902Y44343929D01*
X61982902Y44343929D02*
X61982902Y44405833D01*
X61982902Y44405833D02*
X62013854Y44498691D01*
X62013854Y44498691D02*
X62044807Y44529643D01*
X62044807Y44777262D02*
X62013854Y44808214D01*
X62013854Y44808214D02*
X61982902Y44870119D01*
X61982902Y44870119D02*
X61982902Y45024881D01*
X61982902Y45024881D02*
X62013854Y45086786D01*
X62013854Y45086786D02*
X62044807Y45117738D01*
X62044807Y45117738D02*
X62106711Y45148691D01*
X62106711Y45148691D02*
X62168616Y45148691D01*
X62168616Y45148691D02*
X62261473Y45117738D01*
X62261473Y45117738D02*
X62632902Y44746310D01*
X62632902Y44746310D02*
X62632902Y45148691D01*
X62199569Y45705834D02*
X62632902Y45705834D01*
X61951950Y45551072D02*
X62416235Y45396310D01*
X62416235Y45396310D02*
X62416235Y45798691D01*
X112302902Y14776235D02*
X111993378Y14559568D01*
X112302902Y14404806D02*
X111652902Y14404806D01*
X111652902Y14404806D02*
X111652902Y14652425D01*
X111652902Y14652425D02*
X111683854Y14714330D01*
X111683854Y14714330D02*
X111714807Y14745283D01*
X111714807Y14745283D02*
X111776711Y14776235D01*
X111776711Y14776235D02*
X111869569Y14776235D01*
X111869569Y14776235D02*
X111931473Y14745283D01*
X111931473Y14745283D02*
X111962426Y14714330D01*
X111962426Y14714330D02*
X111993378Y14652425D01*
X111993378Y14652425D02*
X111993378Y14404806D01*
X112302902Y15395283D02*
X112302902Y15023854D01*
X112302902Y15209568D02*
X111652902Y15209568D01*
X111652902Y15209568D02*
X111745759Y15147664D01*
X111745759Y15147664D02*
X111807664Y15085759D01*
X111807664Y15085759D02*
X111838616Y15023854D01*
X111652902Y15611950D02*
X111652902Y16014331D01*
X111652902Y16014331D02*
X111900521Y15797664D01*
X111900521Y15797664D02*
X111900521Y15890521D01*
X111900521Y15890521D02*
X111931473Y15952426D01*
X111931473Y15952426D02*
X111962426Y15983378D01*
X111962426Y15983378D02*
X112024330Y16014331D01*
X112024330Y16014331D02*
X112179092Y16014331D01*
X112179092Y16014331D02*
X112240997Y15983378D01*
X112240997Y15983378D02*
X112271950Y15952426D01*
X112271950Y15952426D02*
X112302902Y15890521D01*
X112302902Y15890521D02*
X112302902Y15704807D01*
X112302902Y15704807D02*
X112271950Y15642902D01*
X112271950Y15642902D02*
X112240997Y15611950D01*
X93608095Y28195181D02*
X93608095Y27385658D01*
X93608095Y27385658D02*
X93655714Y27290420D01*
X93655714Y27290420D02*
X93703333Y27242800D01*
X93703333Y27242800D02*
X93798571Y27195181D01*
X93798571Y27195181D02*
X93989047Y27195181D01*
X93989047Y27195181D02*
X94084285Y27242800D01*
X94084285Y27242800D02*
X94131904Y27290420D01*
X94131904Y27290420D02*
X94179523Y27385658D01*
X94179523Y27385658D02*
X94179523Y28195181D01*
X94798571Y27766610D02*
X94703333Y27814229D01*
X94703333Y27814229D02*
X94655714Y27861848D01*
X94655714Y27861848D02*
X94608095Y27957086D01*
X94608095Y27957086D02*
X94608095Y28004705D01*
X94608095Y28004705D02*
X94655714Y28099943D01*
X94655714Y28099943D02*
X94703333Y28147562D01*
X94703333Y28147562D02*
X94798571Y28195181D01*
X94798571Y28195181D02*
X94989047Y28195181D01*
X94989047Y28195181D02*
X95084285Y28147562D01*
X95084285Y28147562D02*
X95131904Y28099943D01*
X95131904Y28099943D02*
X95179523Y28004705D01*
X95179523Y28004705D02*
X95179523Y27957086D01*
X95179523Y27957086D02*
X95131904Y27861848D01*
X95131904Y27861848D02*
X95084285Y27814229D01*
X95084285Y27814229D02*
X94989047Y27766610D01*
X94989047Y27766610D02*
X94798571Y27766610D01*
X94798571Y27766610D02*
X94703333Y27718991D01*
X94703333Y27718991D02*
X94655714Y27671372D01*
X94655714Y27671372D02*
X94608095Y27576134D01*
X94608095Y27576134D02*
X94608095Y27385658D01*
X94608095Y27385658D02*
X94655714Y27290420D01*
X94655714Y27290420D02*
X94703333Y27242800D01*
X94703333Y27242800D02*
X94798571Y27195181D01*
X94798571Y27195181D02*
X94989047Y27195181D01*
X94989047Y27195181D02*
X95084285Y27242800D01*
X95084285Y27242800D02*
X95131904Y27290420D01*
X95131904Y27290420D02*
X95179523Y27385658D01*
X95179523Y27385658D02*
X95179523Y27576134D01*
X95179523Y27576134D02*
X95131904Y27671372D01*
X95131904Y27671372D02*
X95084285Y27718991D01*
X95084285Y27718991D02*
X94989047Y27766610D01*
X73030997Y16332143D02*
X73061950Y16301191D01*
X73061950Y16301191D02*
X73092902Y16208333D01*
X73092902Y16208333D02*
X73092902Y16146429D01*
X73092902Y16146429D02*
X73061950Y16053572D01*
X73061950Y16053572D02*
X73000045Y15991667D01*
X73000045Y15991667D02*
X72938140Y15960714D01*
X72938140Y15960714D02*
X72814330Y15929762D01*
X72814330Y15929762D02*
X72721473Y15929762D01*
X72721473Y15929762D02*
X72597664Y15960714D01*
X72597664Y15960714D02*
X72535759Y15991667D01*
X72535759Y15991667D02*
X72473854Y16053572D01*
X72473854Y16053572D02*
X72442902Y16146429D01*
X72442902Y16146429D02*
X72442902Y16208333D01*
X72442902Y16208333D02*
X72473854Y16301191D01*
X72473854Y16301191D02*
X72504807Y16332143D01*
X72504807Y16579762D02*
X72473854Y16610714D01*
X72473854Y16610714D02*
X72442902Y16672619D01*
X72442902Y16672619D02*
X72442902Y16827381D01*
X72442902Y16827381D02*
X72473854Y16889286D01*
X72473854Y16889286D02*
X72504807Y16920238D01*
X72504807Y16920238D02*
X72566711Y16951191D01*
X72566711Y16951191D02*
X72628616Y16951191D01*
X72628616Y16951191D02*
X72721473Y16920238D01*
X72721473Y16920238D02*
X73092902Y16548810D01*
X73092902Y16548810D02*
X73092902Y16951191D01*
X72442902Y17353572D02*
X72442902Y17415477D01*
X72442902Y17415477D02*
X72473854Y17477381D01*
X72473854Y17477381D02*
X72504807Y17508334D01*
X72504807Y17508334D02*
X72566711Y17539286D01*
X72566711Y17539286D02*
X72690521Y17570239D01*
X72690521Y17570239D02*
X72845283Y17570239D01*
X72845283Y17570239D02*
X72969092Y17539286D01*
X72969092Y17539286D02*
X73030997Y17508334D01*
X73030997Y17508334D02*
X73061950Y17477381D01*
X73061950Y17477381D02*
X73092902Y17415477D01*
X73092902Y17415477D02*
X73092902Y17353572D01*
X73092902Y17353572D02*
X73061950Y17291667D01*
X73061950Y17291667D02*
X73030997Y17260715D01*
X73030997Y17260715D02*
X72969092Y17229762D01*
X72969092Y17229762D02*
X72845283Y17198810D01*
X72845283Y17198810D02*
X72690521Y17198810D01*
X72690521Y17198810D02*
X72566711Y17229762D01*
X72566711Y17229762D02*
X72504807Y17260715D01*
X72504807Y17260715D02*
X72473854Y17291667D01*
X72473854Y17291667D02*
X72442902Y17353572D01*
X73681666Y30247098D02*
X73464999Y30556622D01*
X73310237Y30247098D02*
X73310237Y30897098D01*
X73310237Y30897098D02*
X73557856Y30897098D01*
X73557856Y30897098D02*
X73619761Y30866146D01*
X73619761Y30866146D02*
X73650714Y30835193D01*
X73650714Y30835193D02*
X73681666Y30773289D01*
X73681666Y30773289D02*
X73681666Y30680431D01*
X73681666Y30680431D02*
X73650714Y30618527D01*
X73650714Y30618527D02*
X73619761Y30587574D01*
X73619761Y30587574D02*
X73557856Y30556622D01*
X73557856Y30556622D02*
X73310237Y30556622D01*
X73898333Y30897098D02*
X74300714Y30897098D01*
X74300714Y30897098D02*
X74084047Y30649479D01*
X74084047Y30649479D02*
X74176904Y30649479D01*
X74176904Y30649479D02*
X74238809Y30618527D01*
X74238809Y30618527D02*
X74269761Y30587574D01*
X74269761Y30587574D02*
X74300714Y30525670D01*
X74300714Y30525670D02*
X74300714Y30370908D01*
X74300714Y30370908D02*
X74269761Y30309003D01*
X74269761Y30309003D02*
X74238809Y30278050D01*
X74238809Y30278050D02*
X74176904Y30247098D01*
X74176904Y30247098D02*
X73991190Y30247098D01*
X73991190Y30247098D02*
X73929285Y30278050D01*
X73929285Y30278050D02*
X73898333Y30309003D01*
X35843333Y41675181D02*
X35367143Y41675181D01*
X35367143Y41675181D02*
X35367143Y42675181D01*
X36081429Y42675181D02*
X36700476Y42675181D01*
X36700476Y42675181D02*
X36367143Y42294229D01*
X36367143Y42294229D02*
X36510000Y42294229D01*
X36510000Y42294229D02*
X36605238Y42246610D01*
X36605238Y42246610D02*
X36652857Y42198991D01*
X36652857Y42198991D02*
X36700476Y42103753D01*
X36700476Y42103753D02*
X36700476Y41865658D01*
X36700476Y41865658D02*
X36652857Y41770420D01*
X36652857Y41770420D02*
X36605238Y41722800D01*
X36605238Y41722800D02*
X36510000Y41675181D01*
X36510000Y41675181D02*
X36224286Y41675181D01*
X36224286Y41675181D02*
X36129048Y41722800D01*
X36129048Y41722800D02*
X36081429Y41770420D01*
X87162902Y40184643D02*
X86853378Y39967976D01*
X87162902Y39813214D02*
X86512902Y39813214D01*
X86512902Y39813214D02*
X86512902Y40060833D01*
X86512902Y40060833D02*
X86543854Y40122738D01*
X86543854Y40122738D02*
X86574807Y40153691D01*
X86574807Y40153691D02*
X86636711Y40184643D01*
X86636711Y40184643D02*
X86729569Y40184643D01*
X86729569Y40184643D02*
X86791473Y40153691D01*
X86791473Y40153691D02*
X86822426Y40122738D01*
X86822426Y40122738D02*
X86853378Y40060833D01*
X86853378Y40060833D02*
X86853378Y39813214D01*
X86574807Y40432262D02*
X86543854Y40463214D01*
X86543854Y40463214D02*
X86512902Y40525119D01*
X86512902Y40525119D02*
X86512902Y40679881D01*
X86512902Y40679881D02*
X86543854Y40741786D01*
X86543854Y40741786D02*
X86574807Y40772738D01*
X86574807Y40772738D02*
X86636711Y40803691D01*
X86636711Y40803691D02*
X86698616Y40803691D01*
X86698616Y40803691D02*
X86791473Y40772738D01*
X86791473Y40772738D02*
X87162902Y40401310D01*
X87162902Y40401310D02*
X87162902Y40803691D01*
X86512902Y41020358D02*
X86512902Y41453691D01*
X86512902Y41453691D02*
X87162902Y41175120D01*
X73132902Y6729762D02*
X73132902Y7101191D01*
X73782902Y6915477D02*
X73132902Y6915477D01*
X73782902Y7317857D02*
X73132902Y7317857D01*
X73132902Y7317857D02*
X73132902Y7565476D01*
X73132902Y7565476D02*
X73163854Y7627381D01*
X73163854Y7627381D02*
X73194807Y7658334D01*
X73194807Y7658334D02*
X73256711Y7689286D01*
X73256711Y7689286D02*
X73349569Y7689286D01*
X73349569Y7689286D02*
X73411473Y7658334D01*
X73411473Y7658334D02*
X73442426Y7627381D01*
X73442426Y7627381D02*
X73473378Y7565476D01*
X73473378Y7565476D02*
X73473378Y7317857D01*
X73411473Y8060715D02*
X73380521Y7998810D01*
X73380521Y7998810D02*
X73349569Y7967857D01*
X73349569Y7967857D02*
X73287664Y7936905D01*
X73287664Y7936905D02*
X73256711Y7936905D01*
X73256711Y7936905D02*
X73194807Y7967857D01*
X73194807Y7967857D02*
X73163854Y7998810D01*
X73163854Y7998810D02*
X73132902Y8060715D01*
X73132902Y8060715D02*
X73132902Y8184524D01*
X73132902Y8184524D02*
X73163854Y8246429D01*
X73163854Y8246429D02*
X73194807Y8277381D01*
X73194807Y8277381D02*
X73256711Y8308334D01*
X73256711Y8308334D02*
X73287664Y8308334D01*
X73287664Y8308334D02*
X73349569Y8277381D01*
X73349569Y8277381D02*
X73380521Y8246429D01*
X73380521Y8246429D02*
X73411473Y8184524D01*
X73411473Y8184524D02*
X73411473Y8060715D01*
X73411473Y8060715D02*
X73442426Y7998810D01*
X73442426Y7998810D02*
X73473378Y7967857D01*
X73473378Y7967857D02*
X73535283Y7936905D01*
X73535283Y7936905D02*
X73659092Y7936905D01*
X73659092Y7936905D02*
X73720997Y7967857D01*
X73720997Y7967857D02*
X73751950Y7998810D01*
X73751950Y7998810D02*
X73782902Y8060715D01*
X73782902Y8060715D02*
X73782902Y8184524D01*
X73782902Y8184524D02*
X73751950Y8246429D01*
X73751950Y8246429D02*
X73720997Y8277381D01*
X73720997Y8277381D02*
X73659092Y8308334D01*
X73659092Y8308334D02*
X73535283Y8308334D01*
X73535283Y8308334D02*
X73473378Y8277381D01*
X73473378Y8277381D02*
X73442426Y8246429D01*
X73442426Y8246429D02*
X73411473Y8184524D01*
X71872902Y22449762D02*
X71872902Y22821191D01*
X72522902Y22635477D02*
X71872902Y22635477D01*
X72522902Y23037857D02*
X71872902Y23037857D01*
X71872902Y23037857D02*
X71872902Y23285476D01*
X71872902Y23285476D02*
X71903854Y23347381D01*
X71903854Y23347381D02*
X71934807Y23378334D01*
X71934807Y23378334D02*
X71996711Y23409286D01*
X71996711Y23409286D02*
X72089569Y23409286D01*
X72089569Y23409286D02*
X72151473Y23378334D01*
X72151473Y23378334D02*
X72182426Y23347381D01*
X72182426Y23347381D02*
X72213378Y23285476D01*
X72213378Y23285476D02*
X72213378Y23037857D01*
X72089569Y23966429D02*
X72522902Y23966429D01*
X71841950Y23811667D02*
X72306235Y23656905D01*
X72306235Y23656905D02*
X72306235Y24059286D01*
X46724819Y47176667D02*
X47439104Y47176667D01*
X47439104Y47176667D02*
X47581961Y47129048D01*
X47581961Y47129048D02*
X47677200Y47033810D01*
X47677200Y47033810D02*
X47724819Y46890953D01*
X47724819Y46890953D02*
X47724819Y46795715D01*
X46724819Y47557620D02*
X46724819Y48176667D01*
X46724819Y48176667D02*
X47105771Y47843334D01*
X47105771Y47843334D02*
X47105771Y47986191D01*
X47105771Y47986191D02*
X47153390Y48081429D01*
X47153390Y48081429D02*
X47201009Y48129048D01*
X47201009Y48129048D02*
X47296247Y48176667D01*
X47296247Y48176667D02*
X47534342Y48176667D01*
X47534342Y48176667D02*
X47629580Y48129048D01*
X47629580Y48129048D02*
X47677200Y48081429D01*
X47677200Y48081429D02*
X47724819Y47986191D01*
X47724819Y47986191D02*
X47724819Y47700477D01*
X47724819Y47700477D02*
X47677200Y47605239D01*
X47677200Y47605239D02*
X47629580Y47557620D01*
X74212902Y27050238D02*
X74212902Y27421667D01*
X74862902Y27235953D02*
X74212902Y27235953D01*
X74862902Y27638333D02*
X74212902Y27638333D01*
X74212902Y27638333D02*
X74212902Y27885952D01*
X74212902Y27885952D02*
X74243854Y27947857D01*
X74243854Y27947857D02*
X74274807Y27978810D01*
X74274807Y27978810D02*
X74336711Y28009762D01*
X74336711Y28009762D02*
X74429569Y28009762D01*
X74429569Y28009762D02*
X74491473Y27978810D01*
X74491473Y27978810D02*
X74522426Y27947857D01*
X74522426Y27947857D02*
X74553378Y27885952D01*
X74553378Y27885952D02*
X74553378Y27638333D01*
X74862902Y28628810D02*
X74862902Y28257381D01*
X74862902Y28443095D02*
X74212902Y28443095D01*
X74212902Y28443095D02*
X74305759Y28381191D01*
X74305759Y28381191D02*
X74367664Y28319286D01*
X74367664Y28319286D02*
X74398616Y28257381D01*
X74274807Y28876429D02*
X74243854Y28907381D01*
X74243854Y28907381D02*
X74212902Y28969286D01*
X74212902Y28969286D02*
X74212902Y29124048D01*
X74212902Y29124048D02*
X74243854Y29185953D01*
X74243854Y29185953D02*
X74274807Y29216905D01*
X74274807Y29216905D02*
X74336711Y29247858D01*
X74336711Y29247858D02*
X74398616Y29247858D01*
X74398616Y29247858D02*
X74491473Y29216905D01*
X74491473Y29216905D02*
X74862902Y28845477D01*
X74862902Y28845477D02*
X74862902Y29247858D01*
X81481247Y50314411D02*
X81512200Y50283459D01*
X81512200Y50283459D02*
X81543152Y50190601D01*
X81543152Y50190601D02*
X81543152Y50128697D01*
X81543152Y50128697D02*
X81512200Y50035840D01*
X81512200Y50035840D02*
X81450295Y49973935D01*
X81450295Y49973935D02*
X81388390Y49942982D01*
X81388390Y49942982D02*
X81264580Y49912030D01*
X81264580Y49912030D02*
X81171723Y49912030D01*
X81171723Y49912030D02*
X81047914Y49942982D01*
X81047914Y49942982D02*
X80986009Y49973935D01*
X80986009Y49973935D02*
X80924104Y50035840D01*
X80924104Y50035840D02*
X80893152Y50128697D01*
X80893152Y50128697D02*
X80893152Y50190601D01*
X80893152Y50190601D02*
X80924104Y50283459D01*
X80924104Y50283459D02*
X80955057Y50314411D01*
X80893152Y50531078D02*
X80893152Y50933459D01*
X80893152Y50933459D02*
X81140771Y50716792D01*
X81140771Y50716792D02*
X81140771Y50809649D01*
X81140771Y50809649D02*
X81171723Y50871554D01*
X81171723Y50871554D02*
X81202676Y50902506D01*
X81202676Y50902506D02*
X81264580Y50933459D01*
X81264580Y50933459D02*
X81419342Y50933459D01*
X81419342Y50933459D02*
X81481247Y50902506D01*
X81481247Y50902506D02*
X81512200Y50871554D01*
X81512200Y50871554D02*
X81543152Y50809649D01*
X81543152Y50809649D02*
X81543152Y50623935D01*
X81543152Y50623935D02*
X81512200Y50562030D01*
X81512200Y50562030D02*
X81481247Y50531078D01*
X81543152Y51242983D02*
X81543152Y51366792D01*
X81543152Y51366792D02*
X81512200Y51428697D01*
X81512200Y51428697D02*
X81481247Y51459649D01*
X81481247Y51459649D02*
X81388390Y51521554D01*
X81388390Y51521554D02*
X81264580Y51552507D01*
X81264580Y51552507D02*
X81016961Y51552507D01*
X81016961Y51552507D02*
X80955057Y51521554D01*
X80955057Y51521554D02*
X80924104Y51490602D01*
X80924104Y51490602D02*
X80893152Y51428697D01*
X80893152Y51428697D02*
X80893152Y51304888D01*
X80893152Y51304888D02*
X80924104Y51242983D01*
X80924104Y51242983D02*
X80955057Y51212030D01*
X80955057Y51212030D02*
X81016961Y51181078D01*
X81016961Y51181078D02*
X81171723Y51181078D01*
X81171723Y51181078D02*
X81233628Y51212030D01*
X81233628Y51212030D02*
X81264580Y51242983D01*
X81264580Y51242983D02*
X81295533Y51304888D01*
X81295533Y51304888D02*
X81295533Y51428697D01*
X81295533Y51428697D02*
X81264580Y51490602D01*
X81264580Y51490602D02*
X81233628Y51521554D01*
X81233628Y51521554D02*
X81171723Y51552507D01*
D12*
X94437335Y18960652D02*
X95151620Y18960652D01*
X95151620Y18960652D02*
X95294477Y18913033D01*
X95294477Y18913033D02*
X95389716Y18817795D01*
X95389716Y18817795D02*
X95437335Y18674938D01*
X95437335Y18674938D02*
X95437335Y18579700D01*
X95437335Y19960652D02*
X95437335Y19389224D01*
X95437335Y19674938D02*
X94437335Y19674938D01*
X94437335Y19674938D02*
X94580192Y19579700D01*
X94580192Y19579700D02*
X94675430Y19484462D01*
X94675430Y19484462D02*
X94723049Y19389224D01*
D10*
X30705402Y33329167D02*
X30395878Y33112500D01*
X30705402Y32957738D02*
X30055402Y32957738D01*
X30055402Y32957738D02*
X30055402Y33205357D01*
X30055402Y33205357D02*
X30086354Y33267262D01*
X30086354Y33267262D02*
X30117307Y33298215D01*
X30117307Y33298215D02*
X30179211Y33329167D01*
X30179211Y33329167D02*
X30272069Y33329167D01*
X30272069Y33329167D02*
X30333973Y33298215D01*
X30333973Y33298215D02*
X30364926Y33267262D01*
X30364926Y33267262D02*
X30395878Y33205357D01*
X30395878Y33205357D02*
X30395878Y32957738D01*
X30272069Y33886310D02*
X30705402Y33886310D01*
X30024450Y33731548D02*
X30488735Y33576786D01*
X30488735Y33576786D02*
X30488735Y33979167D01*
X78821666Y14919003D02*
X78790714Y14888050D01*
X78790714Y14888050D02*
X78697856Y14857098D01*
X78697856Y14857098D02*
X78635952Y14857098D01*
X78635952Y14857098D02*
X78543095Y14888050D01*
X78543095Y14888050D02*
X78481190Y14949955D01*
X78481190Y14949955D02*
X78450237Y15011860D01*
X78450237Y15011860D02*
X78419285Y15135670D01*
X78419285Y15135670D02*
X78419285Y15228527D01*
X78419285Y15228527D02*
X78450237Y15352336D01*
X78450237Y15352336D02*
X78481190Y15414241D01*
X78481190Y15414241D02*
X78543095Y15476146D01*
X78543095Y15476146D02*
X78635952Y15507098D01*
X78635952Y15507098D02*
X78697856Y15507098D01*
X78697856Y15507098D02*
X78790714Y15476146D01*
X78790714Y15476146D02*
X78821666Y15445193D01*
X79131190Y14857098D02*
X79254999Y14857098D01*
X79254999Y14857098D02*
X79316904Y14888050D01*
X79316904Y14888050D02*
X79347856Y14919003D01*
X79347856Y14919003D02*
X79409761Y15011860D01*
X79409761Y15011860D02*
X79440714Y15135670D01*
X79440714Y15135670D02*
X79440714Y15383289D01*
X79440714Y15383289D02*
X79409761Y15445193D01*
X79409761Y15445193D02*
X79378809Y15476146D01*
X79378809Y15476146D02*
X79316904Y15507098D01*
X79316904Y15507098D02*
X79193095Y15507098D01*
X79193095Y15507098D02*
X79131190Y15476146D01*
X79131190Y15476146D02*
X79100237Y15445193D01*
X79100237Y15445193D02*
X79069285Y15383289D01*
X79069285Y15383289D02*
X79069285Y15228527D01*
X79069285Y15228527D02*
X79100237Y15166622D01*
X79100237Y15166622D02*
X79131190Y15135670D01*
X79131190Y15135670D02*
X79193095Y15104717D01*
X79193095Y15104717D02*
X79316904Y15104717D01*
X79316904Y15104717D02*
X79378809Y15135670D01*
X79378809Y15135670D02*
X79409761Y15166622D01*
X79409761Y15166622D02*
X79440714Y15228527D01*
X61650997Y15762143D02*
X61681950Y15731191D01*
X61681950Y15731191D02*
X61712902Y15638333D01*
X61712902Y15638333D02*
X61712902Y15576429D01*
X61712902Y15576429D02*
X61681950Y15483572D01*
X61681950Y15483572D02*
X61620045Y15421667D01*
X61620045Y15421667D02*
X61558140Y15390714D01*
X61558140Y15390714D02*
X61434330Y15359762D01*
X61434330Y15359762D02*
X61341473Y15359762D01*
X61341473Y15359762D02*
X61217664Y15390714D01*
X61217664Y15390714D02*
X61155759Y15421667D01*
X61155759Y15421667D02*
X61093854Y15483572D01*
X61093854Y15483572D02*
X61062902Y15576429D01*
X61062902Y15576429D02*
X61062902Y15638333D01*
X61062902Y15638333D02*
X61093854Y15731191D01*
X61093854Y15731191D02*
X61124807Y15762143D01*
X61712902Y16381191D02*
X61712902Y16009762D01*
X61712902Y16195476D02*
X61062902Y16195476D01*
X61062902Y16195476D02*
X61155759Y16133572D01*
X61155759Y16133572D02*
X61217664Y16071667D01*
X61217664Y16071667D02*
X61248616Y16009762D01*
X61712902Y16690715D02*
X61712902Y16814524D01*
X61712902Y16814524D02*
X61681950Y16876429D01*
X61681950Y16876429D02*
X61650997Y16907381D01*
X61650997Y16907381D02*
X61558140Y16969286D01*
X61558140Y16969286D02*
X61434330Y17000239D01*
X61434330Y17000239D02*
X61186711Y17000239D01*
X61186711Y17000239D02*
X61124807Y16969286D01*
X61124807Y16969286D02*
X61093854Y16938334D01*
X61093854Y16938334D02*
X61062902Y16876429D01*
X61062902Y16876429D02*
X61062902Y16752620D01*
X61062902Y16752620D02*
X61093854Y16690715D01*
X61093854Y16690715D02*
X61124807Y16659762D01*
X61124807Y16659762D02*
X61186711Y16628810D01*
X61186711Y16628810D02*
X61341473Y16628810D01*
X61341473Y16628810D02*
X61403378Y16659762D01*
X61403378Y16659762D02*
X61434330Y16690715D01*
X61434330Y16690715D02*
X61465283Y16752620D01*
X61465283Y16752620D02*
X61465283Y16876429D01*
X61465283Y16876429D02*
X61434330Y16938334D01*
X61434330Y16938334D02*
X61403378Y16969286D01*
X61403378Y16969286D02*
X61341473Y17000239D01*
X49740997Y30411667D02*
X49771950Y30380715D01*
X49771950Y30380715D02*
X49802902Y30287857D01*
X49802902Y30287857D02*
X49802902Y30225953D01*
X49802902Y30225953D02*
X49771950Y30133096D01*
X49771950Y30133096D02*
X49710045Y30071191D01*
X49710045Y30071191D02*
X49648140Y30040238D01*
X49648140Y30040238D02*
X49524330Y30009286D01*
X49524330Y30009286D02*
X49431473Y30009286D01*
X49431473Y30009286D02*
X49307664Y30040238D01*
X49307664Y30040238D02*
X49245759Y30071191D01*
X49245759Y30071191D02*
X49183854Y30133096D01*
X49183854Y30133096D02*
X49152902Y30225953D01*
X49152902Y30225953D02*
X49152902Y30287857D01*
X49152902Y30287857D02*
X49183854Y30380715D01*
X49183854Y30380715D02*
X49214807Y30411667D01*
X49802902Y31030715D02*
X49802902Y30659286D01*
X49802902Y30845000D02*
X49152902Y30845000D01*
X49152902Y30845000D02*
X49245759Y30783096D01*
X49245759Y30783096D02*
X49307664Y30721191D01*
X49307664Y30721191D02*
X49338616Y30659286D01*
X49902142Y44049003D02*
X49871190Y44018050D01*
X49871190Y44018050D02*
X49778332Y43987098D01*
X49778332Y43987098D02*
X49716428Y43987098D01*
X49716428Y43987098D02*
X49623571Y44018050D01*
X49623571Y44018050D02*
X49561666Y44079955D01*
X49561666Y44079955D02*
X49530713Y44141860D01*
X49530713Y44141860D02*
X49499761Y44265670D01*
X49499761Y44265670D02*
X49499761Y44358527D01*
X49499761Y44358527D02*
X49530713Y44482336D01*
X49530713Y44482336D02*
X49561666Y44544241D01*
X49561666Y44544241D02*
X49623571Y44606146D01*
X49623571Y44606146D02*
X49716428Y44637098D01*
X49716428Y44637098D02*
X49778332Y44637098D01*
X49778332Y44637098D02*
X49871190Y44606146D01*
X49871190Y44606146D02*
X49902142Y44575193D01*
X50118809Y44637098D02*
X50521190Y44637098D01*
X50521190Y44637098D02*
X50304523Y44389479D01*
X50304523Y44389479D02*
X50397380Y44389479D01*
X50397380Y44389479D02*
X50459285Y44358527D01*
X50459285Y44358527D02*
X50490237Y44327574D01*
X50490237Y44327574D02*
X50521190Y44265670D01*
X50521190Y44265670D02*
X50521190Y44110908D01*
X50521190Y44110908D02*
X50490237Y44049003D01*
X50490237Y44049003D02*
X50459285Y44018050D01*
X50459285Y44018050D02*
X50397380Y43987098D01*
X50397380Y43987098D02*
X50211666Y43987098D01*
X50211666Y43987098D02*
X50149761Y44018050D01*
X50149761Y44018050D02*
X50118809Y44049003D01*
X51078333Y44420431D02*
X51078333Y43987098D01*
X50923571Y44668050D02*
X50768809Y44203765D01*
X50768809Y44203765D02*
X51171190Y44203765D01*
X94072142Y44029598D02*
X93855475Y44339122D01*
X93700713Y44029598D02*
X93700713Y44679598D01*
X93700713Y44679598D02*
X93948332Y44679598D01*
X93948332Y44679598D02*
X94010237Y44648646D01*
X94010237Y44648646D02*
X94041190Y44617693D01*
X94041190Y44617693D02*
X94072142Y44555789D01*
X94072142Y44555789D02*
X94072142Y44462931D01*
X94072142Y44462931D02*
X94041190Y44401027D01*
X94041190Y44401027D02*
X94010237Y44370074D01*
X94010237Y44370074D02*
X93948332Y44339122D01*
X93948332Y44339122D02*
X93700713Y44339122D01*
X94319761Y44617693D02*
X94350713Y44648646D01*
X94350713Y44648646D02*
X94412618Y44679598D01*
X94412618Y44679598D02*
X94567380Y44679598D01*
X94567380Y44679598D02*
X94629285Y44648646D01*
X94629285Y44648646D02*
X94660237Y44617693D01*
X94660237Y44617693D02*
X94691190Y44555789D01*
X94691190Y44555789D02*
X94691190Y44493884D01*
X94691190Y44493884D02*
X94660237Y44401027D01*
X94660237Y44401027D02*
X94288809Y44029598D01*
X94288809Y44029598D02*
X94691190Y44029598D01*
X95248333Y44679598D02*
X95124523Y44679598D01*
X95124523Y44679598D02*
X95062619Y44648646D01*
X95062619Y44648646D02*
X95031666Y44617693D01*
X95031666Y44617693D02*
X94969761Y44524836D01*
X94969761Y44524836D02*
X94938809Y44401027D01*
X94938809Y44401027D02*
X94938809Y44153408D01*
X94938809Y44153408D02*
X94969761Y44091503D01*
X94969761Y44091503D02*
X95000714Y44060550D01*
X95000714Y44060550D02*
X95062619Y44029598D01*
X95062619Y44029598D02*
X95186428Y44029598D01*
X95186428Y44029598D02*
X95248333Y44060550D01*
X95248333Y44060550D02*
X95279285Y44091503D01*
X95279285Y44091503D02*
X95310238Y44153408D01*
X95310238Y44153408D02*
X95310238Y44308170D01*
X95310238Y44308170D02*
X95279285Y44370074D01*
X95279285Y44370074D02*
X95248333Y44401027D01*
X95248333Y44401027D02*
X95186428Y44431979D01*
X95186428Y44431979D02*
X95062619Y44431979D01*
X95062619Y44431979D02*
X95000714Y44401027D01*
X95000714Y44401027D02*
X94969761Y44370074D01*
X94969761Y44370074D02*
X94938809Y44308170D01*
X95310997Y25072143D02*
X95341950Y25041191D01*
X95341950Y25041191D02*
X95372902Y24948333D01*
X95372902Y24948333D02*
X95372902Y24886429D01*
X95372902Y24886429D02*
X95341950Y24793572D01*
X95341950Y24793572D02*
X95280045Y24731667D01*
X95280045Y24731667D02*
X95218140Y24700714D01*
X95218140Y24700714D02*
X95094330Y24669762D01*
X95094330Y24669762D02*
X95001473Y24669762D01*
X95001473Y24669762D02*
X94877664Y24700714D01*
X94877664Y24700714D02*
X94815759Y24731667D01*
X94815759Y24731667D02*
X94753854Y24793572D01*
X94753854Y24793572D02*
X94722902Y24886429D01*
X94722902Y24886429D02*
X94722902Y24948333D01*
X94722902Y24948333D02*
X94753854Y25041191D01*
X94753854Y25041191D02*
X94784807Y25072143D01*
X94722902Y25288810D02*
X94722902Y25691191D01*
X94722902Y25691191D02*
X94970521Y25474524D01*
X94970521Y25474524D02*
X94970521Y25567381D01*
X94970521Y25567381D02*
X95001473Y25629286D01*
X95001473Y25629286D02*
X95032426Y25660238D01*
X95032426Y25660238D02*
X95094330Y25691191D01*
X95094330Y25691191D02*
X95249092Y25691191D01*
X95249092Y25691191D02*
X95310997Y25660238D01*
X95310997Y25660238D02*
X95341950Y25629286D01*
X95341950Y25629286D02*
X95372902Y25567381D01*
X95372902Y25567381D02*
X95372902Y25381667D01*
X95372902Y25381667D02*
X95341950Y25319762D01*
X95341950Y25319762D02*
X95310997Y25288810D01*
X94784807Y25938810D02*
X94753854Y25969762D01*
X94753854Y25969762D02*
X94722902Y26031667D01*
X94722902Y26031667D02*
X94722902Y26186429D01*
X94722902Y26186429D02*
X94753854Y26248334D01*
X94753854Y26248334D02*
X94784807Y26279286D01*
X94784807Y26279286D02*
X94846711Y26310239D01*
X94846711Y26310239D02*
X94908616Y26310239D01*
X94908616Y26310239D02*
X95001473Y26279286D01*
X95001473Y26279286D02*
X95372902Y25907858D01*
X95372902Y25907858D02*
X95372902Y26310239D01*
X68202902Y16372143D02*
X67893378Y16155476D01*
X68202902Y16000714D02*
X67552902Y16000714D01*
X67552902Y16000714D02*
X67552902Y16248333D01*
X67552902Y16248333D02*
X67583854Y16310238D01*
X67583854Y16310238D02*
X67614807Y16341191D01*
X67614807Y16341191D02*
X67676711Y16372143D01*
X67676711Y16372143D02*
X67769569Y16372143D01*
X67769569Y16372143D02*
X67831473Y16341191D01*
X67831473Y16341191D02*
X67862426Y16310238D01*
X67862426Y16310238D02*
X67893378Y16248333D01*
X67893378Y16248333D02*
X67893378Y16000714D01*
X68202902Y16991191D02*
X68202902Y16619762D01*
X68202902Y16805476D02*
X67552902Y16805476D01*
X67552902Y16805476D02*
X67645759Y16743572D01*
X67645759Y16743572D02*
X67707664Y16681667D01*
X67707664Y16681667D02*
X67738616Y16619762D01*
X67552902Y17579286D02*
X67552902Y17269762D01*
X67552902Y17269762D02*
X67862426Y17238810D01*
X67862426Y17238810D02*
X67831473Y17269762D01*
X67831473Y17269762D02*
X67800521Y17331667D01*
X67800521Y17331667D02*
X67800521Y17486429D01*
X67800521Y17486429D02*
X67831473Y17548334D01*
X67831473Y17548334D02*
X67862426Y17579286D01*
X67862426Y17579286D02*
X67924330Y17610239D01*
X67924330Y17610239D02*
X68079092Y17610239D01*
X68079092Y17610239D02*
X68140997Y17579286D01*
X68140997Y17579286D02*
X68171950Y17548334D01*
X68171950Y17548334D02*
X68202902Y17486429D01*
X68202902Y17486429D02*
X68202902Y17331667D01*
X68202902Y17331667D02*
X68171950Y17269762D01*
X68171950Y17269762D02*
X68140997Y17238810D01*
X56732902Y15732143D02*
X56423378Y15515476D01*
X56732902Y15360714D02*
X56082902Y15360714D01*
X56082902Y15360714D02*
X56082902Y15608333D01*
X56082902Y15608333D02*
X56113854Y15670238D01*
X56113854Y15670238D02*
X56144807Y15701191D01*
X56144807Y15701191D02*
X56206711Y15732143D01*
X56206711Y15732143D02*
X56299569Y15732143D01*
X56299569Y15732143D02*
X56361473Y15701191D01*
X56361473Y15701191D02*
X56392426Y15670238D01*
X56392426Y15670238D02*
X56423378Y15608333D01*
X56423378Y15608333D02*
X56423378Y15360714D01*
X56732902Y16351191D02*
X56732902Y15979762D01*
X56732902Y16165476D02*
X56082902Y16165476D01*
X56082902Y16165476D02*
X56175759Y16103572D01*
X56175759Y16103572D02*
X56237664Y16041667D01*
X56237664Y16041667D02*
X56268616Y15979762D01*
X56299569Y16908334D02*
X56732902Y16908334D01*
X56051950Y16753572D02*
X56516235Y16598810D01*
X56516235Y16598810D02*
X56516235Y17001191D01*
X119030997Y49401667D02*
X119061950Y49370715D01*
X119061950Y49370715D02*
X119092902Y49277857D01*
X119092902Y49277857D02*
X119092902Y49215953D01*
X119092902Y49215953D02*
X119061950Y49123096D01*
X119061950Y49123096D02*
X119000045Y49061191D01*
X119000045Y49061191D02*
X118938140Y49030238D01*
X118938140Y49030238D02*
X118814330Y48999286D01*
X118814330Y48999286D02*
X118721473Y48999286D01*
X118721473Y48999286D02*
X118597664Y49030238D01*
X118597664Y49030238D02*
X118535759Y49061191D01*
X118535759Y49061191D02*
X118473854Y49123096D01*
X118473854Y49123096D02*
X118442902Y49215953D01*
X118442902Y49215953D02*
X118442902Y49277857D01*
X118442902Y49277857D02*
X118473854Y49370715D01*
X118473854Y49370715D02*
X118504807Y49401667D01*
X118504807Y49649286D02*
X118473854Y49680238D01*
X118473854Y49680238D02*
X118442902Y49742143D01*
X118442902Y49742143D02*
X118442902Y49896905D01*
X118442902Y49896905D02*
X118473854Y49958810D01*
X118473854Y49958810D02*
X118504807Y49989762D01*
X118504807Y49989762D02*
X118566711Y50020715D01*
X118566711Y50020715D02*
X118628616Y50020715D01*
X118628616Y50020715D02*
X118721473Y49989762D01*
X118721473Y49989762D02*
X119092902Y49618334D01*
X119092902Y49618334D02*
X119092902Y50020715D01*
X26932319Y9648096D02*
X27741842Y9648096D01*
X27741842Y9648096D02*
X27837080Y9695715D01*
X27837080Y9695715D02*
X27884700Y9743334D01*
X27884700Y9743334D02*
X27932319Y9838572D01*
X27932319Y9838572D02*
X27932319Y10029048D01*
X27932319Y10029048D02*
X27884700Y10124286D01*
X27884700Y10124286D02*
X27837080Y10171905D01*
X27837080Y10171905D02*
X27741842Y10219524D01*
X27741842Y10219524D02*
X26932319Y10219524D01*
X26932319Y11124286D02*
X26932319Y10933810D01*
X26932319Y10933810D02*
X26979938Y10838572D01*
X26979938Y10838572D02*
X27027557Y10790953D01*
X27027557Y10790953D02*
X27170414Y10695715D01*
X27170414Y10695715D02*
X27360890Y10648096D01*
X27360890Y10648096D02*
X27741842Y10648096D01*
X27741842Y10648096D02*
X27837080Y10695715D01*
X27837080Y10695715D02*
X27884700Y10743334D01*
X27884700Y10743334D02*
X27932319Y10838572D01*
X27932319Y10838572D02*
X27932319Y11029048D01*
X27932319Y11029048D02*
X27884700Y11124286D01*
X27884700Y11124286D02*
X27837080Y11171905D01*
X27837080Y11171905D02*
X27741842Y11219524D01*
X27741842Y11219524D02*
X27503747Y11219524D01*
X27503747Y11219524D02*
X27408509Y11171905D01*
X27408509Y11171905D02*
X27360890Y11124286D01*
X27360890Y11124286D02*
X27313271Y11029048D01*
X27313271Y11029048D02*
X27313271Y10838572D01*
X27313271Y10838572D02*
X27360890Y10743334D01*
X27360890Y10743334D02*
X27408509Y10695715D01*
X27408509Y10695715D02*
X27503747Y10648096D01*
X112145997Y26162143D02*
X112176950Y26131191D01*
X112176950Y26131191D02*
X112207902Y26038333D01*
X112207902Y26038333D02*
X112207902Y25976429D01*
X112207902Y25976429D02*
X112176950Y25883572D01*
X112176950Y25883572D02*
X112115045Y25821667D01*
X112115045Y25821667D02*
X112053140Y25790714D01*
X112053140Y25790714D02*
X111929330Y25759762D01*
X111929330Y25759762D02*
X111836473Y25759762D01*
X111836473Y25759762D02*
X111712664Y25790714D01*
X111712664Y25790714D02*
X111650759Y25821667D01*
X111650759Y25821667D02*
X111588854Y25883572D01*
X111588854Y25883572D02*
X111557902Y25976429D01*
X111557902Y25976429D02*
X111557902Y26038333D01*
X111557902Y26038333D02*
X111588854Y26131191D01*
X111588854Y26131191D02*
X111619807Y26162143D01*
X111619807Y26409762D02*
X111588854Y26440714D01*
X111588854Y26440714D02*
X111557902Y26502619D01*
X111557902Y26502619D02*
X111557902Y26657381D01*
X111557902Y26657381D02*
X111588854Y26719286D01*
X111588854Y26719286D02*
X111619807Y26750238D01*
X111619807Y26750238D02*
X111681711Y26781191D01*
X111681711Y26781191D02*
X111743616Y26781191D01*
X111743616Y26781191D02*
X111836473Y26750238D01*
X111836473Y26750238D02*
X112207902Y26378810D01*
X112207902Y26378810D02*
X112207902Y26781191D01*
X111836473Y27152620D02*
X111805521Y27090715D01*
X111805521Y27090715D02*
X111774569Y27059762D01*
X111774569Y27059762D02*
X111712664Y27028810D01*
X111712664Y27028810D02*
X111681711Y27028810D01*
X111681711Y27028810D02*
X111619807Y27059762D01*
X111619807Y27059762D02*
X111588854Y27090715D01*
X111588854Y27090715D02*
X111557902Y27152620D01*
X111557902Y27152620D02*
X111557902Y27276429D01*
X111557902Y27276429D02*
X111588854Y27338334D01*
X111588854Y27338334D02*
X111619807Y27369286D01*
X111619807Y27369286D02*
X111681711Y27400239D01*
X111681711Y27400239D02*
X111712664Y27400239D01*
X111712664Y27400239D02*
X111774569Y27369286D01*
X111774569Y27369286D02*
X111805521Y27338334D01*
X111805521Y27338334D02*
X111836473Y27276429D01*
X111836473Y27276429D02*
X111836473Y27152620D01*
X111836473Y27152620D02*
X111867426Y27090715D01*
X111867426Y27090715D02*
X111898378Y27059762D01*
X111898378Y27059762D02*
X111960283Y27028810D01*
X111960283Y27028810D02*
X112084092Y27028810D01*
X112084092Y27028810D02*
X112145997Y27059762D01*
X112145997Y27059762D02*
X112176950Y27090715D01*
X112176950Y27090715D02*
X112207902Y27152620D01*
X112207902Y27152620D02*
X112207902Y27276429D01*
X112207902Y27276429D02*
X112176950Y27338334D01*
X112176950Y27338334D02*
X112145997Y27369286D01*
X112145997Y27369286D02*
X112084092Y27400239D01*
X112084092Y27400239D02*
X111960283Y27400239D01*
X111960283Y27400239D02*
X111898378Y27369286D01*
X111898378Y27369286D02*
X111867426Y27338334D01*
X111867426Y27338334D02*
X111836473Y27276429D01*
X86696247Y8809411D02*
X86727200Y8778459D01*
X86727200Y8778459D02*
X86758152Y8685601D01*
X86758152Y8685601D02*
X86758152Y8623697D01*
X86758152Y8623697D02*
X86727200Y8530840D01*
X86727200Y8530840D02*
X86665295Y8468935D01*
X86665295Y8468935D02*
X86603390Y8437982D01*
X86603390Y8437982D02*
X86479580Y8407030D01*
X86479580Y8407030D02*
X86386723Y8407030D01*
X86386723Y8407030D02*
X86262914Y8437982D01*
X86262914Y8437982D02*
X86201009Y8468935D01*
X86201009Y8468935D02*
X86139104Y8530840D01*
X86139104Y8530840D02*
X86108152Y8623697D01*
X86108152Y8623697D02*
X86108152Y8685601D01*
X86108152Y8685601D02*
X86139104Y8778459D01*
X86139104Y8778459D02*
X86170057Y8809411D01*
X86758152Y9428459D02*
X86758152Y9057030D01*
X86758152Y9242744D02*
X86108152Y9242744D01*
X86108152Y9242744D02*
X86201009Y9180840D01*
X86201009Y9180840D02*
X86262914Y9118935D01*
X86262914Y9118935D02*
X86293866Y9057030D01*
X86386723Y9799888D02*
X86355771Y9737983D01*
X86355771Y9737983D02*
X86324819Y9707030D01*
X86324819Y9707030D02*
X86262914Y9676078D01*
X86262914Y9676078D02*
X86231961Y9676078D01*
X86231961Y9676078D02*
X86170057Y9707030D01*
X86170057Y9707030D02*
X86139104Y9737983D01*
X86139104Y9737983D02*
X86108152Y9799888D01*
X86108152Y9799888D02*
X86108152Y9923697D01*
X86108152Y9923697D02*
X86139104Y9985602D01*
X86139104Y9985602D02*
X86170057Y10016554D01*
X86170057Y10016554D02*
X86231961Y10047507D01*
X86231961Y10047507D02*
X86262914Y10047507D01*
X86262914Y10047507D02*
X86324819Y10016554D01*
X86324819Y10016554D02*
X86355771Y9985602D01*
X86355771Y9985602D02*
X86386723Y9923697D01*
X86386723Y9923697D02*
X86386723Y9799888D01*
X86386723Y9799888D02*
X86417676Y9737983D01*
X86417676Y9737983D02*
X86448628Y9707030D01*
X86448628Y9707030D02*
X86510533Y9676078D01*
X86510533Y9676078D02*
X86634342Y9676078D01*
X86634342Y9676078D02*
X86696247Y9707030D01*
X86696247Y9707030D02*
X86727200Y9737983D01*
X86727200Y9737983D02*
X86758152Y9799888D01*
X86758152Y9799888D02*
X86758152Y9923697D01*
X86758152Y9923697D02*
X86727200Y9985602D01*
X86727200Y9985602D02*
X86696247Y10016554D01*
X86696247Y10016554D02*
X86634342Y10047507D01*
X86634342Y10047507D02*
X86510533Y10047507D01*
X86510533Y10047507D02*
X86448628Y10016554D01*
X86448628Y10016554D02*
X86417676Y9985602D01*
X86417676Y9985602D02*
X86386723Y9923697D01*
X53486997Y44239643D02*
X53517950Y44208691D01*
X53517950Y44208691D02*
X53548902Y44115833D01*
X53548902Y44115833D02*
X53548902Y44053929D01*
X53548902Y44053929D02*
X53517950Y43961072D01*
X53517950Y43961072D02*
X53456045Y43899167D01*
X53456045Y43899167D02*
X53394140Y43868214D01*
X53394140Y43868214D02*
X53270330Y43837262D01*
X53270330Y43837262D02*
X53177473Y43837262D01*
X53177473Y43837262D02*
X53053664Y43868214D01*
X53053664Y43868214D02*
X52991759Y43899167D01*
X52991759Y43899167D02*
X52929854Y43961072D01*
X52929854Y43961072D02*
X52898902Y44053929D01*
X52898902Y44053929D02*
X52898902Y44115833D01*
X52898902Y44115833D02*
X52929854Y44208691D01*
X52929854Y44208691D02*
X52960807Y44239643D01*
X52960807Y44487262D02*
X52929854Y44518214D01*
X52929854Y44518214D02*
X52898902Y44580119D01*
X52898902Y44580119D02*
X52898902Y44734881D01*
X52898902Y44734881D02*
X52929854Y44796786D01*
X52929854Y44796786D02*
X52960807Y44827738D01*
X52960807Y44827738D02*
X53022711Y44858691D01*
X53022711Y44858691D02*
X53084616Y44858691D01*
X53084616Y44858691D02*
X53177473Y44827738D01*
X53177473Y44827738D02*
X53548902Y44456310D01*
X53548902Y44456310D02*
X53548902Y44858691D01*
X52898902Y45446786D02*
X52898902Y45137262D01*
X52898902Y45137262D02*
X53208426Y45106310D01*
X53208426Y45106310D02*
X53177473Y45137262D01*
X53177473Y45137262D02*
X53146521Y45199167D01*
X53146521Y45199167D02*
X53146521Y45353929D01*
X53146521Y45353929D02*
X53177473Y45415834D01*
X53177473Y45415834D02*
X53208426Y45446786D01*
X53208426Y45446786D02*
X53270330Y45477739D01*
X53270330Y45477739D02*
X53425092Y45477739D01*
X53425092Y45477739D02*
X53486997Y45446786D01*
X53486997Y45446786D02*
X53517950Y45415834D01*
X53517950Y45415834D02*
X53548902Y45353929D01*
X53548902Y45353929D02*
X53548902Y45199167D01*
X53548902Y45199167D02*
X53517950Y45137262D01*
X53517950Y45137262D02*
X53486997Y45106310D01*
X91660997Y46572143D02*
X91691950Y46541191D01*
X91691950Y46541191D02*
X91722902Y46448333D01*
X91722902Y46448333D02*
X91722902Y46386429D01*
X91722902Y46386429D02*
X91691950Y46293572D01*
X91691950Y46293572D02*
X91630045Y46231667D01*
X91630045Y46231667D02*
X91568140Y46200714D01*
X91568140Y46200714D02*
X91444330Y46169762D01*
X91444330Y46169762D02*
X91351473Y46169762D01*
X91351473Y46169762D02*
X91227664Y46200714D01*
X91227664Y46200714D02*
X91165759Y46231667D01*
X91165759Y46231667D02*
X91103854Y46293572D01*
X91103854Y46293572D02*
X91072902Y46386429D01*
X91072902Y46386429D02*
X91072902Y46448333D01*
X91072902Y46448333D02*
X91103854Y46541191D01*
X91103854Y46541191D02*
X91134807Y46572143D01*
X91072902Y46788810D02*
X91072902Y47191191D01*
X91072902Y47191191D02*
X91320521Y46974524D01*
X91320521Y46974524D02*
X91320521Y47067381D01*
X91320521Y47067381D02*
X91351473Y47129286D01*
X91351473Y47129286D02*
X91382426Y47160238D01*
X91382426Y47160238D02*
X91444330Y47191191D01*
X91444330Y47191191D02*
X91599092Y47191191D01*
X91599092Y47191191D02*
X91660997Y47160238D01*
X91660997Y47160238D02*
X91691950Y47129286D01*
X91691950Y47129286D02*
X91722902Y47067381D01*
X91722902Y47067381D02*
X91722902Y46881667D01*
X91722902Y46881667D02*
X91691950Y46819762D01*
X91691950Y46819762D02*
X91660997Y46788810D01*
X91072902Y47779286D02*
X91072902Y47469762D01*
X91072902Y47469762D02*
X91382426Y47438810D01*
X91382426Y47438810D02*
X91351473Y47469762D01*
X91351473Y47469762D02*
X91320521Y47531667D01*
X91320521Y47531667D02*
X91320521Y47686429D01*
X91320521Y47686429D02*
X91351473Y47748334D01*
X91351473Y47748334D02*
X91382426Y47779286D01*
X91382426Y47779286D02*
X91444330Y47810239D01*
X91444330Y47810239D02*
X91599092Y47810239D01*
X91599092Y47810239D02*
X91660997Y47779286D01*
X91660997Y47779286D02*
X91691950Y47748334D01*
X91691950Y47748334D02*
X91722902Y47686429D01*
X91722902Y47686429D02*
X91722902Y47531667D01*
X91722902Y47531667D02*
X91691950Y47469762D01*
X91691950Y47469762D02*
X91660997Y47438810D01*
X43481666Y32421503D02*
X43450714Y32390550D01*
X43450714Y32390550D02*
X43357856Y32359598D01*
X43357856Y32359598D02*
X43295952Y32359598D01*
X43295952Y32359598D02*
X43203095Y32390550D01*
X43203095Y32390550D02*
X43141190Y32452455D01*
X43141190Y32452455D02*
X43110237Y32514360D01*
X43110237Y32514360D02*
X43079285Y32638170D01*
X43079285Y32638170D02*
X43079285Y32731027D01*
X43079285Y32731027D02*
X43110237Y32854836D01*
X43110237Y32854836D02*
X43141190Y32916741D01*
X43141190Y32916741D02*
X43203095Y32978646D01*
X43203095Y32978646D02*
X43295952Y33009598D01*
X43295952Y33009598D02*
X43357856Y33009598D01*
X43357856Y33009598D02*
X43450714Y32978646D01*
X43450714Y32978646D02*
X43481666Y32947693D01*
X44069761Y33009598D02*
X43760237Y33009598D01*
X43760237Y33009598D02*
X43729285Y32700074D01*
X43729285Y32700074D02*
X43760237Y32731027D01*
X43760237Y32731027D02*
X43822142Y32761979D01*
X43822142Y32761979D02*
X43976904Y32761979D01*
X43976904Y32761979D02*
X44038809Y32731027D01*
X44038809Y32731027D02*
X44069761Y32700074D01*
X44069761Y32700074D02*
X44100714Y32638170D01*
X44100714Y32638170D02*
X44100714Y32483408D01*
X44100714Y32483408D02*
X44069761Y32421503D01*
X44069761Y32421503D02*
X44038809Y32390550D01*
X44038809Y32390550D02*
X43976904Y32359598D01*
X43976904Y32359598D02*
X43822142Y32359598D01*
X43822142Y32359598D02*
X43760237Y32390550D01*
X43760237Y32390550D02*
X43729285Y32421503D01*
X92141666Y22357098D02*
X91924999Y22666622D01*
X91770237Y22357098D02*
X91770237Y23007098D01*
X91770237Y23007098D02*
X92017856Y23007098D01*
X92017856Y23007098D02*
X92079761Y22976146D01*
X92079761Y22976146D02*
X92110714Y22945193D01*
X92110714Y22945193D02*
X92141666Y22883289D01*
X92141666Y22883289D02*
X92141666Y22790431D01*
X92141666Y22790431D02*
X92110714Y22728527D01*
X92110714Y22728527D02*
X92079761Y22697574D01*
X92079761Y22697574D02*
X92017856Y22666622D01*
X92017856Y22666622D02*
X91770237Y22666622D01*
X92451190Y22357098D02*
X92574999Y22357098D01*
X92574999Y22357098D02*
X92636904Y22388050D01*
X92636904Y22388050D02*
X92667856Y22419003D01*
X92667856Y22419003D02*
X92729761Y22511860D01*
X92729761Y22511860D02*
X92760714Y22635670D01*
X92760714Y22635670D02*
X92760714Y22883289D01*
X92760714Y22883289D02*
X92729761Y22945193D01*
X92729761Y22945193D02*
X92698809Y22976146D01*
X92698809Y22976146D02*
X92636904Y23007098D01*
X92636904Y23007098D02*
X92513095Y23007098D01*
X92513095Y23007098D02*
X92451190Y22976146D01*
X92451190Y22976146D02*
X92420237Y22945193D01*
X92420237Y22945193D02*
X92389285Y22883289D01*
X92389285Y22883289D02*
X92389285Y22728527D01*
X92389285Y22728527D02*
X92420237Y22666622D01*
X92420237Y22666622D02*
X92451190Y22635670D01*
X92451190Y22635670D02*
X92513095Y22604717D01*
X92513095Y22604717D02*
X92636904Y22604717D01*
X92636904Y22604717D02*
X92698809Y22635670D01*
X92698809Y22635670D02*
X92729761Y22666622D01*
X92729761Y22666622D02*
X92760714Y22728527D01*
X84192142Y15479003D02*
X84161190Y15448050D01*
X84161190Y15448050D02*
X84068332Y15417098D01*
X84068332Y15417098D02*
X84006428Y15417098D01*
X84006428Y15417098D02*
X83913571Y15448050D01*
X83913571Y15448050D02*
X83851666Y15509955D01*
X83851666Y15509955D02*
X83820713Y15571860D01*
X83820713Y15571860D02*
X83789761Y15695670D01*
X83789761Y15695670D02*
X83789761Y15788527D01*
X83789761Y15788527D02*
X83820713Y15912336D01*
X83820713Y15912336D02*
X83851666Y15974241D01*
X83851666Y15974241D02*
X83913571Y16036146D01*
X83913571Y16036146D02*
X84006428Y16067098D01*
X84006428Y16067098D02*
X84068332Y16067098D01*
X84068332Y16067098D02*
X84161190Y16036146D01*
X84161190Y16036146D02*
X84192142Y16005193D01*
X84811190Y15417098D02*
X84439761Y15417098D01*
X84625475Y15417098D02*
X84625475Y16067098D01*
X84625475Y16067098D02*
X84563571Y15974241D01*
X84563571Y15974241D02*
X84501666Y15912336D01*
X84501666Y15912336D02*
X84439761Y15881384D01*
X85027857Y16067098D02*
X85430238Y16067098D01*
X85430238Y16067098D02*
X85213571Y15819479D01*
X85213571Y15819479D02*
X85306428Y15819479D01*
X85306428Y15819479D02*
X85368333Y15788527D01*
X85368333Y15788527D02*
X85399285Y15757574D01*
X85399285Y15757574D02*
X85430238Y15695670D01*
X85430238Y15695670D02*
X85430238Y15540908D01*
X85430238Y15540908D02*
X85399285Y15479003D01*
X85399285Y15479003D02*
X85368333Y15448050D01*
X85368333Y15448050D02*
X85306428Y15417098D01*
X85306428Y15417098D02*
X85120714Y15417098D01*
X85120714Y15417098D02*
X85058809Y15448050D01*
X85058809Y15448050D02*
X85027857Y15479003D01*
D13*
X66518572Y26246472D02*
X65661429Y26246472D01*
X66090000Y26246472D02*
X66090000Y27746472D01*
X66090000Y27746472D02*
X65947143Y27532186D01*
X65947143Y27532186D02*
X65804286Y27389329D01*
X65804286Y27389329D02*
X65661429Y27317900D01*
D10*
X89290997Y28302143D02*
X89321950Y28271191D01*
X89321950Y28271191D02*
X89352902Y28178333D01*
X89352902Y28178333D02*
X89352902Y28116429D01*
X89352902Y28116429D02*
X89321950Y28023572D01*
X89321950Y28023572D02*
X89260045Y27961667D01*
X89260045Y27961667D02*
X89198140Y27930714D01*
X89198140Y27930714D02*
X89074330Y27899762D01*
X89074330Y27899762D02*
X88981473Y27899762D01*
X88981473Y27899762D02*
X88857664Y27930714D01*
X88857664Y27930714D02*
X88795759Y27961667D01*
X88795759Y27961667D02*
X88733854Y28023572D01*
X88733854Y28023572D02*
X88702902Y28116429D01*
X88702902Y28116429D02*
X88702902Y28178333D01*
X88702902Y28178333D02*
X88733854Y28271191D01*
X88733854Y28271191D02*
X88764807Y28302143D01*
X89352902Y28921191D02*
X89352902Y28549762D01*
X89352902Y28735476D02*
X88702902Y28735476D01*
X88702902Y28735476D02*
X88795759Y28673572D01*
X88795759Y28673572D02*
X88857664Y28611667D01*
X88857664Y28611667D02*
X88888616Y28549762D01*
X88702902Y29509286D02*
X88702902Y29199762D01*
X88702902Y29199762D02*
X89012426Y29168810D01*
X89012426Y29168810D02*
X88981473Y29199762D01*
X88981473Y29199762D02*
X88950521Y29261667D01*
X88950521Y29261667D02*
X88950521Y29416429D01*
X88950521Y29416429D02*
X88981473Y29478334D01*
X88981473Y29478334D02*
X89012426Y29509286D01*
X89012426Y29509286D02*
X89074330Y29540239D01*
X89074330Y29540239D02*
X89229092Y29540239D01*
X89229092Y29540239D02*
X89290997Y29509286D01*
X89290997Y29509286D02*
X89321950Y29478334D01*
X89321950Y29478334D02*
X89352902Y29416429D01*
X89352902Y29416429D02*
X89352902Y29261667D01*
X89352902Y29261667D02*
X89321950Y29199762D01*
X89321950Y29199762D02*
X89290997Y29168810D01*
X81660747Y41154875D02*
X81691700Y41123923D01*
X81691700Y41123923D02*
X81722652Y41031065D01*
X81722652Y41031065D02*
X81722652Y40969161D01*
X81722652Y40969161D02*
X81691700Y40876304D01*
X81691700Y40876304D02*
X81629795Y40814399D01*
X81629795Y40814399D02*
X81567890Y40783446D01*
X81567890Y40783446D02*
X81444080Y40752494D01*
X81444080Y40752494D02*
X81351223Y40752494D01*
X81351223Y40752494D02*
X81227414Y40783446D01*
X81227414Y40783446D02*
X81165509Y40814399D01*
X81165509Y40814399D02*
X81103604Y40876304D01*
X81103604Y40876304D02*
X81072652Y40969161D01*
X81072652Y40969161D02*
X81072652Y41031065D01*
X81072652Y41031065D02*
X81103604Y41123923D01*
X81103604Y41123923D02*
X81134557Y41154875D01*
X81072652Y41371542D02*
X81072652Y41773923D01*
X81072652Y41773923D02*
X81320271Y41557256D01*
X81320271Y41557256D02*
X81320271Y41650113D01*
X81320271Y41650113D02*
X81351223Y41712018D01*
X81351223Y41712018D02*
X81382176Y41742970D01*
X81382176Y41742970D02*
X81444080Y41773923D01*
X81444080Y41773923D02*
X81598842Y41773923D01*
X81598842Y41773923D02*
X81660747Y41742970D01*
X81660747Y41742970D02*
X81691700Y41712018D01*
X81691700Y41712018D02*
X81722652Y41650113D01*
X81722652Y41650113D02*
X81722652Y41464399D01*
X81722652Y41464399D02*
X81691700Y41402494D01*
X81691700Y41402494D02*
X81660747Y41371542D01*
X81072652Y42331066D02*
X81072652Y42207256D01*
X81072652Y42207256D02*
X81103604Y42145352D01*
X81103604Y42145352D02*
X81134557Y42114399D01*
X81134557Y42114399D02*
X81227414Y42052494D01*
X81227414Y42052494D02*
X81351223Y42021542D01*
X81351223Y42021542D02*
X81598842Y42021542D01*
X81598842Y42021542D02*
X81660747Y42052494D01*
X81660747Y42052494D02*
X81691700Y42083447D01*
X81691700Y42083447D02*
X81722652Y42145352D01*
X81722652Y42145352D02*
X81722652Y42269161D01*
X81722652Y42269161D02*
X81691700Y42331066D01*
X81691700Y42331066D02*
X81660747Y42362018D01*
X81660747Y42362018D02*
X81598842Y42392971D01*
X81598842Y42392971D02*
X81444080Y42392971D01*
X81444080Y42392971D02*
X81382176Y42362018D01*
X81382176Y42362018D02*
X81351223Y42331066D01*
X81351223Y42331066D02*
X81320271Y42269161D01*
X81320271Y42269161D02*
X81320271Y42145352D01*
X81320271Y42145352D02*
X81351223Y42083447D01*
X81351223Y42083447D02*
X81382176Y42052494D01*
X81382176Y42052494D02*
X81444080Y42021542D01*
X91712142Y28769003D02*
X91681190Y28738050D01*
X91681190Y28738050D02*
X91588332Y28707098D01*
X91588332Y28707098D02*
X91526428Y28707098D01*
X91526428Y28707098D02*
X91433571Y28738050D01*
X91433571Y28738050D02*
X91371666Y28799955D01*
X91371666Y28799955D02*
X91340713Y28861860D01*
X91340713Y28861860D02*
X91309761Y28985670D01*
X91309761Y28985670D02*
X91309761Y29078527D01*
X91309761Y29078527D02*
X91340713Y29202336D01*
X91340713Y29202336D02*
X91371666Y29264241D01*
X91371666Y29264241D02*
X91433571Y29326146D01*
X91433571Y29326146D02*
X91526428Y29357098D01*
X91526428Y29357098D02*
X91588332Y29357098D01*
X91588332Y29357098D02*
X91681190Y29326146D01*
X91681190Y29326146D02*
X91712142Y29295193D01*
X92331190Y28707098D02*
X91959761Y28707098D01*
X92145475Y28707098D02*
X92145475Y29357098D01*
X92145475Y29357098D02*
X92083571Y29264241D01*
X92083571Y29264241D02*
X92021666Y29202336D01*
X92021666Y29202336D02*
X91959761Y29171384D01*
X92888333Y29140431D02*
X92888333Y28707098D01*
X92733571Y29388050D02*
X92578809Y28923765D01*
X92578809Y28923765D02*
X92981190Y28923765D01*
X73221666Y19459003D02*
X73190714Y19428050D01*
X73190714Y19428050D02*
X73097856Y19397098D01*
X73097856Y19397098D02*
X73035952Y19397098D01*
X73035952Y19397098D02*
X72943095Y19428050D01*
X72943095Y19428050D02*
X72881190Y19489955D01*
X72881190Y19489955D02*
X72850237Y19551860D01*
X72850237Y19551860D02*
X72819285Y19675670D01*
X72819285Y19675670D02*
X72819285Y19768527D01*
X72819285Y19768527D02*
X72850237Y19892336D01*
X72850237Y19892336D02*
X72881190Y19954241D01*
X72881190Y19954241D02*
X72943095Y20016146D01*
X72943095Y20016146D02*
X73035952Y20047098D01*
X73035952Y20047098D02*
X73097856Y20047098D01*
X73097856Y20047098D02*
X73190714Y20016146D01*
X73190714Y20016146D02*
X73221666Y19985193D01*
X73593095Y19768527D02*
X73531190Y19799479D01*
X73531190Y19799479D02*
X73500237Y19830431D01*
X73500237Y19830431D02*
X73469285Y19892336D01*
X73469285Y19892336D02*
X73469285Y19923289D01*
X73469285Y19923289D02*
X73500237Y19985193D01*
X73500237Y19985193D02*
X73531190Y20016146D01*
X73531190Y20016146D02*
X73593095Y20047098D01*
X73593095Y20047098D02*
X73716904Y20047098D01*
X73716904Y20047098D02*
X73778809Y20016146D01*
X73778809Y20016146D02*
X73809761Y19985193D01*
X73809761Y19985193D02*
X73840714Y19923289D01*
X73840714Y19923289D02*
X73840714Y19892336D01*
X73840714Y19892336D02*
X73809761Y19830431D01*
X73809761Y19830431D02*
X73778809Y19799479D01*
X73778809Y19799479D02*
X73716904Y19768527D01*
X73716904Y19768527D02*
X73593095Y19768527D01*
X73593095Y19768527D02*
X73531190Y19737574D01*
X73531190Y19737574D02*
X73500237Y19706622D01*
X73500237Y19706622D02*
X73469285Y19644717D01*
X73469285Y19644717D02*
X73469285Y19520908D01*
X73469285Y19520908D02*
X73500237Y19459003D01*
X73500237Y19459003D02*
X73531190Y19428050D01*
X73531190Y19428050D02*
X73593095Y19397098D01*
X73593095Y19397098D02*
X73716904Y19397098D01*
X73716904Y19397098D02*
X73778809Y19428050D01*
X73778809Y19428050D02*
X73809761Y19459003D01*
X73809761Y19459003D02*
X73840714Y19520908D01*
X73840714Y19520908D02*
X73840714Y19644717D01*
X73840714Y19644717D02*
X73809761Y19706622D01*
X73809761Y19706622D02*
X73778809Y19737574D01*
X73778809Y19737574D02*
X73716904Y19768527D01*
X69232902Y26660238D02*
X69232902Y27031667D01*
X69882902Y26845953D02*
X69232902Y26845953D01*
X69882902Y27248333D02*
X69232902Y27248333D01*
X69232902Y27248333D02*
X69232902Y27495952D01*
X69232902Y27495952D02*
X69263854Y27557857D01*
X69263854Y27557857D02*
X69294807Y27588810D01*
X69294807Y27588810D02*
X69356711Y27619762D01*
X69356711Y27619762D02*
X69449569Y27619762D01*
X69449569Y27619762D02*
X69511473Y27588810D01*
X69511473Y27588810D02*
X69542426Y27557857D01*
X69542426Y27557857D02*
X69573378Y27495952D01*
X69573378Y27495952D02*
X69573378Y27248333D01*
X69882902Y28238810D02*
X69882902Y27867381D01*
X69882902Y28053095D02*
X69232902Y28053095D01*
X69232902Y28053095D02*
X69325759Y27991191D01*
X69325759Y27991191D02*
X69387664Y27929286D01*
X69387664Y27929286D02*
X69418616Y27867381D01*
X69232902Y28455477D02*
X69232902Y28857858D01*
X69232902Y28857858D02*
X69480521Y28641191D01*
X69480521Y28641191D02*
X69480521Y28734048D01*
X69480521Y28734048D02*
X69511473Y28795953D01*
X69511473Y28795953D02*
X69542426Y28826905D01*
X69542426Y28826905D02*
X69604330Y28857858D01*
X69604330Y28857858D02*
X69759092Y28857858D01*
X69759092Y28857858D02*
X69820997Y28826905D01*
X69820997Y28826905D02*
X69851950Y28795953D01*
X69851950Y28795953D02*
X69882902Y28734048D01*
X69882902Y28734048D02*
X69882902Y28548334D01*
X69882902Y28548334D02*
X69851950Y28486429D01*
X69851950Y28486429D02*
X69820997Y28455477D01*
X48805579Y35641787D02*
X49805579Y35975120D01*
X49805579Y35975120D02*
X48805579Y36308453D01*
X49805579Y37165596D02*
X49805579Y36594168D01*
X49805579Y36879882D02*
X48805579Y36879882D01*
X48805579Y36879882D02*
X48948436Y36784644D01*
X48948436Y36784644D02*
X49043674Y36689406D01*
X49043674Y36689406D02*
X49091293Y36594168D01*
X48900817Y37546549D02*
X48853198Y37594168D01*
X48853198Y37594168D02*
X48805579Y37689406D01*
X48805579Y37689406D02*
X48805579Y37927501D01*
X48805579Y37927501D02*
X48853198Y38022739D01*
X48853198Y38022739D02*
X48900817Y38070358D01*
X48900817Y38070358D02*
X48996055Y38117977D01*
X48996055Y38117977D02*
X49091293Y38117977D01*
X49091293Y38117977D02*
X49234150Y38070358D01*
X49234150Y38070358D02*
X49805579Y37498930D01*
X49805579Y37498930D02*
X49805579Y38117977D01*
X87529761Y15397098D02*
X87901190Y15397098D01*
X87715476Y14747098D02*
X87715476Y15397098D01*
X88117856Y14747098D02*
X88117856Y15397098D01*
X88117856Y15397098D02*
X88365475Y15397098D01*
X88365475Y15397098D02*
X88427380Y15366146D01*
X88427380Y15366146D02*
X88458333Y15335193D01*
X88458333Y15335193D02*
X88489285Y15273289D01*
X88489285Y15273289D02*
X88489285Y15180431D01*
X88489285Y15180431D02*
X88458333Y15118527D01*
X88458333Y15118527D02*
X88427380Y15087574D01*
X88427380Y15087574D02*
X88365475Y15056622D01*
X88365475Y15056622D02*
X88117856Y15056622D01*
X88736904Y15335193D02*
X88767856Y15366146D01*
X88767856Y15366146D02*
X88829761Y15397098D01*
X88829761Y15397098D02*
X88984523Y15397098D01*
X88984523Y15397098D02*
X89046428Y15366146D01*
X89046428Y15366146D02*
X89077380Y15335193D01*
X89077380Y15335193D02*
X89108333Y15273289D01*
X89108333Y15273289D02*
X89108333Y15211384D01*
X89108333Y15211384D02*
X89077380Y15118527D01*
X89077380Y15118527D02*
X88705952Y14747098D01*
X88705952Y14747098D02*
X89108333Y14747098D01*
X87620997Y27702143D02*
X87651950Y27671191D01*
X87651950Y27671191D02*
X87682902Y27578333D01*
X87682902Y27578333D02*
X87682902Y27516429D01*
X87682902Y27516429D02*
X87651950Y27423572D01*
X87651950Y27423572D02*
X87590045Y27361667D01*
X87590045Y27361667D02*
X87528140Y27330714D01*
X87528140Y27330714D02*
X87404330Y27299762D01*
X87404330Y27299762D02*
X87311473Y27299762D01*
X87311473Y27299762D02*
X87187664Y27330714D01*
X87187664Y27330714D02*
X87125759Y27361667D01*
X87125759Y27361667D02*
X87063854Y27423572D01*
X87063854Y27423572D02*
X87032902Y27516429D01*
X87032902Y27516429D02*
X87032902Y27578333D01*
X87032902Y27578333D02*
X87063854Y27671191D01*
X87063854Y27671191D02*
X87094807Y27702143D01*
X87682902Y28321191D02*
X87682902Y27949762D01*
X87682902Y28135476D02*
X87032902Y28135476D01*
X87032902Y28135476D02*
X87125759Y28073572D01*
X87125759Y28073572D02*
X87187664Y28011667D01*
X87187664Y28011667D02*
X87218616Y27949762D01*
X87032902Y28878334D02*
X87032902Y28754524D01*
X87032902Y28754524D02*
X87063854Y28692620D01*
X87063854Y28692620D02*
X87094807Y28661667D01*
X87094807Y28661667D02*
X87187664Y28599762D01*
X87187664Y28599762D02*
X87311473Y28568810D01*
X87311473Y28568810D02*
X87559092Y28568810D01*
X87559092Y28568810D02*
X87620997Y28599762D01*
X87620997Y28599762D02*
X87651950Y28630715D01*
X87651950Y28630715D02*
X87682902Y28692620D01*
X87682902Y28692620D02*
X87682902Y28816429D01*
X87682902Y28816429D02*
X87651950Y28878334D01*
X87651950Y28878334D02*
X87620997Y28909286D01*
X87620997Y28909286D02*
X87559092Y28940239D01*
X87559092Y28940239D02*
X87404330Y28940239D01*
X87404330Y28940239D02*
X87342426Y28909286D01*
X87342426Y28909286D02*
X87311473Y28878334D01*
X87311473Y28878334D02*
X87280521Y28816429D01*
X87280521Y28816429D02*
X87280521Y28692620D01*
X87280521Y28692620D02*
X87311473Y28630715D01*
X87311473Y28630715D02*
X87342426Y28599762D01*
X87342426Y28599762D02*
X87404330Y28568810D01*
X56591666Y29559003D02*
X56560714Y29528050D01*
X56560714Y29528050D02*
X56467856Y29497098D01*
X56467856Y29497098D02*
X56405952Y29497098D01*
X56405952Y29497098D02*
X56313095Y29528050D01*
X56313095Y29528050D02*
X56251190Y29589955D01*
X56251190Y29589955D02*
X56220237Y29651860D01*
X56220237Y29651860D02*
X56189285Y29775670D01*
X56189285Y29775670D02*
X56189285Y29868527D01*
X56189285Y29868527D02*
X56220237Y29992336D01*
X56220237Y29992336D02*
X56251190Y30054241D01*
X56251190Y30054241D02*
X56313095Y30116146D01*
X56313095Y30116146D02*
X56405952Y30147098D01*
X56405952Y30147098D02*
X56467856Y30147098D01*
X56467856Y30147098D02*
X56560714Y30116146D01*
X56560714Y30116146D02*
X56591666Y30085193D01*
X56808333Y30147098D02*
X57210714Y30147098D01*
X57210714Y30147098D02*
X56994047Y29899479D01*
X56994047Y29899479D02*
X57086904Y29899479D01*
X57086904Y29899479D02*
X57148809Y29868527D01*
X57148809Y29868527D02*
X57179761Y29837574D01*
X57179761Y29837574D02*
X57210714Y29775670D01*
X57210714Y29775670D02*
X57210714Y29620908D01*
X57210714Y29620908D02*
X57179761Y29559003D01*
X57179761Y29559003D02*
X57148809Y29528050D01*
X57148809Y29528050D02*
X57086904Y29497098D01*
X57086904Y29497098D02*
X56901190Y29497098D01*
X56901190Y29497098D02*
X56839285Y29528050D01*
X56839285Y29528050D02*
X56808333Y29559003D01*
X46322142Y40846503D02*
X46291190Y40815550D01*
X46291190Y40815550D02*
X46198332Y40784598D01*
X46198332Y40784598D02*
X46136428Y40784598D01*
X46136428Y40784598D02*
X46043571Y40815550D01*
X46043571Y40815550D02*
X45981666Y40877455D01*
X45981666Y40877455D02*
X45950713Y40939360D01*
X45950713Y40939360D02*
X45919761Y41063170D01*
X45919761Y41063170D02*
X45919761Y41156027D01*
X45919761Y41156027D02*
X45950713Y41279836D01*
X45950713Y41279836D02*
X45981666Y41341741D01*
X45981666Y41341741D02*
X46043571Y41403646D01*
X46043571Y41403646D02*
X46136428Y41434598D01*
X46136428Y41434598D02*
X46198332Y41434598D01*
X46198332Y41434598D02*
X46291190Y41403646D01*
X46291190Y41403646D02*
X46322142Y41372693D01*
X46879285Y41217931D02*
X46879285Y40784598D01*
X46724523Y41465550D02*
X46569761Y41001265D01*
X46569761Y41001265D02*
X46972142Y41001265D01*
X47343571Y41434598D02*
X47405476Y41434598D01*
X47405476Y41434598D02*
X47467380Y41403646D01*
X47467380Y41403646D02*
X47498333Y41372693D01*
X47498333Y41372693D02*
X47529285Y41310789D01*
X47529285Y41310789D02*
X47560238Y41186979D01*
X47560238Y41186979D02*
X47560238Y41032217D01*
X47560238Y41032217D02*
X47529285Y40908408D01*
X47529285Y40908408D02*
X47498333Y40846503D01*
X47498333Y40846503D02*
X47467380Y40815550D01*
X47467380Y40815550D02*
X47405476Y40784598D01*
X47405476Y40784598D02*
X47343571Y40784598D01*
X47343571Y40784598D02*
X47281666Y40815550D01*
X47281666Y40815550D02*
X47250714Y40846503D01*
X47250714Y40846503D02*
X47219761Y40908408D01*
X47219761Y40908408D02*
X47188809Y41032217D01*
X47188809Y41032217D02*
X47188809Y41186979D01*
X47188809Y41186979D02*
X47219761Y41310789D01*
X47219761Y41310789D02*
X47250714Y41372693D01*
X47250714Y41372693D02*
X47281666Y41403646D01*
X47281666Y41403646D02*
X47343571Y41434598D01*
X111040997Y22532143D02*
X111071950Y22501191D01*
X111071950Y22501191D02*
X111102902Y22408333D01*
X111102902Y22408333D02*
X111102902Y22346429D01*
X111102902Y22346429D02*
X111071950Y22253572D01*
X111071950Y22253572D02*
X111010045Y22191667D01*
X111010045Y22191667D02*
X110948140Y22160714D01*
X110948140Y22160714D02*
X110824330Y22129762D01*
X110824330Y22129762D02*
X110731473Y22129762D01*
X110731473Y22129762D02*
X110607664Y22160714D01*
X110607664Y22160714D02*
X110545759Y22191667D01*
X110545759Y22191667D02*
X110483854Y22253572D01*
X110483854Y22253572D02*
X110452902Y22346429D01*
X110452902Y22346429D02*
X110452902Y22408333D01*
X110452902Y22408333D02*
X110483854Y22501191D01*
X110483854Y22501191D02*
X110514807Y22532143D01*
X110452902Y22748810D02*
X110452902Y23151191D01*
X110452902Y23151191D02*
X110700521Y22934524D01*
X110700521Y22934524D02*
X110700521Y23027381D01*
X110700521Y23027381D02*
X110731473Y23089286D01*
X110731473Y23089286D02*
X110762426Y23120238D01*
X110762426Y23120238D02*
X110824330Y23151191D01*
X110824330Y23151191D02*
X110979092Y23151191D01*
X110979092Y23151191D02*
X111040997Y23120238D01*
X111040997Y23120238D02*
X111071950Y23089286D01*
X111071950Y23089286D02*
X111102902Y23027381D01*
X111102902Y23027381D02*
X111102902Y22841667D01*
X111102902Y22841667D02*
X111071950Y22779762D01*
X111071950Y22779762D02*
X111040997Y22748810D01*
X110452902Y23553572D02*
X110452902Y23615477D01*
X110452902Y23615477D02*
X110483854Y23677381D01*
X110483854Y23677381D02*
X110514807Y23708334D01*
X110514807Y23708334D02*
X110576711Y23739286D01*
X110576711Y23739286D02*
X110700521Y23770239D01*
X110700521Y23770239D02*
X110855283Y23770239D01*
X110855283Y23770239D02*
X110979092Y23739286D01*
X110979092Y23739286D02*
X111040997Y23708334D01*
X111040997Y23708334D02*
X111071950Y23677381D01*
X111071950Y23677381D02*
X111102902Y23615477D01*
X111102902Y23615477D02*
X111102902Y23553572D01*
X111102902Y23553572D02*
X111071950Y23491667D01*
X111071950Y23491667D02*
X111040997Y23460715D01*
X111040997Y23460715D02*
X110979092Y23429762D01*
X110979092Y23429762D02*
X110855283Y23398810D01*
X110855283Y23398810D02*
X110700521Y23398810D01*
X110700521Y23398810D02*
X110576711Y23429762D01*
X110576711Y23429762D02*
X110514807Y23460715D01*
X110514807Y23460715D02*
X110483854Y23491667D01*
X110483854Y23491667D02*
X110452902Y23553572D01*
X90017142Y50387681D02*
X89540952Y50387681D01*
X89540952Y50387681D02*
X89540952Y51387681D01*
X90874285Y50387681D02*
X90302857Y50387681D01*
X90588571Y50387681D02*
X90588571Y51387681D01*
X90588571Y51387681D02*
X90493333Y51244824D01*
X90493333Y51244824D02*
X90398095Y51149586D01*
X90398095Y51149586D02*
X90302857Y51101967D01*
X91826666Y50387681D02*
X91255238Y50387681D01*
X91540952Y50387681D02*
X91540952Y51387681D01*
X91540952Y51387681D02*
X91445714Y51244824D01*
X91445714Y51244824D02*
X91350476Y51149586D01*
X91350476Y51149586D02*
X91255238Y51101967D01*
X44061666Y33859003D02*
X44030714Y33828050D01*
X44030714Y33828050D02*
X43937856Y33797098D01*
X43937856Y33797098D02*
X43875952Y33797098D01*
X43875952Y33797098D02*
X43783095Y33828050D01*
X43783095Y33828050D02*
X43721190Y33889955D01*
X43721190Y33889955D02*
X43690237Y33951860D01*
X43690237Y33951860D02*
X43659285Y34075670D01*
X43659285Y34075670D02*
X43659285Y34168527D01*
X43659285Y34168527D02*
X43690237Y34292336D01*
X43690237Y34292336D02*
X43721190Y34354241D01*
X43721190Y34354241D02*
X43783095Y34416146D01*
X43783095Y34416146D02*
X43875952Y34447098D01*
X43875952Y34447098D02*
X43937856Y34447098D01*
X43937856Y34447098D02*
X44030714Y34416146D01*
X44030714Y34416146D02*
X44061666Y34385193D01*
X44618809Y34230431D02*
X44618809Y33797098D01*
X44464047Y34478050D02*
X44309285Y34013765D01*
X44309285Y34013765D02*
X44711666Y34013765D01*
X60734819Y35848096D02*
X61544342Y35848096D01*
X61544342Y35848096D02*
X61639580Y35895715D01*
X61639580Y35895715D02*
X61687200Y35943334D01*
X61687200Y35943334D02*
X61734819Y36038572D01*
X61734819Y36038572D02*
X61734819Y36229048D01*
X61734819Y36229048D02*
X61687200Y36324286D01*
X61687200Y36324286D02*
X61639580Y36371905D01*
X61639580Y36371905D02*
X61544342Y36419524D01*
X61544342Y36419524D02*
X60734819Y36419524D01*
X61734819Y37419524D02*
X61734819Y36848096D01*
X61734819Y37133810D02*
X60734819Y37133810D01*
X60734819Y37133810D02*
X60877676Y37038572D01*
X60877676Y37038572D02*
X60972914Y36943334D01*
X60972914Y36943334D02*
X61020533Y36848096D01*
X73661666Y36717098D02*
X73444999Y37026622D01*
X73290237Y36717098D02*
X73290237Y37367098D01*
X73290237Y37367098D02*
X73537856Y37367098D01*
X73537856Y37367098D02*
X73599761Y37336146D01*
X73599761Y37336146D02*
X73630714Y37305193D01*
X73630714Y37305193D02*
X73661666Y37243289D01*
X73661666Y37243289D02*
X73661666Y37150431D01*
X73661666Y37150431D02*
X73630714Y37088527D01*
X73630714Y37088527D02*
X73599761Y37057574D01*
X73599761Y37057574D02*
X73537856Y37026622D01*
X73537856Y37026622D02*
X73290237Y37026622D01*
X74218809Y37367098D02*
X74094999Y37367098D01*
X74094999Y37367098D02*
X74033095Y37336146D01*
X74033095Y37336146D02*
X74002142Y37305193D01*
X74002142Y37305193D02*
X73940237Y37212336D01*
X73940237Y37212336D02*
X73909285Y37088527D01*
X73909285Y37088527D02*
X73909285Y36840908D01*
X73909285Y36840908D02*
X73940237Y36779003D01*
X73940237Y36779003D02*
X73971190Y36748050D01*
X73971190Y36748050D02*
X74033095Y36717098D01*
X74033095Y36717098D02*
X74156904Y36717098D01*
X74156904Y36717098D02*
X74218809Y36748050D01*
X74218809Y36748050D02*
X74249761Y36779003D01*
X74249761Y36779003D02*
X74280714Y36840908D01*
X74280714Y36840908D02*
X74280714Y36995670D01*
X74280714Y36995670D02*
X74249761Y37057574D01*
X74249761Y37057574D02*
X74218809Y37088527D01*
X74218809Y37088527D02*
X74156904Y37119479D01*
X74156904Y37119479D02*
X74033095Y37119479D01*
X74033095Y37119479D02*
X73971190Y37088527D01*
X73971190Y37088527D02*
X73940237Y37057574D01*
X73940237Y37057574D02*
X73909285Y36995670D01*
X89276666Y4315181D02*
X89276666Y3600896D01*
X89276666Y3600896D02*
X89229047Y3458039D01*
X89229047Y3458039D02*
X89133809Y3362800D01*
X89133809Y3362800D02*
X88990952Y3315181D01*
X88990952Y3315181D02*
X88895714Y3315181D01*
X90181428Y4315181D02*
X89990952Y4315181D01*
X89990952Y4315181D02*
X89895714Y4267562D01*
X89895714Y4267562D02*
X89848095Y4219943D01*
X89848095Y4219943D02*
X89752857Y4077086D01*
X89752857Y4077086D02*
X89705238Y3886610D01*
X89705238Y3886610D02*
X89705238Y3505658D01*
X89705238Y3505658D02*
X89752857Y3410420D01*
X89752857Y3410420D02*
X89800476Y3362800D01*
X89800476Y3362800D02*
X89895714Y3315181D01*
X89895714Y3315181D02*
X90086190Y3315181D01*
X90086190Y3315181D02*
X90181428Y3362800D01*
X90181428Y3362800D02*
X90229047Y3410420D01*
X90229047Y3410420D02*
X90276666Y3505658D01*
X90276666Y3505658D02*
X90276666Y3743753D01*
X90276666Y3743753D02*
X90229047Y3838991D01*
X90229047Y3838991D02*
X90181428Y3886610D01*
X90181428Y3886610D02*
X90086190Y3934229D01*
X90086190Y3934229D02*
X89895714Y3934229D01*
X89895714Y3934229D02*
X89800476Y3886610D01*
X89800476Y3886610D02*
X89752857Y3838991D01*
X89752857Y3838991D02*
X89705238Y3743753D01*
X79992902Y5599762D02*
X79992902Y5971191D01*
X80642902Y5785477D02*
X79992902Y5785477D01*
X80642902Y6187857D02*
X79992902Y6187857D01*
X79992902Y6187857D02*
X79992902Y6435476D01*
X79992902Y6435476D02*
X80023854Y6497381D01*
X80023854Y6497381D02*
X80054807Y6528334D01*
X80054807Y6528334D02*
X80116711Y6559286D01*
X80116711Y6559286D02*
X80209569Y6559286D01*
X80209569Y6559286D02*
X80271473Y6528334D01*
X80271473Y6528334D02*
X80302426Y6497381D01*
X80302426Y6497381D02*
X80333378Y6435476D01*
X80333378Y6435476D02*
X80333378Y6187857D01*
X79992902Y6775953D02*
X79992902Y7209286D01*
X79992902Y7209286D02*
X80642902Y6930715D01*
X106463095Y23225181D02*
X106463095Y22415658D01*
X106463095Y22415658D02*
X106510714Y22320420D01*
X106510714Y22320420D02*
X106558333Y22272800D01*
X106558333Y22272800D02*
X106653571Y22225181D01*
X106653571Y22225181D02*
X106844047Y22225181D01*
X106844047Y22225181D02*
X106939285Y22272800D01*
X106939285Y22272800D02*
X106986904Y22320420D01*
X106986904Y22320420D02*
X107034523Y22415658D01*
X107034523Y22415658D02*
X107034523Y23225181D01*
X107415476Y23225181D02*
X108034523Y23225181D01*
X108034523Y23225181D02*
X107701190Y22844229D01*
X107701190Y22844229D02*
X107844047Y22844229D01*
X107844047Y22844229D02*
X107939285Y22796610D01*
X107939285Y22796610D02*
X107986904Y22748991D01*
X107986904Y22748991D02*
X108034523Y22653753D01*
X108034523Y22653753D02*
X108034523Y22415658D01*
X108034523Y22415658D02*
X107986904Y22320420D01*
X107986904Y22320420D02*
X107939285Y22272800D01*
X107939285Y22272800D02*
X107844047Y22225181D01*
X107844047Y22225181D02*
X107558333Y22225181D01*
X107558333Y22225181D02*
X107463095Y22272800D01*
X107463095Y22272800D02*
X107415476Y22320420D01*
X115930997Y14622143D02*
X115961950Y14591191D01*
X115961950Y14591191D02*
X115992902Y14498333D01*
X115992902Y14498333D02*
X115992902Y14436429D01*
X115992902Y14436429D02*
X115961950Y14343572D01*
X115961950Y14343572D02*
X115900045Y14281667D01*
X115900045Y14281667D02*
X115838140Y14250714D01*
X115838140Y14250714D02*
X115714330Y14219762D01*
X115714330Y14219762D02*
X115621473Y14219762D01*
X115621473Y14219762D02*
X115497664Y14250714D01*
X115497664Y14250714D02*
X115435759Y14281667D01*
X115435759Y14281667D02*
X115373854Y14343572D01*
X115373854Y14343572D02*
X115342902Y14436429D01*
X115342902Y14436429D02*
X115342902Y14498333D01*
X115342902Y14498333D02*
X115373854Y14591191D01*
X115373854Y14591191D02*
X115404807Y14622143D01*
X115404807Y14869762D02*
X115373854Y14900714D01*
X115373854Y14900714D02*
X115342902Y14962619D01*
X115342902Y14962619D02*
X115342902Y15117381D01*
X115342902Y15117381D02*
X115373854Y15179286D01*
X115373854Y15179286D02*
X115404807Y15210238D01*
X115404807Y15210238D02*
X115466711Y15241191D01*
X115466711Y15241191D02*
X115528616Y15241191D01*
X115528616Y15241191D02*
X115621473Y15210238D01*
X115621473Y15210238D02*
X115992902Y14838810D01*
X115992902Y14838810D02*
X115992902Y15241191D01*
X115404807Y15488810D02*
X115373854Y15519762D01*
X115373854Y15519762D02*
X115342902Y15581667D01*
X115342902Y15581667D02*
X115342902Y15736429D01*
X115342902Y15736429D02*
X115373854Y15798334D01*
X115373854Y15798334D02*
X115404807Y15829286D01*
X115404807Y15829286D02*
X115466711Y15860239D01*
X115466711Y15860239D02*
X115528616Y15860239D01*
X115528616Y15860239D02*
X115621473Y15829286D01*
X115621473Y15829286D02*
X115992902Y15457858D01*
X115992902Y15457858D02*
X115992902Y15860239D01*
X85600997Y21192143D02*
X85631950Y21161191D01*
X85631950Y21161191D02*
X85662902Y21068333D01*
X85662902Y21068333D02*
X85662902Y21006429D01*
X85662902Y21006429D02*
X85631950Y20913572D01*
X85631950Y20913572D02*
X85570045Y20851667D01*
X85570045Y20851667D02*
X85508140Y20820714D01*
X85508140Y20820714D02*
X85384330Y20789762D01*
X85384330Y20789762D02*
X85291473Y20789762D01*
X85291473Y20789762D02*
X85167664Y20820714D01*
X85167664Y20820714D02*
X85105759Y20851667D01*
X85105759Y20851667D02*
X85043854Y20913572D01*
X85043854Y20913572D02*
X85012902Y21006429D01*
X85012902Y21006429D02*
X85012902Y21068333D01*
X85012902Y21068333D02*
X85043854Y21161191D01*
X85043854Y21161191D02*
X85074807Y21192143D01*
X85662902Y21811191D02*
X85662902Y21439762D01*
X85662902Y21625476D02*
X85012902Y21625476D01*
X85012902Y21625476D02*
X85105759Y21563572D01*
X85105759Y21563572D02*
X85167664Y21501667D01*
X85167664Y21501667D02*
X85198616Y21439762D01*
X85012902Y22213572D02*
X85012902Y22275477D01*
X85012902Y22275477D02*
X85043854Y22337381D01*
X85043854Y22337381D02*
X85074807Y22368334D01*
X85074807Y22368334D02*
X85136711Y22399286D01*
X85136711Y22399286D02*
X85260521Y22430239D01*
X85260521Y22430239D02*
X85415283Y22430239D01*
X85415283Y22430239D02*
X85539092Y22399286D01*
X85539092Y22399286D02*
X85600997Y22368334D01*
X85600997Y22368334D02*
X85631950Y22337381D01*
X85631950Y22337381D02*
X85662902Y22275477D01*
X85662902Y22275477D02*
X85662902Y22213572D01*
X85662902Y22213572D02*
X85631950Y22151667D01*
X85631950Y22151667D02*
X85600997Y22120715D01*
X85600997Y22120715D02*
X85539092Y22089762D01*
X85539092Y22089762D02*
X85415283Y22058810D01*
X85415283Y22058810D02*
X85260521Y22058810D01*
X85260521Y22058810D02*
X85136711Y22089762D01*
X85136711Y22089762D02*
X85074807Y22120715D01*
X85074807Y22120715D02*
X85043854Y22151667D01*
X85043854Y22151667D02*
X85012902Y22213572D01*
X74572142Y24947098D02*
X74355475Y25256622D01*
X74200713Y24947098D02*
X74200713Y25597098D01*
X74200713Y25597098D02*
X74448332Y25597098D01*
X74448332Y25597098D02*
X74510237Y25566146D01*
X74510237Y25566146D02*
X74541190Y25535193D01*
X74541190Y25535193D02*
X74572142Y25473289D01*
X74572142Y25473289D02*
X74572142Y25380431D01*
X74572142Y25380431D02*
X74541190Y25318527D01*
X74541190Y25318527D02*
X74510237Y25287574D01*
X74510237Y25287574D02*
X74448332Y25256622D01*
X74448332Y25256622D02*
X74200713Y25256622D01*
X75191190Y24947098D02*
X74819761Y24947098D01*
X75005475Y24947098D02*
X75005475Y25597098D01*
X75005475Y25597098D02*
X74943571Y25504241D01*
X74943571Y25504241D02*
X74881666Y25442336D01*
X74881666Y25442336D02*
X74819761Y25411384D01*
X75438809Y25535193D02*
X75469761Y25566146D01*
X75469761Y25566146D02*
X75531666Y25597098D01*
X75531666Y25597098D02*
X75686428Y25597098D01*
X75686428Y25597098D02*
X75748333Y25566146D01*
X75748333Y25566146D02*
X75779285Y25535193D01*
X75779285Y25535193D02*
X75810238Y25473289D01*
X75810238Y25473289D02*
X75810238Y25411384D01*
X75810238Y25411384D02*
X75779285Y25318527D01*
X75779285Y25318527D02*
X75407857Y24947098D01*
X75407857Y24947098D02*
X75810238Y24947098D01*
X23056666Y3670181D02*
X23056666Y2955896D01*
X23056666Y2955896D02*
X23009047Y2813039D01*
X23009047Y2813039D02*
X22913809Y2717800D01*
X22913809Y2717800D02*
X22770952Y2670181D01*
X22770952Y2670181D02*
X22675714Y2670181D01*
X23961428Y3336848D02*
X23961428Y2670181D01*
X23723333Y3717800D02*
X23485238Y3003515D01*
X23485238Y3003515D02*
X24104285Y3003515D01*
X86720997Y27662143D02*
X86751950Y27631191D01*
X86751950Y27631191D02*
X86782902Y27538333D01*
X86782902Y27538333D02*
X86782902Y27476429D01*
X86782902Y27476429D02*
X86751950Y27383572D01*
X86751950Y27383572D02*
X86690045Y27321667D01*
X86690045Y27321667D02*
X86628140Y27290714D01*
X86628140Y27290714D02*
X86504330Y27259762D01*
X86504330Y27259762D02*
X86411473Y27259762D01*
X86411473Y27259762D02*
X86287664Y27290714D01*
X86287664Y27290714D02*
X86225759Y27321667D01*
X86225759Y27321667D02*
X86163854Y27383572D01*
X86163854Y27383572D02*
X86132902Y27476429D01*
X86132902Y27476429D02*
X86132902Y27538333D01*
X86132902Y27538333D02*
X86163854Y27631191D01*
X86163854Y27631191D02*
X86194807Y27662143D01*
X86782902Y28281191D02*
X86782902Y27909762D01*
X86782902Y28095476D02*
X86132902Y28095476D01*
X86132902Y28095476D02*
X86225759Y28033572D01*
X86225759Y28033572D02*
X86287664Y27971667D01*
X86287664Y27971667D02*
X86318616Y27909762D01*
X86194807Y28528810D02*
X86163854Y28559762D01*
X86163854Y28559762D02*
X86132902Y28621667D01*
X86132902Y28621667D02*
X86132902Y28776429D01*
X86132902Y28776429D02*
X86163854Y28838334D01*
X86163854Y28838334D02*
X86194807Y28869286D01*
X86194807Y28869286D02*
X86256711Y28900239D01*
X86256711Y28900239D02*
X86318616Y28900239D01*
X86318616Y28900239D02*
X86411473Y28869286D01*
X86411473Y28869286D02*
X86782902Y28497858D01*
X86782902Y28497858D02*
X86782902Y28900239D01*
X102702902Y14779762D02*
X102702902Y15151191D01*
X103352902Y14965477D02*
X102702902Y14965477D01*
X103352902Y15367857D02*
X102702902Y15367857D01*
X102702902Y15367857D02*
X102702902Y15615476D01*
X102702902Y15615476D02*
X102733854Y15677381D01*
X102733854Y15677381D02*
X102764807Y15708334D01*
X102764807Y15708334D02*
X102826711Y15739286D01*
X102826711Y15739286D02*
X102919569Y15739286D01*
X102919569Y15739286D02*
X102981473Y15708334D01*
X102981473Y15708334D02*
X103012426Y15677381D01*
X103012426Y15677381D02*
X103043378Y15615476D01*
X103043378Y15615476D02*
X103043378Y15367857D01*
X103352902Y16358334D02*
X103352902Y15986905D01*
X103352902Y16172619D02*
X102702902Y16172619D01*
X102702902Y16172619D02*
X102795759Y16110715D01*
X102795759Y16110715D02*
X102857664Y16048810D01*
X102857664Y16048810D02*
X102888616Y15986905D01*
X69882142Y20747098D02*
X69665475Y21056622D01*
X69510713Y20747098D02*
X69510713Y21397098D01*
X69510713Y21397098D02*
X69758332Y21397098D01*
X69758332Y21397098D02*
X69820237Y21366146D01*
X69820237Y21366146D02*
X69851190Y21335193D01*
X69851190Y21335193D02*
X69882142Y21273289D01*
X69882142Y21273289D02*
X69882142Y21180431D01*
X69882142Y21180431D02*
X69851190Y21118527D01*
X69851190Y21118527D02*
X69820237Y21087574D01*
X69820237Y21087574D02*
X69758332Y21056622D01*
X69758332Y21056622D02*
X69510713Y21056622D01*
X70501190Y20747098D02*
X70129761Y20747098D01*
X70315475Y20747098D02*
X70315475Y21397098D01*
X70315475Y21397098D02*
X70253571Y21304241D01*
X70253571Y21304241D02*
X70191666Y21242336D01*
X70191666Y21242336D02*
X70129761Y21211384D01*
X71120238Y20747098D02*
X70748809Y20747098D01*
X70934523Y20747098D02*
X70934523Y21397098D01*
X70934523Y21397098D02*
X70872619Y21304241D01*
X70872619Y21304241D02*
X70810714Y21242336D01*
X70810714Y21242336D02*
X70748809Y21211384D01*
X72172902Y1159762D02*
X72172902Y1531191D01*
X72822902Y1345477D02*
X72172902Y1345477D01*
X72822902Y1747857D02*
X72172902Y1747857D01*
X72172902Y1747857D02*
X72172902Y1995476D01*
X72172902Y1995476D02*
X72203854Y2057381D01*
X72203854Y2057381D02*
X72234807Y2088334D01*
X72234807Y2088334D02*
X72296711Y2119286D01*
X72296711Y2119286D02*
X72389569Y2119286D01*
X72389569Y2119286D02*
X72451473Y2088334D01*
X72451473Y2088334D02*
X72482426Y2057381D01*
X72482426Y2057381D02*
X72513378Y1995476D01*
X72513378Y1995476D02*
X72513378Y1747857D01*
X72172902Y2707381D02*
X72172902Y2397857D01*
X72172902Y2397857D02*
X72482426Y2366905D01*
X72482426Y2366905D02*
X72451473Y2397857D01*
X72451473Y2397857D02*
X72420521Y2459762D01*
X72420521Y2459762D02*
X72420521Y2614524D01*
X72420521Y2614524D02*
X72451473Y2676429D01*
X72451473Y2676429D02*
X72482426Y2707381D01*
X72482426Y2707381D02*
X72544330Y2738334D01*
X72544330Y2738334D02*
X72699092Y2738334D01*
X72699092Y2738334D02*
X72760997Y2707381D01*
X72760997Y2707381D02*
X72791950Y2676429D01*
X72791950Y2676429D02*
X72822902Y2614524D01*
X72822902Y2614524D02*
X72822902Y2459762D01*
X72822902Y2459762D02*
X72791950Y2397857D01*
X72791950Y2397857D02*
X72760997Y2366905D01*
D12*
X94437335Y22210652D02*
X95151620Y22210652D01*
X95151620Y22210652D02*
X95294477Y22163033D01*
X95294477Y22163033D02*
X95389716Y22067795D01*
X95389716Y22067795D02*
X95437335Y21924938D01*
X95437335Y21924938D02*
X95437335Y21829700D01*
X94532573Y22639224D02*
X94484954Y22686843D01*
X94484954Y22686843D02*
X94437335Y22782081D01*
X94437335Y22782081D02*
X94437335Y23020176D01*
X94437335Y23020176D02*
X94484954Y23115414D01*
X94484954Y23115414D02*
X94532573Y23163033D01*
X94532573Y23163033D02*
X94627811Y23210652D01*
X94627811Y23210652D02*
X94723049Y23210652D01*
X94723049Y23210652D02*
X94865906Y23163033D01*
X94865906Y23163033D02*
X95437335Y22591605D01*
X95437335Y22591605D02*
X95437335Y23210652D01*
D10*
X100132142Y16099003D02*
X100101190Y16068050D01*
X100101190Y16068050D02*
X100008332Y16037098D01*
X100008332Y16037098D02*
X99946428Y16037098D01*
X99946428Y16037098D02*
X99853571Y16068050D01*
X99853571Y16068050D02*
X99791666Y16129955D01*
X99791666Y16129955D02*
X99760713Y16191860D01*
X99760713Y16191860D02*
X99729761Y16315670D01*
X99729761Y16315670D02*
X99729761Y16408527D01*
X99729761Y16408527D02*
X99760713Y16532336D01*
X99760713Y16532336D02*
X99791666Y16594241D01*
X99791666Y16594241D02*
X99853571Y16656146D01*
X99853571Y16656146D02*
X99946428Y16687098D01*
X99946428Y16687098D02*
X100008332Y16687098D01*
X100008332Y16687098D02*
X100101190Y16656146D01*
X100101190Y16656146D02*
X100132142Y16625193D01*
X100379761Y16625193D02*
X100410713Y16656146D01*
X100410713Y16656146D02*
X100472618Y16687098D01*
X100472618Y16687098D02*
X100627380Y16687098D01*
X100627380Y16687098D02*
X100689285Y16656146D01*
X100689285Y16656146D02*
X100720237Y16625193D01*
X100720237Y16625193D02*
X100751190Y16563289D01*
X100751190Y16563289D02*
X100751190Y16501384D01*
X100751190Y16501384D02*
X100720237Y16408527D01*
X100720237Y16408527D02*
X100348809Y16037098D01*
X100348809Y16037098D02*
X100751190Y16037098D01*
X100967857Y16687098D02*
X101370238Y16687098D01*
X101370238Y16687098D02*
X101153571Y16439479D01*
X101153571Y16439479D02*
X101246428Y16439479D01*
X101246428Y16439479D02*
X101308333Y16408527D01*
X101308333Y16408527D02*
X101339285Y16377574D01*
X101339285Y16377574D02*
X101370238Y16315670D01*
X101370238Y16315670D02*
X101370238Y16160908D01*
X101370238Y16160908D02*
X101339285Y16099003D01*
X101339285Y16099003D02*
X101308333Y16068050D01*
X101308333Y16068050D02*
X101246428Y16037098D01*
X101246428Y16037098D02*
X101060714Y16037098D01*
X101060714Y16037098D02*
X100998809Y16068050D01*
X100998809Y16068050D02*
X100967857Y16099003D01*
X83694819Y25118096D02*
X84504342Y25118096D01*
X84504342Y25118096D02*
X84599580Y25165715D01*
X84599580Y25165715D02*
X84647200Y25213334D01*
X84647200Y25213334D02*
X84694819Y25308572D01*
X84694819Y25308572D02*
X84694819Y25499048D01*
X84694819Y25499048D02*
X84647200Y25594286D01*
X84647200Y25594286D02*
X84599580Y25641905D01*
X84599580Y25641905D02*
X84504342Y25689524D01*
X84504342Y25689524D02*
X83694819Y25689524D01*
X83694819Y26641905D02*
X83694819Y26165715D01*
X83694819Y26165715D02*
X84171009Y26118096D01*
X84171009Y26118096D02*
X84123390Y26165715D01*
X84123390Y26165715D02*
X84075771Y26260953D01*
X84075771Y26260953D02*
X84075771Y26499048D01*
X84075771Y26499048D02*
X84123390Y26594286D01*
X84123390Y26594286D02*
X84171009Y26641905D01*
X84171009Y26641905D02*
X84266247Y26689524D01*
X84266247Y26689524D02*
X84504342Y26689524D01*
X84504342Y26689524D02*
X84599580Y26641905D01*
X84599580Y26641905D02*
X84647200Y26594286D01*
X84647200Y26594286D02*
X84694819Y26499048D01*
X84694819Y26499048D02*
X84694819Y26260953D01*
X84694819Y26260953D02*
X84647200Y26165715D01*
X84647200Y26165715D02*
X84599580Y26118096D01*
X83996247Y6514411D02*
X84027200Y6483459D01*
X84027200Y6483459D02*
X84058152Y6390601D01*
X84058152Y6390601D02*
X84058152Y6328697D01*
X84058152Y6328697D02*
X84027200Y6235840D01*
X84027200Y6235840D02*
X83965295Y6173935D01*
X83965295Y6173935D02*
X83903390Y6142982D01*
X83903390Y6142982D02*
X83779580Y6112030D01*
X83779580Y6112030D02*
X83686723Y6112030D01*
X83686723Y6112030D02*
X83562914Y6142982D01*
X83562914Y6142982D02*
X83501009Y6173935D01*
X83501009Y6173935D02*
X83439104Y6235840D01*
X83439104Y6235840D02*
X83408152Y6328697D01*
X83408152Y6328697D02*
X83408152Y6390601D01*
X83408152Y6390601D02*
X83439104Y6483459D01*
X83439104Y6483459D02*
X83470057Y6514411D01*
X84058152Y7133459D02*
X84058152Y6762030D01*
X84058152Y6947744D02*
X83408152Y6947744D01*
X83408152Y6947744D02*
X83501009Y6885840D01*
X83501009Y6885840D02*
X83562914Y6823935D01*
X83562914Y6823935D02*
X83593866Y6762030D01*
X83408152Y7350126D02*
X83408152Y7783459D01*
X83408152Y7783459D02*
X84058152Y7504888D01*
X38010362Y34538753D02*
X37979410Y34507800D01*
X37979410Y34507800D02*
X37886552Y34476848D01*
X37886552Y34476848D02*
X37824648Y34476848D01*
X37824648Y34476848D02*
X37731791Y34507800D01*
X37731791Y34507800D02*
X37669886Y34569705D01*
X37669886Y34569705D02*
X37638933Y34631610D01*
X37638933Y34631610D02*
X37607981Y34755420D01*
X37607981Y34755420D02*
X37607981Y34848277D01*
X37607981Y34848277D02*
X37638933Y34972086D01*
X37638933Y34972086D02*
X37669886Y35033991D01*
X37669886Y35033991D02*
X37731791Y35095896D01*
X37731791Y35095896D02*
X37824648Y35126848D01*
X37824648Y35126848D02*
X37886552Y35126848D01*
X37886552Y35126848D02*
X37979410Y35095896D01*
X37979410Y35095896D02*
X38010362Y35064943D01*
X38227029Y35126848D02*
X38629410Y35126848D01*
X38629410Y35126848D02*
X38412743Y34879229D01*
X38412743Y34879229D02*
X38505600Y34879229D01*
X38505600Y34879229D02*
X38567505Y34848277D01*
X38567505Y34848277D02*
X38598457Y34817324D01*
X38598457Y34817324D02*
X38629410Y34755420D01*
X38629410Y34755420D02*
X38629410Y34600658D01*
X38629410Y34600658D02*
X38598457Y34538753D01*
X38598457Y34538753D02*
X38567505Y34507800D01*
X38567505Y34507800D02*
X38505600Y34476848D01*
X38505600Y34476848D02*
X38319886Y34476848D01*
X38319886Y34476848D02*
X38257981Y34507800D01*
X38257981Y34507800D02*
X38227029Y34538753D01*
X39031791Y35126848D02*
X39093696Y35126848D01*
X39093696Y35126848D02*
X39155600Y35095896D01*
X39155600Y35095896D02*
X39186553Y35064943D01*
X39186553Y35064943D02*
X39217505Y35003039D01*
X39217505Y35003039D02*
X39248458Y34879229D01*
X39248458Y34879229D02*
X39248458Y34724467D01*
X39248458Y34724467D02*
X39217505Y34600658D01*
X39217505Y34600658D02*
X39186553Y34538753D01*
X39186553Y34538753D02*
X39155600Y34507800D01*
X39155600Y34507800D02*
X39093696Y34476848D01*
X39093696Y34476848D02*
X39031791Y34476848D01*
X39031791Y34476848D02*
X38969886Y34507800D01*
X38969886Y34507800D02*
X38938934Y34538753D01*
X38938934Y34538753D02*
X38907981Y34600658D01*
X38907981Y34600658D02*
X38877029Y34724467D01*
X38877029Y34724467D02*
X38877029Y34879229D01*
X38877029Y34879229D02*
X38907981Y35003039D01*
X38907981Y35003039D02*
X38938934Y35064943D01*
X38938934Y35064943D02*
X38969886Y35095896D01*
X38969886Y35095896D02*
X39031791Y35126848D01*
X39465125Y35126848D02*
X39867506Y35126848D01*
X39867506Y35126848D02*
X39650839Y34879229D01*
X39650839Y34879229D02*
X39743696Y34879229D01*
X39743696Y34879229D02*
X39805601Y34848277D01*
X39805601Y34848277D02*
X39836553Y34817324D01*
X39836553Y34817324D02*
X39867506Y34755420D01*
X39867506Y34755420D02*
X39867506Y34600658D01*
X39867506Y34600658D02*
X39836553Y34538753D01*
X39836553Y34538753D02*
X39805601Y34507800D01*
X39805601Y34507800D02*
X39743696Y34476848D01*
X39743696Y34476848D02*
X39557982Y34476848D01*
X39557982Y34476848D02*
X39496077Y34507800D01*
X39496077Y34507800D02*
X39465125Y34538753D01*
X73301666Y21619003D02*
X73270714Y21588050D01*
X73270714Y21588050D02*
X73177856Y21557098D01*
X73177856Y21557098D02*
X73115952Y21557098D01*
X73115952Y21557098D02*
X73023095Y21588050D01*
X73023095Y21588050D02*
X72961190Y21649955D01*
X72961190Y21649955D02*
X72930237Y21711860D01*
X72930237Y21711860D02*
X72899285Y21835670D01*
X72899285Y21835670D02*
X72899285Y21928527D01*
X72899285Y21928527D02*
X72930237Y22052336D01*
X72930237Y22052336D02*
X72961190Y22114241D01*
X72961190Y22114241D02*
X73023095Y22176146D01*
X73023095Y22176146D02*
X73115952Y22207098D01*
X73115952Y22207098D02*
X73177856Y22207098D01*
X73177856Y22207098D02*
X73270714Y22176146D01*
X73270714Y22176146D02*
X73301666Y22145193D01*
X73518333Y22207098D02*
X73951666Y22207098D01*
X73951666Y22207098D02*
X73673095Y21557098D01*
X79702902Y99762D02*
X79702902Y471191D01*
X80352902Y285477D02*
X79702902Y285477D01*
X80352902Y687857D02*
X79702902Y687857D01*
X79702902Y687857D02*
X79702902Y935476D01*
X79702902Y935476D02*
X79733854Y997381D01*
X79733854Y997381D02*
X79764807Y1028334D01*
X79764807Y1028334D02*
X79826711Y1059286D01*
X79826711Y1059286D02*
X79919569Y1059286D01*
X79919569Y1059286D02*
X79981473Y1028334D01*
X79981473Y1028334D02*
X80012426Y997381D01*
X80012426Y997381D02*
X80043378Y935476D01*
X80043378Y935476D02*
X80043378Y687857D01*
X79702902Y1616429D02*
X79702902Y1492619D01*
X79702902Y1492619D02*
X79733854Y1430715D01*
X79733854Y1430715D02*
X79764807Y1399762D01*
X79764807Y1399762D02*
X79857664Y1337857D01*
X79857664Y1337857D02*
X79981473Y1306905D01*
X79981473Y1306905D02*
X80229092Y1306905D01*
X80229092Y1306905D02*
X80290997Y1337857D01*
X80290997Y1337857D02*
X80321950Y1368810D01*
X80321950Y1368810D02*
X80352902Y1430715D01*
X80352902Y1430715D02*
X80352902Y1554524D01*
X80352902Y1554524D02*
X80321950Y1616429D01*
X80321950Y1616429D02*
X80290997Y1647381D01*
X80290997Y1647381D02*
X80229092Y1678334D01*
X80229092Y1678334D02*
X80074330Y1678334D01*
X80074330Y1678334D02*
X80012426Y1647381D01*
X80012426Y1647381D02*
X79981473Y1616429D01*
X79981473Y1616429D02*
X79950521Y1554524D01*
X79950521Y1554524D02*
X79950521Y1430715D01*
X79950521Y1430715D02*
X79981473Y1368810D01*
X79981473Y1368810D02*
X80012426Y1337857D01*
X80012426Y1337857D02*
X80074330Y1306905D01*
X118520997Y20722143D02*
X118551950Y20691191D01*
X118551950Y20691191D02*
X118582902Y20598333D01*
X118582902Y20598333D02*
X118582902Y20536429D01*
X118582902Y20536429D02*
X118551950Y20443572D01*
X118551950Y20443572D02*
X118490045Y20381667D01*
X118490045Y20381667D02*
X118428140Y20350714D01*
X118428140Y20350714D02*
X118304330Y20319762D01*
X118304330Y20319762D02*
X118211473Y20319762D01*
X118211473Y20319762D02*
X118087664Y20350714D01*
X118087664Y20350714D02*
X118025759Y20381667D01*
X118025759Y20381667D02*
X117963854Y20443572D01*
X117963854Y20443572D02*
X117932902Y20536429D01*
X117932902Y20536429D02*
X117932902Y20598333D01*
X117932902Y20598333D02*
X117963854Y20691191D01*
X117963854Y20691191D02*
X117994807Y20722143D01*
X117994807Y20969762D02*
X117963854Y21000714D01*
X117963854Y21000714D02*
X117932902Y21062619D01*
X117932902Y21062619D02*
X117932902Y21217381D01*
X117932902Y21217381D02*
X117963854Y21279286D01*
X117963854Y21279286D02*
X117994807Y21310238D01*
X117994807Y21310238D02*
X118056711Y21341191D01*
X118056711Y21341191D02*
X118118616Y21341191D01*
X118118616Y21341191D02*
X118211473Y21310238D01*
X118211473Y21310238D02*
X118582902Y20938810D01*
X118582902Y20938810D02*
X118582902Y21341191D01*
X118582902Y21650715D02*
X118582902Y21774524D01*
X118582902Y21774524D02*
X118551950Y21836429D01*
X118551950Y21836429D02*
X118520997Y21867381D01*
X118520997Y21867381D02*
X118428140Y21929286D01*
X118428140Y21929286D02*
X118304330Y21960239D01*
X118304330Y21960239D02*
X118056711Y21960239D01*
X118056711Y21960239D02*
X117994807Y21929286D01*
X117994807Y21929286D02*
X117963854Y21898334D01*
X117963854Y21898334D02*
X117932902Y21836429D01*
X117932902Y21836429D02*
X117932902Y21712620D01*
X117932902Y21712620D02*
X117963854Y21650715D01*
X117963854Y21650715D02*
X117994807Y21619762D01*
X117994807Y21619762D02*
X118056711Y21588810D01*
X118056711Y21588810D02*
X118211473Y21588810D01*
X118211473Y21588810D02*
X118273378Y21619762D01*
X118273378Y21619762D02*
X118304330Y21650715D01*
X118304330Y21650715D02*
X118335283Y21712620D01*
X118335283Y21712620D02*
X118335283Y21836429D01*
X118335283Y21836429D02*
X118304330Y21898334D01*
X118304330Y21898334D02*
X118273378Y21929286D01*
X118273378Y21929286D02*
X118211473Y21960239D01*
X79051247Y50344411D02*
X79082200Y50313459D01*
X79082200Y50313459D02*
X79113152Y50220601D01*
X79113152Y50220601D02*
X79113152Y50158697D01*
X79113152Y50158697D02*
X79082200Y50065840D01*
X79082200Y50065840D02*
X79020295Y50003935D01*
X79020295Y50003935D02*
X78958390Y49972982D01*
X78958390Y49972982D02*
X78834580Y49942030D01*
X78834580Y49942030D02*
X78741723Y49942030D01*
X78741723Y49942030D02*
X78617914Y49972982D01*
X78617914Y49972982D02*
X78556009Y50003935D01*
X78556009Y50003935D02*
X78494104Y50065840D01*
X78494104Y50065840D02*
X78463152Y50158697D01*
X78463152Y50158697D02*
X78463152Y50220601D01*
X78463152Y50220601D02*
X78494104Y50313459D01*
X78494104Y50313459D02*
X78525057Y50344411D01*
X78463152Y50561078D02*
X78463152Y50963459D01*
X78463152Y50963459D02*
X78710771Y50746792D01*
X78710771Y50746792D02*
X78710771Y50839649D01*
X78710771Y50839649D02*
X78741723Y50901554D01*
X78741723Y50901554D02*
X78772676Y50932506D01*
X78772676Y50932506D02*
X78834580Y50963459D01*
X78834580Y50963459D02*
X78989342Y50963459D01*
X78989342Y50963459D02*
X79051247Y50932506D01*
X79051247Y50932506D02*
X79082200Y50901554D01*
X79082200Y50901554D02*
X79113152Y50839649D01*
X79113152Y50839649D02*
X79113152Y50653935D01*
X79113152Y50653935D02*
X79082200Y50592030D01*
X79082200Y50592030D02*
X79051247Y50561078D01*
X78463152Y51180126D02*
X78463152Y51613459D01*
X78463152Y51613459D02*
X79113152Y51334888D01*
X90992142Y40439598D02*
X90775475Y40749122D01*
X90620713Y40439598D02*
X90620713Y41089598D01*
X90620713Y41089598D02*
X90868332Y41089598D01*
X90868332Y41089598D02*
X90930237Y41058646D01*
X90930237Y41058646D02*
X90961190Y41027693D01*
X90961190Y41027693D02*
X90992142Y40965789D01*
X90992142Y40965789D02*
X90992142Y40872931D01*
X90992142Y40872931D02*
X90961190Y40811027D01*
X90961190Y40811027D02*
X90930237Y40780074D01*
X90930237Y40780074D02*
X90868332Y40749122D01*
X90868332Y40749122D02*
X90620713Y40749122D01*
X91239761Y41027693D02*
X91270713Y41058646D01*
X91270713Y41058646D02*
X91332618Y41089598D01*
X91332618Y41089598D02*
X91487380Y41089598D01*
X91487380Y41089598D02*
X91549285Y41058646D01*
X91549285Y41058646D02*
X91580237Y41027693D01*
X91580237Y41027693D02*
X91611190Y40965789D01*
X91611190Y40965789D02*
X91611190Y40903884D01*
X91611190Y40903884D02*
X91580237Y40811027D01*
X91580237Y40811027D02*
X91208809Y40439598D01*
X91208809Y40439598D02*
X91611190Y40439598D01*
X92199285Y41089598D02*
X91889761Y41089598D01*
X91889761Y41089598D02*
X91858809Y40780074D01*
X91858809Y40780074D02*
X91889761Y40811027D01*
X91889761Y40811027D02*
X91951666Y40841979D01*
X91951666Y40841979D02*
X92106428Y40841979D01*
X92106428Y40841979D02*
X92168333Y40811027D01*
X92168333Y40811027D02*
X92199285Y40780074D01*
X92199285Y40780074D02*
X92230238Y40718170D01*
X92230238Y40718170D02*
X92230238Y40563408D01*
X92230238Y40563408D02*
X92199285Y40501503D01*
X92199285Y40501503D02*
X92168333Y40470550D01*
X92168333Y40470550D02*
X92106428Y40439598D01*
X92106428Y40439598D02*
X91951666Y40439598D01*
X91951666Y40439598D02*
X91889761Y40470550D01*
X91889761Y40470550D02*
X91858809Y40501503D01*
X82342902Y27200238D02*
X82342902Y27571667D01*
X82992902Y27385953D02*
X82342902Y27385953D01*
X82992902Y27788333D02*
X82342902Y27788333D01*
X82342902Y27788333D02*
X82342902Y28035952D01*
X82342902Y28035952D02*
X82373854Y28097857D01*
X82373854Y28097857D02*
X82404807Y28128810D01*
X82404807Y28128810D02*
X82466711Y28159762D01*
X82466711Y28159762D02*
X82559569Y28159762D01*
X82559569Y28159762D02*
X82621473Y28128810D01*
X82621473Y28128810D02*
X82652426Y28097857D01*
X82652426Y28097857D02*
X82683378Y28035952D01*
X82683378Y28035952D02*
X82683378Y27788333D01*
X82992902Y28778810D02*
X82992902Y28407381D01*
X82992902Y28593095D02*
X82342902Y28593095D01*
X82342902Y28593095D02*
X82435759Y28531191D01*
X82435759Y28531191D02*
X82497664Y28469286D01*
X82497664Y28469286D02*
X82528616Y28407381D01*
X82992902Y29397858D02*
X82992902Y29026429D01*
X82992902Y29212143D02*
X82342902Y29212143D01*
X82342902Y29212143D02*
X82435759Y29150239D01*
X82435759Y29150239D02*
X82497664Y29088334D01*
X82497664Y29088334D02*
X82528616Y29026429D01*
X64100997Y39572143D02*
X64131950Y39541191D01*
X64131950Y39541191D02*
X64162902Y39448333D01*
X64162902Y39448333D02*
X64162902Y39386429D01*
X64162902Y39386429D02*
X64131950Y39293572D01*
X64131950Y39293572D02*
X64070045Y39231667D01*
X64070045Y39231667D02*
X64008140Y39200714D01*
X64008140Y39200714D02*
X63884330Y39169762D01*
X63884330Y39169762D02*
X63791473Y39169762D01*
X63791473Y39169762D02*
X63667664Y39200714D01*
X63667664Y39200714D02*
X63605759Y39231667D01*
X63605759Y39231667D02*
X63543854Y39293572D01*
X63543854Y39293572D02*
X63512902Y39386429D01*
X63512902Y39386429D02*
X63512902Y39448333D01*
X63512902Y39448333D02*
X63543854Y39541191D01*
X63543854Y39541191D02*
X63574807Y39572143D01*
X63512902Y39788810D02*
X63512902Y40191191D01*
X63512902Y40191191D02*
X63760521Y39974524D01*
X63760521Y39974524D02*
X63760521Y40067381D01*
X63760521Y40067381D02*
X63791473Y40129286D01*
X63791473Y40129286D02*
X63822426Y40160238D01*
X63822426Y40160238D02*
X63884330Y40191191D01*
X63884330Y40191191D02*
X64039092Y40191191D01*
X64039092Y40191191D02*
X64100997Y40160238D01*
X64100997Y40160238D02*
X64131950Y40129286D01*
X64131950Y40129286D02*
X64162902Y40067381D01*
X64162902Y40067381D02*
X64162902Y39881667D01*
X64162902Y39881667D02*
X64131950Y39819762D01*
X64131950Y39819762D02*
X64100997Y39788810D01*
X63512902Y40407858D02*
X63512902Y40810239D01*
X63512902Y40810239D02*
X63760521Y40593572D01*
X63760521Y40593572D02*
X63760521Y40686429D01*
X63760521Y40686429D02*
X63791473Y40748334D01*
X63791473Y40748334D02*
X63822426Y40779286D01*
X63822426Y40779286D02*
X63884330Y40810239D01*
X63884330Y40810239D02*
X64039092Y40810239D01*
X64039092Y40810239D02*
X64100997Y40779286D01*
X64100997Y40779286D02*
X64131950Y40748334D01*
X64131950Y40748334D02*
X64162902Y40686429D01*
X64162902Y40686429D02*
X64162902Y40500715D01*
X64162902Y40500715D02*
X64131950Y40438810D01*
X64131950Y40438810D02*
X64100997Y40407858D01*
X95231117Y14693894D02*
X95262070Y14662942D01*
X95262070Y14662942D02*
X95293022Y14570084D01*
X95293022Y14570084D02*
X95293022Y14508180D01*
X95293022Y14508180D02*
X95262070Y14415323D01*
X95262070Y14415323D02*
X95200165Y14353418D01*
X95200165Y14353418D02*
X95138260Y14322465D01*
X95138260Y14322465D02*
X95014450Y14291513D01*
X95014450Y14291513D02*
X94921593Y14291513D01*
X94921593Y14291513D02*
X94797784Y14322465D01*
X94797784Y14322465D02*
X94735879Y14353418D01*
X94735879Y14353418D02*
X94673974Y14415323D01*
X94673974Y14415323D02*
X94643022Y14508180D01*
X94643022Y14508180D02*
X94643022Y14570084D01*
X94643022Y14570084D02*
X94673974Y14662942D01*
X94673974Y14662942D02*
X94704927Y14693894D01*
X94704927Y14941513D02*
X94673974Y14972465D01*
X94673974Y14972465D02*
X94643022Y15034370D01*
X94643022Y15034370D02*
X94643022Y15189132D01*
X94643022Y15189132D02*
X94673974Y15251037D01*
X94673974Y15251037D02*
X94704927Y15281989D01*
X94704927Y15281989D02*
X94766831Y15312942D01*
X94766831Y15312942D02*
X94828736Y15312942D01*
X94828736Y15312942D02*
X94921593Y15281989D01*
X94921593Y15281989D02*
X95293022Y14910561D01*
X95293022Y14910561D02*
X95293022Y15312942D01*
X94643022Y15870085D02*
X94643022Y15746275D01*
X94643022Y15746275D02*
X94673974Y15684371D01*
X94673974Y15684371D02*
X94704927Y15653418D01*
X94704927Y15653418D02*
X94797784Y15591513D01*
X94797784Y15591513D02*
X94921593Y15560561D01*
X94921593Y15560561D02*
X95169212Y15560561D01*
X95169212Y15560561D02*
X95231117Y15591513D01*
X95231117Y15591513D02*
X95262070Y15622466D01*
X95262070Y15622466D02*
X95293022Y15684371D01*
X95293022Y15684371D02*
X95293022Y15808180D01*
X95293022Y15808180D02*
X95262070Y15870085D01*
X95262070Y15870085D02*
X95231117Y15901037D01*
X95231117Y15901037D02*
X95169212Y15931990D01*
X95169212Y15931990D02*
X95014450Y15931990D01*
X95014450Y15931990D02*
X94952546Y15901037D01*
X94952546Y15901037D02*
X94921593Y15870085D01*
X94921593Y15870085D02*
X94890641Y15808180D01*
X94890641Y15808180D02*
X94890641Y15684371D01*
X94890641Y15684371D02*
X94921593Y15622466D01*
X94921593Y15622466D02*
X94952546Y15591513D01*
X94952546Y15591513D02*
X95014450Y15560561D01*
X109320997Y14776235D02*
X109351950Y14745283D01*
X109351950Y14745283D02*
X109382902Y14652425D01*
X109382902Y14652425D02*
X109382902Y14590521D01*
X109382902Y14590521D02*
X109351950Y14497664D01*
X109351950Y14497664D02*
X109290045Y14435759D01*
X109290045Y14435759D02*
X109228140Y14404806D01*
X109228140Y14404806D02*
X109104330Y14373854D01*
X109104330Y14373854D02*
X109011473Y14373854D01*
X109011473Y14373854D02*
X108887664Y14404806D01*
X108887664Y14404806D02*
X108825759Y14435759D01*
X108825759Y14435759D02*
X108763854Y14497664D01*
X108763854Y14497664D02*
X108732902Y14590521D01*
X108732902Y14590521D02*
X108732902Y14652425D01*
X108732902Y14652425D02*
X108763854Y14745283D01*
X108763854Y14745283D02*
X108794807Y14776235D01*
X108794807Y15023854D02*
X108763854Y15054806D01*
X108763854Y15054806D02*
X108732902Y15116711D01*
X108732902Y15116711D02*
X108732902Y15271473D01*
X108732902Y15271473D02*
X108763854Y15333378D01*
X108763854Y15333378D02*
X108794807Y15364330D01*
X108794807Y15364330D02*
X108856711Y15395283D01*
X108856711Y15395283D02*
X108918616Y15395283D01*
X108918616Y15395283D02*
X109011473Y15364330D01*
X109011473Y15364330D02*
X109382902Y14992902D01*
X109382902Y14992902D02*
X109382902Y15395283D01*
X109382902Y16014331D02*
X109382902Y15642902D01*
X109382902Y15828616D02*
X108732902Y15828616D01*
X108732902Y15828616D02*
X108825759Y15766712D01*
X108825759Y15766712D02*
X108887664Y15704807D01*
X108887664Y15704807D02*
X108918616Y15642902D01*
X58652142Y20127098D02*
X58435475Y20436622D01*
X58280713Y20127098D02*
X58280713Y20777098D01*
X58280713Y20777098D02*
X58528332Y20777098D01*
X58528332Y20777098D02*
X58590237Y20746146D01*
X58590237Y20746146D02*
X58621190Y20715193D01*
X58621190Y20715193D02*
X58652142Y20653289D01*
X58652142Y20653289D02*
X58652142Y20560431D01*
X58652142Y20560431D02*
X58621190Y20498527D01*
X58621190Y20498527D02*
X58590237Y20467574D01*
X58590237Y20467574D02*
X58528332Y20436622D01*
X58528332Y20436622D02*
X58280713Y20436622D01*
X59271190Y20127098D02*
X58899761Y20127098D01*
X59085475Y20127098D02*
X59085475Y20777098D01*
X59085475Y20777098D02*
X59023571Y20684241D01*
X59023571Y20684241D02*
X58961666Y20622336D01*
X58961666Y20622336D02*
X58899761Y20591384D01*
X59673571Y20777098D02*
X59735476Y20777098D01*
X59735476Y20777098D02*
X59797380Y20746146D01*
X59797380Y20746146D02*
X59828333Y20715193D01*
X59828333Y20715193D02*
X59859285Y20653289D01*
X59859285Y20653289D02*
X59890238Y20529479D01*
X59890238Y20529479D02*
X59890238Y20374717D01*
X59890238Y20374717D02*
X59859285Y20250908D01*
X59859285Y20250908D02*
X59828333Y20189003D01*
X59828333Y20189003D02*
X59797380Y20158050D01*
X59797380Y20158050D02*
X59735476Y20127098D01*
X59735476Y20127098D02*
X59673571Y20127098D01*
X59673571Y20127098D02*
X59611666Y20158050D01*
X59611666Y20158050D02*
X59580714Y20189003D01*
X59580714Y20189003D02*
X59549761Y20250908D01*
X59549761Y20250908D02*
X59518809Y20374717D01*
X59518809Y20374717D02*
X59518809Y20529479D01*
X59518809Y20529479D02*
X59549761Y20653289D01*
X59549761Y20653289D02*
X59580714Y20715193D01*
X59580714Y20715193D02*
X59611666Y20746146D01*
X59611666Y20746146D02*
X59673571Y20777098D01*
X91982902Y20088334D02*
X92447188Y20088334D01*
X92447188Y20088334D02*
X92540045Y20057381D01*
X92540045Y20057381D02*
X92601950Y19995477D01*
X92601950Y19995477D02*
X92632902Y19902619D01*
X92632902Y19902619D02*
X92632902Y19840715D01*
X92632902Y20397857D02*
X91982902Y20397857D01*
X91982902Y20397857D02*
X91982902Y20645476D01*
X91982902Y20645476D02*
X92013854Y20707381D01*
X92013854Y20707381D02*
X92044807Y20738334D01*
X92044807Y20738334D02*
X92106711Y20769286D01*
X92106711Y20769286D02*
X92199569Y20769286D01*
X92199569Y20769286D02*
X92261473Y20738334D01*
X92261473Y20738334D02*
X92292426Y20707381D01*
X92292426Y20707381D02*
X92323378Y20645476D01*
X92323378Y20645476D02*
X92323378Y20397857D01*
X92632902Y21388334D02*
X92632902Y21016905D01*
X92632902Y21202619D02*
X91982902Y21202619D01*
X91982902Y21202619D02*
X92075759Y21140715D01*
X92075759Y21140715D02*
X92137664Y21078810D01*
X92137664Y21078810D02*
X92168616Y21016905D01*
X61792902Y21519762D02*
X61792902Y21891191D01*
X62442902Y21705477D02*
X61792902Y21705477D01*
X62442902Y22107857D02*
X61792902Y22107857D01*
X61792902Y22107857D02*
X61792902Y22355476D01*
X61792902Y22355476D02*
X61823854Y22417381D01*
X61823854Y22417381D02*
X61854807Y22448334D01*
X61854807Y22448334D02*
X61916711Y22479286D01*
X61916711Y22479286D02*
X62009569Y22479286D01*
X62009569Y22479286D02*
X62071473Y22448334D01*
X62071473Y22448334D02*
X62102426Y22417381D01*
X62102426Y22417381D02*
X62133378Y22355476D01*
X62133378Y22355476D02*
X62133378Y22107857D01*
X61792902Y22695953D02*
X61792902Y23098334D01*
X61792902Y23098334D02*
X62040521Y22881667D01*
X62040521Y22881667D02*
X62040521Y22974524D01*
X62040521Y22974524D02*
X62071473Y23036429D01*
X62071473Y23036429D02*
X62102426Y23067381D01*
X62102426Y23067381D02*
X62164330Y23098334D01*
X62164330Y23098334D02*
X62319092Y23098334D01*
X62319092Y23098334D02*
X62380997Y23067381D01*
X62380997Y23067381D02*
X62411950Y23036429D01*
X62411950Y23036429D02*
X62442902Y22974524D01*
X62442902Y22974524D02*
X62442902Y22788810D01*
X62442902Y22788810D02*
X62411950Y22726905D01*
X62411950Y22726905D02*
X62380997Y22695953D01*
D12*
X20400651Y11817665D02*
X20400651Y11103380D01*
X20400651Y11103380D02*
X20353032Y10960523D01*
X20353032Y10960523D02*
X20257794Y10865284D01*
X20257794Y10865284D02*
X20114937Y10817665D01*
X20114937Y10817665D02*
X20019699Y10817665D01*
X21019699Y11389094D02*
X20924461Y11436713D01*
X20924461Y11436713D02*
X20876842Y11484332D01*
X20876842Y11484332D02*
X20829223Y11579570D01*
X20829223Y11579570D02*
X20829223Y11627189D01*
X20829223Y11627189D02*
X20876842Y11722427D01*
X20876842Y11722427D02*
X20924461Y11770046D01*
X20924461Y11770046D02*
X21019699Y11817665D01*
X21019699Y11817665D02*
X21210175Y11817665D01*
X21210175Y11817665D02*
X21305413Y11770046D01*
X21305413Y11770046D02*
X21353032Y11722427D01*
X21353032Y11722427D02*
X21400651Y11627189D01*
X21400651Y11627189D02*
X21400651Y11579570D01*
X21400651Y11579570D02*
X21353032Y11484332D01*
X21353032Y11484332D02*
X21305413Y11436713D01*
X21305413Y11436713D02*
X21210175Y11389094D01*
X21210175Y11389094D02*
X21019699Y11389094D01*
X21019699Y11389094D02*
X20924461Y11341475D01*
X20924461Y11341475D02*
X20876842Y11293856D01*
X20876842Y11293856D02*
X20829223Y11198618D01*
X20829223Y11198618D02*
X20829223Y11008142D01*
X20829223Y11008142D02*
X20876842Y10912904D01*
X20876842Y10912904D02*
X20924461Y10865284D01*
X20924461Y10865284D02*
X21019699Y10817665D01*
X21019699Y10817665D02*
X21210175Y10817665D01*
X21210175Y10817665D02*
X21305413Y10865284D01*
X21305413Y10865284D02*
X21353032Y10912904D01*
X21353032Y10912904D02*
X21400651Y11008142D01*
X21400651Y11008142D02*
X21400651Y11198618D01*
X21400651Y11198618D02*
X21353032Y11293856D01*
X21353032Y11293856D02*
X21305413Y11341475D01*
X21305413Y11341475D02*
X21210175Y11389094D01*
D10*
X84764286Y42867681D02*
X85097619Y41867681D01*
X85097619Y41867681D02*
X85430952Y42867681D01*
X86288095Y41867681D02*
X85716667Y41867681D01*
X86002381Y41867681D02*
X86002381Y42867681D01*
X86002381Y42867681D02*
X85907143Y42724824D01*
X85907143Y42724824D02*
X85811905Y42629586D01*
X85811905Y42629586D02*
X85716667Y42581967D01*
X87240476Y41867681D02*
X86669048Y41867681D01*
X86954762Y41867681D02*
X86954762Y42867681D01*
X86954762Y42867681D02*
X86859524Y42724824D01*
X86859524Y42724824D02*
X86764286Y42629586D01*
X86764286Y42629586D02*
X86669048Y42581967D01*
X81902142Y25509003D02*
X81871190Y25478050D01*
X81871190Y25478050D02*
X81778332Y25447098D01*
X81778332Y25447098D02*
X81716428Y25447098D01*
X81716428Y25447098D02*
X81623571Y25478050D01*
X81623571Y25478050D02*
X81561666Y25539955D01*
X81561666Y25539955D02*
X81530713Y25601860D01*
X81530713Y25601860D02*
X81499761Y25725670D01*
X81499761Y25725670D02*
X81499761Y25818527D01*
X81499761Y25818527D02*
X81530713Y25942336D01*
X81530713Y25942336D02*
X81561666Y26004241D01*
X81561666Y26004241D02*
X81623571Y26066146D01*
X81623571Y26066146D02*
X81716428Y26097098D01*
X81716428Y26097098D02*
X81778332Y26097098D01*
X81778332Y26097098D02*
X81871190Y26066146D01*
X81871190Y26066146D02*
X81902142Y26035193D01*
X82521190Y25447098D02*
X82149761Y25447098D01*
X82335475Y25447098D02*
X82335475Y26097098D01*
X82335475Y26097098D02*
X82273571Y26004241D01*
X82273571Y26004241D02*
X82211666Y25942336D01*
X82211666Y25942336D02*
X82149761Y25911384D01*
X83140238Y25447098D02*
X82768809Y25447098D01*
X82954523Y25447098D02*
X82954523Y26097098D01*
X82954523Y26097098D02*
X82892619Y26004241D01*
X82892619Y26004241D02*
X82830714Y25942336D01*
X82830714Y25942336D02*
X82768809Y25911384D01*
X73701666Y33487098D02*
X73484999Y33796622D01*
X73330237Y33487098D02*
X73330237Y34137098D01*
X73330237Y34137098D02*
X73577856Y34137098D01*
X73577856Y34137098D02*
X73639761Y34106146D01*
X73639761Y34106146D02*
X73670714Y34075193D01*
X73670714Y34075193D02*
X73701666Y34013289D01*
X73701666Y34013289D02*
X73701666Y33920431D01*
X73701666Y33920431D02*
X73670714Y33858527D01*
X73670714Y33858527D02*
X73639761Y33827574D01*
X73639761Y33827574D02*
X73577856Y33796622D01*
X73577856Y33796622D02*
X73330237Y33796622D01*
X74073095Y33858527D02*
X74011190Y33889479D01*
X74011190Y33889479D02*
X73980237Y33920431D01*
X73980237Y33920431D02*
X73949285Y33982336D01*
X73949285Y33982336D02*
X73949285Y34013289D01*
X73949285Y34013289D02*
X73980237Y34075193D01*
X73980237Y34075193D02*
X74011190Y34106146D01*
X74011190Y34106146D02*
X74073095Y34137098D01*
X74073095Y34137098D02*
X74196904Y34137098D01*
X74196904Y34137098D02*
X74258809Y34106146D01*
X74258809Y34106146D02*
X74289761Y34075193D01*
X74289761Y34075193D02*
X74320714Y34013289D01*
X74320714Y34013289D02*
X74320714Y33982336D01*
X74320714Y33982336D02*
X74289761Y33920431D01*
X74289761Y33920431D02*
X74258809Y33889479D01*
X74258809Y33889479D02*
X74196904Y33858527D01*
X74196904Y33858527D02*
X74073095Y33858527D01*
X74073095Y33858527D02*
X74011190Y33827574D01*
X74011190Y33827574D02*
X73980237Y33796622D01*
X73980237Y33796622D02*
X73949285Y33734717D01*
X73949285Y33734717D02*
X73949285Y33610908D01*
X73949285Y33610908D02*
X73980237Y33549003D01*
X73980237Y33549003D02*
X74011190Y33518050D01*
X74011190Y33518050D02*
X74073095Y33487098D01*
X74073095Y33487098D02*
X74196904Y33487098D01*
X74196904Y33487098D02*
X74258809Y33518050D01*
X74258809Y33518050D02*
X74289761Y33549003D01*
X74289761Y33549003D02*
X74320714Y33610908D01*
X74320714Y33610908D02*
X74320714Y33734717D01*
X74320714Y33734717D02*
X74289761Y33796622D01*
X74289761Y33796622D02*
X74258809Y33827574D01*
X74258809Y33827574D02*
X74196904Y33858527D01*
X72022902Y3680238D02*
X72022902Y4051667D01*
X72672902Y3865953D02*
X72022902Y3865953D01*
X72672902Y4268333D02*
X72022902Y4268333D01*
X72022902Y4268333D02*
X72022902Y4515952D01*
X72022902Y4515952D02*
X72053854Y4577857D01*
X72053854Y4577857D02*
X72084807Y4608810D01*
X72084807Y4608810D02*
X72146711Y4639762D01*
X72146711Y4639762D02*
X72239569Y4639762D01*
X72239569Y4639762D02*
X72301473Y4608810D01*
X72301473Y4608810D02*
X72332426Y4577857D01*
X72332426Y4577857D02*
X72363378Y4515952D01*
X72363378Y4515952D02*
X72363378Y4268333D01*
X72672902Y5258810D02*
X72672902Y4887381D01*
X72672902Y5073095D02*
X72022902Y5073095D01*
X72022902Y5073095D02*
X72115759Y5011191D01*
X72115759Y5011191D02*
X72177664Y4949286D01*
X72177664Y4949286D02*
X72208616Y4887381D01*
X72239569Y5815953D02*
X72672902Y5815953D01*
X71991950Y5661191D02*
X72456235Y5506429D01*
X72456235Y5506429D02*
X72456235Y5908810D01*
X73391666Y31727098D02*
X73174999Y32036622D01*
X73020237Y31727098D02*
X73020237Y32377098D01*
X73020237Y32377098D02*
X73267856Y32377098D01*
X73267856Y32377098D02*
X73329761Y32346146D01*
X73329761Y32346146D02*
X73360714Y32315193D01*
X73360714Y32315193D02*
X73391666Y32253289D01*
X73391666Y32253289D02*
X73391666Y32160431D01*
X73391666Y32160431D02*
X73360714Y32098527D01*
X73360714Y32098527D02*
X73329761Y32067574D01*
X73329761Y32067574D02*
X73267856Y32036622D01*
X73267856Y32036622D02*
X73020237Y32036622D01*
X73639285Y32315193D02*
X73670237Y32346146D01*
X73670237Y32346146D02*
X73732142Y32377098D01*
X73732142Y32377098D02*
X73886904Y32377098D01*
X73886904Y32377098D02*
X73948809Y32346146D01*
X73948809Y32346146D02*
X73979761Y32315193D01*
X73979761Y32315193D02*
X74010714Y32253289D01*
X74010714Y32253289D02*
X74010714Y32191384D01*
X74010714Y32191384D02*
X73979761Y32098527D01*
X73979761Y32098527D02*
X73608333Y31727098D01*
X73608333Y31727098D02*
X74010714Y31727098D01*
X38738458Y32728753D02*
X38707506Y32697800D01*
X38707506Y32697800D02*
X38614648Y32666848D01*
X38614648Y32666848D02*
X38552744Y32666848D01*
X38552744Y32666848D02*
X38459887Y32697800D01*
X38459887Y32697800D02*
X38397982Y32759705D01*
X38397982Y32759705D02*
X38367029Y32821610D01*
X38367029Y32821610D02*
X38336077Y32945420D01*
X38336077Y32945420D02*
X38336077Y33038277D01*
X38336077Y33038277D02*
X38367029Y33162086D01*
X38367029Y33162086D02*
X38397982Y33223991D01*
X38397982Y33223991D02*
X38459887Y33285896D01*
X38459887Y33285896D02*
X38552744Y33316848D01*
X38552744Y33316848D02*
X38614648Y33316848D01*
X38614648Y33316848D02*
X38707506Y33285896D01*
X38707506Y33285896D02*
X38738458Y33254943D01*
X39295601Y33316848D02*
X39171791Y33316848D01*
X39171791Y33316848D02*
X39109887Y33285896D01*
X39109887Y33285896D02*
X39078934Y33254943D01*
X39078934Y33254943D02*
X39017029Y33162086D01*
X39017029Y33162086D02*
X38986077Y33038277D01*
X38986077Y33038277D02*
X38986077Y32790658D01*
X38986077Y32790658D02*
X39017029Y32728753D01*
X39017029Y32728753D02*
X39047982Y32697800D01*
X39047982Y32697800D02*
X39109887Y32666848D01*
X39109887Y32666848D02*
X39233696Y32666848D01*
X39233696Y32666848D02*
X39295601Y32697800D01*
X39295601Y32697800D02*
X39326553Y32728753D01*
X39326553Y32728753D02*
X39357506Y32790658D01*
X39357506Y32790658D02*
X39357506Y32945420D01*
X39357506Y32945420D02*
X39326553Y33007324D01*
X39326553Y33007324D02*
X39295601Y33038277D01*
X39295601Y33038277D02*
X39233696Y33069229D01*
X39233696Y33069229D02*
X39109887Y33069229D01*
X39109887Y33069229D02*
X39047982Y33038277D01*
X39047982Y33038277D02*
X39017029Y33007324D01*
X39017029Y33007324D02*
X38986077Y32945420D01*
X30960997Y41902143D02*
X30991950Y41871191D01*
X30991950Y41871191D02*
X31022902Y41778333D01*
X31022902Y41778333D02*
X31022902Y41716429D01*
X31022902Y41716429D02*
X30991950Y41623572D01*
X30991950Y41623572D02*
X30930045Y41561667D01*
X30930045Y41561667D02*
X30868140Y41530714D01*
X30868140Y41530714D02*
X30744330Y41499762D01*
X30744330Y41499762D02*
X30651473Y41499762D01*
X30651473Y41499762D02*
X30527664Y41530714D01*
X30527664Y41530714D02*
X30465759Y41561667D01*
X30465759Y41561667D02*
X30403854Y41623572D01*
X30403854Y41623572D02*
X30372902Y41716429D01*
X30372902Y41716429D02*
X30372902Y41778333D01*
X30372902Y41778333D02*
X30403854Y41871191D01*
X30403854Y41871191D02*
X30434807Y41902143D01*
X30372902Y42118810D02*
X30372902Y42521191D01*
X30372902Y42521191D02*
X30620521Y42304524D01*
X30620521Y42304524D02*
X30620521Y42397381D01*
X30620521Y42397381D02*
X30651473Y42459286D01*
X30651473Y42459286D02*
X30682426Y42490238D01*
X30682426Y42490238D02*
X30744330Y42521191D01*
X30744330Y42521191D02*
X30899092Y42521191D01*
X30899092Y42521191D02*
X30960997Y42490238D01*
X30960997Y42490238D02*
X30991950Y42459286D01*
X30991950Y42459286D02*
X31022902Y42397381D01*
X31022902Y42397381D02*
X31022902Y42211667D01*
X31022902Y42211667D02*
X30991950Y42149762D01*
X30991950Y42149762D02*
X30960997Y42118810D01*
X31022902Y43140239D02*
X31022902Y42768810D01*
X31022902Y42954524D02*
X30372902Y42954524D01*
X30372902Y42954524D02*
X30465759Y42892620D01*
X30465759Y42892620D02*
X30527664Y42830715D01*
X30527664Y42830715D02*
X30558616Y42768810D01*
X30445714Y39885181D02*
X30445714Y39075658D01*
X30445714Y39075658D02*
X30493333Y38980420D01*
X30493333Y38980420D02*
X30540952Y38932800D01*
X30540952Y38932800D02*
X30636190Y38885181D01*
X30636190Y38885181D02*
X30826666Y38885181D01*
X30826666Y38885181D02*
X30921904Y38932800D01*
X30921904Y38932800D02*
X30969523Y38980420D01*
X30969523Y38980420D02*
X31017142Y39075658D01*
X31017142Y39075658D02*
X31017142Y39885181D01*
X32017142Y38885181D02*
X31445714Y38885181D01*
X31731428Y38885181D02*
X31731428Y39885181D01*
X31731428Y39885181D02*
X31636190Y39742324D01*
X31636190Y39742324D02*
X31540952Y39647086D01*
X31540952Y39647086D02*
X31445714Y39599467D01*
X32969523Y38885181D02*
X32398095Y38885181D01*
X32683809Y38885181D02*
X32683809Y39885181D01*
X32683809Y39885181D02*
X32588571Y39742324D01*
X32588571Y39742324D02*
X32493333Y39647086D01*
X32493333Y39647086D02*
X32398095Y39599467D01*
X33350476Y39789943D02*
X33398095Y39837562D01*
X33398095Y39837562D02*
X33493333Y39885181D01*
X33493333Y39885181D02*
X33731428Y39885181D01*
X33731428Y39885181D02*
X33826666Y39837562D01*
X33826666Y39837562D02*
X33874285Y39789943D01*
X33874285Y39789943D02*
X33921904Y39694705D01*
X33921904Y39694705D02*
X33921904Y39599467D01*
X33921904Y39599467D02*
X33874285Y39456610D01*
X33874285Y39456610D02*
X33302857Y38885181D01*
X33302857Y38885181D02*
X33921904Y38885181D01*
X103355997Y25242143D02*
X103386950Y25211191D01*
X103386950Y25211191D02*
X103417902Y25118333D01*
X103417902Y25118333D02*
X103417902Y25056429D01*
X103417902Y25056429D02*
X103386950Y24963572D01*
X103386950Y24963572D02*
X103325045Y24901667D01*
X103325045Y24901667D02*
X103263140Y24870714D01*
X103263140Y24870714D02*
X103139330Y24839762D01*
X103139330Y24839762D02*
X103046473Y24839762D01*
X103046473Y24839762D02*
X102922664Y24870714D01*
X102922664Y24870714D02*
X102860759Y24901667D01*
X102860759Y24901667D02*
X102798854Y24963572D01*
X102798854Y24963572D02*
X102767902Y25056429D01*
X102767902Y25056429D02*
X102767902Y25118333D01*
X102767902Y25118333D02*
X102798854Y25211191D01*
X102798854Y25211191D02*
X102829807Y25242143D01*
X102829807Y25489762D02*
X102798854Y25520714D01*
X102798854Y25520714D02*
X102767902Y25582619D01*
X102767902Y25582619D02*
X102767902Y25737381D01*
X102767902Y25737381D02*
X102798854Y25799286D01*
X102798854Y25799286D02*
X102829807Y25830238D01*
X102829807Y25830238D02*
X102891711Y25861191D01*
X102891711Y25861191D02*
X102953616Y25861191D01*
X102953616Y25861191D02*
X103046473Y25830238D01*
X103046473Y25830238D02*
X103417902Y25458810D01*
X103417902Y25458810D02*
X103417902Y25861191D01*
X102767902Y26077858D02*
X102767902Y26511191D01*
X102767902Y26511191D02*
X103417902Y26232620D01*
X18822902Y7961667D02*
X18513378Y7745000D01*
X18822902Y7590238D02*
X18172902Y7590238D01*
X18172902Y7590238D02*
X18172902Y7837857D01*
X18172902Y7837857D02*
X18203854Y7899762D01*
X18203854Y7899762D02*
X18234807Y7930715D01*
X18234807Y7930715D02*
X18296711Y7961667D01*
X18296711Y7961667D02*
X18389569Y7961667D01*
X18389569Y7961667D02*
X18451473Y7930715D01*
X18451473Y7930715D02*
X18482426Y7899762D01*
X18482426Y7899762D02*
X18513378Y7837857D01*
X18513378Y7837857D02*
X18513378Y7590238D01*
X18822902Y8580715D02*
X18822902Y8209286D01*
X18822902Y8395000D02*
X18172902Y8395000D01*
X18172902Y8395000D02*
X18265759Y8333096D01*
X18265759Y8333096D02*
X18327664Y8271191D01*
X18327664Y8271191D02*
X18358616Y8209286D01*
X30625402Y36909167D02*
X30315878Y36692500D01*
X30625402Y36537738D02*
X29975402Y36537738D01*
X29975402Y36537738D02*
X29975402Y36785357D01*
X29975402Y36785357D02*
X30006354Y36847262D01*
X30006354Y36847262D02*
X30037307Y36878215D01*
X30037307Y36878215D02*
X30099211Y36909167D01*
X30099211Y36909167D02*
X30192069Y36909167D01*
X30192069Y36909167D02*
X30253973Y36878215D01*
X30253973Y36878215D02*
X30284926Y36847262D01*
X30284926Y36847262D02*
X30315878Y36785357D01*
X30315878Y36785357D02*
X30315878Y36537738D01*
X29975402Y37497262D02*
X29975402Y37187738D01*
X29975402Y37187738D02*
X30284926Y37156786D01*
X30284926Y37156786D02*
X30253973Y37187738D01*
X30253973Y37187738D02*
X30223021Y37249643D01*
X30223021Y37249643D02*
X30223021Y37404405D01*
X30223021Y37404405D02*
X30253973Y37466310D01*
X30253973Y37466310D02*
X30284926Y37497262D01*
X30284926Y37497262D02*
X30346830Y37528215D01*
X30346830Y37528215D02*
X30501592Y37528215D01*
X30501592Y37528215D02*
X30563497Y37497262D01*
X30563497Y37497262D02*
X30594450Y37466310D01*
X30594450Y37466310D02*
X30625402Y37404405D01*
X30625402Y37404405D02*
X30625402Y37249643D01*
X30625402Y37249643D02*
X30594450Y37187738D01*
X30594450Y37187738D02*
X30563497Y37156786D01*
X32488095Y29545181D02*
X32488095Y28735658D01*
X32488095Y28735658D02*
X32535714Y28640420D01*
X32535714Y28640420D02*
X32583333Y28592800D01*
X32583333Y28592800D02*
X32678571Y28545181D01*
X32678571Y28545181D02*
X32869047Y28545181D01*
X32869047Y28545181D02*
X32964285Y28592800D01*
X32964285Y28592800D02*
X33011904Y28640420D01*
X33011904Y28640420D02*
X33059523Y28735658D01*
X33059523Y28735658D02*
X33059523Y29545181D01*
X33440476Y29545181D02*
X34107142Y29545181D01*
X34107142Y29545181D02*
X33678571Y28545181D01*
X83671247Y49894411D02*
X83702200Y49863459D01*
X83702200Y49863459D02*
X83733152Y49770601D01*
X83733152Y49770601D02*
X83733152Y49708697D01*
X83733152Y49708697D02*
X83702200Y49615840D01*
X83702200Y49615840D02*
X83640295Y49553935D01*
X83640295Y49553935D02*
X83578390Y49522982D01*
X83578390Y49522982D02*
X83454580Y49492030D01*
X83454580Y49492030D02*
X83361723Y49492030D01*
X83361723Y49492030D02*
X83237914Y49522982D01*
X83237914Y49522982D02*
X83176009Y49553935D01*
X83176009Y49553935D02*
X83114104Y49615840D01*
X83114104Y49615840D02*
X83083152Y49708697D01*
X83083152Y49708697D02*
X83083152Y49770601D01*
X83083152Y49770601D02*
X83114104Y49863459D01*
X83114104Y49863459D02*
X83145057Y49894411D01*
X83083152Y50111078D02*
X83083152Y50513459D01*
X83083152Y50513459D02*
X83330771Y50296792D01*
X83330771Y50296792D02*
X83330771Y50389649D01*
X83330771Y50389649D02*
X83361723Y50451554D01*
X83361723Y50451554D02*
X83392676Y50482506D01*
X83392676Y50482506D02*
X83454580Y50513459D01*
X83454580Y50513459D02*
X83609342Y50513459D01*
X83609342Y50513459D02*
X83671247Y50482506D01*
X83671247Y50482506D02*
X83702200Y50451554D01*
X83702200Y50451554D02*
X83733152Y50389649D01*
X83733152Y50389649D02*
X83733152Y50203935D01*
X83733152Y50203935D02*
X83702200Y50142030D01*
X83702200Y50142030D02*
X83671247Y50111078D01*
X83361723Y50884888D02*
X83330771Y50822983D01*
X83330771Y50822983D02*
X83299819Y50792030D01*
X83299819Y50792030D02*
X83237914Y50761078D01*
X83237914Y50761078D02*
X83206961Y50761078D01*
X83206961Y50761078D02*
X83145057Y50792030D01*
X83145057Y50792030D02*
X83114104Y50822983D01*
X83114104Y50822983D02*
X83083152Y50884888D01*
X83083152Y50884888D02*
X83083152Y51008697D01*
X83083152Y51008697D02*
X83114104Y51070602D01*
X83114104Y51070602D02*
X83145057Y51101554D01*
X83145057Y51101554D02*
X83206961Y51132507D01*
X83206961Y51132507D02*
X83237914Y51132507D01*
X83237914Y51132507D02*
X83299819Y51101554D01*
X83299819Y51101554D02*
X83330771Y51070602D01*
X83330771Y51070602D02*
X83361723Y51008697D01*
X83361723Y51008697D02*
X83361723Y50884888D01*
X83361723Y50884888D02*
X83392676Y50822983D01*
X83392676Y50822983D02*
X83423628Y50792030D01*
X83423628Y50792030D02*
X83485533Y50761078D01*
X83485533Y50761078D02*
X83609342Y50761078D01*
X83609342Y50761078D02*
X83671247Y50792030D01*
X83671247Y50792030D02*
X83702200Y50822983D01*
X83702200Y50822983D02*
X83733152Y50884888D01*
X83733152Y50884888D02*
X83733152Y51008697D01*
X83733152Y51008697D02*
X83702200Y51070602D01*
X83702200Y51070602D02*
X83671247Y51101554D01*
X83671247Y51101554D02*
X83609342Y51132507D01*
X83609342Y51132507D02*
X83485533Y51132507D01*
X83485533Y51132507D02*
X83423628Y51101554D01*
X83423628Y51101554D02*
X83392676Y51070602D01*
X83392676Y51070602D02*
X83361723Y51008697D01*
X40320997Y38613119D02*
X40351950Y38582167D01*
X40351950Y38582167D02*
X40382902Y38489309D01*
X40382902Y38489309D02*
X40382902Y38427405D01*
X40382902Y38427405D02*
X40351950Y38334548D01*
X40351950Y38334548D02*
X40290045Y38272643D01*
X40290045Y38272643D02*
X40228140Y38241690D01*
X40228140Y38241690D02*
X40104330Y38210738D01*
X40104330Y38210738D02*
X40011473Y38210738D01*
X40011473Y38210738D02*
X39887664Y38241690D01*
X39887664Y38241690D02*
X39825759Y38272643D01*
X39825759Y38272643D02*
X39763854Y38334548D01*
X39763854Y38334548D02*
X39732902Y38427405D01*
X39732902Y38427405D02*
X39732902Y38489309D01*
X39732902Y38489309D02*
X39763854Y38582167D01*
X39763854Y38582167D02*
X39794807Y38613119D01*
X39732902Y38829786D02*
X39732902Y39232167D01*
X39732902Y39232167D02*
X39980521Y39015500D01*
X39980521Y39015500D02*
X39980521Y39108357D01*
X39980521Y39108357D02*
X40011473Y39170262D01*
X40011473Y39170262D02*
X40042426Y39201214D01*
X40042426Y39201214D02*
X40104330Y39232167D01*
X40104330Y39232167D02*
X40259092Y39232167D01*
X40259092Y39232167D02*
X40320997Y39201214D01*
X40320997Y39201214D02*
X40351950Y39170262D01*
X40351950Y39170262D02*
X40382902Y39108357D01*
X40382902Y39108357D02*
X40382902Y38922643D01*
X40382902Y38922643D02*
X40351950Y38860738D01*
X40351950Y38860738D02*
X40320997Y38829786D01*
X39732902Y39634548D02*
X39732902Y39696453D01*
X39732902Y39696453D02*
X39763854Y39758357D01*
X39763854Y39758357D02*
X39794807Y39789310D01*
X39794807Y39789310D02*
X39856711Y39820262D01*
X39856711Y39820262D02*
X39980521Y39851215D01*
X39980521Y39851215D02*
X40135283Y39851215D01*
X40135283Y39851215D02*
X40259092Y39820262D01*
X40259092Y39820262D02*
X40320997Y39789310D01*
X40320997Y39789310D02*
X40351950Y39758357D01*
X40351950Y39758357D02*
X40382902Y39696453D01*
X40382902Y39696453D02*
X40382902Y39634548D01*
X40382902Y39634548D02*
X40351950Y39572643D01*
X40351950Y39572643D02*
X40320997Y39541691D01*
X40320997Y39541691D02*
X40259092Y39510738D01*
X40259092Y39510738D02*
X40135283Y39479786D01*
X40135283Y39479786D02*
X39980521Y39479786D01*
X39980521Y39479786D02*
X39856711Y39510738D01*
X39856711Y39510738D02*
X39794807Y39541691D01*
X39794807Y39541691D02*
X39763854Y39572643D01*
X39763854Y39572643D02*
X39732902Y39634548D01*
X39732902Y40253596D02*
X39732902Y40315501D01*
X39732902Y40315501D02*
X39763854Y40377405D01*
X39763854Y40377405D02*
X39794807Y40408358D01*
X39794807Y40408358D02*
X39856711Y40439310D01*
X39856711Y40439310D02*
X39980521Y40470263D01*
X39980521Y40470263D02*
X40135283Y40470263D01*
X40135283Y40470263D02*
X40259092Y40439310D01*
X40259092Y40439310D02*
X40320997Y40408358D01*
X40320997Y40408358D02*
X40351950Y40377405D01*
X40351950Y40377405D02*
X40382902Y40315501D01*
X40382902Y40315501D02*
X40382902Y40253596D01*
X40382902Y40253596D02*
X40351950Y40191691D01*
X40351950Y40191691D02*
X40320997Y40160739D01*
X40320997Y40160739D02*
X40259092Y40129786D01*
X40259092Y40129786D02*
X40135283Y40098834D01*
X40135283Y40098834D02*
X39980521Y40098834D01*
X39980521Y40098834D02*
X39856711Y40129786D01*
X39856711Y40129786D02*
X39794807Y40160739D01*
X39794807Y40160739D02*
X39763854Y40191691D01*
X39763854Y40191691D02*
X39732902Y40253596D01*
X57332541Y48162681D02*
X57999207Y47162681D01*
X57999207Y48162681D02*
X57332541Y47162681D01*
X58903969Y47162681D02*
X58332541Y47162681D01*
X58618255Y47162681D02*
X58618255Y48162681D01*
X58618255Y48162681D02*
X58523017Y48019824D01*
X58523017Y48019824D02*
X58427779Y47924586D01*
X58427779Y47924586D02*
X58332541Y47876967D01*
X59523017Y48162681D02*
X59618255Y48162681D01*
X59618255Y48162681D02*
X59713493Y48115062D01*
X59713493Y48115062D02*
X59761112Y48067443D01*
X59761112Y48067443D02*
X59808731Y47972205D01*
X59808731Y47972205D02*
X59856350Y47781729D01*
X59856350Y47781729D02*
X59856350Y47543634D01*
X59856350Y47543634D02*
X59808731Y47353158D01*
X59808731Y47353158D02*
X59761112Y47257920D01*
X59761112Y47257920D02*
X59713493Y47210300D01*
X59713493Y47210300D02*
X59618255Y47162681D01*
X59618255Y47162681D02*
X59523017Y47162681D01*
X59523017Y47162681D02*
X59427779Y47210300D01*
X59427779Y47210300D02*
X59380160Y47257920D01*
X59380160Y47257920D02*
X59332541Y47353158D01*
X59332541Y47353158D02*
X59284922Y47543634D01*
X59284922Y47543634D02*
X59284922Y47781729D01*
X59284922Y47781729D02*
X59332541Y47972205D01*
X59332541Y47972205D02*
X59380160Y48067443D01*
X59380160Y48067443D02*
X59427779Y48115062D01*
X59427779Y48115062D02*
X59523017Y48162681D01*
X73681666Y35117098D02*
X73464999Y35426622D01*
X73310237Y35117098D02*
X73310237Y35767098D01*
X73310237Y35767098D02*
X73557856Y35767098D01*
X73557856Y35767098D02*
X73619761Y35736146D01*
X73619761Y35736146D02*
X73650714Y35705193D01*
X73650714Y35705193D02*
X73681666Y35643289D01*
X73681666Y35643289D02*
X73681666Y35550431D01*
X73681666Y35550431D02*
X73650714Y35488527D01*
X73650714Y35488527D02*
X73619761Y35457574D01*
X73619761Y35457574D02*
X73557856Y35426622D01*
X73557856Y35426622D02*
X73310237Y35426622D01*
X73898333Y35767098D02*
X74331666Y35767098D01*
X74331666Y35767098D02*
X74053095Y35117098D01*
X113098095Y17865181D02*
X113098095Y17055658D01*
X113098095Y17055658D02*
X113145714Y16960420D01*
X113145714Y16960420D02*
X113193333Y16912800D01*
X113193333Y16912800D02*
X113288571Y16865181D01*
X113288571Y16865181D02*
X113479047Y16865181D01*
X113479047Y16865181D02*
X113574285Y16912800D01*
X113574285Y16912800D02*
X113621904Y16960420D01*
X113621904Y16960420D02*
X113669523Y17055658D01*
X113669523Y17055658D02*
X113669523Y17865181D01*
X114574285Y17531848D02*
X114574285Y16865181D01*
X114336190Y17912800D02*
X114098095Y17198515D01*
X114098095Y17198515D02*
X114717142Y17198515D01*
D14*
G04 #@! TO.C,R18*
X21590000Y14000000D02*
X23290000Y14000000D01*
X23290000Y12600000D02*
X21590000Y12600000D01*
G04 #@! TO.C,R17*
X35220000Y12440000D02*
X35220000Y10740000D01*
X33820000Y10740000D02*
X33820000Y12440000D01*
G04 #@! TO.C,R16*
X96160120Y14161751D02*
X96160120Y15861751D01*
X97560120Y15861751D02*
X97560120Y14161751D01*
G04 #@! TO.C,C24*
X60336000Y44647500D02*
X61536000Y44647500D01*
X61536000Y44947500D02*
X60336000Y44947500D01*
G04 #@! TO.C,R13*
X109860000Y14344092D02*
X109860000Y16044092D01*
X111260000Y16044092D02*
X111260000Y14344092D01*
G04 #@! TO.C,U8*
X90230000Y24720000D02*
X90230000Y26020000D01*
X92230000Y26520000D02*
X92230000Y24720000D01*
G04 #@! TO.C,C20*
X70900000Y16600000D02*
X72100000Y16600000D01*
X72100000Y16900000D02*
X70900000Y16900000D01*
G04 #@! TO.C,R3*
X75370000Y31210000D02*
X77070000Y31210000D01*
X77070000Y29810000D02*
X75370000Y29810000D01*
G04 #@! TO.C,L3*
X36211078Y41247500D02*
X35693922Y41247500D01*
X36211078Y39827500D02*
X35693922Y39827500D01*
G04 #@! TO.C,R27*
X87550000Y40210000D02*
X87550000Y41910000D01*
X88950000Y41910000D02*
X88950000Y40210000D01*
D10*
G04 #@! TO.C,TP8*
X76670000Y7510000D02*
G75*
G02*
X74130000Y7510000I-1270000J0D01*
G01*
X74130000Y7510000D02*
G75*
G02*
X76670000Y7510000I1270000J0D01*
G01*
G04 #@! TO.C,TP4*
X71600000Y23150000D02*
G75*
G02*
X69060000Y23150000I-1270000J0D01*
G01*
X69060000Y23150000D02*
G75*
G02*
X71600000Y23150000I1270000J0D01*
G01*
D14*
G04 #@! TO.C,J3*
X35990000Y50110000D02*
X35990000Y44910000D01*
X36560000Y50110000D02*
X35990000Y50110000D01*
X36560000Y44910000D02*
X35990000Y44910000D01*
X39100000Y50110000D02*
X38080000Y50110000D01*
X39100000Y44910000D02*
X38080000Y44910000D01*
X41640000Y50110000D02*
X40620000Y50110000D01*
X41640000Y44910000D02*
X40620000Y44910000D01*
X44180000Y50110000D02*
X43160000Y50110000D01*
X44180000Y44910000D02*
X43160000Y44910000D01*
X45700000Y51550000D02*
X45700000Y50110000D01*
X46270000Y50110000D02*
X45700000Y50110000D01*
X46270000Y50110000D02*
X46270000Y44910000D01*
X46270000Y44910000D02*
X45700000Y44910000D01*
D10*
G04 #@! TO.C,TP12*
X77720000Y27700000D02*
G75*
G02*
X75180000Y27700000I-1270000J0D01*
G01*
X75180000Y27700000D02*
G75*
G02*
X77720000Y27700000I1270000J0D01*
G01*
D15*
G04 #@! TO.C,C39*
X82135000Y47890500D02*
X80285000Y47890500D01*
X82135000Y46874500D02*
X80285000Y46874500D01*
D11*
G04 #@! TO.C,J1*
X96340000Y20890000D02*
X101140000Y20890000D01*
X96340000Y18390000D02*
X96340000Y20890000D01*
X101140000Y20890000D02*
X101140000Y18390000D01*
X101140000Y18390000D02*
X96340000Y18390000D01*
D14*
G04 #@! TO.C,R4*
X31162500Y32587500D02*
X31162500Y34287500D01*
X32562500Y34287500D02*
X32562500Y32587500D01*
G04 #@! TO.C,C9*
X78780000Y17100000D02*
X78780000Y15900000D01*
X79080000Y15900000D02*
X79080000Y17100000D01*
G04 #@! TO.C,C19*
X59520000Y16030000D02*
X60720000Y16030000D01*
X60720000Y16330000D02*
X59520000Y16330000D01*
G04 #@! TO.C,H3*
X126510000Y4000000D02*
G75*
G02*
X121210000Y4000000I-2650000J0D01*
G01*
X121210000Y4000000D02*
G75*
G02*
X126510000Y4000000I2650000J0D01*
G01*
G04 #@! TO.C,C1*
X48770000Y32940000D02*
X49970000Y32940000D01*
X49970000Y33240000D02*
X48770000Y33240000D01*
G04 #@! TO.C,C34*
X49120000Y43580000D02*
X49120000Y42380000D01*
X49420000Y42380000D02*
X49420000Y43580000D01*
G04 #@! TO.C,R26*
X91010000Y45040000D02*
X92710000Y45040000D01*
X92710000Y43640000D02*
X91010000Y43640000D01*
G04 #@! TO.C,C32*
X93080000Y25070000D02*
X94280000Y25070000D01*
X94280000Y25370000D02*
X93080000Y25370000D01*
G04 #@! TO.C,R15*
X68600000Y15940000D02*
X68600000Y17640000D01*
X70000000Y17640000D02*
X70000000Y15940000D01*
G04 #@! TO.C,R14*
X57190000Y15300000D02*
X57190000Y17000000D01*
X58590000Y17000000D02*
X58590000Y15300000D01*
G04 #@! TO.C,C2*
X116900000Y49360000D02*
X118100000Y49360000D01*
X118100000Y49660000D02*
X116900000Y49660000D01*
G04 #@! TO.C,U6*
X28317500Y10410000D02*
X28317500Y11210000D01*
X28317500Y10410000D02*
X28317500Y9610000D01*
X31437500Y10410000D02*
X31437500Y11210000D01*
X31437500Y10410000D02*
X31437500Y9610000D01*
X28367500Y9110000D02*
X28037500Y8870000D01*
X28037500Y9350000D01*
X28367500Y9110000D01*
G36*
X28367500Y9110000D02*
G01*
X28037500Y8870000D01*
X28037500Y9350000D01*
X28367500Y9110000D01*
G37*
G04 #@! TO.C,C28*
X109975000Y26320000D02*
X111175000Y26320000D01*
X111175000Y26620000D02*
X109975000Y26620000D01*
D15*
G04 #@! TO.C,C18*
X87610000Y6228000D02*
X85760000Y6228000D01*
X87610000Y5212000D02*
X85760000Y5212000D01*
D14*
G04 #@! TO.C,C25*
X53956000Y44507500D02*
X55156000Y44507500D01*
X55156000Y44807500D02*
X53956000Y44807500D01*
G04 #@! TO.C,C35*
X89390000Y46840000D02*
X90590000Y46840000D01*
X90590000Y47140000D02*
X89390000Y47140000D01*
G04 #@! TO.C,C5*
X46380000Y33170000D02*
X46380000Y31970000D01*
X46680000Y31970000D02*
X46680000Y33170000D01*
G04 #@! TO.C,R9*
X88920000Y23550000D02*
X90620000Y23550000D01*
X90620000Y22150000D02*
X88920000Y22150000D01*
G04 #@! TO.C,C13*
X84755000Y17570000D02*
X84755000Y16370000D01*
X85055000Y16370000D02*
X85055000Y17570000D01*
G04 #@! TO.C,J12*
X54980000Y28225000D02*
X54980000Y25685000D01*
X54980000Y25685000D02*
X65140000Y25685000D01*
X65140000Y28225000D02*
X54980000Y28225000D01*
X65140000Y25685000D02*
X65140000Y28225000D01*
G04 #@! TO.C,H4*
X6650000Y4000000D02*
G75*
G02*
X1350000Y4000000I-2650000J0D01*
G01*
X1350000Y4000000D02*
G75*
G02*
X6650000Y4000000I2650000J0D01*
G01*
G04 #@! TO.C,C15*
X88600000Y25160000D02*
X89800000Y25160000D01*
X89800000Y25460000D02*
X88600000Y25460000D01*
D15*
G04 #@! TO.C,C36*
X82285000Y43168000D02*
X84135000Y43168000D01*
X82285000Y42152000D02*
X84135000Y42152000D01*
D14*
G04 #@! TO.C,C14*
X91530000Y28350000D02*
X91530000Y27150000D01*
X91830000Y27150000D02*
X91830000Y28350000D01*
G04 #@! TO.C,C8*
X75260000Y20550000D02*
X75260000Y19350000D01*
X75560000Y19350000D02*
X75560000Y20550000D01*
D10*
G04 #@! TO.C,TP13*
X72640000Y27700000D02*
G75*
G02*
X70100000Y27700000I-1270000J0D01*
G01*
X70100000Y27700000D02*
G75*
G02*
X72640000Y27700000I1270000J0D01*
G01*
G04 #@! TO.C,V12*
X46799960Y38427320D02*
X47501000Y38427320D01*
X47501000Y38427320D02*
X47501000Y38178400D01*
X47501000Y35628340D02*
X47501000Y35676600D01*
X47501000Y35628340D02*
X47501000Y35427680D01*
X47501000Y35427680D02*
X46799960Y35427680D01*
G04 #@! TO.C,TP2*
X91970000Y15340000D02*
G75*
G02*
X89430000Y15340000I-1270000J0D01*
G01*
X89430000Y15340000D02*
G75*
G02*
X91970000Y15340000I1270000J0D01*
G01*
D14*
G04 #@! TO.C,C16*
X86790000Y25160000D02*
X87990000Y25160000D01*
X87990000Y25460000D02*
X86790000Y25460000D01*
G04 #@! TO.C,C3*
X58900000Y30420000D02*
X58900000Y29220000D01*
X59200000Y29220000D02*
X59200000Y30420000D01*
G04 #@! TO.C,C40*
X46590000Y40377500D02*
X46590000Y39177500D01*
X46890000Y39177500D02*
X46890000Y40377500D01*
G04 #@! TO.C,C30*
X110280000Y20070000D02*
X111480000Y20070000D01*
X111480000Y20370000D02*
X110280000Y20370000D01*
G04 #@! TO.C,L11*
X88720000Y51290000D02*
X84720000Y51290000D01*
X88720000Y47090000D02*
X84720000Y47090000D01*
G04 #@! TO.C,C4*
X46450000Y34960000D02*
X46450000Y33760000D01*
X46750000Y33760000D02*
X46750000Y34960000D01*
G04 #@! TO.C,U1*
X51820000Y40220000D02*
X52270000Y40220000D01*
X51820000Y39770000D02*
X51820000Y40220000D01*
X51820000Y33450000D02*
X51820000Y33000000D01*
X51820000Y33000000D02*
X52270000Y33000000D01*
X59040000Y40220000D02*
X58590000Y40220000D01*
X59040000Y39770000D02*
X59040000Y40220000D01*
X59040000Y33450000D02*
X59040000Y33000000D01*
X59040000Y33000000D02*
X58590000Y33000000D01*
X59060000Y40470000D02*
X58590000Y40810000D01*
X59060000Y41150000D01*
X59060000Y40470000D01*
G36*
X59060000Y40470000D02*
G01*
X58590000Y40810000D01*
X59060000Y41150000D01*
X59060000Y40470000D01*
G37*
G04 #@! TO.C,R6*
X75350000Y37680000D02*
X77050000Y37680000D01*
X77050000Y36280000D02*
X75350000Y36280000D01*
D10*
G04 #@! TO.C,J6*
X80750000Y3190000D02*
X80750000Y650000D01*
X80750000Y650000D02*
X88370000Y650000D01*
X88370000Y3190000D02*
X80750000Y3190000D01*
X88370000Y650000D02*
X88370000Y3190000D01*
G04 #@! TO.C,TP7*
X79210000Y4970000D02*
G75*
G02*
X76670000Y4970000I-1270000J0D01*
G01*
X76670000Y4970000D02*
G75*
G02*
X79210000Y4970000I1270000J0D01*
G01*
D14*
G04 #@! TO.C,U3*
X106325000Y23970000D02*
X108775000Y23970000D01*
X108125000Y27190000D02*
X106325000Y27190000D01*
D16*
X109257000Y24564000D02*
X109511000Y24818000D01*
X109257000Y24564000D02*
X109511000Y24310000D01*
X109511000Y24310000D02*
X109257000Y24564000D01*
X110336500Y24564000D02*
X109257000Y24564000D01*
X107666421Y24580000D02*
G75*
G02*
X107383579Y24580000I-141421J0D01*
G01*
X107383579Y24580000D02*
G75*
G02*
X107666421Y24580000I141421J0D01*
G01*
D14*
G04 #@! TO.C,C22*
X116390000Y14950000D02*
X117590000Y14950000D01*
X117590000Y15250000D02*
X116390000Y15250000D01*
G04 #@! TO.C,C10*
X85950000Y20770000D02*
X87150000Y20770000D01*
X87150000Y21070000D02*
X85950000Y21070000D01*
G04 #@! TO.C,R12*
X74420000Y24670000D02*
X76120000Y24670000D01*
X76120000Y23270000D02*
X74420000Y23270000D01*
D10*
G04 #@! TO.C,J4*
X25070000Y3395000D02*
X25070000Y4755000D01*
X34310000Y4755000D02*
X34310000Y3395000D01*
D14*
G04 #@! TO.C,C12*
X85170000Y25200000D02*
X86370000Y25200000D01*
X86370000Y25500000D02*
X85170000Y25500000D01*
D10*
G04 #@! TO.C,TP1*
X106120000Y15790000D02*
G75*
G02*
X103580000Y15790000I-1270000J0D01*
G01*
X103580000Y15790000D02*
G75*
G02*
X106120000Y15790000I1270000J0D01*
G01*
D14*
G04 #@! TO.C,R11*
X69510000Y20370000D02*
X71210000Y20370000D01*
X71210000Y18970000D02*
X69510000Y18970000D01*
D10*
G04 #@! TO.C,TP5*
X76670000Y2430000D02*
G75*
G02*
X74130000Y2430000I-1270000J0D01*
G01*
X74130000Y2430000D02*
G75*
G02*
X76670000Y2430000I1270000J0D01*
G01*
D11*
G04 #@! TO.C,J2*
X96340000Y24140000D02*
X101140000Y24140000D01*
X96340000Y21640000D02*
X96340000Y24140000D01*
X101140000Y24140000D02*
X101140000Y21640000D01*
X101140000Y21640000D02*
X96340000Y21640000D01*
D14*
G04 #@! TO.C,C23*
X100400000Y15630000D02*
X100400000Y14430000D01*
X100700000Y14430000D02*
X100700000Y15630000D01*
G04 #@! TO.C,U5*
X78650000Y24132500D02*
X79125000Y24132500D01*
X78650000Y23657500D02*
X78650000Y24132500D01*
X78650000Y19387500D02*
X78650000Y18912500D01*
X78650000Y18912500D02*
X79125000Y18912500D01*
X83395000Y24132500D02*
X83630000Y24132500D01*
X83870000Y23657500D02*
X83870000Y23832500D01*
X83870000Y19387500D02*
X83870000Y18912500D01*
X83870000Y18912500D02*
X83395000Y18912500D01*
X84200000Y23892500D02*
X83870000Y24132500D01*
X84200000Y24372500D01*
X84200000Y23892500D01*
G36*
X84200000Y23892500D02*
G01*
X83870000Y24132500D01*
X84200000Y24372500D01*
X84200000Y23892500D01*
G37*
D15*
G04 #@! TO.C,C17*
X82910000Y6353000D02*
X81060000Y6353000D01*
X82910000Y5337000D02*
X81060000Y5337000D01*
D16*
G04 #@! TO.C,C303*
X35576000Y35368800D02*
X35576000Y34251200D01*
X36084000Y35368800D02*
X36084000Y34251200D01*
D14*
G04 #@! TO.C,C7*
X75250000Y22150000D02*
X75250000Y20950000D01*
X75550000Y20950000D02*
X75550000Y22150000D01*
D10*
G04 #@! TO.C,TP6*
X79210000Y2430000D02*
G75*
G02*
X76670000Y2430000I-1270000J0D01*
G01*
X76670000Y2430000D02*
G75*
G02*
X79210000Y2430000I1270000J0D01*
G01*
D14*
G04 #@! TO.C,C29*
X116500000Y20770000D02*
X117700000Y20770000D01*
X117700000Y21070000D02*
X116500000Y21070000D01*
D15*
G04 #@! TO.C,C37*
X79765000Y47980500D02*
X77915000Y47980500D01*
X79765000Y46964500D02*
X77915000Y46964500D01*
D14*
G04 #@! TO.C,R25*
X90130000Y42740000D02*
X91830000Y42740000D01*
X91830000Y41340000D02*
X90130000Y41340000D01*
D10*
G04 #@! TO.C,TP11*
X85890000Y28320000D02*
G75*
G02*
X83350000Y28320000I-1270000J0D01*
G01*
X83350000Y28320000D02*
G75*
G02*
X85890000Y28320000I1270000J0D01*
G01*
D14*
G04 #@! TO.C,C33*
X61970000Y39840000D02*
X63170000Y39840000D01*
X63170000Y40140000D02*
X61970000Y40140000D01*
G04 #@! TO.C,C26*
X93100120Y14961751D02*
X94300120Y14961751D01*
X94300120Y15261751D02*
X93100120Y15261751D01*
G04 #@! TO.C,C21*
X107190000Y15044092D02*
X108390000Y15044092D01*
X108390000Y15344092D02*
X107190000Y15344092D01*
G04 #@! TO.C,R10*
X58390000Y19790000D02*
X60090000Y19790000D01*
X60090000Y18390000D02*
X58390000Y18390000D01*
D17*
G04 #@! TO.C,JP1*
X87845000Y21619000D02*
X87845000Y19714000D01*
X88226000Y19333000D02*
X91274000Y19333000D01*
D11*
X89750000Y21670000D02*
X89750000Y19781200D01*
D17*
X91274000Y22000000D02*
X88226000Y22000000D01*
X91655000Y19714000D02*
X91655000Y21619000D01*
X87845000Y21619000D02*
G75*
G02*
X88226000Y22000000I381000J0D01*
G01*
X88226000Y19333000D02*
G75*
G02*
X87845000Y19714000I0J381000D01*
G01*
X91274000Y22000000D02*
G75*
G02*
X91655000Y21619000I1J-380999D01*
G01*
X91655000Y19714000D02*
G75*
G02*
X91274000Y19333000I-380999J-1D01*
G01*
D10*
G04 #@! TO.C,TP3*
X61260000Y22340000D02*
G75*
G02*
X58720000Y22340000I-1270000J0D01*
G01*
X58720000Y22340000D02*
G75*
G02*
X61260000Y22340000I1270000J0D01*
G01*
D11*
G04 #@! TO.C,J8*
X21180000Y10250000D02*
X23680000Y10250000D01*
X21180000Y5450000D02*
X21180000Y10250000D01*
X23680000Y10250000D02*
X23680000Y5450000D01*
X23680000Y5450000D02*
X21180000Y5450000D01*
D16*
G04 #@! TO.C,V11*
X83768350Y45686000D02*
X84593850Y45686000D01*
X84593850Y45686000D02*
X84276350Y46003500D01*
X84593850Y45686000D02*
X84276350Y45368500D01*
D14*
X85872850Y43110000D02*
X87632850Y43110000D01*
X87632850Y46180000D02*
X85202850Y46180000D01*
D16*
X86571850Y45622500D02*
G75*
G02*
X86171850Y45622500I-200000J0D01*
G01*
X86171850Y45622500D02*
G75*
G02*
X86571850Y45622500I200000J0D01*
G01*
D14*
G04 #@! TO.C,C11*
X79680000Y26300000D02*
X79680000Y25100000D01*
X79980000Y25100000D02*
X79980000Y26300000D01*
G04 #@! TO.C,R8*
X75390000Y34450000D02*
X77090000Y34450000D01*
X77090000Y33050000D02*
X75390000Y33050000D01*
G04 #@! TO.C,H2*
X126510000Y43820000D02*
G75*
G02*
X121210000Y43820000I-2650000J0D01*
G01*
X121210000Y43820000D02*
G75*
G02*
X126510000Y43820000I2650000J0D01*
G01*
D10*
G04 #@! TO.C,TP14*
X76670000Y4970000D02*
G75*
G02*
X74130000Y4970000I-1270000J0D01*
G01*
X74130000Y4970000D02*
G75*
G02*
X76670000Y4970000I1270000J0D01*
G01*
D14*
G04 #@! TO.C,R2*
X75370000Y32830000D02*
X77070000Y32830000D01*
X77070000Y31430000D02*
X75370000Y31430000D01*
D16*
G04 #@! TO.C,C6*
X35516000Y33458800D02*
X35516000Y32341200D01*
X36024000Y33458800D02*
X36024000Y32341200D01*
D14*
G04 #@! TO.C,C31*
X28830000Y41060000D02*
X30030000Y41060000D01*
X30030000Y41360000D02*
X28830000Y41360000D01*
G04 #@! TO.C,U112*
X35822500Y39177500D02*
X35022500Y39177500D01*
X35822500Y39177500D02*
X36622500Y39177500D01*
X35822500Y36057500D02*
X35022500Y36057500D01*
X35822500Y36057500D02*
X36622500Y36057500D01*
X34522500Y39127500D02*
X34282500Y39457500D01*
X34762500Y39457500D01*
X34522500Y39127500D01*
G36*
X34522500Y39127500D02*
G01*
X34282500Y39457500D01*
X34762500Y39457500D01*
X34522500Y39127500D01*
G37*
G04 #@! TO.C,H1*
X6650000Y49480000D02*
G75*
G02*
X1350000Y49480000I-2650000J0D01*
G01*
X1350000Y49480000D02*
G75*
G02*
X6650000Y49480000I2650000J0D01*
G01*
G04 #@! TO.C,C27*
X103825000Y25510000D02*
X105025000Y25510000D01*
X105025000Y25810000D02*
X103825000Y25810000D01*
G04 #@! TO.C,R1*
X19280000Y7220000D02*
X19280000Y8920000D01*
X20680000Y8920000D02*
X20680000Y7220000D01*
G04 #@! TO.C,R5*
X31082500Y36167500D02*
X31082500Y37867500D01*
X32482500Y37867500D02*
X32482500Y36167500D01*
G04 #@! TO.C,U7*
X33250000Y31585000D02*
X32650000Y31585000D01*
X33250000Y31585000D02*
X33850000Y31585000D01*
X33250000Y29715000D02*
X32650000Y29715000D01*
X33250000Y29715000D02*
X33850000Y29715000D01*
X34890000Y29910000D02*
X34560000Y30150000D01*
X34890000Y30390000D01*
X34890000Y29910000D01*
G36*
X34890000Y29910000D02*
G01*
X34560000Y30150000D01*
X34890000Y30390000D01*
X34890000Y29910000D01*
G37*
D16*
G04 #@! TO.C,C38*
X82861200Y48216500D02*
X83978800Y48216500D01*
X82861200Y47708500D02*
X83978800Y47708500D01*
D11*
G04 #@! TO.C,C300*
X38442500Y39622500D02*
X38442500Y39312500D01*
X39222500Y39622500D02*
X39222500Y39312500D01*
D18*
G04 #@! TO.C,X10*
X55871800Y46575300D02*
X59580200Y46575300D01*
X55871800Y43679700D02*
X55871800Y46575300D01*
X57472000Y45000500D02*
X57980000Y45254500D01*
X57573600Y45229100D02*
X57726000Y44975100D01*
X57726000Y45305300D02*
X57878400Y45051300D01*
X59580200Y46575300D02*
X59580200Y43679700D01*
X59580200Y43679700D02*
X55871800Y43679700D01*
D14*
G04 #@! TO.C,R7*
X75370000Y36080000D02*
X77070000Y36080000D01*
X77070000Y34680000D02*
X75370000Y34680000D01*
G04 #@! TO.C,U4*
X112960000Y18610000D02*
X115410000Y18610000D01*
X114760000Y21830000D02*
X112960000Y21830000D01*
D16*
X115892000Y19204000D02*
X116146000Y19458000D01*
X115892000Y19204000D02*
X116146000Y18950000D01*
X116146000Y18950000D02*
X115892000Y19204000D01*
X116971500Y19204000D02*
X115892000Y19204000D01*
X114301421Y19220000D02*
G75*
G02*
X114018579Y19220000I-141421J0D01*
G01*
X114018579Y19220000D02*
G75*
G02*
X114301421Y19220000I141421J0D01*
G01*
G04 #@! TD*
%LPC*%
D19*
G04 #@! TO.C,J4*
X26848500Y5911500D02*
X26131500Y5911500D01*
X26131500Y7188500D01*
X26848500Y7188500D01*
X26848500Y5911500D01*
G36*
X26848500Y5911500D02*
G01*
X26131500Y5911500D01*
X26131500Y7188500D01*
X26848500Y7188500D01*
X26848500Y5911500D01*
G37*
X27648500Y5911500D02*
X26931500Y5911500D01*
X26931500Y7188500D01*
X27648500Y7188500D01*
X27648500Y5911500D01*
G36*
X27648500Y5911500D02*
G01*
X26931500Y5911500D01*
X26931500Y7188500D01*
X27648500Y7188500D01*
X27648500Y5911500D01*
G37*
X28152500Y5911500D02*
X27727500Y5911500D01*
X27727500Y7188500D01*
X28152500Y7188500D01*
X28152500Y5911500D01*
G36*
X28152500Y5911500D02*
G01*
X27727500Y5911500D01*
X27727500Y7188500D01*
X28152500Y7188500D01*
X28152500Y5911500D01*
G37*
X28652500Y5911500D02*
X28227500Y5911500D01*
X28227500Y7188500D01*
X28652500Y7188500D01*
X28652500Y5911500D01*
G36*
X28652500Y5911500D02*
G01*
X28227500Y5911500D01*
X28227500Y7188500D01*
X28652500Y7188500D01*
X28652500Y5911500D01*
G37*
X29152500Y5911500D02*
X28727500Y5911500D01*
X28727500Y7188500D01*
X29152500Y7188500D01*
X29152500Y5911500D01*
G36*
X29152500Y5911500D02*
G01*
X28727500Y5911500D01*
X28727500Y7188500D01*
X29152500Y7188500D01*
X29152500Y5911500D01*
G37*
X29652500Y5911500D02*
X29227500Y5911500D01*
X29227500Y7188500D01*
X29652500Y7188500D01*
X29652500Y5911500D01*
G36*
X29652500Y5911500D02*
G01*
X29227500Y5911500D01*
X29227500Y7188500D01*
X29652500Y7188500D01*
X29652500Y5911500D01*
G37*
X30152500Y5911500D02*
X29727500Y5911500D01*
X29727500Y7188500D01*
X30152500Y7188500D01*
X30152500Y5911500D01*
G36*
X30152500Y5911500D02*
G01*
X29727500Y5911500D01*
X29727500Y7188500D01*
X30152500Y7188500D01*
X30152500Y5911500D01*
G37*
X30652500Y5911500D02*
X30227500Y5911500D01*
X30227500Y7188500D01*
X30652500Y7188500D01*
X30652500Y5911500D01*
G36*
X30652500Y5911500D02*
G01*
X30227500Y5911500D01*
X30227500Y7188500D01*
X30652500Y7188500D01*
X30652500Y5911500D01*
G37*
X31152500Y5911500D02*
X30727500Y5911500D01*
X30727500Y7188500D01*
X31152500Y7188500D01*
X31152500Y5911500D01*
G36*
X31152500Y5911500D02*
G01*
X30727500Y5911500D01*
X30727500Y7188500D01*
X31152500Y7188500D01*
X31152500Y5911500D01*
G37*
X31652500Y5911500D02*
X31227500Y5911500D01*
X31227500Y7188500D01*
X31652500Y7188500D01*
X31652500Y5911500D01*
G36*
X31652500Y5911500D02*
G01*
X31227500Y5911500D01*
X31227500Y7188500D01*
X31652500Y7188500D01*
X31652500Y5911500D01*
G37*
X32448500Y5911500D02*
X31731500Y5911500D01*
X31731500Y7188500D01*
X32448500Y7188500D01*
X32448500Y5911500D01*
G36*
X32448500Y5911500D02*
G01*
X31731500Y5911500D01*
X31731500Y7188500D01*
X32448500Y7188500D01*
X32448500Y5911500D01*
G37*
X33248500Y5911500D02*
X32531500Y5911500D01*
X32531500Y7188500D01*
X33248500Y7188500D01*
X33248500Y5911500D01*
G36*
X33248500Y5911500D02*
G01*
X32531500Y5911500D01*
X32531500Y7188500D01*
X33248500Y7188500D01*
X33248500Y5911500D01*
G37*
G04 #@! TD*
D20*
G04 #@! TO.C,R18*
X23290000Y13300000D03*
X21590000Y13300000D03*
G04 #@! TD*
G04 #@! TO.C,R17*
X34520000Y10740000D03*
X34520000Y12440000D03*
G04 #@! TD*
G04 #@! TO.C,R16*
X96860120Y15861751D03*
X96860120Y14161751D03*
G04 #@! TD*
G04 #@! TO.C,C24*
X60936000Y43947500D03*
X60936000Y45647500D03*
G04 #@! TD*
G04 #@! TO.C,R13*
X110560000Y16044092D03*
X110560000Y14344092D03*
G04 #@! TD*
D21*
G04 #@! TO.C,U8*
X91880000Y26270000D03*
X91230000Y26270000D03*
X90580000Y26270000D03*
X90580000Y24470000D03*
X91880000Y24470000D03*
G04 #@! TD*
D20*
G04 #@! TO.C,C20*
X71500000Y17600000D03*
X71500000Y15900000D03*
G04 #@! TD*
G04 #@! TO.C,R3*
X75370000Y30510000D03*
X77070000Y30510000D03*
G04 #@! TD*
D22*
G04 #@! TO.C,L3*
X36890000Y40537500D03*
X35015000Y40537500D03*
G04 #@! TD*
D20*
G04 #@! TO.C,R27*
X88250000Y41910000D03*
X88250000Y40210000D03*
G04 #@! TD*
D23*
G04 #@! TO.C,TP8*
X75400000Y7510000D03*
G04 #@! TD*
G04 #@! TO.C,TP4*
X70330000Y23150000D03*
G04 #@! TD*
D24*
G04 #@! TO.C,J3*
X44940000Y50035000D03*
X44940000Y44985000D03*
X42400000Y50035000D03*
X42400000Y44985000D03*
X39860000Y50035000D03*
X39860000Y44985000D03*
X37320000Y50035000D03*
X37320000Y44985000D03*
G04 #@! TD*
D23*
G04 #@! TO.C,TP12*
X76450000Y27700000D03*
G04 #@! TD*
D25*
G04 #@! TO.C,C39*
X81210000Y48832500D03*
X81210000Y45932500D03*
G04 #@! TD*
D26*
G04 #@! TO.C,J1*
X97470000Y19640000D03*
X100010000Y19640000D03*
G04 #@! TD*
D20*
G04 #@! TO.C,R4*
X31862500Y32587500D03*
X31862500Y34287500D03*
G04 #@! TD*
G04 #@! TO.C,C9*
X78080000Y16500000D03*
X79780000Y16500000D03*
G04 #@! TD*
G04 #@! TO.C,C19*
X60120000Y17030000D03*
X60120000Y15330000D03*
G04 #@! TD*
D27*
G04 #@! TO.C,H3*
X123860000Y4000000D03*
G04 #@! TD*
D20*
G04 #@! TO.C,C1*
X49370000Y32240000D03*
X49370000Y33940000D03*
G04 #@! TD*
G04 #@! TO.C,C34*
X48420000Y42980000D03*
X50120000Y42980000D03*
G04 #@! TD*
G04 #@! TO.C,R26*
X92710000Y44340000D03*
X91010000Y44340000D03*
G04 #@! TD*
G04 #@! TO.C,C32*
X93680000Y24370000D03*
X93680000Y26070000D03*
G04 #@! TD*
G04 #@! TO.C,R15*
X69300000Y15940000D03*
X69300000Y17640000D03*
G04 #@! TD*
G04 #@! TO.C,R14*
X57890000Y15300000D03*
X57890000Y17000000D03*
G04 #@! TD*
G04 #@! TO.C,C2*
X117500000Y50360000D03*
X117500000Y48660000D03*
G04 #@! TD*
D28*
G04 #@! TO.C,U6*
X28927500Y9272500D03*
X29877500Y9272500D03*
X30827500Y9272500D03*
X30827500Y11547500D03*
X29877500Y11547500D03*
X28927500Y11547500D03*
G04 #@! TD*
D20*
G04 #@! TO.C,C28*
X110575000Y25620000D03*
X110575000Y27320000D03*
G04 #@! TD*
D25*
G04 #@! TO.C,C18*
X86685000Y7170000D03*
X86685000Y4270000D03*
G04 #@! TD*
D20*
G04 #@! TO.C,C25*
X54556000Y43807500D03*
X54556000Y45507500D03*
G04 #@! TD*
G04 #@! TO.C,C35*
X89990000Y46140000D03*
X89990000Y47840000D03*
G04 #@! TD*
G04 #@! TO.C,C5*
X45680000Y32570000D03*
X47380000Y32570000D03*
G04 #@! TD*
G04 #@! TO.C,R9*
X90620000Y22850000D03*
X88920000Y22850000D03*
G04 #@! TD*
G04 #@! TO.C,C13*
X84055000Y16970000D03*
X85755000Y16970000D03*
G04 #@! TD*
D29*
G04 #@! TO.C,J12*
X63870000Y26955000D03*
D30*
X61330000Y26955000D03*
X58790000Y26955000D03*
X56250000Y26955000D03*
G04 #@! TD*
D27*
G04 #@! TO.C,H4*
X4000000Y4000000D03*
G04 #@! TD*
D20*
G04 #@! TO.C,C15*
X89200000Y24460000D03*
X89200000Y26160000D03*
G04 #@! TD*
D25*
G04 #@! TO.C,C36*
X83210000Y41210000D03*
X83210000Y44110000D03*
G04 #@! TD*
D20*
G04 #@! TO.C,C14*
X92530000Y27750000D03*
X90830000Y27750000D03*
G04 #@! TD*
G04 #@! TO.C,C8*
X76260000Y19950000D03*
X74560000Y19950000D03*
G04 #@! TD*
D23*
G04 #@! TO.C,TP13*
X71370000Y27700000D03*
G04 #@! TD*
D31*
G04 #@! TO.C,V12*
X45850000Y37877500D03*
X45850000Y35977500D03*
X47848980Y36927500D03*
G04 #@! TD*
D23*
G04 #@! TO.C,TP2*
X90700000Y15340000D03*
G04 #@! TD*
D20*
G04 #@! TO.C,C16*
X87390000Y24460000D03*
X87390000Y26160000D03*
G04 #@! TD*
G04 #@! TO.C,C3*
X59900000Y29820000D03*
X58200000Y29820000D03*
G04 #@! TD*
G04 #@! TO.C,C40*
X45890000Y39777500D03*
X47590000Y39777500D03*
G04 #@! TD*
G04 #@! TO.C,C30*
X110880000Y19370000D03*
X110880000Y21070000D03*
G04 #@! TD*
D32*
G04 #@! TO.C,L11*
X88120000Y49190000D03*
X85320000Y49190000D03*
G04 #@! TD*
D20*
G04 #@! TO.C,C4*
X45750000Y34360000D03*
X47450000Y34360000D03*
G04 #@! TD*
D33*
G04 #@! TO.C,U1*
X58180000Y40772500D03*
X57680000Y40772500D03*
X57180000Y40772500D03*
X56680000Y40772500D03*
X56180000Y40772500D03*
X55680000Y40772500D03*
X55180000Y40772500D03*
X54680000Y40772500D03*
X54180000Y40772500D03*
X53680000Y40772500D03*
X53180000Y40772500D03*
X52680000Y40772500D03*
D34*
X51267500Y39360000D03*
X51267500Y38860000D03*
X51267500Y38360000D03*
X51267500Y37860000D03*
X51267500Y37360000D03*
X51267500Y36860000D03*
X51267500Y36360000D03*
X51267500Y35860000D03*
X51267500Y35360000D03*
X51267500Y34860000D03*
X51267500Y34360000D03*
X51267500Y33860000D03*
D33*
X52680000Y32447500D03*
X53180000Y32447500D03*
X53680000Y32447500D03*
X54180000Y32447500D03*
X54680000Y32447500D03*
X55180000Y32447500D03*
X55680000Y32447500D03*
X56180000Y32447500D03*
X56680000Y32447500D03*
X57180000Y32447500D03*
X57680000Y32447500D03*
X58180000Y32447500D03*
D34*
X59592500Y33860000D03*
X59592500Y34360000D03*
X59592500Y34860000D03*
X59592500Y35360000D03*
X59592500Y35860000D03*
X59592500Y36360000D03*
X59592500Y36860000D03*
X59592500Y37360000D03*
X59592500Y37860000D03*
X59592500Y38360000D03*
X59592500Y38860000D03*
X59592500Y39360000D03*
G04 #@! TD*
D20*
G04 #@! TO.C,R6*
X75350000Y36980000D03*
X77050000Y36980000D03*
G04 #@! TD*
D35*
G04 #@! TO.C,J6*
X82020000Y1920000D03*
X84560000Y1920000D03*
X87100000Y1920000D03*
G04 #@! TD*
D23*
G04 #@! TO.C,TP7*
X77940000Y4970000D03*
G04 #@! TD*
D36*
G04 #@! TO.C,U3*
X108325000Y24630000D03*
X108325000Y25580000D03*
X108325000Y26530000D03*
X106125000Y26530000D03*
X106125000Y24630000D03*
G04 #@! TD*
D20*
G04 #@! TO.C,C22*
X116990000Y15950000D03*
X116990000Y14250000D03*
G04 #@! TD*
D37*
G04 #@! TO.C,NT2*
X89490000Y27480000D03*
X88990000Y27480000D03*
G04 #@! TD*
D20*
G04 #@! TO.C,C10*
X86550000Y21770000D03*
X86550000Y20070000D03*
G04 #@! TD*
G04 #@! TO.C,R12*
X74420000Y23970000D03*
X76120000Y23970000D03*
G04 #@! TD*
D38*
G04 #@! TO.C,J4*
X25370000Y1975000D03*
X34010000Y1975000D03*
D39*
X25370000Y5975000D03*
X34010000Y5975000D03*
G04 #@! TD*
D20*
G04 #@! TO.C,C12*
X85770000Y26200000D03*
X85770000Y24500000D03*
G04 #@! TD*
D23*
G04 #@! TO.C,TP1*
X104850000Y15790000D03*
G04 #@! TD*
D20*
G04 #@! TO.C,R11*
X71210000Y19670000D03*
X69510000Y19670000D03*
G04 #@! TD*
D23*
G04 #@! TO.C,TP5*
X75400000Y2430000D03*
G04 #@! TD*
D26*
G04 #@! TO.C,J2*
X97470000Y22890000D03*
X100010000Y22890000D03*
G04 #@! TD*
D20*
G04 #@! TO.C,C23*
X99700000Y15030000D03*
X101400000Y15030000D03*
G04 #@! TD*
D40*
G04 #@! TO.C,U5*
X83010000Y23960000D03*
X82510000Y23960000D03*
X82010000Y23960000D03*
X81510000Y23960000D03*
X81010000Y23960000D03*
X80510000Y23960000D03*
X80010000Y23960000D03*
X79510000Y23960000D03*
D41*
X78822500Y23272500D03*
X78822500Y22772500D03*
X78822500Y22272500D03*
X78822500Y21772500D03*
X78822500Y21272500D03*
X78822500Y20772500D03*
X78822500Y20272500D03*
X78822500Y19772500D03*
D40*
X79510000Y19085000D03*
X80010000Y19085000D03*
X80510000Y19085000D03*
X81010000Y19085000D03*
X81510000Y19085000D03*
X82010000Y19085000D03*
X82510000Y19085000D03*
X83010000Y19085000D03*
D41*
X83697500Y19772500D03*
X83697500Y20272500D03*
X83697500Y20772500D03*
X83697500Y21272500D03*
X83697500Y21772500D03*
X83697500Y22272500D03*
X83697500Y22772500D03*
X83697500Y23272500D03*
D42*
X81260000Y21522500D03*
G04 #@! TD*
D25*
G04 #@! TO.C,C17*
X81985000Y7295000D03*
X81985000Y4395000D03*
G04 #@! TD*
D43*
G04 #@! TO.C,C303*
X36780000Y34810000D03*
X34880000Y34810000D03*
G04 #@! TD*
D20*
G04 #@! TO.C,C7*
X76250000Y21550000D03*
X74550000Y21550000D03*
G04 #@! TD*
D23*
G04 #@! TO.C,TP6*
X77940000Y2430000D03*
G04 #@! TD*
D20*
G04 #@! TO.C,C29*
X117100000Y20070000D03*
X117100000Y21770000D03*
G04 #@! TD*
D25*
G04 #@! TO.C,C37*
X78840000Y48922500D03*
X78840000Y46022500D03*
G04 #@! TD*
D20*
G04 #@! TO.C,R25*
X91830000Y42040000D03*
X90130000Y42040000D03*
G04 #@! TD*
D23*
G04 #@! TO.C,TP11*
X84620000Y28320000D03*
G04 #@! TD*
D20*
G04 #@! TO.C,C33*
X62570000Y40840000D03*
X62570000Y39140000D03*
G04 #@! TD*
G04 #@! TO.C,C26*
X93700120Y15961751D03*
X93700120Y14261751D03*
G04 #@! TD*
G04 #@! TO.C,C21*
X107790000Y16044092D03*
X107790000Y14344092D03*
G04 #@! TD*
G04 #@! TO.C,R10*
X60090000Y19090000D03*
X58390000Y19090000D03*
G04 #@! TD*
D44*
G04 #@! TO.C,JP1*
X90512000Y20730000D03*
X88990540Y20730000D03*
G04 #@! TD*
D45*
G04 #@! TO.C,NT11*
X44720000Y36270000D03*
X44720000Y35770000D03*
G04 #@! TD*
D23*
G04 #@! TO.C,TP3*
X59990000Y22340000D03*
G04 #@! TD*
D26*
G04 #@! TO.C,J8*
X22430000Y9120000D03*
X22430000Y6580000D03*
G04 #@! TD*
D46*
G04 #@! TO.C,V11*
X85442850Y45620000D03*
X85442850Y44670000D03*
X85442850Y43720000D03*
X88062850Y43720000D03*
X88062850Y44670000D03*
X88062850Y45620000D03*
G04 #@! TD*
D20*
G04 #@! TO.C,C11*
X80680000Y25700000D03*
X78980000Y25700000D03*
G04 #@! TD*
G04 #@! TO.C,R8*
X75390000Y33750000D03*
X77090000Y33750000D03*
G04 #@! TD*
D27*
G04 #@! TO.C,H2*
X123860000Y43820000D03*
G04 #@! TD*
D23*
G04 #@! TO.C,TP14*
X75400000Y4970000D03*
G04 #@! TD*
D20*
G04 #@! TO.C,R2*
X75370000Y32130000D03*
X77070000Y32130000D03*
G04 #@! TD*
D43*
G04 #@! TO.C,C6*
X36720000Y32900000D03*
X34820000Y32900000D03*
G04 #@! TD*
D20*
G04 #@! TO.C,C31*
X29430000Y42060000D03*
X29430000Y40360000D03*
G04 #@! TD*
D47*
G04 #@! TO.C,U112*
X34685000Y38567500D03*
X34685000Y37617500D03*
X34685000Y36667500D03*
X36960000Y36667500D03*
X36960000Y37617500D03*
X36960000Y38567500D03*
G04 #@! TD*
D27*
G04 #@! TO.C,H1*
X4000000Y49480000D03*
G04 #@! TD*
D20*
G04 #@! TO.C,C27*
X104425000Y24810000D03*
X104425000Y26510000D03*
G04 #@! TD*
G04 #@! TO.C,R1*
X19980000Y7220000D03*
X19980000Y8920000D03*
G04 #@! TD*
G04 #@! TO.C,R5*
X31782500Y36167500D03*
X31782500Y37867500D03*
G04 #@! TD*
D48*
G04 #@! TO.C,U7*
X33962500Y30150000D03*
X33962500Y30650000D03*
X33962500Y31150000D03*
X32537500Y31150000D03*
X32537500Y30650000D03*
X32537500Y30150000D03*
G04 #@! TD*
D49*
G04 #@! TO.C,C38*
X83420000Y48912500D03*
X83420000Y47012500D03*
G04 #@! TD*
D50*
G04 #@! TO.C,C300*
X38832500Y39952500D03*
X38832500Y38982500D03*
G04 #@! TD*
D51*
G04 #@! TO.C,X10*
X56676000Y44377500D03*
X58776000Y45877500D03*
X58776000Y44377500D03*
X56676000Y45877500D03*
G04 #@! TD*
D20*
G04 #@! TO.C,R7*
X75370000Y35380000D03*
X77070000Y35380000D03*
G04 #@! TD*
D36*
G04 #@! TO.C,U4*
X114960000Y19270000D03*
X114960000Y20220000D03*
X114960000Y21170000D03*
X112760000Y21170000D03*
X112760000Y19270000D03*
G04 #@! TD*
D52*
G04 #@! TO.C,POT1*
X24490000Y39565000D03*
X24490000Y35815000D03*
X24490000Y43315000D03*
X24490000Y32065000D03*
X111990000Y43315000D03*
X111990000Y32065000D03*
X20240000Y16690000D03*
X7840000Y16690000D03*
D27*
X94090000Y37690000D03*
X42390000Y37690000D03*
D52*
X111990000Y39565000D03*
G04 #@! TD*
D53*
G04 #@! TO.C,U2*
X121090000Y50280000D03*
D54*
X123630000Y50280000D03*
X126170000Y50280000D03*
G04 #@! TD*
D55*
G04 #@! TO.C,J7*
X116690000Y8910000D03*
D27*
X114490000Y5310000D03*
X100490000Y5310000D03*
D55*
X90790000Y8910000D03*
D56*
X114490000Y12660000D03*
X100490000Y12660000D03*
G04 #@! TD*
D55*
G04 #@! TO.C,J5*
X71040000Y8910000D03*
D27*
X68840000Y5310000D03*
X54840000Y5310000D03*
D55*
X45140000Y8910000D03*
D56*
X68840000Y12660000D03*
X54840000Y12660000D03*
G04 #@! TD*
%LPD*%
M02*
